<svg width="147" height="52" viewBox="0 0 147 52" fill="none" xmlns="http://www.w3.org/2000/svg">
<rect x="0.25" y="0.25" width="146.5" height="51.5" rx="25.75" fill="#2F80ED"/>
<path d="M32.1724 31.5L36.9574 20.925H38.5774L43.4224 31.5H41.4574L40.1674 28.53L40.9474 29.055H34.6024L35.4124 28.53L34.1224 31.5H32.1724ZM37.7524 22.995L35.6374 28.005L35.2474 27.54H40.2874L39.9724 28.005L37.8124 22.995H37.7524ZM50.5426 31.65C49.4426 31.65 48.4976 31.43 47.7076 30.99C46.9276 30.54 46.3276 29.91 45.9076 29.1C45.4876 28.28 45.2776 27.315 45.2776 26.205C45.2776 25.095 45.4876 24.135 45.9076 23.325C46.3276 22.515 46.9276 21.89 47.7076 21.45C48.4976 21 49.4426 20.775 50.5426 20.775C51.2826 20.775 51.9476 20.88 52.5376 21.09C53.1376 21.3 53.6526 21.61 54.0826 22.02L53.4526 23.55C52.9826 23.17 52.5276 22.9 52.0876 22.74C51.6576 22.57 51.1626 22.485 50.6026 22.485C49.5326 22.485 48.7126 22.81 48.1426 23.46C47.5826 24.1 47.3026 25.015 47.3026 26.205C47.3026 27.395 47.5826 28.315 48.1426 28.965C48.7126 29.615 49.5326 29.94 50.6026 29.94C51.1626 29.94 51.6576 29.86 52.0876 29.7C52.5276 29.53 52.9826 29.25 53.4526 28.86L54.0826 30.39C53.6526 30.79 53.1376 31.1 52.5376 31.32C51.9476 31.54 51.2826 31.65 50.5426 31.65ZM59.4847 31.5V22.515H55.9897V20.925H64.9147V22.515H61.4197V31.5H59.4847ZM67.5318 31.5V20.925H69.4668V31.5H67.5318ZM76.4645 31.5L71.7545 20.925H73.8395L77.6345 29.805H77.0045L80.7995 20.925H82.8095L78.0995 31.5H76.4645ZM83.0415 31.5L87.8265 20.925H89.4465L94.2915 31.5H92.3265L91.0365 28.53L91.8165 29.055H85.4715L86.2815 28.53L84.9915 31.5H83.0415ZM88.6215 22.995L86.5065 28.005L86.1165 27.54H91.1565L90.8415 28.005L88.6815 22.995H88.6215ZM98.0296 31.5V22.515H94.5346V20.925H103.46V22.515H99.9646V31.5H98.0296ZM106.077 31.5V20.925H113.202V22.44H107.937V25.365H112.857V26.895H107.937V29.97H113.202V31.5H106.077Z" fill="white"/>
<rect x="0.25" y="0.25" width="146.5" height="51.5" rx="25.75" stroke="#323F4B" stroke-width="0.5"/>
</svg>
