<svg width="278" height="52" viewBox="0 0 278 52" fill="none" xmlns="http://www.w3.org/2000/svg">
<rect x="0.25" y="0.25" width="277.5" height="51.5" rx="25.75" fill="#2F80ED"/>
<path d="M69.4483 31.5V20.925H74.1433C75.3033 20.925 76.1883 21.205 76.7983 21.765C77.4083 22.325 77.7133 23.095 77.7133 24.075C77.7133 25.045 77.4083 25.815 76.7983 26.385C76.1883 26.955 75.3033 27.24 74.1433 27.24H71.3833V31.5H69.4483ZM71.3833 25.71H73.9183C74.5583 25.71 75.0383 25.57 75.3583 25.29C75.6783 25 75.8383 24.595 75.8383 24.075C75.8383 23.555 75.6783 23.155 75.3583 22.875C75.0383 22.585 74.5583 22.44 73.9183 22.44H71.3833V25.71ZM80.6886 31.5V20.925H85.3086C86.4686 20.925 87.3636 21.2 87.9936 21.75C88.6336 22.3 88.9536 23.065 88.9536 24.045C88.9536 24.695 88.8086 25.25 88.5186 25.71C88.2386 26.17 87.8336 26.525 87.3036 26.775C86.7736 27.015 86.1486 27.135 85.4286 27.135L85.6386 26.85H86.1486C86.5686 26.85 86.9436 26.96 87.2736 27.18C87.6036 27.4 87.8736 27.735 88.0836 28.185L89.6286 31.5H87.4986L85.9386 28.065C85.7986 27.715 85.5836 27.485 85.2936 27.375C85.0136 27.265 84.6736 27.21 84.2736 27.21H82.6236V31.5H80.6886ZM82.6236 25.785H84.9936C85.6736 25.785 86.1886 25.645 86.5386 25.365C86.8986 25.075 87.0786 24.655 87.0786 24.105C87.0786 23.555 86.8986 23.14 86.5386 22.86C86.1886 22.58 85.6736 22.44 84.9936 22.44H82.6236V25.785ZM92.4708 31.5V20.925H94.4058V31.5H92.4708ZM101.403 31.5L96.6935 20.925H98.7785L102.573 29.805H101.943L105.738 20.925H107.748L103.038 31.5H101.403ZM107.98 31.5L112.765 20.925H114.385L119.23 31.5H117.265L115.975 28.53L116.755 29.055H110.41L111.22 28.53L109.93 31.5H107.98ZM113.56 22.995L111.445 28.005L111.055 27.54H116.095L115.78 28.005L113.62 22.995H113.56ZM126.351 31.65C125.251 31.65 124.306 31.43 123.516 30.99C122.736 30.54 122.136 29.91 121.716 29.1C121.296 28.28 121.086 27.315 121.086 26.205C121.086 25.095 121.296 24.135 121.716 23.325C122.136 22.515 122.736 21.89 123.516 21.45C124.306 21 125.251 20.775 126.351 20.775C127.091 20.775 127.756 20.88 128.346 21.09C128.946 21.3 129.461 21.61 129.891 22.02L129.261 23.55C128.791 23.17 128.336 22.9 127.896 22.74C127.466 22.57 126.971 22.485 126.411 22.485C125.341 22.485 124.521 22.81 123.951 23.46C123.391 24.1 123.111 25.015 123.111 26.205C123.111 27.395 123.391 28.315 123.951 28.965C124.521 29.615 125.341 29.94 126.411 29.94C126.971 29.94 127.466 29.86 127.896 29.7C128.336 29.53 128.791 29.25 129.261 28.86L129.891 30.39C129.461 30.79 128.946 31.1 128.346 31.32C127.756 31.54 127.091 31.65 126.351 31.65ZM135.31 31.5V26.505L135.715 27.66L131.17 20.925H133.405L136.525 25.725H136.105L139.225 20.925H141.385L136.855 27.66L137.245 26.505V31.5H135.31ZM148.779 31.5V20.925H153.474C154.634 20.925 155.519 21.205 156.129 21.765C156.739 22.325 157.044 23.095 157.044 24.075C157.044 25.045 156.739 25.815 156.129 26.385C155.519 26.955 154.634 27.24 153.474 27.24H150.714V31.5H148.779ZM150.714 25.71H153.249C153.889 25.71 154.369 25.57 154.689 25.29C155.009 25 155.169 24.595 155.169 24.075C155.169 23.555 155.009 23.155 154.689 22.875C154.369 22.585 153.889 22.44 153.249 22.44H150.714V25.71ZM159.601 26.205C159.601 25.095 159.801 24.135 160.201 23.325C160.611 22.515 161.196 21.89 161.956 21.45C162.716 21 163.621 20.775 164.671 20.775C165.711 20.775 166.611 21 167.371 21.45C168.131 21.89 168.716 22.515 169.126 23.325C169.546 24.135 169.756 25.09 169.756 26.19C169.756 27.3 169.546 28.265 169.126 29.085C168.716 29.895 168.131 30.525 167.371 30.975C166.611 31.425 165.711 31.65 164.671 31.65C163.621 31.65 162.716 31.425 161.956 30.975C161.206 30.525 160.626 29.895 160.216 29.085C159.806 28.265 159.601 27.305 159.601 26.205ZM161.626 26.205C161.626 27.395 161.881 28.325 162.391 28.995C162.901 29.665 163.661 30 164.671 30C165.651 30 166.406 29.665 166.936 28.995C167.466 28.325 167.731 27.395 167.731 26.205C167.731 25.005 167.466 24.075 166.936 23.415C166.416 22.755 165.661 22.425 164.671 22.425C163.661 22.425 162.901 22.755 162.391 23.415C161.881 24.075 161.626 25.005 161.626 26.205ZM173.003 31.5V20.925H174.938V29.865H179.918V31.5H173.003ZM182.647 31.5V20.925H184.582V31.5H182.647ZM193.079 31.65C191.979 31.65 191.034 31.43 190.244 30.99C189.464 30.54 188.864 29.91 188.444 29.1C188.024 28.28 187.814 27.315 187.814 26.205C187.814 25.095 188.024 24.135 188.444 23.325C188.864 22.515 189.464 21.89 190.244 21.45C191.034 21 191.979 20.775 193.079 20.775C193.819 20.775 194.484 20.88 195.074 21.09C195.674 21.3 196.189 21.61 196.619 22.02L195.989 23.55C195.519 23.17 195.064 22.9 194.624 22.74C194.194 22.57 193.699 22.485 193.139 22.485C192.069 22.485 191.249 22.81 190.679 23.46C190.119 24.1 189.839 25.015 189.839 26.205C189.839 27.395 190.119 28.315 190.679 28.965C191.249 29.615 192.069 29.94 193.139 29.94C193.699 29.94 194.194 29.86 194.624 29.7C195.064 29.53 195.519 29.25 195.989 28.86L196.619 30.39C196.189 30.79 195.674 31.1 195.074 31.32C194.484 31.54 193.819 31.65 193.079 31.65ZM202.038 31.5V26.505L202.443 27.66L197.898 20.925H200.133L203.253 25.725H202.833L205.953 20.925H208.113L203.583 27.66L203.973 26.505V31.5H202.038Z" fill="white"/>
<rect x="0.25" y="0.25" width="277.5" height="51.5" rx="25.75" stroke="#323F4B" stroke-width="0.5"/>
</svg>
