<svg width="278" height="52" viewBox="0 0 278 52" fill="none" xmlns="http://www.w3.org/2000/svg">
<rect x="0.25" y="0.25" width="277.5" height="51.5" rx="25.75" fill="#2F80ED"/>
<path d="M113.511 31.5V20.925H115.446V29.865H120.426V31.5H113.511ZM122.238 26.205C122.238 25.095 122.438 24.135 122.838 23.325C123.248 22.515 123.833 21.89 124.593 21.45C125.353 21 126.258 20.775 127.308 20.775C128.348 20.775 129.248 21 130.008 21.45C130.768 21.89 131.353 22.515 131.763 23.325C132.183 24.135 132.393 25.09 132.393 26.19C132.393 27.3 132.183 28.265 131.763 29.085C131.353 29.895 130.768 30.525 130.008 30.975C129.248 31.425 128.348 31.65 127.308 31.65C126.258 31.65 125.353 31.425 124.593 30.975C123.843 30.525 123.263 29.895 122.853 29.085C122.443 28.265 122.238 27.305 122.238 26.205ZM124.263 26.205C124.263 27.395 124.518 28.325 125.028 28.995C125.538 29.665 126.298 30 127.308 30C128.288 30 129.043 29.665 129.573 28.995C130.103 28.325 130.368 27.395 130.368 26.205C130.368 25.005 130.103 24.075 129.573 23.415C129.053 22.755 128.298 22.425 127.308 22.425C126.298 22.425 125.538 22.755 125.028 23.415C124.518 24.075 124.263 25.005 124.263 26.205ZM140.74 31.65C139.55 31.65 138.55 31.43 137.74 30.99C136.93 30.55 136.32 29.925 135.91 29.115C135.5 28.305 135.295 27.345 135.295 26.235C135.295 25.115 135.515 24.15 135.955 23.34C136.395 22.52 137.025 21.89 137.845 21.45C138.675 21 139.67 20.775 140.83 20.775C141.6 20.775 142.275 20.88 142.855 21.09C143.435 21.29 143.945 21.585 144.385 21.975L143.74 23.475C143.42 23.225 143.115 23.025 142.825 22.875C142.535 22.725 142.235 22.62 141.925 22.56C141.615 22.49 141.255 22.455 140.845 22.455C139.685 22.455 138.805 22.785 138.205 23.445C137.615 24.095 137.32 25.03 137.32 26.25C137.32 27.47 137.6 28.4 138.16 29.04C138.73 29.68 139.62 30 140.83 30C141.24 30 141.65 29.96 142.06 29.88C142.48 29.8 142.89 29.685 143.29 29.535L142.93 30.345V27.18H140.455V25.77H144.535V30.855C144.045 31.105 143.46 31.3 142.78 31.44C142.1 31.58 141.42 31.65 140.74 31.65ZM147.993 31.5V20.925H149.928V31.5H147.993ZM153.506 31.5V20.925H154.961L161.096 28.86H160.706V20.925H162.506V31.5H161.051L154.931 23.565H155.306V31.5H153.506Z" fill="white"/>
<rect x="0.25" y="0.25" width="277.5" height="51.5" rx="25.75" stroke="#323F4B" stroke-width="0.5"/>
</svg>
