<svg width="114" height="82" viewBox="0 0 114 82" fill="none" xmlns="http://www.w3.org/2000/svg">
<rect x="2" y="2" width="110" height="78" rx="39" fill="#FF6B00" fill-opacity="0.26"/>
<path d="M26.4162 51.5V30.35H35.8062C38.1262 30.35 39.8962 30.91 41.1162 32.03C42.3362 33.15 42.9462 34.69 42.9462 36.65C42.9462 38.59 42.3362 40.13 41.1162 41.27C39.8962 42.41 38.1262 42.98 35.8062 42.98H30.2862V51.5H26.4162ZM30.2862 39.92H35.3562C36.6362 39.92 37.5962 39.64 38.2362 39.08C38.8762 38.5 39.1962 37.69 39.1962 36.65C39.1962 35.61 38.8762 34.81 38.2362 34.25C37.5962 33.67 36.6362 33.38 35.3562 33.38H30.2862V39.92ZM43.1094 51.5L52.6794 30.35H55.9194L65.6094 51.5H61.6794L59.0994 45.56L60.6594 46.61H47.9694L49.5894 45.56L47.0094 51.5H43.1094ZM54.2694 34.49L50.0394 44.51L49.2594 43.58H59.3394L58.7094 44.51L54.3894 34.49H54.2694ZM69.1994 51.5V30.35H78.4394C80.7594 30.35 82.5494 30.9 83.8094 32C85.0894 33.1 85.7294 34.63 85.7294 36.59C85.7294 37.89 85.4394 39 84.8594 39.92C84.2994 40.84 83.4894 41.55 82.4294 42.05C81.3694 42.53 80.1194 42.77 78.6794 42.77L79.0994 42.2H80.1194C80.9594 42.2 81.7094 42.42 82.3694 42.86C83.0294 43.3 83.5694 43.97 83.9894 44.87L87.0794 51.5H82.8194L79.6994 44.63C79.4194 43.93 78.9894 43.47 78.4094 43.25C77.8494 43.03 77.1694 42.92 76.3694 42.92H73.0694V51.5H69.1994ZM73.0694 40.07H77.8094C79.1694 40.07 80.1994 39.79 80.8994 39.23C81.6194 38.65 81.9794 37.81 81.9794 36.71C81.9794 35.61 81.6194 34.78 80.8994 34.22C80.1994 33.66 79.1694 33.38 77.8094 33.38H73.0694V40.07Z" fill="#FF6B00"/>
<rect x="2" y="2" width="110" height="78" rx="39" stroke="#FF6B00" stroke-width="4"/>
</svg>
