<svg width="211" height="118" viewBox="0 0 211 118" fill="none" xmlns="http://www.w3.org/2000/svg">
<rect x="2" y="2" width="207" height="114" rx="57" fill="#2F80ED" fill-opacity="0.17"/>
<rect x="2" y="2" width="207" height="114" rx="57" stroke="#2F80ED" stroke-width="4"/>
<path d="M56.3157 44L46.8957 22.85H51.0657L58.6557 40.61H57.3957L64.9857 22.85H69.0057L59.5857 44H56.3157ZM72.3468 44V22.85H76.2168V44H72.3468ZM82.1222 44V22.85H96.3722V25.88H85.8422V31.73H95.6822V34.79H85.8422V40.94H96.3722V44H82.1222ZM107.006 44L99.5361 22.85H103.556L109.316 40.19H108.116L114.326 22.85H117.206L122.966 40.19H121.856L127.886 22.85H131.666L124.136 44H120.926L115.346 27.74H116.006L110.216 44H107.006ZM145.491 44V22.85H154.761C157.061 22.85 158.831 23.34 160.071 24.32C161.311 25.28 161.931 26.62 161.931 28.34C161.931 29.62 161.551 30.7 160.791 31.58C160.031 32.46 158.981 33.05 157.641 33.35V32.9C159.181 33.12 160.371 33.68 161.211 34.58C162.071 35.46 162.501 36.63 162.501 38.09C162.501 39.97 161.851 41.43 160.551 42.47C159.251 43.49 157.441 44 155.121 44H145.491ZM149.211 41.06H154.671C155.971 41.06 156.981 40.82 157.701 40.34C158.421 39.84 158.781 39.03 158.781 37.91C158.781 36.77 158.421 35.96 157.701 35.48C156.981 34.98 155.971 34.73 154.671 34.73H149.211V41.06ZM149.211 31.82H154.101C155.481 31.82 156.501 31.57 157.161 31.07C157.841 30.55 158.181 29.79 158.181 28.79C158.181 27.79 157.841 27.04 157.161 26.54C156.501 26.02 155.481 25.76 154.101 25.76H149.211V31.82Z" fill="#2F80ED"/>
<path fill-rule="evenodd" clip-rule="evenodd" d="M78.5 79C78.5 79 88.5 59 106 59C123.5 59 133.5 79 133.5 79C133.5 79 123.5 99 106 99C88.5 99 78.5 79 78.5 79Z" stroke="#2F80ED" stroke-width="5" stroke-linecap="round" stroke-linejoin="round"/>
<path fill-rule="evenodd" clip-rule="evenodd" d="M106 86.5C110.142 86.5 113.5 83.1421 113.5 79C113.5 74.8579 110.142 71.5 106 71.5C101.858 71.5 98.5 74.8579 98.5 79C98.5 83.1421 101.858 86.5 106 86.5Z" stroke="#2F80ED" stroke-width="5" stroke-linecap="round" stroke-linejoin="round"/>
</svg>
