<svg width="114" height="82" viewBox="0 0 114 82" fill="none" xmlns="http://www.w3.org/2000/svg">
<rect x="2" y="2" width="110" height="78" rx="39" fill="#2F80ED" fill-opacity="0.26"/>
<path d="M36.6213 51.5V30.35H44.3013C46.7213 30.35 48.7613 30.77 50.4213 31.61C52.1013 32.43 53.3713 33.63 54.2313 35.21C55.0913 36.77 55.5213 38.67 55.5213 40.91C55.5213 43.13 55.0913 45.03 54.2313 46.61C53.3713 48.19 52.1013 49.4 50.4213 50.24C48.7613 51.08 46.7213 51.5 44.3013 51.5H36.6213ZM40.4913 48.29H44.0613C46.6213 48.29 48.5213 47.68 49.7613 46.46C51.0013 45.24 51.6213 43.39 51.6213 40.91C51.6213 38.41 51.0013 36.56 49.7613 35.36C48.5213 34.14 46.6213 33.53 44.0613 33.53H40.4913V48.29ZM68.1028 51.8C66.4028 51.8 64.8328 51.59 63.3928 51.17C61.9728 50.73 60.7528 50.13 59.7328 49.37L60.9328 46.34C61.6128 46.82 62.3228 47.23 63.0628 47.57C63.8028 47.89 64.5928 48.14 65.4328 48.32C66.2728 48.48 67.1628 48.56 68.1028 48.56C69.6828 48.56 70.8228 48.3 71.5228 47.78C72.2228 47.26 72.5728 46.58 72.5728 45.74C72.5728 45 72.3328 44.44 71.8528 44.06C71.3728 43.66 70.5128 43.33 69.2728 43.07L65.8828 42.38C63.9428 41.98 62.4928 41.31 61.5328 40.37C60.5728 39.43 60.0928 38.17 60.0928 36.59C60.0928 35.27 60.4428 34.12 61.1428 33.14C61.8428 32.16 62.8228 31.4 64.0828 30.86C65.3428 30.32 66.8128 30.05 68.4928 30.05C69.9928 30.05 71.3828 30.27 72.6628 30.71C73.9428 31.13 75.0128 31.74 75.8728 32.54L74.6728 35.42C73.8128 34.7 72.8728 34.17 71.8528 33.83C70.8328 33.47 69.6928 33.29 68.4328 33.29C67.0128 33.29 65.9028 33.57 65.1028 34.13C64.3228 34.67 63.9328 35.42 63.9328 36.38C63.9328 37.12 64.1728 37.71 64.6528 38.15C65.1528 38.59 65.9928 38.93 67.1728 39.17L70.5328 39.83C72.5328 40.23 74.0128 40.89 74.9728 41.81C75.9328 42.71 76.4128 43.93 76.4128 45.47C76.4128 46.73 76.0728 47.84 75.3928 48.8C74.7128 49.74 73.7528 50.48 72.5128 51.02C71.2728 51.54 69.8028 51.8 68.1028 51.8Z" fill="#2F80ED"/>
<rect x="2" y="2" width="110" height="78" rx="39" stroke="#2F80ED" stroke-width="4"/>
</svg>
