<svg width="160" height="52" viewBox="0 0 160 52" fill="none" xmlns="http://www.w3.org/2000/svg">
<rect x="0.25" y="0.25" width="159.5" height="51.5" rx="25.75" fill="#2F80ED"/>
<path d="M25.077 31.5V22.515H21.582V20.925H30.507V22.515H27.012V31.5H25.077ZM33.1241 31.5V20.925H37.7441C38.9041 20.925 39.7991 21.2 40.4291 21.75C41.0691 22.3 41.3891 23.065 41.3891 24.045C41.3891 24.695 41.2441 25.25 40.9541 25.71C40.6741 26.17 40.2691 26.525 39.7391 26.775C39.2091 27.015 38.5841 27.135 37.8641 27.135L38.0741 26.85H38.5841C39.0041 26.85 39.3791 26.96 39.7091 27.18C40.0391 27.4 40.3091 27.735 40.5191 28.185L42.0641 31.5H39.9341L38.3741 28.065C38.2341 27.715 38.0191 27.485 37.7291 27.375C37.4491 27.265 37.1091 27.21 36.7091 27.21H35.0591V31.5H33.1241ZM35.0591 25.785H37.4291C38.1091 25.785 38.6241 25.645 38.9741 25.365C39.3341 25.075 39.5141 24.655 39.5141 24.105C39.5141 23.555 39.3341 23.14 38.9741 22.86C38.6241 22.58 38.1091 22.44 37.4291 22.44H35.0591V25.785ZM43.5459 31.5L48.3309 20.925H49.9509L54.7959 31.5H52.8309L51.5409 28.53L52.3209 29.055H45.9759L46.7859 28.53L45.4959 31.5H43.5459ZM49.1259 22.995L47.0109 28.005L46.6209 27.54H51.6609L51.3459 28.005L49.1859 22.995H49.1259ZM61.9162 31.65C60.8162 31.65 59.8712 31.43 59.0812 30.99C58.3012 30.54 57.7012 29.91 57.2812 29.1C56.8612 28.28 56.6512 27.315 56.6512 26.205C56.6512 25.095 56.8612 24.135 57.2812 23.325C57.7012 22.515 58.3012 21.89 59.0812 21.45C59.8712 21 60.8162 20.775 61.9162 20.775C62.6562 20.775 63.3212 20.88 63.9112 21.09C64.5112 21.3 65.0262 21.61 65.4562 22.02L64.8262 23.55C64.3562 23.17 63.9012 22.9 63.4612 22.74C63.0312 22.57 62.5362 22.485 61.9762 22.485C60.9062 22.485 60.0862 22.81 59.5162 23.46C58.9562 24.1 58.6762 25.015 58.6762 26.205C58.6762 27.395 58.9562 28.315 59.5162 28.965C60.0862 29.615 60.9062 29.94 61.9762 29.94C62.5362 29.94 63.0312 29.86 63.4612 29.7C63.9012 29.53 64.3562 29.25 64.8262 28.86L65.4562 30.39C65.0262 30.79 64.5112 31.1 63.9112 31.32C63.3212 31.54 62.6562 31.65 61.9162 31.65ZM68.5147 31.5V20.925H70.4497V25.605H70.4797L75.0847 20.925H77.4247L71.9047 26.43L71.9197 25.59L77.7847 31.5H75.3697L70.4797 26.61H70.4497V31.5H68.5147ZM88.0612 31.5L84.3262 20.925H86.3362L89.2162 29.595H88.6162L91.7212 20.925H93.1612L96.0412 29.595H95.4862L98.5012 20.925H100.391L96.6262 31.5H95.0212L92.2312 23.37H92.5612L89.6662 31.5H88.0612ZM102.579 26.205C102.579 25.095 102.779 24.135 103.179 23.325C103.589 22.515 104.174 21.89 104.934 21.45C105.694 21 106.599 20.775 107.649 20.775C108.689 20.775 109.589 21 110.349 21.45C111.109 21.89 111.694 22.515 112.104 23.325C112.524 24.135 112.734 25.09 112.734 26.19C112.734 27.3 112.524 28.265 112.104 29.085C111.694 29.895 111.109 30.525 110.349 30.975C109.589 31.425 108.689 31.65 107.649 31.65C106.599 31.65 105.694 31.425 104.934 30.975C104.184 30.525 103.604 29.895 103.194 29.085C102.784 28.265 102.579 27.305 102.579 26.205ZM104.604 26.205C104.604 27.395 104.859 28.325 105.369 28.995C105.879 29.665 106.639 30 107.649 30C108.629 30 109.384 29.665 109.914 28.995C110.444 28.325 110.709 27.395 110.709 26.205C110.709 25.005 110.444 24.075 109.914 23.415C109.394 22.755 108.639 22.425 107.649 22.425C106.639 22.425 105.879 22.755 105.369 23.415C104.859 24.075 104.604 25.005 104.604 26.205ZM115.981 31.5V20.925H120.601C121.761 20.925 122.656 21.2 123.286 21.75C123.926 22.3 124.246 23.065 124.246 24.045C124.246 24.695 124.101 25.25 123.811 25.71C123.531 26.17 123.126 26.525 122.596 26.775C122.066 27.015 121.441 27.135 120.721 27.135L120.931 26.85H121.441C121.861 26.85 122.236 26.96 122.566 27.18C122.896 27.4 123.166 27.735 123.376 28.185L124.921 31.5H122.791L121.231 28.065C121.091 27.715 120.876 27.485 120.586 27.375C120.306 27.265 119.966 27.21 119.566 27.21H117.916V31.5H115.981ZM117.916 25.785H120.286C120.966 25.785 121.481 25.645 121.831 25.365C122.191 25.075 122.371 24.655 122.371 24.105C122.371 23.555 122.191 23.14 121.831 22.86C121.481 22.58 120.966 22.44 120.286 22.44H117.916V25.785ZM127.763 31.5V20.925H129.698V25.605H129.728L134.333 20.925H136.673L131.153 26.43L131.168 25.59L137.033 31.5H134.618L129.728 26.61H129.698V31.5H127.763Z" fill="white"/>
<rect x="0.25" y="0.25" width="159.5" height="51.5" rx="25.75" stroke="#323F4B" stroke-width="0.5"/>
</svg>
