<svg width="114" height="82" viewBox="0 0 114 82" fill="none" xmlns="http://www.w3.org/2000/svg">
<rect x="2" y="2" width="110" height="78" rx="39" fill="#E02B2B" fill-opacity="0.26"/>
<path d="M24.7951 51.5V30.35H38.7451V33.38H28.6651V39.38H38.0551V42.41H28.6651V51.5H24.7951ZM39.2324 51.5L48.8024 30.35H52.0424L61.7324 51.5H57.8024L55.2224 45.56L56.7824 46.61H44.0924L45.7124 45.56L43.1324 51.5H39.2324ZM50.3924 34.49L46.1624 44.51L45.3824 43.58H55.4624L54.8324 44.51L50.5124 34.49H50.3924ZM65.3224 51.5V30.35H69.1924V51.5H65.3224ZM75.0978 51.5V30.35H78.9678V48.23H88.9278V51.5H75.0978Z" fill="#E02B2B"/>
<rect x="2" y="2" width="110" height="78" rx="39" stroke="#E02B2B" stroke-width="4"/>
</svg>
