<?xml version="1.0" encoding="UTF-8"?>
<!--Generator: CustomSymbols by @serious_bret-->
<!DOCTYPE svg
PUBLIC "-//W3C//DTD SVG 1.1//EN"
       "http://www.w3.org/Graphics/SVG/1.1/DTD/svg11.dtd">
<svg version="1.1" xmlns="http://www.w3.org/2000/svg" xmlns:xlink="http://www.w3.org/1999/xlink" width="3300" height="2200">
 <g id="Notes">
  <rect height="2200" id="artboard" style="fill:white;opacity:1" width="3300" x="0" y="0"/>
  <line id="" style="fill:none;stroke:black;opacity:1;stroke-width:0.5;" x1="263" x2="3036" y1="292" y2="292"/>
  <text id="reftext1" style="stroke:none;fill:black;font-family:-apple-system,&quot;SF Pro Display&quot;,&quot;SF Pro Text&quot;,Helvetica,sans-serif;font-weight:bold;" transform="matrix(1 0 0 1 263 322)">Weight/Scale Variations</text>
  <text id="reftext2" style="stroke:none;fill:black;font-family:-apple-system,&quot;SF Pro Display&quot;,&quot;SF Pro Text&quot;,Helvetica,sans-serif;text-anchor:middle;" transform="matrix(1 0 0 1 559.711 322)">Ultralight</text>
  <text style="stroke:none;fill:black;font-family:-apple-system,&quot;SF Pro Display&quot;,&quot;SF Pro Text&quot;,Helvetica,sans-serif;text-anchor:middle;" transform="matrix(1 0 0 1 856.422 322)">Thin</text>
  <text style="stroke:none;fill:black;font-family:-apple-system,&quot;SF Pro Display&quot;,&quot;SF Pro Text&quot;,Helvetica,sans-serif;text-anchor:middle;" transform="matrix(1 0 0 1 1153.13 322)">Light</text>
  <text style="stroke:none;fill:black;font-family:-apple-system,&quot;SF Pro Display&quot;,&quot;SF Pro Text&quot;,Helvetica,sans-serif;text-anchor:middle;" transform="matrix(1 0 0 1 1449.84 322)">Regular</text>
  <text style="stroke:none;fill:black;font-family:-apple-system,&quot;SF Pro Display&quot;,&quot;SF Pro Text&quot;,Helvetica,sans-serif;text-anchor:middle;" transform="matrix(1 0 0 1 1746.56 322)">Medium</text>
  <text style="stroke:none;fill:black;font-family:-apple-system,&quot;SF Pro Display&quot;,&quot;SF Pro Text&quot;,Helvetica,sans-serif;text-anchor:middle;" transform="matrix(1 0 0 1 2043.27 322)">Semibold</text>
  <text style="stroke:none;fill:black;font-family:-apple-system,&quot;SF Pro Display&quot;,&quot;SF Pro Text&quot;,Helvetica,sans-serif;text-anchor:middle;" transform="matrix(1 0 0 1 2339.98 322)">Bold</text>
  <text style="stroke:none;fill:black;font-family:-apple-system,&quot;SF Pro Display&quot;,&quot;SF Pro Text&quot;,Helvetica,sans-serif;text-anchor:middle;" transform="matrix(1 0 0 1 2636.69 322)">Heavy</text>
  <text style="stroke:none;fill:black;font-family:-apple-system,&quot;SF Pro Display&quot;,&quot;SF Pro Text&quot;,Helvetica,sans-serif;text-anchor:middle;" transform="matrix(1 0 0 1 2933.4 322)">Black</text>
  <line id="" style="fill:none;stroke:black;opacity:1;stroke-width:0.5;" x1="263" x2="3036" y1="1903" y2="1903"/>
  <g id="" transform="matrix(1 0 0 1 263 1933)">
   <path d="M9.24805 0.830078C13.5547 0.830078 17.1387-2.74414 17.1387-7.05078C17.1387-11.3574 13.5449-14.9316 9.23828-14.9316C4.94141-14.9316 1.36719-11.3574 1.36719-7.05078C1.36719-2.74414 4.95117 0.830078 9.24805 0.830078ZM9.24805-0.654297C5.70312-0.654297 2.87109-3.49609 2.87109-7.05078C2.87109-10.6055 5.69336-13.4473 9.23828-13.4473C12.793-13.4473 15.6348-10.6055 15.6445-7.05078C15.6543-3.49609 12.8027-0.654297 9.24805-0.654297ZM6.39648-6.31836L8.50586-6.31836L8.50586-4.19922C8.50586-3.75977 8.79883-3.45703 9.22852-3.45703C9.67773-3.45703 9.9707-3.75977 9.9707-4.19922L9.9707-6.31836L12.0996-6.31836C12.5391-6.31836 12.8418-6.61133 12.8418-7.04102C12.8418-7.48047 12.5391-7.7832 12.0996-7.7832L9.9707-7.7832L9.9707-9.89258C9.9707-10.3418 9.67773-10.6445 9.22852-10.6445C8.79883-10.6445 8.50586-10.3418 8.50586-9.89258L8.50586-7.7832L6.39648-7.7832C5.94727-7.7832 5.64453-7.48047 5.64453-7.04102C5.64453-6.61133 5.94727-6.31836 6.39648-6.31836Z"/>
  </g>
  <g id="" transform="matrix(1 0 0 1 281.506 1933)">
   <path d="M11.709 2.91016C17.1582 2.91016 21.6699-1.61133 21.6699-7.05078C21.6699-12.5 17.1484-17.0117 11.6992-17.0117C6.25977-17.0117 1.74805-12.5 1.74805-7.05078C1.74805-1.61133 6.26953 2.91016 11.709 2.91016ZM11.709 1.25C7.09961 1.25 3.41797-2.44141 3.41797-7.05078C3.41797-11.6602 7.08984-15.3516 11.6992-15.3516C16.3086-15.3516 20-11.6602 20.0098-7.05078C20.0195-2.44141 16.3184 1.25 11.709 1.25ZM7.98828-6.23047L10.8789-6.23047L10.8789-3.32031C10.8789-2.83203 11.2109-2.5 11.6895-2.5C12.1777-2.5 12.5195-2.83203 12.5195-3.32031L12.5195-6.23047L15.4297-6.23047C15.918-6.23047 16.25-6.5625 16.25-7.04102C16.25-7.5293 15.918-7.87109 15.4297-7.87109L12.5195-7.87109L12.5195-10.7617C12.5195-11.2695 12.1777-11.6016 11.6895-11.6016C11.2109-11.6016 10.8789-11.2598 10.8789-10.7617L10.8789-7.87109L7.98828-7.87109C7.48047-7.87109 7.14844-7.5293 7.14844-7.04102C7.14844-6.5625 7.49023-6.23047 7.98828-6.23047Z"/>
  </g>
  <g id="" transform="matrix(1 0 0 1 304.924 1933)">
   <path d="M14.9707 5.66406C21.9336 5.66406 27.6953-0.0976562 27.6953-7.05078C27.6953-14.0137 21.9238-19.7754 14.9609-19.7754C8.00781-19.7754 2.25586-14.0137 2.25586-7.05078C2.25586-0.0976562 8.01758 5.66406 14.9707 5.66406ZM14.9707 3.84766C8.93555 3.84766 4.08203-1.01562 4.08203-7.05078C4.08203-13.0957 8.92578-17.9492 14.9609-17.9492C21.0059-17.9492 25.8594-13.0957 25.8691-7.05078C25.8789-1.01562 21.0156 3.84766 14.9707 3.84766ZM10.0586-6.14258L14.0625-6.14258L14.0625-2.12891C14.0625-1.5918 14.4336-1.2207 14.9512-1.2207C15.4883-1.2207 15.8594-1.5918 15.8594-2.12891L15.8594-6.14258L19.8828-6.14258C20.4102-6.14258 20.791-6.51367 20.791-7.03125C20.791-7.56836 20.4199-7.94922 19.8828-7.94922L15.8594-7.94922L15.8594-11.9531C15.8594-12.5098 15.4883-12.8809 14.9512-12.8809C14.4336-12.8809 14.0625-12.5 14.0625-11.9531L14.0625-7.94922L10.0586-7.94922C9.50195-7.94922 9.13086-7.56836 9.13086-7.03125C9.13086-6.51367 9.51172-6.14258 10.0586-6.14258Z"/>
  </g>
  <text style="stroke:none;fill:black;font-family:-apple-system,&quot;SF Pro Display&quot;,&quot;SF Pro Text&quot;,Helvetica,sans-serif;font-weight:bold;" transform="matrix(1 0 0 1 263 1953)">Design Variations</text>
  <text style="stroke:none;fill:black;font-family:-apple-system,&quot;SF Pro Display&quot;,&quot;SF Pro Text&quot;,Helvetica,sans-serif;" transform="matrix(1 0 0 1 263 1971)">Symbols are supported in up to nine weights and three scales.</text>
  <text style="stroke:none;fill:black;font-family:-apple-system,&quot;SF Pro Display&quot;,&quot;SF Pro Text&quot;,Helvetica,sans-serif;" transform="matrix(1 0 0 1 263 1989)">For optimal layout with text and other symbols, vertically align</text>
  <text style="stroke:none;fill:black;font-family:-apple-system,&quot;SF Pro Display&quot;,&quot;SF Pro Text&quot;,Helvetica,sans-serif;" transform="matrix(1 0 0 1 263 2007)">symbols with the adjacent text.</text>
  <line id="" style="fill:none;stroke:#00AEEF;stroke-width:0.5;opacity:1.0;" x1="776" x2="776" y1="1919" y2="1933"/>
  <g id="" transform="matrix(1 0 0 1 776 1933)">
   <path d="M3.31055 0.126953C3.82812 0.126953 4.08203-0.0683594 4.26758-0.605469L5.52734-4.0625L11.2891-4.0625L12.5488-0.605469C12.7344-0.0683594 12.9883 0.126953 13.4961 0.126953C14.0137 0.126953 14.3457-0.185547 14.3457-0.673828C14.3457-0.839844 14.3164-0.986328 14.2383-1.20117L9.6582-13.3887C9.43359-13.9941 9.0332-14.2871 8.4082-14.2871C7.80273-14.2871 7.39258-13.9941 7.17773-13.3984L2.59766-1.19141C2.51953-0.976562 2.49023-0.830078 2.49023-0.664062C2.49023-0.175781 2.80273 0.126953 3.31055 0.126953ZM6.00586-5.53711L8.37891-12.1094L8.42773-12.1094L10.8008-5.53711Z"/>
  </g>
  <line id="" style="fill:none;stroke:#00AEEF;stroke-width:0.5;opacity:1.0;" x1="792.836" x2="792.836" y1="1919" y2="1933"/>
  <text style="stroke:none;fill:black;font-family:-apple-system,&quot;SF Pro Display&quot;,&quot;SF Pro Text&quot;,Helvetica,sans-serif;font-weight:bold;" transform="matrix(1 0 0 1 776 1953)">Margins</text>
  <text style="stroke:none;fill:black;font-family:-apple-system,&quot;SF Pro Display&quot;,&quot;SF Pro Text&quot;,Helvetica,sans-serif;" transform="matrix(1 0 0 1 776 1971)">Leading and trailing margins on the left and right side of each symbol</text>
  <text style="stroke:none;fill:black;font-family:-apple-system,&quot;SF Pro Display&quot;,&quot;SF Pro Text&quot;,Helvetica,sans-serif;" transform="matrix(1 0 0 1 776 1989)">can be adjusted by modifying the x-location of the margin guidelines.</text>
  <text style="stroke:none;fill:black;font-family:-apple-system,&quot;SF Pro Display&quot;,&quot;SF Pro Text&quot;,Helvetica,sans-serif;" transform="matrix(1 0 0 1 776 2007)">Modifications are automatically applied proportionally to all</text>
  <text style="stroke:none;fill:black;font-family:-apple-system,&quot;SF Pro Display&quot;,&quot;SF Pro Text&quot;,Helvetica,sans-serif;" transform="matrix(1 0 0 1 776 2025)">scales and weights.</text>
  <g id="" transform="matrix(1 0 0 1 1289 1933)">
   <path d="M2.8418 1.86523L4.54102 3.57422C5.40039 4.44336 6.38672 4.38477 7.31445 3.35938L17.4902-7.85156C17.7539-7.76367 18.0273-7.7832 18.3398-7.8418L19.4043-8.03711L20.0684-7.36328L20.0293-6.80664C19.9902-6.30859 20.1172-5.92773 20.6055-5.44922L21.3672-4.70703C21.8457-4.22852 22.4609-4.19922 22.9297-4.66797L25.8398-7.58789C26.3086-8.05664 26.2891-8.65234 25.8105-9.13086L25.0391-9.89258C24.5605-10.3711 24.1895-10.5273 23.7109-10.4883L23.1348-10.4395L22.4902-11.0742L22.7344-12.1973C22.8613-12.7637 22.7051-13.2031 22.1191-13.7891L19.9219-15.9766C16.582-19.2969 12.1484-19.2188 9.25781-16.3281C8.83789-15.918 8.80859-15.3418 9.04297-14.9512C9.27734-14.5898 9.73633-14.3555 10.3809-14.5215C11.8457-14.8633 13.3691-14.9219 14.7949-13.9844L14.209-12.5293C14.0137-12.0508 13.9844-11.6504 14.1113-11.2891L3.04688-0.898438C2.06055 0.0195312 1.98242 0.996094 2.8418 1.86523ZM10.752-15.957C13.1836-17.7344 16.4746-17.4316 18.7012-15.2051L21.1328-12.793C21.3672-12.5586 21.4062-12.373 21.3379-12.0312L21.0156-10.5469L22.5195-9.0625L23.5059-9.12109C23.7598-9.13086 23.8379-9.11133 24.0332-8.91602L24.6094-8.33984L22.168-5.89844L21.5918-6.47461C21.3965-6.66992 21.3672-6.74805 21.377-7.01172L21.4453-7.98828L19.9512-9.47266L18.4277-9.21875C18.1055-9.15039 17.959-9.17969 17.7148-9.41406L15.7129-11.416C15.459-11.6504 15.4297-11.8164 15.5859-12.1875L16.4648-14.2773C14.9023-15.7324 12.8711-16.3574 10.8398-15.7617C10.6836-15.7227 10.625-15.8496 10.752-15.957ZM5.27344 2.30469L4.10156 1.14258C3.63281 0.683594 3.74023 0.341797 4.14062-0.0195312L14.9512-10.1953L16.416-8.71094L6.42578 2.27539C6.07422 2.67578 5.74219 2.77344 5.27344 2.30469Z"/>
  </g>
  <text style="stroke:none;fill:black;font-family:-apple-system,&quot;SF Pro Display&quot;,&quot;SF Pro Text&quot;,Helvetica,sans-serif;font-weight:bold;" transform="matrix(1 0 0 1 1289 1953)">Exporting</text>
  <text style="stroke:none;fill:black;font-family:-apple-system,&quot;SF Pro Display&quot;,&quot;SF Pro Text&quot;,Helvetica,sans-serif;" transform="matrix(1 0 0 1 1289 1971)">Symbols should be outlined when exporting to ensure the</text>
  <text style="stroke:none;fill:black;font-family:-apple-system,&quot;SF Pro Display&quot;,&quot;SF Pro Text&quot;,Helvetica,sans-serif;" transform="matrix(1 0 0 1 1289 1989)">design is preserved when submitting to Xcode.</text>
  <text id="template-version" style="stroke:none;fill:black;font-family:-apple-system,&quot;SF Pro Display&quot;,&quot;SF Pro Text&quot;,Helvetica,sans-serif;text-anchor:end;" transform="matrix(1 0 0 1 3036 1933)">Template v.2.0</text>
  <text style="stroke:none;fill:black;font-family:-apple-system,&quot;SF Pro Display&quot;,&quot;SF Pro Text&quot;,Helvetica,sans-serif;text-anchor:end;" transform="matrix(1 0 0 1 3036 1951)">Requires Xcode 12 or greater</text>
  <text style="stroke:none;fill:black;font-family:-apple-system,&quot;SF Pro Display&quot;,&quot;SF Pro Text&quot;,Helvetica,sans-serif;" transform="matrix(1 0 0 1 263 726)">Small</text>
  <text style="stroke:none;fill:black;font-family:-apple-system,&quot;SF Pro Display&quot;,&quot;SF Pro Text&quot;,Helvetica,sans-serif;" transform="matrix(1 0 0 1 263 1156)">Medium</text>
  <text style="stroke:none;fill:black;font-family:-apple-system,&quot;SF Pro Display&quot;,&quot;SF Pro Text&quot;,Helvetica,sans-serif;" transform="matrix(1 0 0 1 263 1586)">Large</text>
 </g>
 <g id="Guides">
  <g id="H-reference" style="fill:#27AAE1;stroke:none;" transform="matrix(1 0 0 1 339 696)">
   <path d="M0.976562 0L3.66211 0L12.9883-24.4629L45.752-24.4629L55.127 0L57.7637 0L30.6152-70.459L28.125-70.459ZM29.3457-67.1387L29.4434-67.1387L44.873-26.709L13.8672-26.709Z"/>
  </g>
  <line id="Baseline-S" style="fill:none;stroke:#27AAE1;opacity:1;stroke-width:0.5;" x1="263" x2="3036" y1="696" y2="696"/>
  <line id="Capline-S" style="fill:none;stroke:#27AAE1;opacity:1;stroke-width:0.5;" x1="263" x2="3036" y1="625.541" y2="625.541"/>
  <g id="H-reference" style="fill:#27AAE1;stroke:none;" transform="matrix(1 0 0 1 339 1126)">
   <path d="M0.976562 0L3.66211 0L12.9883-24.4629L45.752-24.4629L55.127 0L57.7637 0L30.6152-70.459L28.125-70.459ZM29.3457-67.1387L29.4434-67.1387L44.873-26.709L13.8672-26.709Z"/>
  </g>
  <line id="Baseline-M" style="fill:none;stroke:#27AAE1;opacity:1;stroke-width:0.5;" x1="263" x2="3036" y1="1126" y2="1126"/>
  <line id="Capline-M" style="fill:none;stroke:#27AAE1;opacity:1;stroke-width:0.5;" x1="263" x2="3036" y1="1055.54" y2="1055.54"/>
  <g id="H-reference" style="fill:#27AAE1;stroke:none;" transform="matrix(1 0 0 1 339 1556)">
   <path d="M0.976562 0L3.66211 0L12.9883-24.4629L45.752-24.4629L55.127 0L57.7637 0L30.6152-70.459L28.125-70.459ZM29.3457-67.1387L29.4434-67.1387L44.873-26.709L13.8672-26.709Z"/>
  </g>
  <line id="Baseline-L" style="fill:none;stroke:#27AAE1;opacity:1;stroke-width:0.5;" x1="263" x2="3036" y1="1556" y2="1556"/>
  <line id="Capline-L" style="fill:none;stroke:#27AAE1;opacity:1;stroke-width:0.5;" x1="263" x2="3036" y1="1485.54" y2="1485.54"/>
  <line id="left-margin" x1="1415.9000195312499" x2="1415.9000195312499" y1="1030.79" y2="1150.12" style="fill:none;stroke:#00AEEF;stroke-width:0.5;opacity:1.0;"/>
  <line id="right-margin" x1="1486.3599804687499" x2="1486.3599804687499" y1="1030.79" y2="1150.12" style="fill:none;stroke:#00AEEF;stroke-width:0.5;opacity:1.0;"/>
 </g>
 <g id="Symbols">
  <g id="Black-L" transform="matrix(1.0,0.0,0.0,1.0,2889.2333251953123,1475.3233447265625)">  <path stroke-width="2px" stroke-miterlimit="4" fill="#000000" stroke-dasharray="none" stroke-linejoin="round" stroke-opacity="1" stroke-linecap="round" fill-opacity="1" fill-rule="nonzero" stroke="none" d="M63.271,59.19L48.728,44.042C47.93,43.21,46.599,43.21,45.801,44.042L31.258,59.19C30.482,59.999,30.508,61.283,31.316,62.059C32.125,62.835,33.409,62.809,34.185,62.001L48.728,46.852L45.801,46.852L60.344,62.001C61.12,62.809,62.404,62.835,63.213,62.059C64.021,61.283,64.047,59.999,63.271,59.19Z"/>
  <path fill-rule="nonzero" fill-opacity="1" stroke-miterlimit="4" stroke-width="2px" stroke-dasharray="none" stroke-linejoin="round" stroke-opacity="1" stroke="none" fill="#000000" stroke-linecap="round" d="M45.236,45.447L45.236,79.532C45.236,80.652,46.144,81.561,47.265,81.561C48.385,81.561,49.294,80.652,49.294,79.532L49.294,45.447C49.294,44.326,48.385,43.418,47.265,43.418C46.144,43.418,45.236,44.326,45.236,45.447Z"/>
  <path stroke-linejoin="round" stroke-opacity="1" stroke="none" fill="#000000" stroke-miterlimit="4" fill-rule="nonzero" fill-opacity="1" stroke-dasharray="none" stroke-width="2px" stroke-linecap="round" d="M78.77,71.411C86.862,66.816,90.918,57.128,88.655,47.869C86.387,38.586,78.336,32.062,69.08,32.056L64.498,32.056L66.467,33.596C63.253,20.645,52.688,11.075,39.877,9.552C27.056,8.027,14.672,14.881,8.729,26.76C2.803,38.607,4.495,53.025,12.996,63.044C13.721,63.899,15.001,64.004,15.856,63.279C16.71,62.554,16.815,61.274,16.09,60.419C8.645,51.643,7.157,38.973,12.359,28.576C17.544,18.211,28.294,12.261,39.398,13.581C50.512,14.903,59.716,23.24,62.529,34.574C62.753,35.479,63.566,36.114,64.498,36.114L69.079,36.114C76.438,36.119,82.882,41.341,84.713,48.832C86.549,56.347,83.264,64.193,76.766,67.883C75.792,68.436,75.451,69.675,76.004,70.649C76.557,71.623,77.796,71.965,78.77,71.411Z"/>
  <path stroke-width="2px" stroke-miterlimit="4" fill="#000000" stroke-dasharray="none" stroke-linejoin="round" stroke-opacity="1" stroke-linecap="round" fill-opacity="1" fill-rule="nonzero" stroke="none" d="M63.271,59.19L48.728,44.042C47.93,43.21,46.599,43.21,45.801,44.042L31.258,59.19C30.482,59.999,30.508,61.283,31.316,62.059C32.125,62.835,33.409,62.809,34.185,62.001L48.728,46.852L45.801,46.852L60.344,62.001C61.12,62.809,62.404,62.835,63.213,62.059C64.021,61.283,64.047,59.999,63.271,59.19Z"/>
</g>
  <g id="Heavy-L" transform="matrix(1.0,0.0,0.0,1.0,2592.5233251953123,1475.3233447265625)">  <path stroke-width="2px" fill-opacity="1" stroke-opacity="1" fill-rule="nonzero" stroke-dasharray="none" stroke="none" fill="#000000" stroke-linejoin="round" stroke-linecap="round" stroke-miterlimit="4" d="M63.111,59.344L48.568,44.195C47.857,43.455,46.672,43.455,45.961,44.195L31.418,59.344C30.727,60.064,30.75,61.208,31.47,61.899C32.19,62.59,33.334,62.567,34.025,61.847L48.568,46.698L45.961,46.698L60.504,61.847C61.195,62.567,62.339,62.59,63.059,61.899C63.779,61.208,63.802,60.064,63.111,59.344Z"/>
  <path fill-rule="nonzero" fill="#000000" stroke-miterlimit="4" stroke="none" stroke-dasharray="none" stroke-width="2px" stroke-linejoin="round" stroke-opacity="1" stroke-linecap="round" fill-opacity="1" d="M45.458,45.447L45.458,79.532C45.458,80.53,46.267,81.339,47.265,81.339C48.262,81.339,49.071,80.53,49.071,79.532L49.071,45.447C49.071,44.449,48.262,43.64,47.265,43.64C46.267,43.64,45.458,44.449,45.458,45.447Z"/>
  <path fill-rule="nonzero" stroke-dasharray="none" stroke-width="2px" fill="#000000" stroke-linecap="round" stroke-linejoin="round" stroke="none" stroke-miterlimit="4" fill-opacity="1" stroke-opacity="1" d="M78.661,71.218C86.665,66.673,90.678,57.086,88.439,47.922C86.195,38.737,78.232,32.285,69.08,32.278L64.498,32.278L66.252,33.65C63.059,20.787,52.569,11.285,39.851,9.772C27.124,8.259,14.829,15.063,8.928,26.86C3.041,38.627,4.723,52.949,13.165,62.901C13.811,63.662,14.951,63.755,15.712,63.11C16.473,62.464,16.566,61.324,15.921,60.563C8.417,51.718,6.919,38.953,12.16,28.476C17.386,18.028,28.227,12.029,39.424,13.361C50.631,14.694,59.909,23.098,62.744,34.52C62.944,35.326,63.668,35.892,64.498,35.892L69.079,35.892C76.542,35.897,83.074,41.19,84.929,48.779C86.788,56.389,83.461,64.336,76.876,68.076C76.008,68.569,75.704,69.672,76.197,70.539C76.69,71.407,77.793,71.711,78.661,71.218Z"/>
  <path stroke-width="2px" fill-opacity="1" stroke-opacity="1" fill-rule="nonzero" stroke-dasharray="none" stroke="none" fill="#000000" stroke-linejoin="round" stroke-linecap="round" stroke-miterlimit="4" d="M63.111,59.344L48.568,44.195C47.857,43.455,46.672,43.455,45.961,44.195L31.418,59.344C30.727,60.064,30.75,61.208,31.47,61.899C32.19,62.59,33.334,62.567,34.025,61.847L48.568,46.698L45.961,46.698L60.504,61.847C61.195,62.567,62.339,62.59,63.059,61.899C63.779,61.208,63.802,60.064,63.111,59.344Z"/>
</g>
  <g id="Bold-L" transform="matrix(1.0,0.0,0.0,1.0,2295.8133251953122,1475.3233447265625)">  <path stroke="none" fill-rule="nonzero" stroke-miterlimit="4" fill-opacity="1" fill="#000000" stroke-dasharray="none" stroke-opacity="1" stroke-width="2px" stroke-linejoin="round" stroke-linecap="round" d="M62.951,59.498L48.408,44.349C47.784,43.7,46.745,43.7,46.121,44.349L31.578,59.498C30.972,60.129,30.993,61.133,31.624,61.739C32.255,62.345,33.259,62.324,33.865,61.693L48.408,46.544L46.121,46.544L60.664,61.693C61.27,62.324,62.273,62.345,62.905,61.739C63.536,61.133,63.557,60.129,62.951,59.498Z"/>
  <path fill="#000000" stroke-opacity="1" stroke-miterlimit="4" fill-rule="nonzero" stroke-dasharray="none" stroke-linecap="round" stroke-linejoin="round" stroke-width="2px" fill-opacity="1" stroke="none" d="M45.68,45.447L45.68,79.532C45.68,80.407,46.389,81.116,47.265,81.116C48.14,81.116,48.849,80.407,48.849,79.532L48.849,45.447C48.849,44.571,48.14,43.862,47.265,43.862C46.389,43.862,45.68,44.571,45.68,45.447Z"/>
  <path stroke-width="2px" stroke-opacity="1" stroke-linejoin="round" stroke-linecap="round" stroke-dasharray="none" stroke="none" stroke-miterlimit="4" fill-rule="nonzero" fill="#000000" fill-opacity="1" d="M78.551,71.025C86.468,66.529,90.439,57.043,88.223,47.974C86.003,38.888,78.128,32.507,69.08,32.5L64.498,32.5L66.036,33.703C62.865,20.929,52.45,11.495,39.825,9.993C27.191,8.491,14.986,15.245,9.127,26.959C3.28,38.647,4.95,52.874,13.335,62.757C13.901,63.424,14.901,63.506,15.568,62.94C16.235,62.374,16.318,61.374,15.751,60.707C8.19,51.794,6.68,38.933,11.961,28.377C17.229,17.846,28.159,11.797,39.45,13.14C50.75,14.484,60.103,22.956,62.96,34.467C63.135,35.174,63.77,35.67,64.498,35.67L69.079,35.67C76.646,35.675,83.266,41.039,85.145,48.727C87.027,56.432,83.658,64.48,76.986,68.269C76.225,68.701,75.958,69.669,76.39,70.43C76.823,71.191,77.79,71.457,78.551,71.025Z"/>
  <path stroke="none" fill-rule="nonzero" stroke-miterlimit="4" fill-opacity="1" fill="#000000" stroke-dasharray="none" stroke-opacity="1" stroke-width="2px" stroke-linejoin="round" stroke-linecap="round" d="M62.951,59.498L48.408,44.349C47.784,43.7,46.745,43.7,46.121,44.349L31.578,59.498C30.972,60.129,30.993,61.133,31.624,61.739C32.255,62.345,33.259,62.324,33.865,61.693L48.408,46.544L46.121,46.544L60.664,61.693C61.27,62.324,62.273,62.345,62.905,61.739C63.536,61.133,63.557,60.129,62.951,59.498Z"/>
</g>
  <g id="Semibold-L" transform="matrix(1.0,0.0,0.0,1.0,1999.1033251953124,1475.3233447265625)">  <path stroke-linecap="round" stroke-miterlimit="4" stroke-dasharray="none" fill-opacity="1" fill="#000000" fill-rule="nonzero" stroke-linejoin="round" stroke="none" stroke-opacity="1" stroke-width="2px" d="M62.79,59.652L48.247,44.503C47.711,43.945,46.818,43.945,46.282,44.503L31.739,59.652C31.218,60.195,31.235,61.057,31.778,61.578C32.321,62.1,33.183,62.082,33.704,61.539L48.247,46.39L46.282,46.39L60.825,61.539C61.346,62.082,62.208,62.1,62.751,61.578C63.294,61.057,63.311,60.195,62.79,59.652Z"/>
  <path stroke-linecap="round" fill="#000000" stroke-width="2px" fill-opacity="1" stroke-linejoin="round" stroke-miterlimit="4" stroke-opacity="1" stroke-dasharray="none" stroke="none" fill-rule="nonzero" d="M45.902,45.447L45.902,79.532C45.902,80.284,46.512,80.894,47.265,80.894C48.017,80.894,48.627,80.284,48.627,79.532L48.627,45.447C48.627,44.694,48.017,44.084,47.265,44.084C46.512,44.084,45.902,44.694,45.902,45.447Z"/>
  <path fill-rule="nonzero" stroke-opacity="1" stroke="none" stroke-miterlimit="4" stroke-linecap="round" stroke-linejoin="round" stroke-width="2px" stroke-dasharray="none" fill="#000000" fill-opacity="1" d="M78.441,70.832C86.271,66.386,90.2,57,88.007,48.027C85.811,39.038,78.024,32.729,69.08,32.723L64.498,32.723L65.82,33.757C62.672,21.071,52.331,11.704,39.798,10.214C27.259,8.722,15.144,15.428,9.325,27.058C3.518,38.667,5.177,52.798,13.504,62.613C13.991,63.187,14.851,63.258,15.424,62.771C15.998,62.284,16.069,61.424,15.582,60.85C7.963,51.87,6.442,38.913,11.762,28.277C17.072,17.664,28.091,11.565,39.477,12.92C50.869,14.275,60.297,22.814,63.176,34.413C63.326,35.021,63.872,35.448,64.498,35.448L69.079,35.448C76.75,35.453,83.458,40.888,85.36,48.674C87.267,56.475,83.855,64.624,77.096,68.462C76.441,68.834,76.212,69.666,76.584,70.32C76.955,70.974,77.787,71.203,78.441,70.832Z"/>
  <path stroke-linecap="round" stroke-miterlimit="4" stroke-dasharray="none" fill-opacity="1" fill="#000000" fill-rule="nonzero" stroke-linejoin="round" stroke="none" stroke-opacity="1" stroke-width="2px" d="M62.79,59.652L48.247,44.503C47.711,43.945,46.818,43.945,46.282,44.503L31.739,59.652C31.218,60.195,31.235,61.057,31.778,61.578C32.321,62.1,33.183,62.082,33.704,61.539L48.247,46.39L46.282,46.39L60.825,61.539C61.346,62.082,62.208,62.1,62.751,61.578C63.294,61.057,63.311,60.195,62.79,59.652Z"/>
</g>
  <g id="Medium-L" transform="matrix(1.0,0.0,0.0,1.0,1702.3933251953124,1475.3233447265625)">  <path stroke-linecap="round" stroke-width="2px" stroke-miterlimit="4" fill="#000000" fill-opacity="1" stroke-dasharray="none" stroke="none" stroke-linejoin="round" stroke-opacity="1" fill-rule="nonzero" d="M62.63,59.806L48.087,44.657C47.638,44.19,46.891,44.19,46.442,44.657L31.899,59.806C31.463,60.26,31.478,60.982,31.932,61.418C32.386,61.854,33.108,61.84,33.544,61.385L48.087,46.236L46.442,46.236L60.985,61.385C61.421,61.84,62.143,61.854,62.597,61.418C63.051,60.982,63.066,60.26,62.63,59.806Z"/>
  <path stroke-dasharray="none" stroke-linejoin="round" stroke-width="2px" fill-opacity="1" fill="#000000" stroke-opacity="1" stroke-linecap="round" stroke-miterlimit="4" fill-rule="nonzero" stroke="none" d="M46.124,45.447L46.124,79.532C46.124,80.161,46.635,80.672,47.265,80.672C47.894,80.672,48.405,80.161,48.405,79.532L48.405,45.447C48.405,44.817,47.894,44.306,47.265,44.306C46.635,44.306,46.124,44.817,46.124,45.447Z"/>
  <path stroke-miterlimit="4" stroke-opacity="1" stroke="none" fill-opacity="1" stroke-linejoin="round" stroke-dasharray="none" fill-rule="nonzero" fill="#000000" stroke-width="2px" stroke-linecap="round" d="M78.331,70.639C86.074,66.242,89.961,56.957,87.792,48.08C85.619,39.189,77.92,32.951,69.08,32.945L64.498,32.945L65.605,33.81C62.478,21.213,52.211,11.914,39.772,10.434C27.327,8.954,15.301,15.61,9.524,27.158C3.757,38.688,5.404,52.722,13.673,62.47C14.081,62.95,14.8,63.009,15.281,62.601C15.761,62.194,15.82,61.474,15.412,60.994C7.736,51.945,6.204,38.893,11.564,28.178C16.915,17.481,28.023,11.334,39.503,12.699C50.988,14.065,60.49,22.672,63.391,34.36C63.517,34.868,63.974,35.225,64.498,35.225L69.079,35.225C76.854,35.231,83.65,40.737,85.576,48.621C87.506,56.518,84.052,64.767,77.205,68.656C76.658,68.966,76.466,69.663,76.777,70.21C77.088,70.758,77.784,70.95,78.331,70.639Z"/>
  <path stroke-linecap="round" stroke-width="2px" stroke-miterlimit="4" fill="#000000" fill-opacity="1" stroke-dasharray="none" stroke="none" stroke-linejoin="round" stroke-opacity="1" fill-rule="nonzero" d="M62.63,59.806L48.087,44.657C47.638,44.19,46.891,44.19,46.442,44.657L31.899,59.806C31.463,60.26,31.478,60.982,31.932,61.418C32.386,61.854,33.108,61.84,33.544,61.385L48.087,46.236L46.442,46.236L60.985,61.385C61.421,61.84,62.143,61.854,62.597,61.418C63.051,60.982,63.066,60.26,62.63,59.806Z"/>
</g>
  <g id="Regular-L" transform="matrix(1.0,0.0,0.0,1.0,1405.6833251953124,1475.3233447265625)">  <path fill-rule="nonzero" fill="#000000" fill-opacity="1" stroke-linecap="round" stroke-width="2px" stroke-dasharray="none" stroke="none" stroke-opacity="1" stroke-linejoin="round" stroke-miterlimit="4" d="M62.47,59.96L47.927,44.811C47.565,44.434,46.963,44.434,46.602,44.811L32.059,59.96C31.708,60.326,31.72,60.907,32.086,61.258C32.451,61.609,33.033,61.597,33.384,61.231L47.927,46.082L46.602,46.082L61.145,61.231C61.496,61.597,62.077,61.609,62.443,61.258C62.809,60.907,62.821,60.326,62.47,59.96Z"/>
  <path stroke-dasharray="none" stroke-miterlimit="4" stroke="none" stroke-opacity="1" fill-rule="nonzero" fill="#000000" fill-opacity="1" stroke-linejoin="round" stroke-linecap="round" stroke-width="2px" d="M46.346,45.447L46.346,79.532C46.346,80.039,46.757,80.45,47.265,80.45C47.772,80.45,48.183,80.039,48.183,79.532L48.183,45.447C48.183,44.94,47.772,44.529,47.265,44.529C46.757,44.529,46.346,44.94,46.346,45.447Z"/>
  <path fill-opacity="1" stroke-opacity="1" stroke-linecap="round" stroke-width="2px" fill="#000000" stroke-linejoin="round" stroke="none" stroke-miterlimit="4" stroke-dasharray="none" fill-rule="nonzero" d="M78.222,70.445C85.877,66.098,89.722,56.914,87.576,48.132C85.427,39.34,77.817,33.173,69.08,33.167L64.498,33.167L65.389,33.864C62.284,21.355,52.092,12.123,39.746,10.655C27.395,9.186,15.458,15.792,9.723,27.257C3.995,38.708,5.631,52.647,13.843,62.326C14.171,62.712,14.75,62.76,15.137,62.432C15.524,62.104,15.571,61.525,15.243,61.138C7.509,52.021,5.965,38.873,11.365,28.079C16.757,17.299,27.955,11.102,39.529,12.478C51.108,13.855,60.684,22.53,63.607,34.306C63.708,34.716,64.076,35.003,64.498,35.003L69.079,35.003C76.958,35.009,83.842,40.587,85.792,48.568C87.745,56.561,84.249,64.911,77.315,68.849C76.874,69.099,76.72,69.66,76.97,70.1C77.22,70.541,77.781,70.696,78.222,70.445Z"/>
  <path fill-rule="nonzero" fill="#000000" fill-opacity="1" stroke-linecap="round" stroke-width="2px" stroke-dasharray="none" stroke="none" stroke-opacity="1" stroke-linejoin="round" stroke-miterlimit="4" d="M62.47,59.96L47.927,44.811C47.565,44.434,46.963,44.434,46.602,44.811L32.059,59.96C31.708,60.326,31.72,60.907,32.086,61.258C32.451,61.609,33.033,61.597,33.384,61.231L47.927,46.082L46.602,46.082L61.145,61.231C61.496,61.597,62.077,61.609,62.443,61.258C62.809,60.907,62.821,60.326,62.47,59.96Z"/>
</g>
  <g id="Light-L" transform="matrix(1.0,0.0,0.0,1.0,1108.9733251953126,1475.3233447265625)">  <path stroke-opacity="1" stroke-dasharray="none" stroke-miterlimit="4" stroke-linecap="round" fill-opacity="1" fill="#000000" fill-rule="nonzero" stroke="none" stroke-linejoin="round" stroke-width="2px" d="M62.359,60.066L47.816,44.917C47.515,44.603,47.014,44.603,46.713,44.917L32.17,60.066C31.877,60.371,31.887,60.855,32.192,61.147C32.496,61.44,32.981,61.43,33.273,61.125L47.816,45.977L46.713,45.977L61.255,61.125C61.548,61.43,62.032,61.44,62.337,61.147C62.642,60.855,62.652,60.371,62.359,60.066Z"/>
  <path fill-rule="nonzero" stroke-linejoin="round" fill="#000000" stroke-dasharray="none" stroke-miterlimit="4" stroke-width="2px" fill-opacity="1" stroke-opacity="1" stroke-linecap="round" stroke="none" d="M46.499,45.447L46.499,79.532C46.499,79.954,46.842,80.297,47.265,80.297C47.687,80.297,48.03,79.954,48.03,79.532L48.03,45.447C48.03,45.024,47.687,44.682,47.265,44.682C46.842,44.682,46.499,45.024,46.499,45.447Z"/>
  <path stroke-dasharray="none" stroke-linejoin="round" stroke-linecap="round" fill-rule="nonzero" stroke="none" stroke-width="2px" fill-opacity="1" fill="#000000" stroke-miterlimit="4" stroke-opacity="1" d="M78.146,70.312C85.741,65.999,89.557,56.885,87.427,48.169C85.295,39.444,77.745,33.326,69.079,33.32L64.498,33.32L65.24,33.901C62.151,21.453,52.01,12.268,39.728,10.807C27.442,9.346,15.566,15.918,9.86,27.326C4.159,38.721,5.788,52.594,13.96,62.227C14.233,62.549,14.716,62.589,15.038,62.315C15.36,62.042,15.4,61.559,15.126,61.237C7.352,52.073,5.801,38.859,11.228,28.01C16.649,17.173,27.909,10.942,39.547,12.326C51.19,13.711,60.817,22.432,63.755,34.269C63.84,34.611,64.146,34.85,64.498,34.85L69.079,34.85C77.029,34.856,83.974,40.483,85.941,48.532C87.91,56.59,84.385,65.01,77.391,68.982C77.023,69.19,76.894,69.657,77.103,70.025C77.312,70.392,77.779,70.521,78.146,70.312Z"/>
  <path stroke-opacity="1" stroke-dasharray="none" stroke-miterlimit="4" stroke-linecap="round" fill-opacity="1" fill="#000000" fill-rule="nonzero" stroke="none" stroke-linejoin="round" stroke-width="2px" d="M62.359,60.066L47.816,44.917C47.515,44.603,47.014,44.603,46.713,44.917L32.17,60.066C31.877,60.371,31.887,60.855,32.192,61.147C32.496,61.44,32.981,61.43,33.273,61.125L47.816,45.977L46.713,45.977L61.255,61.125C61.548,61.43,62.032,61.44,62.337,61.147C62.642,60.855,62.652,60.371,62.359,60.066Z"/>
</g>
  <g id="Thin-L" transform="matrix(1.0,0.0,0.0,1.0,812.2633251953125,1475.3233447265625)">  <path fill-opacity="1" stroke-opacity="1" stroke-miterlimit="4" stroke="none" fill-rule="nonzero" fill="#000000" stroke-linecap="round" stroke-width="2px" stroke-dasharray="none" stroke-linejoin="round" d="M62.249,60.172L47.706,45.023C47.465,44.772,47.064,44.772,46.823,45.023L32.28,60.172C32.046,60.416,32.054,60.803,32.298,61.037C32.541,61.271,32.929,61.263,33.163,61.019L47.706,45.871L46.823,45.871L61.366,61.019C61.6,61.263,61.987,61.271,62.231,61.037C62.475,60.803,62.483,60.416,62.249,60.172Z"/>
  <path fill-opacity="1" stroke-dasharray="none" stroke-opacity="1" stroke-width="2px" stroke="none" stroke-miterlimit="4" fill="#000000" stroke-linecap="round" fill-rule="nonzero" stroke-linejoin="round" d="M46.652,45.447L46.652,79.532C46.652,79.87,46.927,80.144,47.265,80.144C47.603,80.144,47.877,79.87,47.877,79.532L47.877,45.447C47.877,45.109,47.603,44.835,47.265,44.835C46.927,44.835,46.652,45.109,46.652,45.447Z"/>
  <path fill="#000000" stroke-dasharray="none" stroke-opacity="1" fill-opacity="1" stroke-width="2px" stroke-linejoin="round" stroke="none" fill-rule="nonzero" stroke-linecap="round" stroke-miterlimit="4" d="M78.071,70.179C85.606,65.9,89.392,56.855,87.278,48.205C85.163,39.548,77.673,33.479,69.079,33.473L64.498,33.473L65.092,33.938C62.018,21.551,51.928,12.412,39.71,10.959C27.488,9.505,15.675,16.043,9.996,27.394C4.323,38.735,5.944,52.542,14.076,62.128C14.295,62.386,14.681,62.417,14.939,62.199C15.197,61.98,15.228,61.594,15.01,61.336C7.196,52.125,5.637,38.846,11.091,27.942C16.541,17.048,27.862,10.782,39.565,12.174C51.272,13.567,60.951,22.334,63.904,34.233C63.972,34.506,64.217,34.697,64.498,34.697L69.079,34.697C77.101,34.703,84.106,40.379,86.089,48.496C88.074,56.62,84.52,65.109,77.466,69.115C77.172,69.282,77.069,69.655,77.236,69.949C77.403,70.243,77.777,70.346,78.071,70.179Z"/>
  <path fill-opacity="1" stroke-opacity="1" stroke-miterlimit="4" stroke="none" fill-rule="nonzero" fill="#000000" stroke-linecap="round" stroke-width="2px" stroke-dasharray="none" stroke-linejoin="round" d="M62.249,60.172L47.706,45.023C47.465,44.772,47.064,44.772,46.823,45.023L32.28,60.172C32.046,60.416,32.054,60.803,32.298,61.037C32.541,61.271,32.929,61.263,33.163,61.019L47.706,45.871L46.823,45.871L61.366,61.019C61.6,61.263,61.987,61.271,62.231,61.037C62.475,60.803,62.483,60.416,62.249,60.172Z"/>
</g>
  <g id="Ultralight-L" transform="matrix(1.0,0.0,0.0,1.0,515.5533251953125,1475.3233447265625)">  <path stroke-width="2px" fill-opacity="1" stroke-linejoin="round" stroke-miterlimit="4" stroke-linecap="round" fill-rule="nonzero" fill="#000000" stroke-opacity="1" stroke="none" stroke-dasharray="none" d="M62.139,60.278L47.596,45.129C47.415,44.941,47.114,44.941,46.933,45.129L32.39,60.278C32.215,60.461,32.221,60.751,32.404,60.927C32.586,61.102,32.877,61.096,33.053,60.913L47.596,45.765L46.933,45.765L61.476,60.913C61.652,61.096,61.942,61.102,62.125,60.927C62.308,60.751,62.314,60.461,62.139,60.278Z"/>
  <path stroke-dasharray="none" fill-opacity="1" stroke-miterlimit="4" fill-rule="nonzero" stroke-linecap="round" fill="#000000" stroke-width="2px" stroke-opacity="1" stroke="none" stroke-linejoin="round" d="M46.805,45.447L46.805,79.532C46.805,79.785,47.011,79.991,47.265,79.991C47.518,79.991,47.724,79.785,47.724,79.532L47.724,45.447C47.724,45.193,47.518,44.988,47.265,44.988C47.011,44.988,46.805,45.193,46.805,45.447Z"/>
  <path stroke-miterlimit="4" stroke="none" stroke-linejoin="round" fill="#000000" fill-opacity="1" fill-rule="nonzero" stroke-linecap="round" stroke-dasharray="none" stroke-opacity="1" stroke-width="2px" d="M77.995,70.046C85.47,65.801,89.227,56.826,87.13,48.241C85.031,39.652,77.602,33.632,69.079,33.626L64.498,33.626L64.943,33.975C61.884,21.649,51.846,12.556,39.692,11.111C27.535,9.665,15.783,16.169,10.133,27.463C4.488,38.749,6.101,52.49,14.193,62.029C14.357,62.222,14.647,62.246,14.84,62.082C15.033,61.918,15.057,61.628,14.893,61.435C7.039,52.177,5.473,38.832,10.954,27.873C16.433,16.922,27.815,10.623,39.583,12.022C51.354,13.422,61.084,22.236,64.052,34.196C64.103,34.4,64.287,34.544,64.498,34.544L69.079,34.544C77.173,34.55,84.238,40.275,86.238,48.459C88.239,56.649,84.656,65.208,77.542,69.248C77.321,69.373,77.244,69.653,77.369,69.874C77.494,70.094,77.775,70.171,77.995,70.046Z"/>
  <path stroke-width="2px" fill-opacity="1" stroke-linejoin="round" stroke-miterlimit="4" stroke-linecap="round" fill-rule="nonzero" fill="#000000" stroke-opacity="1" stroke="none" stroke-dasharray="none" d="M62.139,60.278L47.596,45.129C47.415,44.941,47.114,44.941,46.933,45.129L32.39,60.278C32.215,60.461,32.221,60.751,32.404,60.927C32.586,61.102,32.877,61.096,33.053,60.913L47.596,45.765L46.933,45.765L61.476,60.913C61.652,61.096,61.942,61.102,62.125,60.927C62.308,60.751,62.314,60.461,62.139,60.278Z"/>
</g>
  <g id="Black-M" transform="matrix(1.0,0.0,0.0,1.0,2899.45001953125,1055.5400390625)">  <path stroke-width="2px" stroke-miterlimit="4" fill="#000000" stroke-dasharray="none" stroke-linejoin="round" stroke-opacity="1" stroke-linecap="round" fill-opacity="1" fill-rule="nonzero" stroke="none" d="M49.047,45.884L37.774,34.141C37.155,33.496,36.123,33.496,35.504,34.141L24.231,45.884C23.629,46.511,23.65,47.506,24.276,48.108C24.903,48.71,25.899,48.689,26.5,48.063L37.774,36.319L35.504,36.319L46.778,48.063C47.38,48.689,48.375,48.71,49.002,48.108C49.629,47.506,49.649,46.511,49.047,45.884Z"/>
  <path fill-rule="nonzero" fill-opacity="1" stroke-miterlimit="4" stroke-width="2px" stroke-dasharray="none" stroke-linejoin="round" stroke-opacity="1" stroke="none" fill="#000000" stroke-linecap="round" d="M35.066,35.23L35.066,61.652C35.066,62.521,35.77,63.225,36.639,63.225C37.508,63.225,38.212,62.521,38.212,61.652L38.212,35.23C38.212,34.361,37.508,33.657,36.639,33.657C35.77,33.657,35.066,34.361,35.066,35.23Z"/>
  <path stroke-linejoin="round" stroke-opacity="1" stroke="none" fill="#000000" stroke-miterlimit="4" fill-rule="nonzero" fill-opacity="1" stroke-dasharray="none" stroke-width="2px" stroke-linecap="round" d="M61.062,55.358C67.335,51.796,70.479,44.286,68.725,37.108C66.966,29.912,60.726,24.855,53.551,24.85L49.998,24.85L51.525,26.044C49.033,16.004,40.843,8.586,30.913,7.404C20.974,6.222,11.374,11.535,6.767,20.744C2.173,29.928,3.485,41.105,10.074,48.872C10.636,49.534,11.629,49.616,12.291,49.054C12.954,48.492,13.035,47.499,12.473,46.837C6.701,40.033,5.548,30.212,9.58,22.152C13.6,14.117,21.934,9.505,30.541,10.528C39.156,11.553,46.291,18.016,48.472,26.801C48.646,27.503,49.276,27.995,49.998,27.995L53.55,27.995C59.255,27.999,64.25,32.047,65.669,37.854C67.092,43.68,64.546,49.762,59.509,52.622C58.753,53.051,58.489,54.011,58.918,54.767C59.347,55.522,60.307,55.787,61.062,55.358Z"/>
  <path stroke-width="2px" stroke-miterlimit="4" fill="#000000" stroke-dasharray="none" stroke-linejoin="round" stroke-opacity="1" stroke-linecap="round" fill-opacity="1" fill-rule="nonzero" stroke="none" d="M49.047,45.884L37.774,34.141C37.155,33.496,36.123,33.496,35.504,34.141L24.231,45.884C23.629,46.511,23.65,47.506,24.276,48.108C24.903,48.71,25.899,48.689,26.5,48.063L37.774,36.319L35.504,36.319L46.778,48.063C47.38,48.689,48.375,48.71,49.002,48.108C49.629,47.506,49.649,46.511,49.047,45.884Z"/>
</g>
  <g id="Heavy-M" transform="matrix(1.0,0.0,0.0,1.0,2602.74001953125,1055.5400390625)">  <path stroke-width="2px" fill-opacity="1" stroke-opacity="1" fill-rule="nonzero" stroke-dasharray="none" stroke="none" fill="#000000" stroke-linejoin="round" stroke-linecap="round" stroke-miterlimit="4" d="M48.923,46.003L37.65,34.26C37.098,33.686,36.18,33.686,35.629,34.26L24.355,46.003C23.819,46.561,23.837,47.448,24.396,47.984C24.954,48.519,25.84,48.501,26.376,47.943L37.65,36.2L35.629,36.2L46.902,47.943C47.438,48.501,48.325,48.519,48.883,47.984C49.441,47.448,49.459,46.561,48.923,46.003Z"/>
  <path fill-rule="nonzero" fill="#000000" stroke-miterlimit="4" stroke="none" stroke-dasharray="none" stroke-width="2px" stroke-linejoin="round" stroke-opacity="1" stroke-linecap="round" fill-opacity="1" d="M35.239,35.23L35.239,61.652C35.239,62.426,35.866,63.053,36.639,63.053C37.413,63.053,38.04,62.426,38.04,61.652L38.04,35.23C38.04,34.456,37.413,33.829,36.639,33.829C35.866,33.829,35.239,34.456,35.239,35.23Z"/>
  <path fill-rule="nonzero" stroke-dasharray="none" stroke-width="2px" fill="#000000" stroke-linecap="round" stroke-linejoin="round" stroke="none" stroke-miterlimit="4" fill-opacity="1" stroke-opacity="1" d="M60.977,55.208C67.182,51.684,70.293,44.252,68.557,37.148C66.818,30.028,60.645,25.027,53.551,25.022L49.998,25.022L51.358,26.085C48.883,16.114,40.751,8.748,30.892,7.575C21.026,6.402,11.495,11.677,6.921,20.821C2.358,29.944,3.661,41.046,10.206,48.76C10.706,49.35,11.59,49.423,12.18,48.922C12.77,48.422,12.842,47.538,12.342,46.948C6.525,40.092,5.363,30.196,9.426,22.075C13.478,13.975,21.881,9.325,30.561,10.357C39.249,11.39,46.441,17.905,48.639,26.76C48.794,27.385,49.355,27.823,49.998,27.823L53.55,27.823C59.335,27.827,64.399,31.93,65.836,37.813C67.278,43.713,64.699,49.873,59.594,52.772C58.921,53.154,58.686,54.009,59.068,54.682C59.45,55.354,60.305,55.59,60.977,55.208Z"/>
  <path stroke-width="2px" fill-opacity="1" stroke-opacity="1" fill-rule="nonzero" stroke-dasharray="none" stroke="none" fill="#000000" stroke-linejoin="round" stroke-linecap="round" stroke-miterlimit="4" d="M48.923,46.003L37.65,34.26C37.098,33.686,36.18,33.686,35.629,34.26L24.355,46.003C23.819,46.561,23.837,47.448,24.396,47.984C24.954,48.519,25.84,48.501,26.376,47.943L37.65,36.2L35.629,36.2L46.902,47.943C47.438,48.501,48.325,48.519,48.883,47.984C49.441,47.448,49.459,46.561,48.923,46.003Z"/>
</g>
  <g id="Bold-M" transform="matrix(1.0,0.0,0.0,1.0,2306.0300195312498,1055.5400390625)">  <path stroke="none" fill-rule="nonzero" stroke-miterlimit="4" fill-opacity="1" fill="#000000" stroke-dasharray="none" stroke-opacity="1" stroke-width="2px" stroke-linejoin="round" stroke-linecap="round" d="M48.799,46.123L37.525,34.379C37.042,33.876,36.236,33.876,35.753,34.379L24.479,46.123C24.01,46.612,24.025,47.39,24.515,47.859C25.004,48.329,25.782,48.313,26.252,47.824L37.525,36.081L35.753,36.081L47.027,47.824C47.496,48.313,48.274,48.329,48.763,47.859C49.253,47.39,49.269,46.612,48.799,46.123Z"/>
  <path fill="#000000" stroke-opacity="1" stroke-miterlimit="4" fill-rule="nonzero" stroke-dasharray="none" stroke-linecap="round" stroke-linejoin="round" stroke-width="2px" fill-opacity="1" stroke="none" d="M35.411,35.23L35.411,61.652C35.411,62.331,35.961,62.881,36.639,62.881C37.318,62.881,37.868,62.331,37.868,61.652L37.868,35.23C37.868,34.552,37.318,34.002,36.639,34.002C35.961,34.002,35.411,34.552,35.411,35.23Z"/>
  <path stroke-width="2px" stroke-opacity="1" stroke-linejoin="round" stroke-linecap="round" stroke-dasharray="none" stroke="none" stroke-miterlimit="4" fill-rule="nonzero" fill="#000000" fill-opacity="1" d="M60.892,55.058C67.029,51.573,70.108,44.219,68.39,37.189C66.669,30.145,60.565,25.199,53.55,25.194L49.998,25.194L51.191,26.127C48.733,16.224,40.659,8.911,30.872,7.747C21.079,6.582,11.617,11.818,7.075,20.898C2.542,29.959,3.837,40.987,10.337,48.649C10.776,49.166,11.551,49.23,12.068,48.791C12.586,48.352,12.649,47.577,12.21,47.059C6.349,40.15,5.179,30.181,9.272,21.998C13.356,13.834,21.828,9.145,30.582,10.186C39.341,11.228,46.591,17.795,48.806,26.718C48.942,27.266,49.434,27.651,49.998,27.651L53.55,27.651C59.416,27.655,64.547,31.813,66.003,37.773C67.463,43.746,64.851,49.984,59.679,52.922C59.089,53.257,58.882,54.007,59.217,54.597C59.552,55.187,60.302,55.393,60.892,55.058Z"/>
  <path stroke="none" fill-rule="nonzero" stroke-miterlimit="4" fill-opacity="1" fill="#000000" stroke-dasharray="none" stroke-opacity="1" stroke-width="2px" stroke-linejoin="round" stroke-linecap="round" d="M48.799,46.123L37.525,34.379C37.042,33.876,36.236,33.876,35.753,34.379L24.479,46.123C24.01,46.612,24.025,47.39,24.515,47.859C25.004,48.329,25.782,48.313,26.252,47.824L37.525,36.081L35.753,36.081L47.027,47.824C47.496,48.313,48.274,48.329,48.763,47.859C49.253,47.39,49.269,46.612,48.799,46.123Z"/>
</g>
  <g id="Semibold-M" transform="matrix(1.0,0.0,0.0,1.0,2009.32001953125,1055.5400390625)">  <path stroke-linecap="round" stroke-miterlimit="4" stroke-dasharray="none" fill-opacity="1" fill="#000000" fill-rule="nonzero" stroke-linejoin="round" stroke="none" stroke-opacity="1" stroke-width="2px" d="M48.675,46.242L37.401,34.499C36.985,34.066,36.293,34.066,35.877,34.499L24.604,46.242C24.2,46.663,24.213,47.331,24.634,47.735C25.055,48.139,25.723,48.126,26.127,47.705L37.401,35.961L35.877,35.961L47.151,47.705C47.555,48.126,48.223,48.139,48.644,47.735C49.065,47.331,49.079,46.663,48.675,46.242Z"/>
  <path stroke-linecap="round" fill="#000000" stroke-width="2px" fill-opacity="1" stroke-linejoin="round" stroke-miterlimit="4" stroke-opacity="1" stroke-dasharray="none" stroke="none" fill-rule="nonzero" d="M35.583,35.23L35.583,61.652C35.583,62.236,36.056,62.709,36.639,62.709C37.222,62.709,37.695,62.236,37.695,61.652L37.695,35.23C37.695,34.647,37.222,34.174,36.639,34.174C36.056,34.174,35.583,34.647,35.583,35.23Z"/>
  <path fill-rule="nonzero" stroke-opacity="1" stroke="none" stroke-miterlimit="4" stroke-linecap="round" stroke-linejoin="round" stroke-width="2px" stroke-dasharray="none" fill="#000000" fill-opacity="1" d="M60.807,54.908C66.877,51.462,69.922,44.186,68.223,37.23C66.52,30.262,60.484,25.371,53.55,25.366L49.998,25.366L51.023,26.168C48.583,16.334,40.566,9.073,30.851,7.918C21.131,6.762,11.739,11.959,7.229,20.975C2.727,29.975,4.013,40.929,10.468,48.537C10.846,48.982,11.512,49.037,11.957,48.66C12.402,48.282,12.456,47.616,12.079,47.171C6.173,40.209,4.994,30.165,9.118,21.921C13.234,13.693,21.776,8.965,30.602,10.015C39.434,11.066,46.742,17.685,48.973,26.677C49.09,27.148,49.513,27.479,49.998,27.479L53.55,27.479C59.496,27.483,64.696,31.696,66.171,37.732C67.649,43.779,65.004,50.096,59.764,53.072C59.257,53.36,59.079,54.004,59.367,54.512C59.655,55.019,60.3,55.196,60.807,54.908Z"/>
  <path stroke-linecap="round" stroke-miterlimit="4" stroke-dasharray="none" fill-opacity="1" fill="#000000" fill-rule="nonzero" stroke-linejoin="round" stroke="none" stroke-opacity="1" stroke-width="2px" d="M48.675,46.242L37.401,34.499C36.985,34.066,36.293,34.066,35.877,34.499L24.604,46.242C24.2,46.663,24.213,47.331,24.634,47.735C25.055,48.139,25.723,48.126,26.127,47.705L37.401,35.961L35.877,35.961L47.151,47.705C47.555,48.126,48.223,48.139,48.644,47.735C49.065,47.331,49.079,46.663,48.675,46.242Z"/>
</g>
  <g id="Medium-M" transform="matrix(1.0,0.0,0.0,1.0,1712.61001953125,1055.5400390625)">  <path stroke-linecap="round" stroke-width="2px" stroke-miterlimit="4" fill="#000000" fill-opacity="1" stroke-dasharray="none" stroke="none" stroke-linejoin="round" stroke-opacity="1" fill-rule="nonzero" d="M48.55,46.361L37.277,34.618C36.929,34.255,36.349,34.255,36.001,34.618L24.728,46.361C24.39,46.713,24.401,47.273,24.753,47.611C25.106,47.949,25.665,47.938,26.003,47.585L37.277,35.842L36.001,35.842L47.275,47.585C47.613,47.938,48.173,47.949,48.525,47.611C48.877,47.273,48.888,46.713,48.55,46.361Z"/>
  <path stroke-dasharray="none" stroke-linejoin="round" stroke-width="2px" fill-opacity="1" fill="#000000" stroke-opacity="1" stroke-linecap="round" stroke-miterlimit="4" fill-rule="nonzero" stroke="none" d="M35.755,35.23L35.755,61.652C35.755,62.141,36.151,62.536,36.639,62.536C37.127,62.536,37.523,62.141,37.523,61.652L37.523,35.23C37.523,34.742,37.127,34.346,36.639,34.346C36.151,34.346,35.755,34.742,35.755,35.23Z"/>
  <path stroke-miterlimit="4" stroke-opacity="1" stroke="none" fill-opacity="1" stroke-linejoin="round" stroke-dasharray="none" fill-rule="nonzero" fill="#000000" stroke-width="2px" stroke-linecap="round" d="M60.722,54.759C66.724,51.35,69.737,44.153,68.055,37.271C66.372,30.379,60.403,25.543,53.55,25.539L49.998,25.539L50.856,26.21C48.433,16.444,40.474,9.235,30.831,8.089C21.184,6.941,11.861,12.101,7.383,21.053C2.912,29.99,4.189,40.87,10.6,48.426C10.915,48.798,11.473,48.844,11.845,48.528C12.218,48.212,12.263,47.655,11.948,47.282C5.997,40.268,4.809,30.15,8.964,21.843C13.112,13.551,21.723,8.786,30.622,9.844C39.526,10.903,46.892,17.575,49.14,26.635C49.238,27.03,49.592,27.307,49.998,27.307L53.55,27.307C59.577,27.311,64.845,31.579,66.338,37.691C67.834,43.812,65.157,50.207,59.849,53.221C59.425,53.462,59.276,54.002,59.517,54.426C59.758,54.851,60.298,55,60.722,54.759Z"/>
  <path stroke-linecap="round" stroke-width="2px" stroke-miterlimit="4" fill="#000000" fill-opacity="1" stroke-dasharray="none" stroke="none" stroke-linejoin="round" stroke-opacity="1" fill-rule="nonzero" d="M48.55,46.361L37.277,34.618C36.929,34.255,36.349,34.255,36.001,34.618L24.728,46.361C24.39,46.713,24.401,47.273,24.753,47.611C25.106,47.949,25.665,47.938,26.003,47.585L37.277,35.842L36.001,35.842L47.275,47.585C47.613,47.938,48.173,47.949,48.525,47.611C48.877,47.273,48.888,46.713,48.55,46.361Z"/>
</g>
  <g id="Regular-M" transform="matrix(1.0,0.0,0.0,1.0,1415.9000195312499,1055.5400390625)">  <path fill-rule="nonzero" fill="#000000" fill-opacity="1" stroke-linecap="round" stroke-width="2px" stroke-dasharray="none" stroke="none" stroke-opacity="1" stroke-linejoin="round" stroke-miterlimit="4" d="M48.426,46.48L37.153,34.737C36.872,34.445,36.406,34.445,36.126,34.737L24.852,46.48C24.58,46.764,24.589,47.215,24.873,47.487C25.156,47.759,25.607,47.75,25.879,47.466L37.153,35.723L36.126,35.723L47.399,47.466C47.671,47.75,48.122,47.759,48.406,47.487C48.689,47.215,48.698,46.764,48.426,46.48Z"/>
  <path stroke-dasharray="none" stroke-miterlimit="4" stroke="none" stroke-opacity="1" fill-rule="nonzero" fill="#000000" fill-opacity="1" stroke-linejoin="round" stroke-linecap="round" stroke-width="2px" d="M35.927,35.23L35.927,61.652C35.927,62.046,36.246,62.364,36.639,62.364C37.032,62.364,37.351,62.046,37.351,61.652L37.351,35.23C37.351,34.837,37.032,34.518,36.639,34.518C36.246,34.518,35.927,34.837,35.927,35.23Z"/>
  <path fill-opacity="1" stroke-opacity="1" stroke-linecap="round" stroke-width="2px" fill="#000000" stroke-linejoin="round" stroke="none" stroke-miterlimit="4" stroke-dasharray="none" fill-rule="nonzero" d="M60.637,54.609C66.571,51.239,69.552,44.12,67.888,37.312C66.223,30.496,60.323,25.715,53.55,25.711L49.998,25.711L50.689,26.251C48.283,16.555,40.382,9.398,30.811,8.26C21.236,7.121,11.983,12.242,7.537,21.13C3.097,30.006,4.365,40.811,10.731,48.315C10.985,48.614,11.434,48.651,11.734,48.397C12.034,48.143,12.071,47.693,11.816,47.394C5.821,40.326,4.624,30.134,8.81,21.766C12.99,13.41,21.671,8.606,30.643,9.673C39.618,10.741,47.042,17.465,49.308,26.594C49.386,26.911,49.671,27.134,49.998,27.134L53.55,27.134C59.657,27.138,64.994,31.462,66.505,37.65C68.019,43.845,65.309,50.319,59.934,53.371C59.592,53.565,59.473,54,59.667,54.341C59.861,54.683,60.295,54.803,60.637,54.609Z"/>
  <path fill-rule="nonzero" fill="#000000" fill-opacity="1" stroke-linecap="round" stroke-width="2px" stroke-dasharray="none" stroke="none" stroke-opacity="1" stroke-linejoin="round" stroke-miterlimit="4" d="M48.426,46.48L37.153,34.737C36.872,34.445,36.406,34.445,36.126,34.737L24.852,46.48C24.58,46.764,24.589,47.215,24.873,47.487C25.156,47.759,25.607,47.75,25.879,47.466L37.153,35.723L36.126,35.723L47.399,47.466C47.671,47.75,48.122,47.759,48.406,47.487C48.689,47.215,48.698,46.764,48.426,46.48Z"/>
</g>
  <g id="Light-M" transform="matrix(1.0,0.0,0.0,1.0,1119.19001953125,1055.5400390625)">  <path stroke-opacity="1" stroke-dasharray="none" stroke-miterlimit="4" stroke-linecap="round" fill-opacity="1" fill="#000000" fill-rule="nonzero" stroke="none" stroke-linejoin="round" stroke-width="2px" d="M48.341,46.563L37.067,34.819C36.834,34.576,36.445,34.576,36.211,34.819L24.938,46.563C24.711,46.799,24.718,47.174,24.955,47.401C25.191,47.628,25.567,47.62,25.793,47.384L37.067,35.641L36.211,35.641L47.485,47.384C47.712,47.62,48.087,47.628,48.323,47.401C48.56,47.174,48.567,46.799,48.341,46.563Z"/>
  <path fill-rule="nonzero" stroke-linejoin="round" fill="#000000" stroke-dasharray="none" stroke-miterlimit="4" stroke-width="2px" fill-opacity="1" stroke-opacity="1" stroke-linecap="round" stroke="none" d="M36.046,35.23L36.046,61.652C36.046,61.98,36.312,62.246,36.639,62.246C36.967,62.246,37.232,61.98,37.232,61.652L37.232,35.23C37.232,34.902,36.967,34.637,36.639,34.637C36.312,34.637,36.046,34.902,36.046,35.23Z"/>
  <path stroke-dasharray="none" stroke-linejoin="round" stroke-linecap="round" fill-rule="nonzero" stroke="none" stroke-width="2px" fill-opacity="1" fill="#000000" stroke-miterlimit="4" stroke-opacity="1" d="M60.578,54.506C66.466,51.162,69.424,44.097,67.773,37.34C66.12,30.577,60.267,25.834,53.55,25.829L49.998,25.829L50.574,26.28C48.179,16.63,40.318,9.51,30.797,8.377C21.273,7.245,12.067,12.339,7.643,21.183C3.224,30.017,4.487,40.771,10.821,48.238C11.033,48.488,11.407,48.518,11.657,48.306C11.907,48.094,11.938,47.72,11.726,47.47C5.699,40.367,4.497,30.124,8.704,21.713C12.906,13.313,21.635,8.482,30.657,9.555C39.682,10.629,47.145,17.389,49.423,26.565C49.488,26.83,49.726,27.016,49.998,27.016L53.55,27.016C59.713,27.02,65.096,31.382,66.621,37.622C68.147,43.868,65.415,50.395,59.993,53.474C59.708,53.636,59.608,53.998,59.77,54.283C59.932,54.568,60.294,54.667,60.578,54.506Z"/>
  <path stroke-opacity="1" stroke-dasharray="none" stroke-miterlimit="4" stroke-linecap="round" fill-opacity="1" fill="#000000" fill-rule="nonzero" stroke="none" stroke-linejoin="round" stroke-width="2px" d="M48.341,46.563L37.067,34.819C36.834,34.576,36.445,34.576,36.211,34.819L24.938,46.563C24.711,46.799,24.718,47.174,24.955,47.401C25.191,47.628,25.567,47.62,25.793,47.384L37.067,35.641L36.211,35.641L47.485,47.384C47.712,47.62,48.087,47.628,48.323,47.401C48.56,47.174,48.567,46.799,48.341,46.563Z"/>
</g>
  <g id="Thin-M" transform="matrix(1.0,0.0,0.0,1.0,822.48001953125,1055.5400390625)">  <path fill-opacity="1" stroke-opacity="1" stroke-miterlimit="4" stroke="none" fill-rule="nonzero" fill="#000000" stroke-linecap="round" stroke-width="2px" stroke-dasharray="none" stroke-linejoin="round" d="M48.255,46.645L36.981,34.901C36.795,34.707,36.484,34.707,36.297,34.901L25.023,46.645C24.842,46.834,24.848,47.134,25.037,47.316C25.226,47.497,25.526,47.491,25.708,47.302L36.981,35.559L36.297,35.559L47.57,47.302C47.752,47.491,48.052,47.497,48.241,47.316C48.43,47.134,48.436,46.834,48.255,46.645Z"/>
  <path fill-opacity="1" stroke-dasharray="none" stroke-opacity="1" stroke-width="2px" stroke="none" stroke-miterlimit="4" fill="#000000" stroke-linecap="round" fill-rule="nonzero" stroke-linejoin="round" d="M36.165,35.23L36.165,61.652C36.165,61.915,36.377,62.127,36.639,62.127C36.901,62.127,37.114,61.915,37.114,61.652L37.114,35.23C37.114,34.968,36.901,34.756,36.639,34.756C36.377,34.756,36.165,34.968,36.165,35.23Z"/>
  <path fill="#000000" stroke-dasharray="none" stroke-opacity="1" fill-opacity="1" stroke-width="2px" stroke-linejoin="round" stroke="none" fill-rule="nonzero" stroke-linecap="round" stroke-miterlimit="4" d="M60.52,54.403C66.361,51.085,69.296,44.074,67.658,37.368C66.018,30.657,60.212,25.953,53.55,25.948L49.998,25.948L50.459,26.308C48.076,16.706,40.254,9.622,30.783,8.495C21.309,7.368,12.151,12.437,7.749,21.236C3.351,30.027,4.608,40.73,10.912,48.161C11.081,48.361,11.381,48.385,11.581,48.216C11.78,48.046,11.805,47.747,11.635,47.547C5.578,40.407,4.37,30.113,8.598,21.66C12.822,13.215,21.598,8.359,30.671,9.438C39.746,10.517,47.249,17.313,49.538,26.537C49.59,26.748,49.78,26.897,49.998,26.897L53.55,26.897C59.768,26.901,65.198,31.301,66.736,37.594C68.275,43.891,65.52,50.472,60.051,53.577C59.823,53.707,59.744,53.996,59.873,54.224C60.002,54.452,60.292,54.532,60.52,54.403Z"/>
  <path fill-opacity="1" stroke-opacity="1" stroke-miterlimit="4" stroke="none" fill-rule="nonzero" fill="#000000" stroke-linecap="round" stroke-width="2px" stroke-dasharray="none" stroke-linejoin="round" d="M48.255,46.645L36.981,34.901C36.795,34.707,36.484,34.707,36.297,34.901L25.023,46.645C24.842,46.834,24.848,47.134,25.037,47.316C25.226,47.497,25.526,47.491,25.708,47.302L36.981,35.559L36.297,35.559L47.57,47.302C47.752,47.491,48.052,47.497,48.241,47.316C48.43,47.134,48.436,46.834,48.255,46.645Z"/>
</g>
  <g id="Ultralight-M" transform="matrix(1.0,0.0,0.0,1.0,525.77001953125,1055.5400390625)">  <path stroke-width="2px" fill-opacity="1" stroke-linejoin="round" stroke-miterlimit="4" stroke-linecap="round" fill-rule="nonzero" fill="#000000" stroke-opacity="1" stroke="none" stroke-dasharray="none" d="M48.169,46.727L36.896,34.984C36.756,34.838,36.522,34.838,36.382,34.984L25.109,46.727C24.973,46.869,24.977,47.094,25.119,47.23C25.261,47.366,25.486,47.362,25.622,47.22L36.896,35.476L36.382,35.476L47.656,47.22C47.792,47.362,48.017,47.366,48.159,47.23C48.301,47.094,48.306,46.869,48.169,46.727Z"/>
  <path stroke-dasharray="none" fill-opacity="1" stroke-miterlimit="4" fill-rule="nonzero" stroke-linecap="round" fill="#000000" stroke-width="2px" stroke-opacity="1" stroke="none" stroke-linejoin="round" d="M36.283,35.23L36.283,61.652C36.283,61.849,36.443,62.008,36.639,62.008C36.836,62.008,36.995,61.849,36.995,61.652L36.995,35.23C36.995,35.033,36.836,34.874,36.639,34.874C36.443,34.874,36.283,35.033,36.283,35.23Z"/>
  <path stroke-miterlimit="4" stroke="none" stroke-linejoin="round" fill="#000000" fill-opacity="1" fill-rule="nonzero" stroke-linecap="round" stroke-dasharray="none" stroke-opacity="1" stroke-width="2px" d="M60.461,54.299C66.256,51.009,69.169,44.051,67.542,37.396C65.915,30.738,60.157,26.071,53.55,26.067L49.998,26.067L50.344,26.337C47.972,16.782,40.191,9.734,30.769,8.613C21.345,7.492,12.235,12.534,7.855,21.289C3.479,30.038,4.729,40.69,11.002,48.084C11.129,48.234,11.354,48.253,11.504,48.125C11.654,47.998,11.672,47.774,11.545,47.624C5.457,40.448,4.242,30.102,8.492,21.607C12.738,13.118,21.562,8.235,30.685,9.32C39.809,10.405,47.352,17.237,49.653,26.508C49.692,26.667,49.835,26.778,49.998,26.778L53.55,26.778C59.824,26.783,65.301,31.221,66.851,37.565C68.402,43.914,65.625,50.549,60.11,53.681C59.939,53.778,59.879,53.995,59.976,54.166C60.073,54.337,60.29,54.396,60.461,54.299Z"/>
  <path stroke-width="2px" fill-opacity="1" stroke-linejoin="round" stroke-miterlimit="4" stroke-linecap="round" fill-rule="nonzero" fill="#000000" stroke-opacity="1" stroke="none" stroke-dasharray="none" d="M48.169,46.727L36.896,34.984C36.756,34.838,36.522,34.838,36.382,34.984L25.109,46.727C24.973,46.869,24.977,47.094,25.119,47.23C25.261,47.366,25.486,47.362,25.622,47.22L36.896,35.476L36.382,35.476L47.656,47.22C47.792,47.362,48.017,47.366,48.159,47.23C48.301,47.094,48.306,46.869,48.169,46.727Z"/>
</g>
  <g id="Black-S" transform="matrix(1.0,0.0,0.0,1.0,2907.0949252929686,633.1849448242187)">  <path stroke-width="2px" stroke-miterlimit="4" fill="#000000" stroke-dasharray="none" stroke-linejoin="round" stroke-opacity="1" stroke-linecap="round" fill-opacity="1" fill-rule="nonzero" stroke="none" d="M38.404,35.927L29.577,26.732C29.092,26.227,28.285,26.227,27.8,26.732L18.973,35.927C18.502,36.418,18.518,37.197,19.008,37.669C19.499,38.14,20.279,38.124,20.75,37.633L29.577,28.438L27.8,28.438L36.627,37.633C37.098,38.124,37.878,38.14,38.369,37.669C38.859,37.197,38.875,36.418,38.404,35.927Z"/>
  <path fill-rule="nonzero" fill-opacity="1" stroke-miterlimit="4" stroke-width="2px" stroke-dasharray="none" stroke-linejoin="round" stroke-opacity="1" stroke="none" fill="#000000" stroke-linecap="round" d="M27.457,27.585L27.457,48.274C27.457,48.954,28.008,49.505,28.688,49.505C29.369,49.505,29.92,48.954,29.92,48.274L29.92,27.585C29.92,26.905,29.369,26.353,28.688,26.353C28.008,26.353,27.457,26.905,27.457,27.585Z"/>
  <path stroke-linejoin="round" stroke-opacity="1" stroke="none" fill="#000000" stroke-miterlimit="4" fill-rule="nonzero" fill-opacity="1" stroke-dasharray="none" stroke-width="2px" stroke-linecap="round" d="M47.812,43.345C52.723,40.556,55.185,34.676,53.811,29.055C52.435,23.421,47.548,19.461,41.93,19.457L39.149,19.457L40.344,20.392C38.393,12.531,31.98,6.723,24.204,5.798C16.422,4.872,8.906,9.032,5.298,16.243C1.701,23.434,2.729,32.185,7.888,38.267C8.328,38.785,9.105,38.849,9.624,38.409C10.143,37.969,10.206,37.192,9.766,36.673C5.247,31.346,4.344,23.656,7.501,17.345C10.649,11.053,17.174,7.442,23.914,8.244C30.66,9.046,36.246,14.106,37.953,20.986C38.09,21.535,38.583,21.92,39.149,21.92L41.929,21.92C46.396,21.923,50.308,25.093,51.419,29.64C52.533,34.201,50.54,38.963,46.595,41.203C46.004,41.539,45.797,42.291,46.133,42.882C46.469,43.474,47.22,43.681,47.812,43.345Z"/>
  <path stroke-width="2px" stroke-miterlimit="4" fill="#000000" stroke-dasharray="none" stroke-linejoin="round" stroke-opacity="1" stroke-linecap="round" fill-opacity="1" fill-rule="nonzero" stroke="none" d="M38.404,35.927L29.577,26.732C29.092,26.227,28.285,26.227,27.8,26.732L18.973,35.927C18.502,36.418,18.518,37.197,19.008,37.669C19.499,38.14,20.279,38.124,20.75,37.633L29.577,28.438L27.8,28.438L36.627,37.633C37.098,38.124,37.878,38.14,38.369,37.669C38.859,37.197,38.875,36.418,38.404,35.927Z"/>
</g>
  <g id="Heavy-S" transform="matrix(1.0,0.0,0.0,1.0,2610.3849252929685,633.1849448242187)">  <path stroke-width="2px" fill-opacity="1" stroke-opacity="1" fill-rule="nonzero" stroke-dasharray="none" stroke="none" fill="#000000" stroke-linejoin="round" stroke-linecap="round" stroke-miterlimit="4" d="M38.307,36.021L29.48,26.826C29.048,26.376,28.329,26.376,27.897,26.826L19.07,36.021C18.651,36.458,18.665,37.152,19.102,37.571C19.539,37.991,20.233,37.977,20.652,37.54L29.48,28.345L27.897,28.345L36.724,37.54C37.144,37.977,37.838,37.991,38.275,37.571C38.712,37.152,38.726,36.458,38.307,36.021Z"/>
  <path fill-rule="nonzero" fill="#000000" stroke-miterlimit="4" stroke="none" stroke-dasharray="none" stroke-width="2px" stroke-linejoin="round" stroke-opacity="1" stroke-linecap="round" fill-opacity="1" d="M27.592,27.585L27.592,48.274C27.592,48.88,28.083,49.371,28.688,49.371C29.294,49.371,29.785,48.88,29.785,48.274L29.785,27.585C29.785,26.979,29.294,26.488,28.688,26.488C28.083,26.488,27.592,26.979,27.592,27.585Z"/>
  <path fill-rule="nonzero" stroke-dasharray="none" stroke-width="2px" fill="#000000" stroke-linecap="round" stroke-linejoin="round" stroke="none" stroke-miterlimit="4" fill-opacity="1" stroke-opacity="1" d="M47.745,43.228C52.603,40.469,55.04,34.65,53.68,29.087C52.318,23.512,47.485,19.596,41.93,19.592L39.149,19.592L40.213,20.425C38.275,12.617,31.908,6.85,24.189,5.932C16.463,5.013,9.001,9.143,5.419,16.303C1.846,23.446,2.867,32.139,7.991,38.179C8.383,38.641,9.075,38.698,9.537,38.306C9.999,37.914,10.055,37.222,9.664,36.76C5.109,31.392,4.2,23.644,7.381,17.284C10.553,10.943,17.133,7.301,23.93,8.11C30.732,8.919,36.364,14.02,38.084,20.953C38.206,21.442,38.645,21.786,39.149,21.786L41.929,21.786C46.459,21.789,50.424,25.001,51.55,29.608C52.678,34.227,50.659,39.051,46.662,41.32C46.135,41.62,45.951,42.289,46.25,42.816C46.549,43.342,47.218,43.527,47.745,43.228Z"/>
  <path stroke-width="2px" fill-opacity="1" stroke-opacity="1" fill-rule="nonzero" stroke-dasharray="none" stroke="none" fill="#000000" stroke-linejoin="round" stroke-linecap="round" stroke-miterlimit="4" d="M38.307,36.021L29.48,26.826C29.048,26.376,28.329,26.376,27.897,26.826L19.07,36.021C18.651,36.458,18.665,37.152,19.102,37.571C19.539,37.991,20.233,37.977,20.652,37.54L29.48,28.345L27.897,28.345L36.724,37.54C37.144,37.977,37.838,37.991,38.275,37.571C38.712,37.152,38.726,36.458,38.307,36.021Z"/>
</g>
  <g id="Bold-S" transform="matrix(1.0,0.0,0.0,1.0,2313.6749252929685,633.1849448242187)">  <path stroke="none" fill-rule="nonzero" stroke-miterlimit="4" fill-opacity="1" fill="#000000" stroke-dasharray="none" stroke-opacity="1" stroke-width="2px" stroke-linejoin="round" stroke-linecap="round" d="M38.21,36.114L29.382,26.919C29.004,26.525,28.373,26.525,27.995,26.919L19.167,36.114C18.799,36.497,18.812,37.106,19.195,37.474C19.578,37.842,20.187,37.829,20.555,37.446L29.382,28.251L27.995,28.251L36.822,37.446C37.19,37.829,37.799,37.842,38.182,37.474C38.565,37.106,38.577,36.497,38.21,36.114Z"/>
  <path fill="#000000" stroke-opacity="1" stroke-miterlimit="4" fill-rule="nonzero" stroke-dasharray="none" stroke-linecap="round" stroke-linejoin="round" stroke-width="2px" fill-opacity="1" stroke="none" d="M27.727,27.585L27.727,48.274C27.727,48.805,28.157,49.236,28.688,49.236C29.22,49.236,29.65,48.805,29.65,48.274L29.65,27.585C29.65,27.054,29.22,26.623,28.688,26.623C28.157,26.623,27.727,27.054,27.727,27.585Z"/>
  <path stroke-width="2px" stroke-opacity="1" stroke-linejoin="round" stroke-linecap="round" stroke-dasharray="none" stroke="none" stroke-miterlimit="4" fill-rule="nonzero" fill="#000000" fill-opacity="1" d="M47.679,43.111C52.484,40.382,54.894,34.624,53.549,29.119C52.202,23.604,47.422,19.731,41.93,19.727L39.149,19.727L40.082,20.457C38.158,12.704,31.836,6.977,24.173,6.066C16.505,5.154,9.096,9.253,5.54,16.363C1.991,23.458,3.004,32.093,8.094,38.092C8.437,38.497,9.044,38.547,9.449,38.203C9.855,37.86,9.904,37.253,9.561,36.848C4.971,31.438,4.055,23.632,7.26,17.224C10.458,10.832,17.092,7.161,23.945,7.976C30.804,8.792,36.481,13.934,38.215,20.921C38.322,21.35,38.707,21.651,39.149,21.651L41.929,21.651C46.522,21.654,50.541,24.91,51.681,29.576C52.824,34.253,50.779,39.138,46.729,41.438C46.267,41.7,46.105,42.287,46.367,42.749C46.63,43.211,47.217,43.373,47.679,43.111Z"/>
  <path stroke="none" fill-rule="nonzero" stroke-miterlimit="4" fill-opacity="1" fill="#000000" stroke-dasharray="none" stroke-opacity="1" stroke-width="2px" stroke-linejoin="round" stroke-linecap="round" d="M38.21,36.114L29.382,26.919C29.004,26.525,28.373,26.525,27.995,26.919L19.167,36.114C18.799,36.497,18.812,37.106,19.195,37.474C19.578,37.842,20.187,37.829,20.555,37.446L29.382,28.251L27.995,28.251L36.822,37.446C37.19,37.829,37.799,37.842,38.182,37.474C38.565,37.106,38.577,36.497,38.21,36.114Z"/>
</g>
  <g id="Semibold-S" transform="matrix(1.0,0.0,0.0,1.0,2016.9649252929687,633.1849448242187)">  <path stroke-linecap="round" stroke-miterlimit="4" stroke-dasharray="none" fill-opacity="1" fill="#000000" fill-rule="nonzero" stroke-linejoin="round" stroke="none" stroke-opacity="1" stroke-width="2px" d="M38.112,36.207L29.285,27.012C28.96,26.673,28.417,26.673,28.092,27.012L19.265,36.207C18.948,36.537,18.959,37.06,19.288,37.377C19.618,37.693,20.141,37.682,20.458,37.353L29.285,28.158L28.092,28.158L36.919,37.353C37.235,37.682,37.759,37.693,38.088,37.377C38.418,37.06,38.429,36.537,38.112,36.207Z"/>
  <path stroke-linecap="round" fill="#000000" stroke-width="2px" fill-opacity="1" stroke-linejoin="round" stroke-miterlimit="4" stroke-opacity="1" stroke-dasharray="none" stroke="none" fill-rule="nonzero" d="M27.861,27.585L27.861,48.274C27.861,48.731,28.232,49.101,28.688,49.101C29.145,49.101,29.515,48.731,29.515,48.274L29.515,27.585C29.515,27.128,29.145,26.758,28.688,26.758C28.232,26.758,27.861,27.128,27.861,27.585Z"/>
  <path fill-rule="nonzero" stroke-opacity="1" stroke="none" stroke-miterlimit="4" stroke-linecap="round" stroke-linejoin="round" stroke-width="2px" stroke-dasharray="none" fill="#000000" fill-opacity="1" d="M47.612,42.993C52.364,40.294,54.749,34.598,53.418,29.151C52.085,23.695,47.359,19.866,41.93,19.862L39.149,19.862L39.951,20.49C38.04,12.79,31.763,7.104,24.157,6.199C16.546,5.294,9.192,9.364,5.66,16.424C2.135,23.47,3.142,32.047,8.197,38.005C8.492,38.353,9.014,38.396,9.362,38.1C9.711,37.805,9.753,37.283,9.458,36.935C4.833,31.484,3.91,23.619,7.14,17.164C10.362,10.721,17.051,7.02,23.961,7.842C30.876,8.664,36.599,13.847,38.346,20.888C38.438,21.257,38.769,21.516,39.149,21.516L41.929,21.516C46.586,21.519,50.657,24.818,51.812,29.544C52.969,34.279,50.898,39.225,46.795,41.555C46.398,41.781,46.259,42.285,46.484,42.683C46.71,43.08,47.215,43.219,47.612,42.993Z"/>
  <path stroke-linecap="round" stroke-miterlimit="4" stroke-dasharray="none" fill-opacity="1" fill="#000000" fill-rule="nonzero" stroke-linejoin="round" stroke="none" stroke-opacity="1" stroke-width="2px" d="M38.112,36.207L29.285,27.012C28.96,26.673,28.417,26.673,28.092,27.012L19.265,36.207C18.948,36.537,18.959,37.06,19.288,37.377C19.618,37.693,20.141,37.682,20.458,37.353L29.285,28.158L28.092,28.158L36.919,37.353C37.235,37.682,37.759,37.693,38.088,37.377C38.418,37.06,38.429,36.537,38.112,36.207Z"/>
</g>
  <g id="Medium-S" transform="matrix(1.0,0.0,0.0,1.0,1720.2549252929687,633.1849448242187)">  <path stroke-linecap="round" stroke-width="2px" stroke-miterlimit="4" fill="#000000" fill-opacity="1" stroke-dasharray="none" stroke="none" stroke-linejoin="round" stroke-opacity="1" fill-rule="nonzero" d="M38.015,36.301L29.188,27.106C28.915,26.822,28.462,26.822,28.189,27.106L19.362,36.301C19.097,36.577,19.106,37.015,19.382,37.279C19.658,37.544,20.096,37.535,20.36,37.259L29.188,28.064L28.189,28.064L37.016,37.259C37.281,37.535,37.719,37.544,37.995,37.279C38.271,37.015,38.28,36.577,38.015,36.301Z"/>
  <path stroke-dasharray="none" stroke-linejoin="round" stroke-width="2px" fill-opacity="1" fill="#000000" stroke-opacity="1" stroke-linecap="round" stroke-miterlimit="4" fill-rule="nonzero" stroke="none" d="M27.996,27.585L27.996,48.274C27.996,48.656,28.306,48.966,28.688,48.966C29.071,48.966,29.381,48.656,29.381,48.274L29.381,27.585C29.381,27.203,29.071,26.893,28.688,26.893C28.306,26.893,27.996,27.203,27.996,27.585Z"/>
  <path stroke-miterlimit="4" stroke-opacity="1" stroke="none" fill-opacity="1" stroke-linejoin="round" stroke-dasharray="none" fill-rule="nonzero" fill="#000000" stroke-width="2px" stroke-linecap="round" d="M47.545,42.876C52.245,40.207,54.604,34.572,53.287,29.183C51.969,23.787,47.296,20,41.93,19.997L39.149,19.997L39.82,20.522C37.923,12.876,31.691,7.231,24.141,6.333C16.587,5.435,9.287,9.475,5.781,16.484C2.28,23.482,3.28,32.001,8.299,37.918C8.547,38.209,8.983,38.245,9.275,37.998C9.566,37.75,9.602,37.314,9.355,37.022C4.696,31.53,3.765,23.607,7.019,17.103C10.267,10.611,17.009,6.879,23.977,7.708C30.949,8.537,36.716,13.761,38.477,20.856C38.554,21.164,38.831,21.381,39.149,21.381L41.929,21.381C46.649,21.384,50.774,24.727,51.943,29.512C53.114,34.305,51.018,39.312,46.862,41.672C46.529,41.861,46.413,42.284,46.602,42.616C46.79,42.948,47.213,43.065,47.545,42.876Z"/>
  <path stroke-linecap="round" stroke-width="2px" stroke-miterlimit="4" fill="#000000" fill-opacity="1" stroke-dasharray="none" stroke="none" stroke-linejoin="round" stroke-opacity="1" fill-rule="nonzero" d="M38.015,36.301L29.188,27.106C28.915,26.822,28.462,26.822,28.189,27.106L19.362,36.301C19.097,36.577,19.106,37.015,19.382,37.279C19.658,37.544,20.096,37.535,20.36,37.259L29.188,28.064L28.189,28.064L37.016,37.259C37.281,37.535,37.719,37.544,37.995,37.279C38.271,37.015,38.28,36.577,38.015,36.301Z"/>
</g>
  <g id="Regular-S" transform="matrix(1.0,0.0,0.0,1.0,1423.5449252929686,633.1849448242187)">  <path fill-rule="nonzero" fill="#000000" fill-opacity="1" stroke-linecap="round" stroke-width="2px" stroke-dasharray="none" stroke="none" stroke-opacity="1" stroke-linejoin="round" stroke-miterlimit="4" d="M37.918,36.394L29.09,27.199C28.871,26.971,28.506,26.971,28.286,27.199L19.459,36.394C19.246,36.616,19.253,36.969,19.475,37.182C19.697,37.395,20.05,37.388,20.263,37.166L29.09,27.971L28.286,27.971L37.114,37.166C37.327,37.388,37.68,37.395,37.902,37.182C38.124,36.969,38.131,36.616,37.918,36.394Z"/>
  <path stroke-dasharray="none" stroke-miterlimit="4" stroke="none" stroke-opacity="1" fill-rule="nonzero" fill="#000000" fill-opacity="1" stroke-linejoin="round" stroke-linecap="round" stroke-width="2px" d="M28.131,27.585L28.131,48.274C28.131,48.582,28.381,48.831,28.688,48.831C28.996,48.831,29.246,48.582,29.246,48.274L29.246,27.585C29.246,27.277,28.996,27.028,28.688,27.028C28.381,27.028,28.131,27.277,28.131,27.585Z"/>
  <path fill-opacity="1" stroke-opacity="1" stroke-linecap="round" stroke-width="2px" fill="#000000" stroke-linejoin="round" stroke="none" stroke-miterlimit="4" stroke-dasharray="none" fill-rule="nonzero" d="M47.479,42.759C52.125,40.12,54.459,34.546,53.156,29.215C51.852,23.878,47.233,20.135,41.93,20.132L39.149,20.132L39.69,20.555C37.805,12.962,31.619,7.359,24.125,6.467C16.628,5.576,9.383,9.586,5.902,16.544C2.425,23.495,3.418,31.955,8.402,37.83C8.601,38.065,8.953,38.094,9.188,37.895C9.422,37.696,9.451,37.344,9.252,37.109C4.558,31.576,3.621,23.595,6.898,17.043C10.171,10.5,16.968,6.739,23.993,7.574C31.021,8.41,36.834,13.675,38.608,20.823C38.67,21.072,38.893,21.246,39.149,21.246L41.929,21.246C46.712,21.249,50.89,24.635,52.074,29.48C53.259,34.331,51.137,39.399,46.928,41.79C46.661,41.942,46.567,42.282,46.719,42.549C46.871,42.817,47.211,42.911,47.479,42.759Z"/>
  <path fill-rule="nonzero" fill="#000000" fill-opacity="1" stroke-linecap="round" stroke-width="2px" stroke-dasharray="none" stroke="none" stroke-opacity="1" stroke-linejoin="round" stroke-miterlimit="4" d="M37.918,36.394L29.09,27.199C28.871,26.971,28.506,26.971,28.286,27.199L19.459,36.394C19.246,36.616,19.253,36.969,19.475,37.182C19.697,37.395,20.05,37.388,20.263,37.166L29.09,27.971L28.286,27.971L37.114,37.166C37.327,37.388,37.68,37.395,37.902,37.182C38.124,36.969,38.131,36.616,37.918,36.394Z"/>
</g>
  <g id="Light-S" transform="matrix(1.0,0.0,0.0,1.0,1126.8349252929688,633.1849448242187)">  <path stroke-opacity="1" stroke-dasharray="none" stroke-miterlimit="4" stroke-linecap="round" fill-opacity="1" fill="#000000" fill-rule="nonzero" stroke="none" stroke-linejoin="round" stroke-width="2px" d="M37.851,36.458L29.023,27.263C28.841,27.073,28.536,27.073,28.353,27.263L19.526,36.458C19.349,36.644,19.355,36.937,19.54,37.115C19.725,37.293,20.019,37.287,20.196,37.102L29.023,27.907L28.353,27.907L37.181,37.102C37.358,37.287,37.652,37.293,37.837,37.115C38.022,36.937,38.028,36.644,37.851,36.458Z"/>
  <path fill-rule="nonzero" stroke-linejoin="round" fill="#000000" stroke-dasharray="none" stroke-miterlimit="4" stroke-width="2px" fill-opacity="1" stroke-opacity="1" stroke-linecap="round" stroke="none" d="M28.224,27.585L28.224,48.274C28.224,48.53,28.432,48.738,28.688,48.738C28.945,48.738,29.153,48.53,29.153,48.274L29.153,27.585C29.153,27.329,28.945,27.121,28.688,27.121C28.432,27.121,28.224,27.329,28.224,27.585Z"/>
  <path stroke-dasharray="none" stroke-linejoin="round" stroke-linecap="round" fill-rule="nonzero" stroke="none" stroke-width="2px" fill-opacity="1" fill="#000000" stroke-miterlimit="4" stroke-opacity="1" d="M47.433,42.678C52.043,40.06,54.359,34.528,53.066,29.237C51.772,23.942,47.189,20.228,41.93,20.224L39.149,20.224L39.599,20.577C37.724,13.022,31.569,7.446,24.114,6.56C16.656,5.673,9.448,9.662,5.985,16.586C2.524,23.503,3.513,31.924,8.473,37.77C8.639,37.966,8.932,37.99,9.128,37.824C9.323,37.658,9.347,37.365,9.181,37.169C4.463,31.607,3.521,23.587,6.815,17.002C10.106,10.424,16.94,6.642,24.004,7.482C31.071,8.322,36.915,13.616,38.698,20.801C38.749,21.008,38.935,21.153,39.149,21.153L41.929,21.153C46.755,21.157,50.97,24.572,52.164,29.458C53.359,34.349,51.22,39.459,46.974,41.87C46.751,41.997,46.673,42.28,46.8,42.503C46.926,42.727,47.21,42.805,47.433,42.678Z"/>
  <path stroke-opacity="1" stroke-dasharray="none" stroke-miterlimit="4" stroke-linecap="round" fill-opacity="1" fill="#000000" fill-rule="nonzero" stroke="none" stroke-linejoin="round" stroke-width="2px" d="M37.851,36.458L29.023,27.263C28.841,27.073,28.536,27.073,28.353,27.263L19.526,36.458C19.349,36.644,19.355,36.937,19.54,37.115C19.725,37.293,20.019,37.287,20.196,37.102L29.023,27.907L28.353,27.907L37.181,37.102C37.358,37.287,37.652,37.293,37.837,37.115C38.022,36.937,38.028,36.644,37.851,36.458Z"/>
</g>
  <g id="Thin-S" transform="matrix(1.0,0.0,0.0,1.0,830.1249252929688,633.1849448242187)">  <path fill-opacity="1" stroke-opacity="1" stroke-miterlimit="4" stroke="none" fill-rule="nonzero" fill="#000000" stroke-linecap="round" stroke-width="2px" stroke-dasharray="none" stroke-linejoin="round" d="M37.784,36.523L28.956,27.328C28.81,27.175,28.567,27.175,28.42,27.328L19.593,36.523C19.451,36.671,19.456,36.906,19.604,37.048C19.752,37.19,19.987,37.185,20.129,37.037L28.956,27.842L28.42,27.842L37.248,37.037C37.39,37.185,37.625,37.19,37.773,37.048C37.921,36.906,37.926,36.671,37.784,36.523Z"/>
  <path fill-opacity="1" stroke-dasharray="none" stroke-opacity="1" stroke-width="2px" stroke="none" stroke-miterlimit="4" fill="#000000" stroke-linecap="round" fill-rule="nonzero" stroke-linejoin="round" d="M28.317,27.585L28.317,48.274C28.317,48.479,28.483,48.645,28.688,48.645C28.894,48.645,29.06,48.479,29.06,48.274L29.06,27.585C29.06,27.38,28.894,27.214,28.688,27.214C28.483,27.214,28.317,27.38,28.317,27.585Z"/>
  <path fill="#000000" stroke-dasharray="none" stroke-opacity="1" fill-opacity="1" stroke-width="2px" stroke-linejoin="round" stroke="none" fill-rule="nonzero" stroke-linecap="round" stroke-miterlimit="4" d="M47.387,42.597C51.961,40,54.259,34.51,52.976,29.259C51.692,24.005,47.146,20.321,41.93,20.317L39.149,20.317L39.509,20.599C37.643,13.081,31.519,7.534,24.103,6.652C16.685,5.769,9.514,9.738,6.068,16.628C2.624,23.511,3.608,31.892,8.544,37.71C8.677,37.867,8.911,37.886,9.068,37.753C9.224,37.62,9.243,37.386,9.111,37.229C4.368,31.639,3.421,23.578,6.732,16.96C10.04,10.348,16.912,6.545,24.015,7.39C31.121,8.235,36.996,13.556,38.788,20.778C38.829,20.944,38.978,21.06,39.149,21.06L41.929,21.06C46.799,21.064,51.05,24.509,52.254,29.436C53.459,34.367,51.302,39.52,47.02,41.951C46.842,42.052,46.779,42.279,46.881,42.458C46.982,42.636,47.209,42.699,47.387,42.597Z"/>
  <path fill-opacity="1" stroke-opacity="1" stroke-miterlimit="4" stroke="none" fill-rule="nonzero" fill="#000000" stroke-linecap="round" stroke-width="2px" stroke-dasharray="none" stroke-linejoin="round" d="M37.784,36.523L28.956,27.328C28.81,27.175,28.567,27.175,28.42,27.328L19.593,36.523C19.451,36.671,19.456,36.906,19.604,37.048C19.752,37.19,19.987,37.185,20.129,37.037L28.956,27.842L28.42,27.842L37.248,37.037C37.39,37.185,37.625,37.19,37.773,37.048C37.921,36.906,37.926,36.671,37.784,36.523Z"/>
</g>
  <g id="Ultralight-S" transform="matrix(1.0,0.0,0.0,1.0,533.4149252929687,633.1849448242187)">  <path stroke-width="2px" fill-opacity="1" stroke-linejoin="round" stroke-miterlimit="4" stroke-linecap="round" fill-rule="nonzero" fill="#000000" stroke-opacity="1" stroke="none" stroke-dasharray="none" d="M37.717,36.587L28.889,27.392C28.78,27.278,28.597,27.278,28.487,27.392L19.66,36.587C19.554,36.698,19.557,36.875,19.668,36.981C19.779,37.088,19.956,37.084,20.062,36.973L28.889,27.778L28.487,27.778L37.315,36.973C37.421,37.084,37.598,37.088,37.709,36.981C37.82,36.875,37.823,36.698,37.717,36.587Z"/>
  <path stroke-dasharray="none" fill-opacity="1" stroke-miterlimit="4" fill-rule="nonzero" stroke-linecap="round" fill="#000000" stroke-width="2px" stroke-opacity="1" stroke="none" stroke-linejoin="round" d="M28.41,27.585L28.41,48.274C28.41,48.428,28.535,48.553,28.688,48.553C28.842,48.553,28.967,48.428,28.967,48.274L28.967,27.585C28.967,27.431,28.842,27.306,28.688,27.306C28.535,27.306,28.41,27.431,28.41,27.585Z"/>
  <path stroke-miterlimit="4" stroke="none" stroke-linejoin="round" fill="#000000" fill-opacity="1" fill-rule="nonzero" stroke-linecap="round" stroke-dasharray="none" stroke-opacity="1" stroke-width="2px" d="M47.341,42.516C51.878,39.94,54.159,34.492,52.886,29.281C51.612,24.068,47.103,20.414,41.93,20.41L39.149,20.41L39.419,20.622C37.562,13.14,31.469,7.621,24.092,6.744C16.713,5.866,9.58,9.814,6.151,16.669C2.724,23.52,3.703,31.86,8.615,37.65C8.714,37.767,8.89,37.782,9.007,37.682C9.125,37.583,9.139,37.407,9.04,37.29C4.273,31.671,3.322,23.57,6.649,16.918C9.974,10.271,16.883,6.448,24.026,7.297C31.171,8.147,37.077,13.497,38.878,20.756C38.909,20.88,39.021,20.967,39.149,20.967L41.929,20.967C46.842,20.971,51.131,24.446,52.344,29.414C53.559,34.385,51.384,39.58,47.066,42.032C46.932,42.108,46.885,42.278,46.961,42.412C47.037,42.546,47.207,42.592,47.341,42.516Z"/>
  <path stroke-width="2px" fill-opacity="1" stroke-linejoin="round" stroke-miterlimit="4" stroke-linecap="round" fill-rule="nonzero" fill="#000000" stroke-opacity="1" stroke="none" stroke-dasharray="none" d="M37.717,36.587L28.889,27.392C28.78,27.278,28.597,27.278,28.487,27.392L19.66,36.587C19.554,36.698,19.557,36.875,19.668,36.981C19.779,37.088,19.956,37.084,20.062,36.973L28.889,27.778L28.487,27.778L37.315,36.973C37.421,37.084,37.598,37.088,37.709,36.981C37.82,36.875,37.823,36.698,37.717,36.587Z"/>
</g>
 </g>
</svg>
