<svg width="147" height="52" viewBox="0 0 147 52" fill="none" xmlns="http://www.w3.org/2000/svg">
<rect x="0.25" y="0.25" width="146.5" height="51.5" rx="25.75" fill="#E02B2B"/>
<path d="M39.5802 31.5V20.925H41.5152V29.865H46.4952V31.5H39.5802ZM48.3074 26.205C48.3074 25.095 48.5074 24.135 48.9074 23.325C49.3174 22.515 49.9024 21.89 50.6624 21.45C51.4224 21 52.3274 20.775 53.3774 20.775C54.4174 20.775 55.3174 21 56.0774 21.45C56.8374 21.89 57.4224 22.515 57.8324 23.325C58.2524 24.135 58.4624 25.09 58.4624 26.19C58.4624 27.3 58.2524 28.265 57.8324 29.085C57.4224 29.895 56.8374 30.525 56.0774 30.975C55.3174 31.425 54.4174 31.65 53.3774 31.65C52.3274 31.65 51.4224 31.425 50.6624 30.975C49.9124 30.525 49.3324 29.895 48.9224 29.085C48.5124 28.265 48.3074 27.305 48.3074 26.205ZM50.3324 26.205C50.3324 27.395 50.5874 28.325 51.0974 28.995C51.6074 29.665 52.3674 30 53.3774 30C54.3574 30 55.1124 29.665 55.6424 28.995C56.1724 28.325 56.4374 27.395 56.4374 26.205C56.4374 25.005 56.1724 24.075 55.6424 23.415C55.1224 22.755 54.3674 22.425 53.3774 22.425C52.3674 22.425 51.6074 22.755 51.0974 23.415C50.5874 24.075 50.3324 25.005 50.3324 26.205ZM66.8091 31.65C65.6191 31.65 64.6191 31.43 63.8091 30.99C62.9991 30.55 62.3891 29.925 61.9791 29.115C61.5691 28.305 61.3641 27.345 61.3641 26.235C61.3641 25.115 61.5841 24.15 62.0241 23.34C62.4641 22.52 63.0941 21.89 63.9141 21.45C64.7441 21 65.7391 20.775 66.8991 20.775C67.6691 20.775 68.3441 20.88 68.9241 21.09C69.5041 21.29 70.0141 21.585 70.4541 21.975L69.8091 23.475C69.4891 23.225 69.1841 23.025 68.8941 22.875C68.6041 22.725 68.3041 22.62 67.9941 22.56C67.6841 22.49 67.3241 22.455 66.9141 22.455C65.7541 22.455 64.8741 22.785 64.2741 23.445C63.6841 24.095 63.3891 25.03 63.3891 26.25C63.3891 27.47 63.6691 28.4 64.2291 29.04C64.7991 29.68 65.6891 30 66.8991 30C67.3091 30 67.7191 29.96 68.1291 29.88C68.5491 29.8 68.9591 29.685 69.3591 29.535L68.9991 30.345V27.18H66.5241V25.77H70.6041V30.855C70.1141 31.105 69.5291 31.3 68.8491 31.44C68.1691 31.58 67.4891 31.65 66.8091 31.65ZM73.7176 26.205C73.7176 25.095 73.9176 24.135 74.3176 23.325C74.7276 22.515 75.3126 21.89 76.0726 21.45C76.8326 21 77.7376 20.775 78.7876 20.775C79.8276 20.775 80.7276 21 81.4876 21.45C82.2476 21.89 82.8326 22.515 83.2426 23.325C83.6626 24.135 83.8726 25.09 83.8726 26.19C83.8726 27.3 83.6626 28.265 83.2426 29.085C82.8326 29.895 82.2476 30.525 81.4876 30.975C80.7276 31.425 79.8276 31.65 78.7876 31.65C77.7376 31.65 76.8326 31.425 76.0726 30.975C75.3226 30.525 74.7426 29.895 74.3326 29.085C73.9226 28.265 73.7176 27.305 73.7176 26.205ZM75.7426 26.205C75.7426 27.395 75.9976 28.325 76.5076 28.995C77.0176 29.665 77.7776 30 78.7876 30C79.7676 30 80.5226 29.665 81.0526 28.995C81.5826 28.325 81.8476 27.395 81.8476 26.205C81.8476 25.005 81.5826 24.075 81.0526 23.415C80.5326 22.755 79.7776 22.425 78.7876 22.425C77.7776 22.425 77.0176 22.755 76.5076 23.415C75.9976 24.075 75.7426 25.005 75.7426 26.205ZM91.5292 31.65C90.0192 31.65 88.8942 31.275 88.1542 30.525C87.4242 29.765 87.0592 28.645 87.0592 27.165V20.925H88.9942V27.15C88.9942 28.09 89.1942 28.8 89.5942 29.28C90.0042 29.76 90.6492 30 91.5292 30C92.3692 30 92.9992 29.76 93.4192 29.28C93.8492 28.8 94.0642 28.09 94.0642 27.15V20.925H95.9692V27.165C95.9692 28.645 95.5942 29.765 94.8442 30.525C94.1042 31.275 92.9992 31.65 91.5292 31.65ZM101.963 31.5V22.515H98.4677V20.925H107.393V22.515H103.898V31.5H101.963Z" fill="white"/>
<rect x="0.25" y="0.25" width="146.5" height="51.5" rx="25.75" stroke="#323F4B" stroke-width="0.5"/>
</svg>
