<svg width="211" height="118" viewBox="0 0 211 118" fill="none" xmlns="http://www.w3.org/2000/svg">
<rect x="2" y="2" width="207" height="114" rx="57" fill="#2F80ED" fill-opacity="0.17"/>
<rect x="2" y="2" width="207" height="114" rx="57" stroke="#2F80ED" stroke-width="4"/>
<path d="M56.4036 44L46.9836 22.85H51.1536L58.7436 40.61H57.4836L65.0736 22.85H69.0936L59.6736 44H56.4036ZM72.4347 44V22.85H76.3047V44H72.4347ZM82.2101 44V22.85H96.4601V25.88H85.9301V31.73H95.7701V34.79H85.9301V40.94H96.4601V44H82.2101ZM107.094 44L99.624 22.85H103.644L109.404 40.19H108.204L114.414 22.85H117.294L123.054 40.19H121.944L127.974 22.85H131.754L124.224 44H121.014L115.434 27.74H116.094L110.304 44H107.094ZM155.419 44.3C153.219 44.3 151.329 43.86 149.749 42.98C148.189 42.08 146.989 40.82 146.149 39.2C145.309 37.56 144.889 35.63 144.889 33.41C144.889 31.19 145.309 29.27 146.149 27.65C146.989 26.03 148.189 24.78 149.749 23.9C151.329 23 153.219 22.55 155.419 22.55C156.899 22.55 158.229 22.76 159.409 23.18C160.609 23.6 161.639 24.22 162.499 25.04L161.239 28.1C160.299 27.34 159.389 26.8 158.509 26.48C157.649 26.14 156.659 25.97 155.539 25.97C153.399 25.97 151.759 26.62 150.619 27.92C149.499 29.2 148.939 31.03 148.939 33.41C148.939 35.79 149.499 37.63 150.619 38.93C151.759 40.23 153.399 40.88 155.539 40.88C156.659 40.88 157.649 40.72 158.509 40.4C159.389 40.06 160.299 39.5 161.239 38.72L162.499 41.78C161.639 42.58 160.609 43.2 159.409 43.64C158.229 44.08 156.899 44.3 155.419 44.3Z" fill="#2F80ED"/>
<path fill-rule="evenodd" clip-rule="evenodd" d="M78.5 79C78.5 79 88.5 59 106 59C123.5 59 133.5 79 133.5 79C133.5 79 123.5 99 106 99C88.5 99 78.5 79 78.5 79Z" stroke="#2F80ED" stroke-width="5" stroke-linecap="round" stroke-linejoin="round"/>
<path fill-rule="evenodd" clip-rule="evenodd" d="M106 86.5C110.142 86.5 113.5 83.1421 113.5 79C113.5 74.8579 110.142 71.5 106 71.5C101.858 71.5 98.5 74.8579 98.5 79C98.5 83.1421 101.858 86.5 106 86.5Z" stroke="#2F80ED" stroke-width="5" stroke-linecap="round" stroke-linejoin="round"/>
</svg>
