<svg width="160" height="52" viewBox="0 0 160 52" fill="none" xmlns="http://www.w3.org/2000/svg">
<rect x="0.25" y="0.25" width="159.5" height="51.5" rx="25.75" fill="#E02B2B"/>
<rect x="0.25" y="0.25" width="159.5" height="51.5" rx="25.75" stroke="#323F4B" stroke-width="0.5"/>
<path d="M29.5787 31.5V20.925H36.7037V22.44H31.4387V25.365H36.3587V26.895H31.4387V29.97H36.7037V31.5H29.5787ZM39.7646 31.5V20.925H41.4596L45.3446 29.67H44.8796L48.7646 20.925H50.4446V31.5H48.6896V23.655H49.2296L45.6746 31.5H44.5196L40.9646 23.655H41.5196V31.5H39.7646ZM54.0513 31.5V20.925H61.1763V22.44H55.9113V25.365H60.8313V26.895H55.9113V29.97H61.1763V31.5H54.0513ZM64.2222 31.5V20.925H68.8422C70.0022 20.925 70.8972 21.2 71.5272 21.75C72.1672 22.3 72.4872 23.065 72.4872 24.045C72.4872 24.695 72.3422 25.25 72.0522 25.71C71.7722 26.17 71.3672 26.525 70.8372 26.775C70.3072 27.015 69.6822 27.135 68.9622 27.135L69.1722 26.85H69.6822C70.1022 26.85 70.4772 26.96 70.8072 27.18C71.1372 27.4 71.4072 27.735 71.6172 28.185L73.1622 31.5H71.0322L69.4722 28.065C69.3322 27.715 69.1172 27.485 68.8272 27.375C68.5472 27.265 68.2072 27.21 67.8072 27.21H66.1572V31.5H64.2222ZM66.1572 25.785H68.5272C69.2072 25.785 69.7222 25.645 70.0722 25.365C70.4322 25.075 70.6122 24.655 70.6122 24.105C70.6122 23.555 70.4322 23.14 70.0722 22.86C69.7222 22.58 69.2072 22.44 68.5272 22.44H66.1572V25.785ZM81.0312 31.65C79.8412 31.65 78.8412 31.43 78.0312 30.99C77.2212 30.55 76.6112 29.925 76.2012 29.115C75.7912 28.305 75.5862 27.345 75.5862 26.235C75.5862 25.115 75.8062 24.15 76.2462 23.34C76.6862 22.52 77.3162 21.89 78.1362 21.45C78.9662 21 79.9612 20.775 81.1212 20.775C81.8912 20.775 82.5662 20.88 83.1462 21.09C83.7262 21.29 84.2362 21.585 84.6762 21.975L84.0312 23.475C83.7112 23.225 83.4062 23.025 83.1162 22.875C82.8262 22.725 82.5262 22.62 82.2162 22.56C81.9062 22.49 81.5462 22.455 81.1362 22.455C79.9762 22.455 79.0962 22.785 78.4962 23.445C77.9062 24.095 77.6112 25.03 77.6112 26.25C77.6112 27.47 77.8912 28.4 78.4512 29.04C79.0212 29.68 79.9112 30 81.1212 30C81.5312 30 81.9412 29.96 82.3512 29.88C82.7712 29.8 83.1812 29.685 83.5812 29.535L83.2212 30.345V27.18H80.7462V25.77H84.8262V30.855C84.3362 31.105 83.7512 31.3 83.0712 31.44C82.3912 31.58 81.7112 31.65 81.0312 31.65ZM88.2847 31.5V20.925H95.4097V22.44H90.1447V25.365H95.0647V26.895H90.1447V29.97H95.4097V31.5H88.2847ZM98.4556 31.5V20.925H99.9106L106.046 28.86H105.656V20.925H107.456V31.5H106.001L99.8806 23.565H100.256V31.5H98.4556ZM115.949 31.65C114.849 31.65 113.904 31.43 113.114 30.99C112.334 30.54 111.734 29.91 111.314 29.1C110.894 28.28 110.684 27.315 110.684 26.205C110.684 25.095 110.894 24.135 111.314 23.325C111.734 22.515 112.334 21.89 113.114 21.45C113.904 21 114.849 20.775 115.949 20.775C116.689 20.775 117.354 20.88 117.944 21.09C118.544 21.3 119.059 21.61 119.489 22.02L118.859 23.55C118.389 23.17 117.934 22.9 117.494 22.74C117.064 22.57 116.569 22.485 116.009 22.485C114.939 22.485 114.119 22.81 113.549 23.46C112.989 24.1 112.709 25.015 112.709 26.205C112.709 27.395 112.989 28.315 113.549 28.965C114.119 29.615 114.939 29.94 116.009 29.94C116.569 29.94 117.064 29.86 117.494 29.7C117.934 29.53 118.389 29.25 118.859 28.86L119.489 30.39C119.059 30.79 118.544 31.1 117.944 31.32C117.354 31.54 116.689 31.65 115.949 31.65ZM124.908 31.5V26.505L125.313 27.66L120.768 20.925H123.003L126.123 25.725H125.703L128.823 20.925H130.983L126.453 27.66L126.843 26.505V31.5H124.908Z" fill="white"/>
</svg>
