<svg width="160" height="52" viewBox="0 0 160 52" fill="none" xmlns="http://www.w3.org/2000/svg">
<rect x="0.25" y="0.25" width="159.5" height="51.5" rx="25.75" fill="#2F80ED"/>
<path d="M28.4713 31.65C27.3713 31.65 26.4263 31.43 25.6363 30.99C24.8563 30.54 24.2563 29.91 23.8363 29.1C23.4163 28.28 23.2063 27.315 23.2063 26.205C23.2063 25.095 23.4163 24.135 23.8363 23.325C24.2563 22.515 24.8563 21.89 25.6363 21.45C26.4263 21 27.3713 20.775 28.4713 20.775C29.2113 20.775 29.8763 20.88 30.4663 21.09C31.0663 21.3 31.5813 21.61 32.0113 22.02L31.3813 23.55C30.9113 23.17 30.4563 22.9 30.0163 22.74C29.5863 22.57 29.0913 22.485 28.5313 22.485C27.4613 22.485 26.6413 22.81 26.0713 23.46C25.5113 24.1 25.2313 25.015 25.2313 26.205C25.2313 27.395 25.5113 28.315 26.0713 28.965C26.6413 29.615 27.4613 29.94 28.5313 29.94C29.0913 29.94 29.5863 29.86 30.0163 29.7C30.4563 29.53 30.9113 29.25 31.3813 28.86L32.0113 30.39C31.5813 30.79 31.0663 31.1 30.4663 31.32C29.8763 31.54 29.2113 31.65 28.4713 31.65ZM35.0699 31.5V20.925H37.0049V25.335H42.4199V20.925H44.3549V31.5H42.4199V26.94H37.0049V31.5H35.0699ZM46.7661 31.5L51.5511 20.925H53.1711L58.0161 31.5H56.0511L54.7611 28.53L55.5411 29.055H49.1961L50.0061 28.53L48.7161 31.5H46.7661ZM52.3461 22.995L50.2311 28.005L49.8411 27.54H54.8811L54.5661 28.005L52.4061 22.995H52.3461ZM60.4361 31.5V20.925H61.8911L68.0261 28.86H67.6361V20.925H69.4361V31.5H67.9811L61.8611 23.565H62.2361V31.5H60.4361ZM78.1094 31.65C76.9194 31.65 75.9194 31.43 75.1094 30.99C74.2994 30.55 73.6894 29.925 73.2794 29.115C72.8694 28.305 72.6644 27.345 72.6644 26.235C72.6644 25.115 72.8844 24.15 73.3244 23.34C73.7644 22.52 74.3944 21.89 75.2144 21.45C76.0444 21 77.0394 20.775 78.1994 20.775C78.9694 20.775 79.6444 20.88 80.2244 21.09C80.8044 21.29 81.3144 21.585 81.7544 21.975L81.1094 23.475C80.7894 23.225 80.4844 23.025 80.1944 22.875C79.9044 22.725 79.6044 22.62 79.2944 22.56C78.9844 22.49 78.6244 22.455 78.2144 22.455C77.0544 22.455 76.1744 22.785 75.5744 23.445C74.9844 24.095 74.6894 25.03 74.6894 26.25C74.6894 27.47 74.9694 28.4 75.5294 29.04C76.0994 29.68 76.9894 30 78.1994 30C78.6094 30 79.0194 29.96 79.4294 29.88C79.8494 29.8 80.2594 29.685 80.6594 29.535L80.2994 30.345V27.18H77.8244V25.77H81.9044V30.855C81.4144 31.105 80.8294 31.3 80.1494 31.44C79.4694 31.58 78.7894 31.65 78.1094 31.65ZM85.3629 31.5V20.925H92.4879V22.44H87.2229V25.365H92.1429V26.895H87.2229V29.97H92.4879V31.5H85.3629ZM104.59 31.65C103.74 31.65 102.955 31.545 102.235 31.335C101.525 31.115 100.915 30.815 100.405 30.435L101.005 28.92C101.345 29.16 101.7 29.365 102.07 29.535C102.44 29.695 102.835 29.82 103.255 29.91C103.675 29.99 104.12 30.03 104.59 30.03C105.38 30.03 105.95 29.9 106.3 29.64C106.65 29.38 106.825 29.04 106.825 28.62C106.825 28.25 106.705 27.97 106.465 27.78C106.225 27.58 105.795 27.415 105.175 27.285L103.48 26.94C102.51 26.74 101.785 26.405 101.305 25.935C100.825 25.465 100.585 24.835 100.585 24.045C100.585 23.385 100.76 22.81 101.11 22.32C101.46 21.83 101.95 21.45 102.58 21.18C103.21 20.91 103.945 20.775 104.785 20.775C105.535 20.775 106.23 20.885 106.87 21.105C107.51 21.315 108.045 21.62 108.475 22.02L107.875 23.46C107.445 23.1 106.975 22.835 106.465 22.665C105.955 22.485 105.385 22.395 104.755 22.395C104.045 22.395 103.49 22.535 103.09 22.815C102.7 23.085 102.505 23.46 102.505 23.94C102.505 24.31 102.625 24.605 102.865 24.825C103.115 25.045 103.535 25.215 104.125 25.335L105.805 25.665C106.805 25.865 107.545 26.195 108.025 26.655C108.505 27.105 108.745 27.715 108.745 28.485C108.745 29.115 108.575 29.67 108.235 30.15C107.895 30.62 107.415 30.99 106.795 31.26C106.175 31.52 105.44 31.65 104.59 31.65ZM111.818 31.5V20.925H113.753V31.5H111.818ZM119.821 31.5V22.515H116.326V20.925H125.251V22.515H121.756V31.5H119.821ZM127.868 31.5V20.925H134.993V22.44H129.728V25.365H134.648V26.895H129.728V29.97H134.993V31.5H127.868Z" fill="white"/>
<rect x="0.25" y="0.25" width="159.5" height="51.5" rx="25.75" stroke="#323F4B" stroke-width="0.5"/>
</svg>
