<svg width="184" height="174" viewBox="0 0 184 174" fill="none" xmlns="http://www.w3.org/2000/svg">
<path d="M26.9852 41.5921C37.2378 41.5921 45.5492 33.2807 45.5492 23.0281C45.5492 12.7755 37.2378 4.46411 26.9852 4.46411C16.7326 4.46411 8.42125 12.7755 8.42125 23.0281C8.42125 33.2807 16.7326 41.5921 26.9852 41.5921Z" fill="#1264D1"/>
<path d="M118.146 14.2716C116.926 14.4472 115.411 14.922 114.727 12.9709C114.264 11.6702 114.389 9.57606 113.713 8.69158C113.307 8.17779 112.78 8.30136 112.296 8.34038C111.41 8.49881 110.524 8.03696 109.8 7.03967C109.124 5.97308 108.762 4.009 109.175 2.48716C109.392 1.76607 109.716 1.18462 110.105 0.815739C111.241 -0.374417 112.759 -0.309381 113.733 1.32302C114.545 2.67576 114.951 4.96502 115.948 5.73245C116.581 6.22022 117.301 5.96007 117.977 5.90804C118.654 5.85601 119.438 6.14217 119.776 7.2803C120.077 8.28185 119.915 9.58907 120.158 10.6426C120.497 12.0995 121.427 12.5417 122.154 13.3091C122.881 14.0765 124.071 16.1837 123.997 18.0047C123.922 19.8257 122.942 20.6061 122.167 19.468C121.667 18.7461 121.633 17.0812 121.237 16.1642C120.473 14.4472 119.256 14.1091 118.146 14.2716Z" fill="white"/>
<path d="M122.767 21C122.461 20.99 122.165 20.7812 121.924 20.405C121.635 19.8722 121.429 19.1834 121.332 18.4218C121.261 17.9152 121.15 17.4351 121.001 17.0005C120.416 15.5858 119.451 14.971 118.135 15.1627L117.781 15.2222C116.618 15.4205 115.299 15.6453 114.641 13.6885C114.457 13.0597 114.327 12.3736 114.257 11.659C114.142 10.7467 114.029 9.8873 113.685 9.43116C113.335 9.09382 112.941 8.98291 112.558 9.11384H112.399C111.669 9.17995 110.631 8.99485 109.847 7.7388C109.166 6.6348 108.733 4.43342 109.186 2.72123C109.418 1.92485 109.763 1.28494 110.178 0.883436C110.757 0.22072 111.421 -0.0805342 112.087 0.0184262C112.752 0.117387 113.387 0.612035 113.91 1.43874C114.225 2.03506 114.506 2.70031 114.747 3.42197C115.123 4.45986 115.48 5.4052 116.029 5.88118C116.502 6.1712 117.002 6.24129 117.49 6.08611C117.639 6.08611 117.788 6.03983 117.937 6.03322C118.472 5.98695 119.428 6.13899 119.848 7.59336C119.994 8.19778 120.073 8.85873 120.079 9.53032C120.086 10.048 120.136 10.5598 120.228 11.0442C120.449 12.0424 120.981 12.5316 121.55 13.0274C121.739 13.1993 121.93 13.3778 122.109 13.5695C122.915 14.4553 124.072 16.6832 123.996 18.6598C123.985 19.1054 123.913 19.5363 123.788 19.9065C123.663 20.2767 123.491 20.5724 123.289 20.762C123.126 20.9192 122.948 21.0006 122.767 21V21ZM118.571 14.4619C119.755 14.4619 120.674 15.1825 121.246 16.5708C121.424 17.073 121.558 17.6318 121.643 18.2235C121.722 18.8631 121.887 19.4465 122.122 19.9092C122.261 20.1389 122.428 20.2886 122.607 20.3422C122.785 20.3958 122.967 20.3512 123.134 20.2133C123.282 20.0737 123.409 19.8548 123.499 19.5807C123.589 19.3066 123.64 18.9879 123.646 18.6598C123.709 17.0666 122.671 15.0106 121.93 14.2041C121.758 14.0124 121.573 13.8472 121.391 13.6753C120.796 13.1332 120.181 12.5647 119.907 11.3351C119.802 10.7853 119.743 10.2046 119.732 9.61626C119.731 9.03795 119.666 8.46711 119.543 7.94374C119.213 6.7538 118.304 6.68769 117.933 6.72074C117.788 6.72074 117.643 6.7538 117.5 6.77363C116.961 6.93712 116.41 6.84888 115.89 6.51581C115.252 6.00678 114.852 4.90278 114.462 3.83845C114.236 3.1609 113.974 2.53565 113.679 1.97421C112.829 0.506621 111.418 0.301688 110.317 1.50485C109.968 1.83483 109.675 2.36092 109.474 3.01871C109.094 4.45325 109.474 6.27782 110.042 7.20994C110.743 8.34038 111.695 8.53209 112.373 8.43954H112.528C112.98 8.29577 113.444 8.44397 113.851 8.86263C114.304 9.4576 114.436 10.4889 114.561 11.5069C114.621 12.1451 114.733 12.7593 114.892 13.3249C115.441 14.9644 116.657 14.7528 117.728 14.5743L118.089 14.5148C118.257 14.4752 118.416 14.4619 118.571 14.4619Z" fill="#ACCCF8"/>
<path d="M139.481 12.1584C138.791 11.6523 138.207 10.9868 137.77 10.2072C137.333 9.42772 137.053 8.55258 136.949 7.64167C136.953 6.82553 136.835 6.01432 136.599 5.24127C136.249 4.42374 135.487 3.87872 135.163 3.0438C134.965 2.53863 134.947 1.96859 135.112 1.44899C135.278 0.929396 135.615 0.499012 136.055 0.244892C136.495 -0.00922863 137.006 -0.0681191 137.484 0.0801315C137.962 0.228382 138.372 0.572708 138.63 1.04347C138.891 1.61265 139.049 2.23317 139.094 2.86986C139.208 4.13772 139.673 5.33516 140.426 6.29652C141.6 7.58948 143.678 7.96636 144.195 9.71158C144.435 10.5349 144.195 11.451 144.466 12.2801C144.718 12.8681 145.073 13.3944 145.51 13.8282C146.34 14.9182 147.442 17.3998 146.815 18.8725C146.189 20.3452 144.55 20.3742 143.756 18.9653C143.234 18.0608 143.673 16.6461 143.37 15.643C142.78 13.7064 141.376 13.1904 139.904 12.3961C139.778 12.3323 139.616 12.2453 139.481 12.1584Z" fill="white"/>
<path d="M145.813 21C145.41 20.9914 145.016 20.8777 144.669 20.6699C144.323 20.4621 144.035 20.1673 143.833 19.8139C143.526 19.182 143.405 18.4734 143.488 17.7738C143.52 17.2981 143.481 16.8201 143.37 16.3565C142.826 14.7256 141.613 14.1503 140.207 13.4861L139.622 13.2074C139.458 13.1244 139.299 13.0354 139.141 12.9346C138.33 12.3945 137.643 11.6828 137.13 10.8484C136.616 10.014 136.287 9.07676 136.166 8.10127C136.136 7.86998 136.119 7.63869 136.107 7.40147C136.107 6.83319 136.002 6.26996 135.797 5.74095C135.598 5.36993 135.35 5.02863 135.058 4.72684C134.698 4.36374 134.403 3.94041 134.186 3.47551C133.95 2.89269 133.938 2.24163 134.153 1.65054C134.368 1.05945 134.793 0.571149 135.346 0.281788C135.898 -0.00757364 136.538 -0.0770318 137.138 0.0870931C137.739 0.251218 138.257 0.637032 138.591 1.16857C138.881 1.72029 139.06 2.3251 139.118 2.9477L139.147 3.14341C139.311 4.1338 139.633 5.5571 140.559 6.48225C141.089 6.95562 141.68 7.35456 142.316 7.66834C143.37 8.26139 144.466 8.85443 144.852 10.0761C144.976 10.5277 145.031 10.9955 145.016 11.4638C144.999 11.8799 145.046 12.2962 145.157 12.6974C145.327 13.116 145.585 13.4924 145.913 13.8004L146.258 14.1918C147.313 15.4491 148.519 18.0585 147.764 19.6656C147.604 20.032 147.349 20.3474 147.026 20.5783C146.703 20.8092 146.325 20.9468 145.93 20.9763L145.813 21ZM136.441 0.587384C136.156 0.584327 135.874 0.651491 135.621 0.783088C135.208 1.01959 134.893 1.39772 134.732 1.8491C134.571 2.30049 134.574 2.79535 134.742 3.24423C134.941 3.64556 135.202 4.01198 135.515 4.3295C135.85 4.68006 136.131 5.07996 136.347 5.51559C136.58 6.10424 136.701 6.7319 136.704 7.36589C136.704 7.58532 136.704 7.81067 136.757 8.0301C136.867 8.918 137.166 9.77117 137.634 10.5308C138.101 11.2905 138.725 11.9386 139.463 12.4305C139.604 12.5195 139.745 12.5966 139.891 12.6736L140.477 12.9464C141.941 13.6403 143.318 14.2986 143.939 16.1726C144.079 16.6978 144.13 17.2432 144.091 17.7857C144.017 18.3696 144.104 18.9628 144.343 19.4996C144.5 19.7824 144.73 20.0165 145.009 20.1764C145.287 20.3363 145.604 20.4161 145.924 20.407C146.212 20.383 146.487 20.2797 146.721 20.1082C146.954 19.9367 147.137 19.7036 147.248 19.4344C147.834 18.1415 146.791 15.7516 145.819 14.601C145.713 14.4646 145.602 14.346 145.491 14.2274C145.108 13.8614 144.81 13.4137 144.618 12.9168C144.482 12.4555 144.423 11.9745 144.442 11.4935C144.456 11.0935 144.411 10.6937 144.308 10.3074C143.991 9.32887 143.042 8.79513 142.041 8.23174C141.355 7.89077 140.72 7.45354 140.155 6.93297C139.106 5.88921 138.755 4.34136 138.579 3.26795L138.544 3.07224C138.497 2.5253 138.344 1.99316 138.093 1.5066C137.913 1.22393 137.666 0.991588 137.374 0.830956C137.082 0.670323 136.755 0.586564 136.423 0.587384H136.441Z" fill="#ACCCF8"/>
<path d="M10.2968 62.6162H6.851V67.3793H10.2968V62.6162Z" fill="#093269"/>
<path d="M10.2881 67.833H6.85101C6.73533 67.833 6.62438 67.787 6.54258 67.7052C6.46078 67.6234 6.41483 67.5125 6.41483 67.3968V62.5988C6.41483 62.4831 6.46078 62.3722 6.54258 62.2904C6.62438 62.2086 6.73533 62.1626 6.85101 62.1626H10.2881C10.4038 62.1626 10.5148 62.2086 10.5966 62.2904C10.6784 62.3722 10.7243 62.4831 10.7243 62.5988V67.3706C10.7279 67.4301 10.7193 67.4896 10.6989 67.5456C10.6786 67.6016 10.6471 67.6528 10.6062 67.6961C10.5653 67.7394 10.516 67.7739 10.4613 67.7975C10.4066 67.821 10.3477 67.8331 10.2881 67.833ZM7.28719 66.9606H9.85195V63.0611H7.28719V66.9606Z" fill="#093269"/>
<path d="M10.8638 61.2816H6.27518V62.6251H10.8638V61.2816Z" fill="white"/>
<path d="M10.8638 63.0526H6.27516C6.15947 63.0526 6.04853 63.0066 5.96673 62.9248C5.88493 62.843 5.83897 62.7321 5.83897 62.6164V61.2816C5.83897 61.166 5.88493 61.055 5.96673 60.9732C6.04853 60.8914 6.15947 60.8455 6.27516 60.8455H10.8638C10.9795 60.8455 11.0904 60.8914 11.1722 60.9732C11.254 61.055 11.3 61.166 11.3 61.2816V62.5989C11.3023 62.6577 11.2928 62.7163 11.2719 62.7712C11.2511 62.8262 11.2193 62.8763 11.1786 62.9187C11.1378 62.9611 11.0889 62.9948 11.0349 63.0178C10.9808 63.0408 10.9226 63.0526 10.8638 63.0526ZM6.71134 62.1802H10.4189V61.7266H6.70262L6.71134 62.1802Z" fill="#093269"/>
<path d="M176.963 27.6171H131.032V82.5238H176.963V27.6171Z" fill="white"/>
<path d="M176.971 82.9597H131.032C130.917 82.9597 130.806 82.9137 130.724 82.8319C130.642 82.7501 130.596 82.6392 130.596 82.5235V27.6167C130.596 27.501 130.642 27.3901 130.724 27.3083C130.806 27.2265 130.917 27.1805 131.032 27.1805H176.971C177.087 27.1805 177.198 27.2265 177.28 27.3083C177.362 27.3901 177.407 27.501 177.407 27.6167V82.5235C177.407 82.6392 177.362 82.7501 177.28 82.8319C177.198 82.9137 177.087 82.9597 176.971 82.9597ZM131.469 82.0873H176.535V28.0529H131.469V82.0873Z" fill="#093269"/>
<path d="M73.8051 82.5236H26.9852V15.3862L73.8051 27.7826V82.5236Z" fill="#ACCCF8"/>
<path d="M73.8052 82.9597H26.994C26.8783 82.9597 26.7673 82.9137 26.6855 82.8319C26.6037 82.7501 26.5578 82.6392 26.5578 82.5235V15.3512C26.5549 15.2843 26.568 15.2176 26.5962 15.1568C26.6244 15.096 26.6668 15.0428 26.7198 15.0018C26.7728 14.9608 26.8349 14.9331 26.9008 14.921C26.9667 14.909 27.0346 14.9129 27.0987 14.9325L73.9273 27.3201C74.021 27.3453 74.1036 27.4011 74.1621 27.4785C74.2205 27.5559 74.2515 27.6506 74.2501 27.7476V82.4886C74.255 82.5495 74.2471 82.6107 74.2268 82.6684C74.2065 82.726 74.1744 82.7787 74.1324 82.8231C74.0905 82.8675 74.0397 82.9026 73.9833 82.9262C73.9269 82.9497 73.8663 82.9611 73.8052 82.9597ZM27.4214 82.0873H73.369V28.114L27.4214 15.9532V82.0873Z" fill="#093269"/>
<path d="M83.5844 57.9929V39.9175L45.6451 57.7399V81.983H122.719V39.9175L83.5844 57.9929Z" fill="white"/>
<path d="M122.719 82.4103H45.6452C45.5295 82.4103 45.4185 82.3643 45.3367 82.2825C45.2549 82.2007 45.209 82.0898 45.209 81.9741V57.7397C45.2085 57.6568 45.2322 57.5755 45.2771 57.5058C45.322 57.4361 45.3863 57.381 45.462 57.3471L83.3925 39.5247C83.4561 39.4879 83.5283 39.4686 83.6018 39.4686C83.6753 39.4686 83.7476 39.4879 83.8112 39.5247C83.8748 39.5624 83.9276 39.616 83.9643 39.6802C84.001 39.7445 84.0204 39.8171 84.0206 39.8911V57.2861L122.536 39.4985C122.6 39.4641 122.672 39.4462 122.745 39.4462C122.818 39.4462 122.89 39.4641 122.954 39.4985C123.017 39.5367 123.068 39.5906 123.104 39.6549C123.139 39.7192 123.157 39.7916 123.155 39.8649V81.9217C123.162 81.9832 123.157 82.0456 123.138 82.1048C123.12 82.1639 123.089 82.2184 123.047 82.2646C123.006 82.3108 122.955 82.3477 122.899 82.3728C122.842 82.3979 122.781 82.4107 122.719 82.4103ZM46.0813 81.5379H122.283V40.5977L83.7676 58.3853C83.7032 58.4196 83.6312 58.4376 83.5582 58.4376C83.4852 58.4376 83.4133 58.4196 83.3489 58.3853C83.2863 58.3471 83.2348 58.2932 83.1996 58.2289C83.1644 58.1646 83.1467 58.0922 83.1482 58.0189V40.6064L46.0813 58.0538V81.5379Z" fill="#093269"/>
<path d="M114.824 61.9443H91.549V81.843H114.824V61.9443Z" fill="#093269"/>
<path d="M114.824 82.2794H91.5491C91.4334 82.2794 91.3225 82.2334 91.2407 82.1516C91.1589 82.0698 91.1129 81.9589 91.1129 81.8432V61.9445C91.1129 61.8288 91.1589 61.7179 91.2407 61.6361C91.3225 61.5543 91.4334 61.5083 91.5491 61.5083H114.824C114.94 61.5083 115.051 61.5543 115.132 61.6361C115.214 61.7179 115.26 61.8288 115.26 61.9445V81.8432C115.26 81.9589 115.214 82.0698 115.132 82.1516C115.051 82.2334 114.94 82.2794 114.824 82.2794ZM91.9853 81.407H114.388V62.3807H91.9853V81.407Z" fill="#093269"/>
<path d="M115.138 17.1396H125.379L128.276 74.1663H112.242L115.138 17.1396Z" fill="#2F80ED"/>
<path d="M125.667 13.1447H114.85C114.007 13.1447 113.323 13.8282 113.323 14.6713V15.6135C113.323 16.4566 114.007 17.1401 114.85 17.1401H125.667C126.51 17.1401 127.194 16.4566 127.194 15.6135V14.6713C127.194 13.8282 126.51 13.1447 125.667 13.1447Z" fill="#093269"/>
<path d="M125.667 17.5759H114.85C114.329 17.5759 113.83 17.3691 113.462 17.001C113.094 16.6329 112.887 16.1337 112.887 15.6131V14.6797C112.887 14.1583 113.094 13.6581 113.462 13.2887C113.829 12.9192 114.329 12.7104 114.85 12.7081H125.667C126.189 12.7104 126.688 12.9192 127.056 13.2887C127.424 13.6581 127.63 14.1583 127.63 14.6797V15.6131C127.63 16.1337 127.423 16.6329 127.055 17.001C126.687 17.3691 126.188 17.5759 125.667 17.5759V17.5759ZM114.85 13.5805C114.56 13.5828 114.283 13.6996 114.078 13.9055C113.874 14.1114 113.76 14.3897 113.76 14.6797V15.6131C113.76 15.9023 113.874 16.1797 114.079 16.3842C114.283 16.5887 114.561 16.7036 114.85 16.7036H125.667C125.957 16.7036 126.234 16.5887 126.438 16.3842C126.643 16.1797 126.758 15.9023 126.758 15.6131V14.6797C126.758 14.3897 126.643 14.1114 126.439 13.9055C126.235 13.6996 125.957 13.5828 125.667 13.5805H114.85Z" fill="#093269"/>
<path d="M137.191 17.1396H147.433L150.329 74.1663H134.295L137.191 17.1396Z" fill="#2F80ED"/>
<path d="M147.721 13.1447H136.903C136.06 13.1447 135.377 13.8282 135.377 14.6713V15.6135C135.377 16.4566 136.06 17.1401 136.903 17.1401H147.721C148.564 17.1401 149.247 16.4566 149.247 15.6135V14.6713C149.247 13.8282 148.564 13.1447 147.721 13.1447Z" fill="#093269"/>
<path d="M147.721 17.5759H136.912C136.392 17.5759 135.892 17.3691 135.524 17.001C135.156 16.6329 134.949 16.1337 134.949 15.6131V14.6797C134.949 14.1583 135.156 13.6581 135.524 13.2887C135.892 12.9192 136.391 12.7104 136.912 12.7081H147.729C148.251 12.7104 148.75 12.9192 149.118 13.2887C149.486 13.6581 149.692 14.1583 149.692 14.6797V15.6131C149.692 15.8716 149.641 16.1276 149.542 16.3663C149.443 16.605 149.298 16.8218 149.114 17.0041C148.931 17.1865 148.714 17.3309 148.475 17.429C148.235 17.5272 147.979 17.5771 147.721 17.5759ZM136.912 13.5805C136.622 13.5828 136.345 13.6996 136.141 13.9055C135.936 14.1114 135.822 14.3897 135.822 14.6797V15.6131C135.822 15.9023 135.937 16.1797 136.141 16.3842C136.346 16.5887 136.623 16.7036 136.912 16.7036H147.729C148.019 16.7036 148.296 16.5887 148.501 16.3842C148.705 16.1797 148.82 15.9023 148.82 15.6131V14.6797C148.82 14.3897 148.705 14.1114 148.501 13.9055C148.297 13.6996 148.02 13.5828 147.729 13.5805H136.912Z" fill="#093269"/>
<path d="M105.123 74.1664H156.026L159.681 81.9828H101.468L105.123 74.1664Z" fill="white"/>
<path d="M159.681 82.4103H101.468C101.395 82.4118 101.322 82.3941 101.258 82.3589C101.194 82.3237 101.14 82.2722 101.101 82.2096C101.067 82.1452 101.049 82.0733 101.049 82.0003C101.049 81.9273 101.067 81.8553 101.101 81.7909L104.757 73.9832C104.791 73.9075 104.846 73.8433 104.915 73.7984C104.985 73.7535 105.066 73.7298 105.149 73.7302H156.052C156.136 73.7302 156.218 73.754 156.289 73.7988C156.36 73.8436 156.417 73.9075 156.453 73.9832L160.1 81.7909C160.138 81.8539 160.159 81.9264 160.159 82.0003C160.159 82.0742 160.138 82.1466 160.1 82.2096C160.057 82.2807 159.995 82.3376 159.921 82.3733C159.846 82.409 159.763 82.4219 159.681 82.4103V82.4103ZM102.157 81.5379H159.001L155.747 74.559H105.402L102.157 81.5379Z" fill="#093269"/>
<path d="M0.875247 82.3054C0.875247 82.3578 0.875247 82.4101 0.875247 82.4625C0.874463 85.7558 1.05503 89.0467 1.41612 92.3202C1.43335 92.7037 1.47708 93.0855 1.54697 93.463C2.22949 99.1111 3.44756 104.682 5.18474 110.099L5.70816 111.661C5.90008 112.228 6.10072 112.795 6.29265 113.353C6.48457 113.911 6.65032 114.286 6.82479 114.749C6.99926 115.211 7.19991 115.735 7.3831 116.214C7.42337 116.287 7.45836 116.363 7.48779 116.441C7.77567 117.183 8.09845 117.924 8.4125 118.648C8.5608 119.006 8.71783 119.355 8.87486 119.704L9.45062 120.934C9.64835 121.37 9.85772 121.806 10.0787 122.242C10.7068 123.545 11.3698 124.825 12.0677 126.081C12.2655 126.453 12.4748 126.828 12.6958 127.206C12.8703 127.511 13.036 127.826 13.2192 128.122C13.638 128.846 14.0916 129.562 14.5191 130.277C14.7633 130.678 15.0076 131.071 15.2693 131.463C15.531 131.856 15.9236 132.475 16.2638 132.972C17.8628 135.366 19.5806 137.678 21.4108 139.899L22.1087 140.771L22.6844 141.461L23.4696 142.333C24.1849 143.153 24.9177 143.947 25.6592 144.732L26.7758 145.892L27.8576 146.983L29.0702 148.16C29.5761 148.64 30.0908 149.12 30.6142 149.591C31.1377 150.062 31.5651 150.463 32.0624 150.882C32.5596 151.301 33.275 151.92 33.8943 152.435C46.4906 162.805 61.6501 169.586 77.7765 172.065C93.9029 174.543 110.399 172.627 125.528 166.518C140.657 160.409 153.859 150.334 163.742 137.353C173.626 124.372 179.827 108.965 181.691 92.7564C181.787 91.884 181.865 91.0116 181.944 90.1829C181.979 89.8339 182.005 89.485 182.022 89.1361C182.018 89.0693 182.018 89.0022 182.022 88.9354C182.063 88.3538 182.098 87.7868 182.127 87.2343C182.179 86.3009 182.214 85.3587 182.223 84.4165C182.223 83.771 182.223 83.1167 182.223 82.4625C182.227 82.4102 182.227 82.3577 182.223 82.3054H0.875247Z" fill="white"/>
<path d="M182.214 82.3056C182.218 82.3579 182.218 82.4104 182.214 82.4626C182.214 83.1169 182.214 83.7712 182.214 84.4167C182.214 85.3589 182.171 86.301 182.118 87.2345C182.118 87.8161 182.083 88.3831 182.014 88.9356C182.009 89.0024 182.009 89.0694 182.014 89.1362C182.014 89.4852 181.987 89.8341 181.935 90.1831C181.857 91.0554 181.778 91.9278 181.682 92.7566C179.824 108.972 173.626 124.385 163.742 137.373C153.857 150.36 140.652 160.441 125.519 166.553C110.385 172.664 93.8828 174.58 77.7514 172.099C61.6199 169.617 46.4566 162.83 33.8595 152.453C33.2401 151.938 32.6207 151.423 32.0275 150.9C31.4343 150.376 31.0592 150.027 30.5794 149.609C30.0996 149.19 29.5412 148.658 29.0353 148.178L27.8663 146.983L26.7846 145.892L25.6679 144.732C24.9264 143.947 24.1936 143.153 23.4783 142.333L22.6932 141.461L22.1174 140.772L21.4195 139.899C19.5894 137.678 17.8716 135.366 16.2725 132.973C15.9323 132.475 15.6008 131.969 15.278 131.463C14.9553 130.958 14.7721 130.678 14.5278 130.277C14.0829 129.562 13.6554 128.846 13.228 128.122C13.0448 127.826 12.879 127.512 12.7046 127.206C12.5301 126.901 12.2771 126.456 12.0765 126.081C11.3786 124.825 10.7156 123.545 10.0875 122.243C9.87227 121.806 9.66291 121.37 9.45935 120.934L8.88359 119.704C8.72656 119.355 8.56954 119.006 8.42123 118.648C8.10718 117.924 7.78441 117.183 7.49653 116.441C7.4671 116.363 7.43211 116.288 7.39184 116.215C7.20864 115.735 7.01672 115.246 6.83353 114.749C6.65033 114.252 6.47585 113.824 6.30138 113.353C6.12691 112.882 5.90882 112.228 5.7169 111.661L5.19348 110.099C3.46517 104.681 2.25587 99.1104 1.58188 93.4632C1.51198 93.0857 1.46826 92.7039 1.45102 92.3204C1.08993 89.0469 0.909369 85.756 0.910152 82.4626C0.910152 82.4103 0.910152 82.3579 0.910152 82.3056H182.214V82.3056ZM182.214 81.4332H0.875257C0.654092 81.4327 0.440978 81.5162 0.279025 81.6668C0.117072 81.8174 0.0183708 82.0239 0.0028899 82.2445C-0.000963299 82.3172 -0.000963299 82.39 0.0028899 82.4626C0.00331717 85.7879 0.183873 89.1106 0.54376 92.4163C0.569759 92.8139 0.616344 93.2099 0.683335 93.6027C1.3555 99.2947 2.57072 104.909 4.31239 110.37C4.47814 110.893 4.66133 111.425 4.8358 111.94C5.01028 112.455 5.22837 113.083 5.42901 113.685C5.62966 114.287 5.76924 114.557 5.92626 115.011V115.098C6.10946 115.595 6.30138 116.092 6.50203 116.572C6.50203 116.668 6.57182 116.729 6.58926 116.782C6.8597 117.471 7.1563 118.177 7.53142 119.032C7.671 119.372 7.82802 119.73 8.01122 120.114C8.19442 120.498 8.38634 120.934 8.57826 121.344C8.77018 121.754 8.997 122.216 9.21509 122.67C9.85192 123.987 10.5324 125.287 11.2215 126.543C11.4222 126.91 11.6315 127.294 11.8584 127.677L11.963 127.869C12.1113 128.122 12.2509 128.375 12.3992 128.62C12.8354 129.379 13.2716 130.137 13.6991 130.774L13.891 131.088L14.4493 131.961C14.807 132.528 15.1385 133.025 15.4612 133.496C17.0664 135.886 18.8198 138.242 20.6954 140.475L21.4021 141.347C21.5853 141.574 21.7859 141.801 21.9778 142.028C22.1697 142.255 22.5187 142.665 22.7978 142.97C23.5132 143.79 24.2372 144.584 24.9962 145.378C25.3626 145.77 25.7377 146.163 26.1216 146.547C26.5054 146.931 26.8456 147.297 27.2207 147.655C27.5959 148.012 28.0233 148.448 28.4246 148.832L28.8085 149.19L29.9949 150.289C30.4747 150.725 30.9545 151.162 31.4517 151.58C31.949 151.999 32.673 152.636 33.3011 153.151C46.019 163.609 61.3207 170.446 77.5961 172.941C93.8715 175.437 110.519 173.5 125.786 167.333C141.053 161.166 154.376 150.998 164.352 137.899C174.329 124.8 180.589 109.253 182.476 92.8961C182.589 91.9191 182.668 91.0903 182.729 90.279C182.729 89.9388 182.79 89.5811 182.816 89.2322V89.1624C182.82 89.1364 182.82 89.1099 182.816 89.0839C182.82 89.0667 182.82 89.0488 182.816 89.0316C182.86 88.4558 182.886 87.88 182.912 87.2868C182.964 86.3534 182.999 85.3938 183.017 84.4429C183.017 83.7973 183.017 83.1343 183.017 82.4713C183.021 82.39 183.021 82.3085 183.017 82.2271C182.995 82.0112 182.894 81.8111 182.732 81.6659C182.571 81.5207 182.361 81.4409 182.144 81.442L182.214 81.4332Z" fill="#093269"/>
<path d="M143.891 84.6959C143.397 84.3947 143.031 83.923 142.862 83.3699C142.757 83.0244 142.699 82.6665 142.687 82.3056H141.71C141.346 82.6966 141.036 83.1336 140.786 83.6055C140.096 84.9925 138.971 84.1463 138.046 84.3208C137.95 83.745 137.863 83.1693 137.741 82.5761C137.741 82.4801 137.741 82.3929 137.689 82.2882H136.816L136.729 82.5063L136.624 82.2882H122.579C122.876 82.9338 123.172 83.588 123.452 84.2336C123.914 85.2979 124.324 86.3709 124.751 87.4526C125.048 88.2378 125.17 89.0927 125.528 89.8255C126 90.6736 126.527 91.4896 127.107 92.2681C127.638 93.0555 128.036 93.925 128.284 94.8416C128.664 96.5703 128.956 98.3173 129.157 100.076C129.323 101.018 129.724 101.367 130.588 100.948C132.142 100.23 133.653 99.4227 135.115 98.5317C136.659 97.5285 137.959 96.1414 139.555 95.2167C140.312 94.7826 141.044 94.3049 141.745 93.786C142.357 93.3145 142.901 92.7595 143.359 92.1372C143.621 91.7534 143.83 91.3259 144.083 90.9246C144.297 90.4909 144.558 90.0814 144.859 89.7033C146.683 87.662 146.316 85.8911 143.891 84.6959Z" fill="#ACCCF8"/>
<path d="M144.659 82.3054C145.145 82.4222 145.642 82.4894 146.142 82.5061C148.392 82.6457 150.661 82.5061 152.676 82.5061C153.949 83.9542 155.162 85.35 156.375 86.7196L155.319 87.1558L157.753 89.2669L159.009 87.7403C159.227 88.8918 159.428 90.1218 159.646 91.3868C159.986 93.463 160.388 95.6614 160.937 97.8074C161.698 101.322 162.811 104.75 164.261 108.04C166.372 105.563 167.422 102.353 167.183 99.1072C167.065 98.309 167.171 97.4936 167.489 96.7518C168.265 95.6003 169.556 94.7803 170.306 93.6113C171.467 91.7968 173.743 90.8633 174.188 88.4905C174.258 88.1939 174.904 87.8973 175.331 87.7926C176.509 87.4786 177.721 87.2779 178.952 87.0162C179.107 87.928 179.401 88.8106 179.824 89.6333C180.562 90.5942 181.177 91.6433 181.656 92.7564C181.752 91.884 181.83 91.0116 181.909 90.1829C181.944 89.8339 181.97 89.485 181.987 89.1361C181.983 89.0693 181.983 89.0022 181.987 88.9354C182.028 88.3538 182.063 87.7868 182.092 87.2343C182.144 86.3009 182.179 85.3587 182.188 84.4165C182.188 83.771 182.188 83.1167 182.188 82.4625C182.192 82.4102 182.192 82.3577 182.188 82.3054H144.659Z" fill="#ACCCF8"/>
<path d="M33.8508 152.453C34.1297 151.879 34.3096 151.263 34.3829 150.629C34.4876 149.094 34.9936 148.065 36.2672 147.48C37.759 146.8 39.3467 146.346 40.8821 145.735C41.2418 145.643 41.5627 145.438 41.7981 145.151C42.5868 143.9 43.214 142.555 43.6649 141.147C44.0112 139.182 44.2385 137.198 44.3454 135.206C44.3318 134.989 44.377 134.772 44.4762 134.578C45.2613 133.557 46.1599 132.615 46.8665 131.533C47.5731 130.452 48.7246 129.038 48.8032 127.739C48.8491 127.359 48.8167 126.975 48.7081 126.609C48.5994 126.242 48.4168 125.903 48.1715 125.61C47.9262 125.317 47.6234 125.078 47.2819 124.907C46.9404 124.736 46.5674 124.637 46.1861 124.615C45.9208 124.542 45.6933 124.37 45.5492 124.136C43.8045 121.745 41.1874 122.278 38.736 122.234C38.9454 121.204 38.422 120.873 37.3577 120.629C34.8627 120.053 32.865 118.884 32.1235 116.066C31.3645 113.091 29.899 112.254 26.8021 112.088C25.8659 111.898 24.9928 111.475 24.2635 110.858C23.6703 110.378 23.1293 109.838 22.6496 109.244C22.4123 108.927 22.1434 108.635 21.847 108.372C20.9746 107.779 20.364 106.514 19.2299 106.758C18.0958 107.002 16.8047 107.325 15.5921 106.758C14.3796 106.191 13.4025 105.729 12.1027 105.109C11.7799 105.982 11.3524 107.168 10.8988 108.424C10.0264 107.124 10.8988 105.851 11.0994 104.499C8.69171 105.99 5.86525 106.837 5.34183 110.134L5.1848 110.038C10.4705 126.635 20.4221 141.359 33.8508 152.453V152.453Z" fill="#ACCCF8"/>
<path d="M129.593 106.348C129.244 105.746 129.288 104.865 128.869 104.35C128.084 103.4 127.046 102.658 126.182 101.733C125.687 101.273 125.297 100.71 125.039 100.085C124.333 97.9211 122.719 96.2025 122.466 93.7512C122.309 92.242 120.913 90.8898 120.224 89.3893C119.354 87.5343 118.588 85.6325 117.929 83.6927C117.458 82.2708 116.656 82.3929 115.522 82.6983C114.68 82.9834 113.779 83.0495 112.905 82.8902C112.233 82.7157 111.57 82.5063 110.907 82.2708H105.245C105.202 82.4189 105.173 82.5708 105.158 82.7244C105.062 83.7974 104.6 84.3819 103.579 83.5968C102.707 82.9512 101.32 83.0995 100.587 82.2446H74.599C74.5037 82.5553 74.4595 82.8794 74.4682 83.2042C74.4682 85.2019 73.4126 85.8998 71.8511 86.3884C71.4449 86.5007 71.0884 86.7466 70.8391 87.0863C69.9057 88.6042 68.9722 90.1308 68.222 91.7273C67.655 92.8439 66.6256 93.7948 67.6637 95.4348C68.1919 96.6434 68.2325 98.0093 67.7771 99.2471C67.3042 100.871 67.1647 102.575 67.3671 104.254C67.3671 104.612 67.7509 104.97 68.0039 105.284C68.2569 105.598 68.6058 105.746 68.8152 106.034C69.6713 107.471 70.6214 108.849 71.6591 110.16C72.8494 111.292 74.108 112.35 75.4278 113.327C75.7716 113.628 76.1951 113.822 76.6472 113.887C77.0992 113.952 77.5605 113.885 77.9751 113.693C79.329 113.43 80.7047 113.296 82.0839 113.292C82.6144 113.271 83.1409 113.192 83.6542 113.057C84.7031 112.616 85.7747 112.232 86.8645 111.905C87.955 111.678 89.4816 110.989 89.9527 112.629C90.415 114.112 91.2525 114.06 92.4389 113.946C92.7501 113.914 93.0646 113.952 93.3591 114.058C93.6536 114.164 93.9205 114.334 94.14 114.557C94.5716 115.261 94.7269 116.1 94.5762 116.912C93.8609 119.32 93.8434 121.335 95.815 123.351C96.6413 124.236 97.2743 125.283 97.6738 126.426C98.0733 127.569 98.2306 128.782 98.1355 129.989C98.1112 130.319 98.1972 130.647 98.3797 130.923C99.1736 132.004 98.6938 132.781 98.1616 133.871C96.984 136.279 95.8673 138.748 97.5161 141.566C98.5019 143.241 99.5749 144.898 99.6447 147.105C99.6031 149.208 100.346 151.252 101.73 152.837C102.602 153.779 103.474 155.323 103.361 156.483C103.255 157.079 103.348 157.693 103.625 158.23C103.903 158.768 104.349 159.199 104.896 159.458C105.399 159.244 105.918 159.072 106.449 158.943C107.945 158.905 109.435 158.751 110.907 158.481C114.606 157.416 116.412 154.25 118.287 151.266C118.636 150.717 118.418 149.809 118.479 148.754C118.697 148.632 119.194 148.318 119.727 148.065C120.05 147.961 120.347 147.791 120.601 147.565C120.854 147.34 121.058 147.064 121.198 146.755C121.339 146.446 121.413 146.111 121.417 145.772C121.42 145.433 121.353 145.096 121.218 144.785C121.053 144.209 120.782 143.659 120.643 143.04C120.564 142.717 120.512 142.168 120.695 142.037C121.925 140.911 123.26 139.899 124.472 138.757C125.266 138.015 126.304 137.186 126.496 136.244C126.691 134.79 126.62 133.312 126.287 131.882C126.121 130.905 125.484 130.015 125.301 129.047C125.118 128.079 125.824 126.753 124.69 125.811C124.551 125.697 124.621 125.113 124.778 124.886C126.618 122.347 128.101 119.346 130.465 117.436C133.588 114.906 135.141 111.574 136.86 108.25C137.213 107.24 137.421 106.186 137.479 105.118C135.106 105.729 132.987 106.313 130.849 106.784C130.62 106.819 130.386 106.798 130.167 106.722C129.948 106.646 129.751 106.518 129.593 106.348V106.348Z" fill="#ACCCF8"/>
<path d="M129.593 143.729C129.009 144.967 129.174 147.34 130.169 148.195C130.395 148.395 130.667 148.537 130.96 148.608C131.254 148.679 131.56 148.677 131.853 148.602C132.146 148.527 132.415 148.382 132.639 148.179C132.862 147.975 133.033 147.72 133.135 147.436C134.077 144.313 134.88 141.164 135.752 138.023C135.813 137.779 135.752 137.483 135.909 137.291C136.292 136.72 136.452 136.028 136.361 135.347C136.269 134.666 135.931 134.042 135.412 133.592C133.58 134.953 133.397 137.954 130.116 137.805C130.116 138.87 130.178 139.855 130.116 140.832C130.109 141.821 129.932 142.8 129.593 143.729V143.729Z" fill="#ACCCF8"/>
<path d="M2.08789 92.5732C1.86839 92.4633 1.63722 92.3784 1.39873 92.3202L1.52958 93.4717C2.18464 93.697 2.82305 93.9681 3.44006 94.283C4.08561 94.6058 4.47818 95.4171 5.1848 96.1935L8.18574 95.8533C5.96993 94.6668 4.05944 93.5502 2.08789 92.5732Z" fill="#ACCCF8"/>
<path d="M13.9084 98.0779C14.0393 96.6123 11.4135 95.6876 9.04934 96.3332L10.3055 97.7726L7.83675 97.5458C9.76468 98.9067 11.8758 97.9034 13.9084 98.0779Z" fill="#ACCCF8"/>
<path d="M167.986 112.053C168.457 111.87 169.094 110.963 168.98 110.631C168.512 109.596 167.955 108.604 167.314 107.665L166.817 107.892C166.817 108.895 166.817 109.898 166.817 110.893C166.817 111.887 167.087 112.411 167.986 112.053Z" fill="#ACCCF8"/>
<path d="M22.0564 69.8745H5.7431V81.9742H22.0564V69.8745Z" fill="#093269"/>
<path d="M22.0564 82.41H5.74311C5.62743 82.41 5.51649 82.364 5.43469 82.2822C5.35289 82.2004 5.30693 82.0895 5.30693 81.9738V69.874C5.30693 69.7584 5.35289 69.6474 5.43469 69.5656C5.51649 69.4838 5.62743 69.4379 5.74311 69.4379H22.0564C22.1721 69.4379 22.283 69.4838 22.3648 69.5656C22.4466 69.6474 22.4926 69.7584 22.4926 69.874V81.9738C22.4926 82.0895 22.4466 82.2004 22.3648 82.2822C22.283 82.364 22.1721 82.41 22.0564 82.41ZM6.1793 81.5376H21.6202V70.3102H6.1793V81.5376Z" fill="#093269"/>
<path d="M13.8997 61.3861L2.63745 70.6855H25.1707L13.8997 61.3861Z" fill="#1264D1"/>
<path d="M13.385 72.1163H8.83997V81.9828H13.385V72.1163Z" fill="white"/>
<path d="M13.385 82.4102H8.83993C8.72425 82.4102 8.6133 82.3642 8.5315 82.2824C8.4497 82.2006 8.40375 82.0897 8.40375 81.974V72.1162C8.40375 72.0006 8.4497 71.8896 8.5315 71.8078C8.6133 71.726 8.72425 71.6801 8.83993 71.6801H13.385C13.5006 71.6801 13.6116 71.726 13.6934 71.8078C13.7752 71.8896 13.8211 72.0006 13.8211 72.1162V81.974C13.8211 82.0897 13.7752 82.2006 13.6934 82.2824C13.6116 82.3642 13.5006 82.4102 13.385 82.4102ZM9.27611 81.5378H12.9488V72.5524H9.27611V81.5378Z" fill="#093269"/>
<path d="M19.6399 73.2242H16.2027V76.6614H19.6399V73.2242Z" fill="white"/>
<path d="M19.6486 77.0975H16.1591C16.0441 77.0952 15.9345 77.0486 15.8532 76.9672C15.7718 76.8859 15.7252 76.7763 15.7229 76.6613V73.2241C15.7229 73.1085 15.7689 72.9975 15.8507 72.9157C15.9325 72.8339 16.0434 72.788 16.1591 72.788H19.6486C19.7643 72.788 19.8752 72.8339 19.957 72.9157C20.0388 72.9975 20.0848 73.1085 20.0848 73.2241V76.6613C20.0825 76.7763 20.0359 76.8859 19.9545 76.9672C19.8732 77.0486 19.7636 77.0952 19.6486 77.0975V77.0975ZM16.6389 76.2251H19.256V73.6603H16.6389V76.2251Z" fill="#093269"/>
<path d="M169.923 82.4101C169.811 82.4103 169.704 82.368 169.623 82.2918C169.542 82.2155 169.493 82.1112 169.486 82.0001C169.486 81.8605 168.797 67.8329 166.442 64.2038C164.086 60.5748 161.408 56.7276 161.382 56.684C161.323 56.5891 161.303 56.4751 161.326 56.3657C161.348 56.2562 161.412 56.1596 161.504 56.0958C161.596 56.0321 161.708 56.0059 161.819 56.0229C161.929 56.0398 162.029 56.0984 162.097 56.1868C162.097 56.1868 164.715 59.999 167.175 63.7327C169.635 67.4665 170.333 81.372 170.359 81.9565C170.362 82.0133 170.354 82.0703 170.336 82.1241C170.317 82.1779 170.287 82.2274 170.249 82.2696C170.211 82.3119 170.165 82.3461 170.113 82.3702C170.062 82.3943 170.006 82.4079 169.949 82.4101H169.923Z" fill="#093269"/>
<path d="M166.808 64.4046C166.709 64.4051 166.612 64.3716 166.535 64.3097C166.457 64.2479 166.403 64.1613 166.381 64.0644C165.603 60.2713 165.603 56.3598 166.381 52.5666C166.41 52.4539 166.482 52.357 166.581 52.2967C166.68 52.2364 166.8 52.2174 166.913 52.2438C166.969 52.2581 167.021 52.2831 167.067 52.3176C167.113 52.3521 167.151 52.3953 167.18 52.4447C167.21 52.4941 167.229 52.5489 167.237 52.6057C167.245 52.6626 167.241 52.7204 167.227 52.776C166.49 56.4381 166.49 60.2104 167.227 63.8725C167.24 63.9286 167.241 63.9868 167.232 64.0436C167.222 64.1003 167.201 64.1546 167.17 64.2033C167.139 64.2519 167.099 64.294 167.052 64.3271C167.005 64.3602 166.952 64.3835 166.895 64.3959L166.808 64.4046Z" fill="#093269"/>
<path d="M166.512 58.7603C166.435 58.7564 166.361 58.7355 166.294 58.6993C166.194 58.6393 166.122 58.5428 166.092 58.4303C166.063 58.3178 166.079 58.1983 166.137 58.0973C166.224 57.9577 168.152 54.7213 169.696 53.7355C169.795 53.6753 169.915 53.6572 170.027 53.685C170.14 53.7128 170.238 53.7843 170.298 53.8838C170.358 53.9833 170.376 54.1026 170.348 54.2155C170.32 54.3283 170.249 54.4256 170.149 54.4857C169.024 55.1749 167.41 57.6262 166.887 58.5073C166.853 58.5798 166.801 58.6417 166.735 58.6863C166.668 58.7309 166.591 58.7565 166.512 58.7603Z" fill="#093269"/>
<path d="M168.221 67.8329H168.108C167.997 67.8022 167.902 67.7295 167.844 67.6303C167.785 67.531 167.767 67.4129 167.794 67.3008C168.595 64.3831 169.922 61.6365 171.711 59.1965C171.784 59.1061 171.891 59.0481 172.006 59.035C172.122 59.022 172.239 59.0549 172.33 59.1267C172.375 59.1623 172.412 59.2065 172.44 59.2567C172.467 59.3069 172.484 59.3622 172.49 59.4191C172.496 59.4761 172.49 59.5336 172.473 59.5883C172.456 59.6429 172.428 59.6936 172.391 59.7374C170.69 62.0884 169.42 64.7233 168.64 67.5189C168.614 67.6095 168.559 67.6891 168.483 67.7457C168.408 67.8023 168.316 67.8329 168.221 67.8329Z" fill="#093269"/>
<path d="M163.45 59.9031C163.395 59.916 163.338 59.916 163.284 59.9031C162.56 59.6065 160.457 58.9173 159.445 59.3273C159.393 59.35 159.336 59.3619 159.279 59.3623C159.222 59.3627 159.165 59.3516 159.112 59.3296C159.059 59.3076 159.011 59.2753 158.971 59.2344C158.931 59.1935 158.899 59.145 158.878 59.0918C158.837 58.9851 158.839 58.8667 158.883 58.7611C158.927 58.6555 159.009 58.5709 159.114 58.5247C160.632 57.9053 163.31 58.9696 163.615 59.1005C163.669 59.1215 163.717 59.153 163.758 59.1932C163.799 59.2333 163.831 59.2812 163.853 59.3341C163.875 59.387 163.886 59.4438 163.886 59.5011C163.885 59.5583 163.874 59.6149 163.851 59.6675C163.812 59.74 163.754 59.8004 163.683 59.8419C163.613 59.8835 163.532 59.9047 163.45 59.9031Z" fill="#093269"/>
<path d="M165.918 82.2793C165.814 82.2789 165.714 82.242 165.634 82.1751C165.554 82.1081 165.501 82.0154 165.482 81.9129C165.334 80.8661 164.697 77.996 163.598 77.333C163.464 77.2308 163.31 77.1585 163.146 77.1209C162.982 77.0833 162.812 77.0812 162.647 77.1149C162.42 77.2092 162.239 77.3874 162.141 77.6122C162.12 77.6654 162.088 77.714 162.048 77.7551C162.008 77.7962 161.961 77.8291 161.908 77.8517C161.855 77.8744 161.799 77.8865 161.741 77.8873C161.684 77.8881 161.627 77.8776 161.574 77.8564C161.521 77.8352 161.472 77.8038 161.431 77.7638C161.39 77.7238 161.357 77.6762 161.334 77.6235C161.312 77.5708 161.3 77.5142 161.299 77.4569C161.298 77.3996 161.308 77.3427 161.33 77.2894C161.426 77.0619 161.568 76.8565 161.747 76.6855C161.925 76.5146 162.136 76.3816 162.368 76.2949C162.651 76.213 162.948 76.1964 163.238 76.2463C163.528 76.2961 163.804 76.4112 164.043 76.5828C165.7 77.586 166.285 81.3546 166.355 81.817C166.369 81.9325 166.339 82.0492 166.268 82.1422C166.198 82.2352 166.095 82.2969 165.979 82.3142L165.918 82.2793Z" fill="#093269"/>
<path d="M165.823 81.7382C165.708 81.7382 165.599 81.6935 165.517 81.6135C165.436 81.5336 165.389 81.4249 165.386 81.3107C165.325 76.6785 166.154 76.5389 166.433 76.4953C166.533 76.478 166.635 76.4823 166.733 76.5079C166.831 76.5334 166.922 76.5797 167 76.6436C167.672 77.1408 167.969 79.0077 168.038 79.5747C168.046 79.632 168.042 79.6902 168.027 79.746C168.012 79.8017 167.986 79.854 167.951 79.8998C167.915 79.9455 167.872 79.9839 167.821 80.0127C167.771 80.0415 167.716 80.0602 167.659 80.0676C167.602 80.0751 167.543 80.0712 167.488 80.0561C167.432 80.0411 167.38 80.0152 167.334 79.98C167.288 79.9447 167.25 79.9008 167.221 79.8507C167.192 79.8007 167.173 79.7454 167.166 79.6881C167.086 78.9239 166.889 78.1765 166.581 77.4723C166.303 78.7287 166.191 80.0164 166.25 81.302C166.251 81.3589 166.241 81.4154 166.22 81.4683C166.199 81.5211 166.168 81.5693 166.128 81.6099C166.088 81.6506 166.041 81.6828 165.988 81.7048C165.936 81.7269 165.879 81.7382 165.823 81.7382V81.7382Z" fill="#093269"/>
<path d="M40.786 28.7598H36.3631V33.8369H40.786V28.7598Z" fill="white"/>
<path d="M56.9946 32.5284H52.5717V37.6056H56.9946V32.5284Z" fill="white"/>
<path d="M170.141 31.2983H165.718V36.3755H170.141V31.2983Z" fill="#093269"/>
<path d="M170.141 36.8116H165.7C165.585 36.8116 165.474 36.7656 165.392 36.6838C165.31 36.602 165.264 36.4911 165.264 36.3754V31.2982C165.264 31.1826 165.31 31.0716 165.392 30.9898C165.474 30.908 165.585 30.8621 165.7 30.8621H170.123C170.238 30.8643 170.348 30.911 170.429 30.9923C170.51 31.0736 170.557 31.1833 170.559 31.2982V36.3754C170.559 36.4881 170.516 36.5965 170.438 36.6778C170.36 36.7592 170.253 36.8071 170.141 36.8116ZM166.154 35.9392H169.704V31.7344H166.154V35.9392Z" fill="#093269"/>
<path d="M158.817 37.3787H154.394V42.4558H158.817V37.3787Z" fill="#093269"/>
<path d="M158.809 42.8921H154.36C154.244 42.8921 154.133 42.8461 154.051 42.7643C153.969 42.6825 153.923 42.5716 153.923 42.4559V37.3787C153.923 37.263 153.969 37.1521 154.051 37.0703C154.133 36.9885 154.244 36.9425 154.36 36.9425H158.774C158.889 36.9425 159 36.9885 159.082 37.0703C159.164 37.1521 159.21 37.263 159.21 37.3787V42.4559C159.21 42.5658 159.169 42.6717 159.095 42.7526C159.02 42.8335 158.918 42.8833 158.809 42.8921ZM154.831 42.0197H158.372V37.8149H154.831V42.0197Z" fill="#093269"/>
<path d="M169.818 41.9849H165.395V47.062H169.818V41.9849Z" fill="#093269"/>
<path d="M169.818 47.4982H165.395C165.28 47.496 165.17 47.4493 165.089 47.368C165.008 47.2867 164.961 47.177 164.959 47.0621V41.9849C164.959 41.8692 165.005 41.7583 165.087 41.6765C165.168 41.5947 165.279 41.5487 165.395 41.5487H169.818C169.934 41.5487 170.044 41.5947 170.126 41.6765C170.208 41.7583 170.254 41.8692 170.254 41.9849V47.0621C170.254 47.1777 170.208 47.2887 170.126 47.3705C170.044 47.4523 169.934 47.4982 169.818 47.4982ZM165.831 46.6259H169.382V42.4211H165.831V46.6259Z" fill="#093269"/>
<path d="M45.9679 42.6042H41.545V47.6814H45.9679V42.6042Z" fill="white"/>
<path d="M82.555 76.7573C82.2147 77.4988 81.7611 78.6677 80.121 78.6677C78.481 78.6677 39.2245 78.9382 38.0381 78.6677C37.6722 78.5588 37.3386 78.3618 37.0664 78.0942C36.7942 77.8266 36.5917 77.4963 36.4765 77.1324C36.4765 77.1324 36.3021 74.62 36.3806 73.6429C36.3806 73.6429 36.3806 73.5469 36.3806 73.512C36.4118 73.2651 36.4997 73.0287 36.6374 72.8214C36.7751 72.6141 36.9589 72.4414 37.1744 72.3169C37.0785 71.6181 37.1351 70.9068 37.3402 70.232C37.6804 69.4381 41.8678 65.9399 41.8678 65.9399C41.8678 65.9399 40.9954 65.7044 40.7948 65.2944C40.5941 64.8843 58.4253 63.9073 61.592 64.5441C64.7587 65.1809 72.4966 70.6943 72.4966 70.6943C72.4966 70.6943 80.5572 70.7903 81.4034 71.5667C82.2496 72.3431 82.8952 76.0157 82.555 76.7573Z" fill="#1264D1"/>
<path d="M45.3311 81.5378C47.0945 81.5378 48.524 80.1083 48.524 78.345C48.524 76.5816 47.0945 75.1521 45.3311 75.1521C43.5677 75.1521 42.1382 76.5816 42.1382 78.345C42.1382 80.1083 43.5677 81.5378 45.3311 81.5378Z" fill="#093269"/>
<path d="M45.3311 79.9238C46.2031 79.9238 46.9101 79.2169 46.9101 78.3449C46.9101 77.4728 46.2031 76.7659 45.3311 76.7659C44.459 76.7659 43.7521 77.4728 43.7521 78.3449C43.7521 79.2169 44.459 79.9238 45.3311 79.9238Z" fill="white"/>
<path d="M45.3136 80.3604C44.9129 80.3604 44.5213 80.2415 44.1883 80.0187C43.8553 79.7959 43.5959 79.4793 43.4429 79.109C43.29 78.7387 43.2505 78.3313 43.3293 77.9384C43.4081 77.5456 43.6017 77.185 43.8856 76.9023C44.1695 76.6196 44.531 76.4276 44.9241 76.3505C45.3173 76.2733 45.7245 76.3147 46.0942 76.4692C46.4638 76.6237 46.7793 76.8845 47.0007 77.2185C47.222 77.5524 47.3392 77.9446 47.3375 78.3452C47.3352 78.8805 47.1209 79.393 46.7416 79.7707C46.3623 80.1484 45.8489 80.3604 45.3136 80.3604ZM45.3136 77.1937C45.0859 77.1937 44.8632 77.2612 44.6739 77.3878C44.4845 77.5143 44.3369 77.6942 44.2497 77.9046C44.1626 78.115 44.1398 78.3465 44.1842 78.5699C44.2286 78.7933 44.3383 78.9984 44.4994 79.1595C44.6604 79.3205 44.8656 79.4302 45.089 79.4746C45.3123 79.5191 45.5439 79.4963 45.7543 79.4091C45.9647 79.3219 46.1445 79.1744 46.2711 78.985C46.3976 78.7956 46.4651 78.573 46.4651 78.3452C46.4651 78.0398 46.3438 77.7469 46.1279 77.531C45.9119 77.315 45.619 77.1937 45.3136 77.1937V77.1937Z" fill="#093269"/>
<path d="M73.2207 81.5378C74.984 81.5378 76.4135 80.1083 76.4135 78.345C76.4135 76.5816 74.984 75.1521 73.2207 75.1521C71.4573 75.1521 70.0278 76.5816 70.0278 78.345C70.0278 80.1083 71.4573 81.5378 73.2207 81.5378Z" fill="#093269"/>
<path d="M73.2206 79.9238C74.0927 79.9238 74.7996 79.2169 74.7996 78.3449C74.7996 77.4728 74.0927 76.7659 73.2206 76.7659C72.3486 76.7659 71.6416 77.4728 71.6416 78.3449C71.6416 79.2169 72.3486 79.9238 73.2206 79.9238Z" fill="white"/>
<path d="M73.2293 80.3604C72.8283 80.3621 72.4358 80.2447 72.1016 80.0229C71.7675 79.8012 71.5067 79.4852 71.3525 79.115C71.1982 78.7449 71.1574 78.3372 71.2352 77.9438C71.313 77.5504 71.5059 77.189 71.7895 76.9054C72.0731 76.6218 72.4345 76.4289 72.8279 76.3511C73.2213 76.2733 73.629 76.3141 73.9991 76.4683C74.3693 76.6226 74.6853 76.8834 74.907 77.2175C75.1287 77.5517 75.2462 77.9442 75.2445 78.3452C75.2422 78.879 75.0291 79.3902 74.6517 79.7676C74.2743 80.145 73.7631 80.3581 73.2293 80.3604ZM73.2293 77.1937C73.0012 77.192 72.7777 77.258 72.5872 77.3835C72.3967 77.509 72.2477 77.6882 72.1592 77.8985C72.0708 78.1087 72.0467 78.3405 72.0901 78.5645C72.1336 78.7884 72.2426 78.9944 72.4032 79.1563C72.5639 79.3182 72.7691 79.4288 72.9927 79.4739C73.2163 79.5191 73.4483 79.4968 73.6592 79.4099C73.8701 79.323 74.0505 79.1754 74.1774 78.9859C74.3043 78.7963 74.3721 78.5733 74.3721 78.3452C74.3721 78.0413 74.252 77.7497 74.0379 77.534C73.8239 77.3183 73.5332 77.196 73.2293 77.1937Z" fill="#093269"/>
<path d="M42.1382 66.4373C41.9987 66.5245 38.5441 69.7435 38.5441 69.7435C39.1853 69.6967 39.8138 69.5403 40.4022 69.2812C41.3807 68.6432 42.2621 67.8675 43.0193 66.9781L42.1382 66.4373Z" fill="#093269"/>
<path d="M38.544 70.18C38.4576 70.1788 38.3735 70.1519 38.3023 70.1028C38.2312 70.0537 38.1762 69.9846 38.1444 69.9042C38.1127 69.8238 38.1055 69.7358 38.1238 69.6513C38.1422 69.5668 38.1852 69.4897 38.2474 69.4297C41.7369 66.1758 41.8677 66.0973 41.9114 66.0624C41.98 66.0217 42.0584 66.0002 42.1382 66.0002C42.218 66.0002 42.2963 66.0217 42.365 66.0624L43.2374 66.5946C43.2901 66.6288 43.3352 66.6736 43.3698 66.7261C43.4043 66.7787 43.4276 66.8379 43.438 66.8999C43.4481 66.9635 43.4439 67.0286 43.4258 67.0905C43.4077 67.1523 43.3761 67.2094 43.3333 67.2575C42.5408 68.2 41.6081 69.015 40.5679 69.674C39.9328 69.9544 39.254 70.1226 38.5615 70.1712L38.544 70.18ZM42.1818 66.9784C41.7805 67.3361 40.8907 68.1648 40.027 68.9674L40.2277 68.8801C41.0166 68.3856 41.728 67.7771 42.3388 67.0744L42.1818 66.9784Z" fill="#093269"/>
<path d="M47.8784 65.9835C46.8249 66.095 45.7949 66.3686 44.8251 66.7948C44.5547 68.0946 45.366 71.1567 47.9918 71.1567L47.8784 65.9835Z" fill="#093269"/>
<path d="M47.9918 71.6277C47.4862 71.6251 46.9878 71.5075 46.5344 71.2838C46.081 71.0601 45.6844 70.7362 45.3747 70.3366C44.9868 69.8218 44.7046 69.2353 44.5444 68.611C44.3842 67.9866 44.3492 67.3367 44.4413 66.6988C44.4541 66.6411 44.4784 66.5866 44.5129 66.5386C44.5474 66.4906 44.5913 66.4502 44.6419 66.4196C45.667 65.966 46.7555 65.6718 47.8697 65.5473C47.9924 65.5363 48.1145 65.5739 48.2099 65.652C48.2559 65.6923 48.2928 65.742 48.3184 65.7976C48.3439 65.8532 48.3575 65.9135 48.3582 65.9747L48.4716 71.2089C48.4731 71.2668 48.4631 71.3243 48.4421 71.3782C48.4211 71.4321 48.3896 71.4813 48.3495 71.523C48.3004 71.5643 48.2432 71.5949 48.1816 71.613C48.1201 71.631 48.0554 71.636 47.9918 71.6277V71.6277ZM45.2264 67.0739C45.1743 68.0504 45.4677 69.014 46.0551 69.7957C46.4227 70.2742 46.9539 70.6004 47.5469 70.7117L47.4509 66.4894C46.6882 66.5922 45.9411 66.7885 45.2264 67.0739V67.0739Z" fill="#093269"/>
<path d="M40.0794 72.3171C39.8268 72.7668 39.4672 73.1473 39.0326 73.425C38.3307 73.6285 37.5976 73.7024 36.8691 73.6431C36.8691 73.6431 36.8691 73.5472 36.8691 73.5123C36.9003 73.2653 36.9882 73.029 37.1259 72.8216C37.2637 72.6143 37.4475 72.4416 37.663 72.3171H40.0794Z" fill="white"/>
<path d="M80.662 76.9755H37.3926C37.3347 76.9755 37.2792 76.9525 37.2383 76.9116C37.1974 76.8707 37.1745 76.8152 37.1745 76.7574C37.1745 76.6996 37.1974 76.6441 37.2383 76.6032C37.2792 76.5623 37.3347 76.5393 37.3926 76.5393H80.662C80.7191 76.5415 80.7733 76.5651 80.8138 76.6056C80.8542 76.646 80.8779 76.7002 80.8801 76.7574C80.8801 76.8152 80.8571 76.8707 80.8162 76.9116C80.7753 76.9525 80.7198 76.9755 80.662 76.9755Z" fill="#093269"/>
<path d="M49.1782 71.3227V66.0187C49.1782 66.0187 54.6044 65.914 55.9653 66.0187L55.782 71.3227H49.1782Z" fill="#093269"/>
<path d="M55.782 71.7673H49.1607C49.045 71.7673 48.9341 71.7214 48.8523 71.6396C48.7705 71.5578 48.7245 71.4468 48.7245 71.3311V66.0271C48.7267 65.9136 48.7721 65.8052 48.8516 65.7241C48.9311 65.643 49.0385 65.5954 49.152 65.591C49.3701 65.591 54.6217 65.4863 55.9914 65.591C56.1016 65.5999 56.2042 65.6512 56.2774 65.7342C56.3506 65.8172 56.3888 65.9253 56.3839 66.0359L56.2182 71.3573C56.2115 71.4684 56.1626 71.5727 56.0815 71.649C56.0004 71.7252 55.8933 71.7675 55.782 71.7673ZM49.5969 70.895H55.3632L55.5028 66.4197C54.0547 66.3499 50.7746 66.4197 49.5969 66.4197V70.895Z" fill="#093269"/>
<path d="M57.3261 71.3225V65.9749C57.3261 65.9749 61.8712 65.8441 62.9267 66.1843C63.9823 66.5245 70.1325 71.34 70.0278 71.3225C69.9231 71.3051 57.3261 71.3225 57.3261 71.3225Z" fill="#093269"/>
<path d="M70.0278 71.7675H57.3261C57.2111 71.7653 57.1015 71.7186 57.0202 71.6373C56.9388 71.556 56.8922 71.4463 56.8899 71.3313V65.9837C56.8899 65.8696 56.9347 65.7599 57.0146 65.6784C57.0945 65.5968 57.2032 65.5498 57.3174 65.5476C57.7885 65.5476 61.9671 65.4254 63.0576 65.7744C64.5041 66.5483 65.869 67.466 67.1315 68.5136C70.5337 71.0696 70.525 71.1307 70.4552 71.4273C70.432 71.5235 70.3773 71.6091 70.2999 71.6708C70.2225 71.7324 70.1267 71.7664 70.0278 71.7675V71.7675ZM57.7623 66.4112V70.8952H68.7977C66.8907 69.3406 64.8859 67.9099 62.7959 66.6119C61.1275 66.3929 59.4428 66.3258 57.7623 66.4112V66.4112Z" fill="#093269"/>
<path d="M81.7349 74.184H78.7078C78.8721 74.5774 79.1481 74.914 79.5017 75.1523C80.0949 75.5449 81.9617 75.2919 81.9617 75.2919L81.7349 74.184Z" fill="white"/>
<path d="M73.2294 61.3862H63.6769C63.5613 61.3862 63.4503 61.3402 63.3685 61.2584C63.2867 61.1766 63.2408 61.0657 63.2408 60.95V55.0702C63.2408 54.9545 63.2867 54.8436 63.3685 54.7618C63.4503 54.68 63.5613 54.634 63.6769 54.634H73.2294C73.345 54.634 73.456 54.68 73.5378 54.7618C73.6196 54.8436 73.6655 54.9545 73.6655 55.0702V60.95C73.6633 61.065 73.6166 61.1746 73.5353 61.2559C73.454 61.3373 73.3443 61.3839 73.2294 61.3862V61.3862ZM64.1218 60.5138H72.7932V55.5064H64.1218V60.5138Z" fill="#ACCCF8"/>
</svg>
