<svg width="160" height="52" viewBox="0 0 160 52" fill="none" xmlns="http://www.w3.org/2000/svg">
<rect x="0.25" y="0.25" width="159.5" height="51.5" rx="25.75" fill="#093269"/>
<path d="M48.4789 23.65C46.9689 23.65 45.8439 23.275 45.1039 22.525C44.3739 21.765 44.0089 20.645 44.0089 19.165V12.925H45.9439V19.15C45.9439 20.09 46.1439 20.8 46.5439 21.28C46.9539 21.76 47.5989 22 48.4789 22C49.3189 22 49.9489 21.76 50.3689 21.28C50.7989 20.8 51.0139 20.09 51.0139 19.15V12.925H52.9189V19.165C52.9189 20.645 52.5439 21.765 51.7939 22.525C51.0539 23.275 49.9489 23.65 48.4789 23.65ZM56.4224 23.5V12.925H61.1174C62.2774 12.925 63.1624 13.205 63.7724 13.765C64.3824 14.325 64.6874 15.095 64.6874 16.075C64.6874 17.045 64.3824 17.815 63.7724 18.385C63.1624 18.955 62.2774 19.24 61.1174 19.24H58.3574V23.5H56.4224ZM58.3574 17.71H60.8924C61.5324 17.71 62.0124 17.57 62.3324 17.29C62.6524 17 62.8124 16.595 62.8124 16.075C62.8124 15.555 62.6524 15.155 62.3324 14.875C62.0124 14.585 61.5324 14.44 60.8924 14.44H58.3574V17.71ZM67.6627 23.5V12.925H71.5027C72.7127 12.925 73.7327 13.135 74.5627 13.555C75.4027 13.965 76.0377 14.565 76.4677 15.355C76.8977 16.135 77.1127 17.085 77.1127 18.205C77.1127 19.315 76.8977 20.265 76.4677 21.055C76.0377 21.845 75.4027 22.45 74.5627 22.87C73.7327 23.29 72.7127 23.5 71.5027 23.5H67.6627ZM69.5977 21.895H71.3827C72.6627 21.895 73.6127 21.59 74.2327 20.98C74.8527 20.37 75.1627 19.445 75.1627 18.205C75.1627 16.955 74.8527 16.03 74.2327 15.43C73.6127 14.82 72.6627 14.515 71.3827 14.515H69.5977V21.895ZM78.9487 23.5L83.7337 12.925H85.3537L90.1987 23.5H88.2337L86.9437 20.53L87.7237 21.055H81.3787L82.1887 20.53L80.8987 23.5H78.9487ZM84.5287 14.995L82.4137 20.005L82.0237 19.54H87.0637L86.7487 20.005L84.5887 14.995H84.5287ZM93.9369 23.5V14.515H90.4419V12.925H99.3669V14.515H95.8719V23.5H93.9369ZM101.984 23.5V12.925H109.109V14.44H103.844V17.365H108.764V18.895H103.844V21.97H109.109V23.5H101.984ZM33.9406 38.65C33.0906 38.65 32.3056 38.545 31.5856 38.335C30.8756 38.115 30.2656 37.815 29.7556 37.435L30.3556 35.92C30.6956 36.16 31.0506 36.365 31.4206 36.535C31.7906 36.695 32.1856 36.82 32.6056 36.91C33.0256 36.99 33.4706 37.03 33.9406 37.03C34.7306 37.03 35.3006 36.9 35.6506 36.64C36.0006 36.38 36.1756 36.04 36.1756 35.62C36.1756 35.25 36.0556 34.97 35.8156 34.78C35.5756 34.58 35.1456 34.415 34.5256 34.285L32.8306 33.94C31.8606 33.74 31.1356 33.405 30.6556 32.935C30.1756 32.465 29.9356 31.835 29.9356 31.045C29.9356 30.385 30.1106 29.81 30.4606 29.32C30.8106 28.83 31.3006 28.45 31.9306 28.18C32.5606 27.91 33.2956 27.775 34.1356 27.775C34.8856 27.775 35.5806 27.885 36.2206 28.105C36.8606 28.315 37.3956 28.62 37.8256 29.02L37.2256 30.46C36.7956 30.1 36.3256 29.835 35.8156 29.665C35.3056 29.485 34.7356 29.395 34.1056 29.395C33.3956 29.395 32.8406 29.535 32.4406 29.815C32.0506 30.085 31.8556 30.46 31.8556 30.94C31.8556 31.31 31.9756 31.605 32.2156 31.825C32.4656 32.045 32.8856 32.215 33.4756 32.335L35.1556 32.665C36.1556 32.865 36.8956 33.195 37.3756 33.655C37.8556 34.105 38.0956 34.715 38.0956 35.485C38.0956 36.115 37.9256 36.67 37.5856 37.15C37.2456 37.62 36.7656 37.99 36.1456 38.26C35.5256 38.52 34.7906 38.65 33.9406 38.65ZM46.0885 38.65C44.9885 38.65 44.0435 38.43 43.2535 37.99C42.4735 37.54 41.8735 36.91 41.4535 36.1C41.0335 35.28 40.8235 34.315 40.8235 33.205C40.8235 32.095 41.0335 31.135 41.4535 30.325C41.8735 29.515 42.4735 28.89 43.2535 28.45C44.0435 28 44.9885 27.775 46.0885 27.775C46.8285 27.775 47.4935 27.88 48.0835 28.09C48.6835 28.3 49.1985 28.61 49.6285 29.02L48.9985 30.55C48.5285 30.17 48.0735 29.9 47.6335 29.74C47.2035 29.57 46.7085 29.485 46.1485 29.485C45.0785 29.485 44.2585 29.81 43.6885 30.46C43.1285 31.1 42.8485 32.015 42.8485 33.205C42.8485 34.395 43.1285 35.315 43.6885 35.965C44.2585 36.615 45.0785 36.94 46.1485 36.94C46.7085 36.94 47.2035 36.86 47.6335 36.7C48.0735 36.53 48.5285 36.25 48.9985 35.86L49.6285 37.39C49.1985 37.79 48.6835 38.1 48.0835 38.32C47.4935 38.54 46.8285 38.65 46.0885 38.65ZM52.6871 38.5V27.925H54.6221V32.335H60.0371V27.925H61.9721V38.5H60.0371V33.94H54.6221V38.5H52.6871ZM65.5533 38.5V27.925H72.6783V29.44H67.4133V32.365H72.3333V33.895H67.4133V36.97H72.6783V38.5H65.5533ZM75.7242 38.5V27.925H79.5642C80.7742 27.925 81.7942 28.135 82.6242 28.555C83.4642 28.965 84.0992 29.565 84.5292 30.355C84.9592 31.135 85.1742 32.085 85.1742 33.205C85.1742 34.315 84.9592 35.265 84.5292 36.055C84.0992 36.845 83.4642 37.45 82.6242 37.87C81.7942 38.29 80.7742 38.5 79.5642 38.5H75.7242ZM77.6592 36.895H79.4442C80.7242 36.895 81.6742 36.59 82.2942 35.98C82.9142 35.37 83.2242 34.445 83.2242 33.205C83.2242 31.955 82.9142 31.03 82.2942 30.43C81.6742 29.82 80.7242 29.515 79.4442 29.515H77.6592V36.895ZM92.81 38.65C91.3 38.65 90.175 38.275 89.435 37.525C88.705 36.765 88.34 35.645 88.34 34.165V27.925H90.275V34.15C90.275 35.09 90.475 35.8 90.875 36.28C91.285 36.76 91.93 37 92.81 37C93.65 37 94.28 36.76 94.7 36.28C95.13 35.8 95.345 35.09 95.345 34.15V27.925H97.25V34.165C97.25 35.645 96.875 36.765 96.125 37.525C95.385 38.275 94.28 38.65 92.81 38.65ZM100.753 38.5V27.925H102.688V36.865H107.668V38.5H100.753ZM110.397 38.5V27.925H117.522V29.44H112.257V32.365H117.177V33.895H112.257V36.97H117.522V38.5H110.397ZM124.111 38.65C123.261 38.65 122.476 38.545 121.756 38.335C121.046 38.115 120.436 37.815 119.926 37.435L120.526 35.92C120.866 36.16 121.221 36.365 121.591 36.535C121.961 36.695 122.356 36.82 122.776 36.91C123.196 36.99 123.641 37.03 124.111 37.03C124.901 37.03 125.471 36.9 125.821 36.64C126.171 36.38 126.346 36.04 126.346 35.62C126.346 35.25 126.226 34.97 125.986 34.78C125.746 34.58 125.316 34.415 124.696 34.285L123.001 33.94C122.031 33.74 121.306 33.405 120.826 32.935C120.346 32.465 120.106 31.835 120.106 31.045C120.106 30.385 120.281 29.81 120.631 29.32C120.981 28.83 121.471 28.45 122.101 28.18C122.731 27.91 123.466 27.775 124.306 27.775C125.056 27.775 125.751 27.885 126.391 28.105C127.031 28.315 127.566 28.62 127.996 29.02L127.396 30.46C126.966 30.1 126.496 29.835 125.986 29.665C125.476 29.485 124.906 29.395 124.276 29.395C123.566 29.395 123.011 29.535 122.611 29.815C122.221 30.085 122.026 30.46 122.026 30.94C122.026 31.31 122.146 31.605 122.386 31.825C122.636 32.045 123.056 32.215 123.646 32.335L125.326 32.665C126.326 32.865 127.066 33.195 127.546 33.655C128.026 34.105 128.266 34.715 128.266 35.485C128.266 36.115 128.096 36.67 127.756 37.15C127.416 37.62 126.936 37.99 126.316 38.26C125.696 38.52 124.961 38.65 124.111 38.65Z" fill="white"/>
<rect x="0.25" y="0.25" width="159.5" height="51.5" rx="25.75" stroke="#323F4B" stroke-width="0.5"/>
</svg>
