<svg width="200" height="200" viewBox="0 0 200 200" fill="none" xmlns="http://www.w3.org/2000/svg">
<path fill-rule="evenodd" clip-rule="evenodd" d="M100 200C155.228 200 200 155.228 200 100C200 44.7715 155.228 0 100 0C44.7715 0 0 44.7715 0 100C0 155.228 44.7715 200 100 200Z" fill="#7B8794"/>
<path d="M62.2574 114.36C60.2174 114.36 58.3334 114.108 56.6054 113.604C54.9014 113.076 53.4374 112.356 52.2134 111.444L53.6534 107.808C54.4694 108.384 55.3214 108.876 56.2094 109.284C57.0974 109.668 58.0454 109.968 59.0534 110.184C60.0614 110.376 61.1294 110.472 62.2574 110.472C64.1534 110.472 65.5214 110.16 66.3614 109.536C67.2014 108.912 67.6214 108.096 67.6214 107.088C67.6214 106.2 67.3334 105.528 66.7574 105.072C66.1814 104.592 65.1494 104.196 63.6614 103.884L59.5934 103.056C57.2654 102.576 55.5254 101.772 54.3734 100.644C53.2214 99.516 52.6454 98.004 52.6454 96.108C52.6454 94.524 53.0654 93.144 53.9054 91.968C54.7454 90.792 55.9214 89.88 57.4334 89.232C58.9454 88.584 60.7094 88.26 62.7254 88.26C64.5254 88.26 66.1934 88.524 67.7294 89.052C69.2654 89.556 70.5494 90.288 71.5814 91.248L70.1414 94.704C69.1094 93.84 67.9814 93.204 66.7574 92.796C65.5334 92.364 64.1654 92.148 62.6534 92.148C60.9494 92.148 59.6174 92.484 58.6574 93.156C57.7214 93.804 57.2534 94.704 57.2534 95.856C57.2534 96.744 57.5414 97.452 58.1174 97.98C58.7174 98.508 59.7254 98.916 61.1414 99.204L65.1734 99.996C67.5734 100.476 69.3494 101.268 70.5014 102.372C71.6534 103.452 72.2294 104.916 72.2294 106.764C72.2294 108.276 71.8214 109.608 71.0054 110.76C70.1894 111.888 69.0374 112.776 67.5494 113.424C66.0614 114.048 64.2974 114.36 62.2574 114.36ZM75.0465 114L86.5305 88.62H90.4185L102.047 114H97.3305L94.2345 106.872L96.1065 108.132H80.8785L82.8225 106.872L79.7265 114H75.0465ZM88.4385 93.588L83.3625 105.612L82.4265 104.496H94.5225L93.7665 105.612L88.5825 93.588H88.4385ZM112.168 114L100.864 88.62H105.868L114.976 109.932H113.464L122.572 88.62H127.396L116.092 114H112.168ZM131.155 114V88.62H148.255V92.256H135.619V99.276H147.427V102.948H135.619V110.328H148.255V114H131.155Z" fill="white"/>
<a href="https://www.figma.com/file/Lt8b2V6T9zKJw7xeG55yrD/solomon&#39;s-UI?node-id=46-4606">
<rect fill="black" fill-opacity="0" x="20.5934" y="17.7609" width="23.22" height="45.18"/>
</a>
</svg>
