<svg width="278" height="52" viewBox="0 0 278 52" fill="none" xmlns="http://www.w3.org/2000/svg">
<rect x="0.25" y="0.25" width="277.5" height="51.5" rx="25.75" fill="#2F80ED"/>
<path d="M118.335 31.5V20.925H120.27V25.335H125.685V20.925H127.62V31.5H125.685V26.94H120.27V31.5H118.335ZM131.201 31.5V20.925H138.326V22.44H133.061V25.365H137.981V26.895H133.061V29.97H138.326V31.5H131.201ZM141.372 31.5V20.925H143.307V29.865H148.287V31.5H141.372ZM151.015 31.5V20.925H155.71C156.87 20.925 157.755 21.205 158.365 21.765C158.975 22.325 159.28 23.095 159.28 24.075C159.28 25.045 158.975 25.815 158.365 26.385C157.755 26.955 156.87 27.24 155.71 27.24H152.95V31.5H151.015ZM152.95 25.71H155.485C156.125 25.71 156.605 25.57 156.925 25.29C157.245 25 157.405 24.595 157.405 24.075C157.405 23.555 157.245 23.155 156.925 22.875C156.605 22.585 156.125 22.44 155.485 22.44H152.95V25.71Z" fill="white"/>
<rect x="0.25" y="0.25" width="277.5" height="51.5" rx="25.75" stroke="#323F4B" stroke-width="0.5"/>
</svg>
