<svg width="278" height="52" viewBox="0 0 278 52" fill="none" xmlns="http://www.w3.org/2000/svg">
<rect x="0.25" y="0.25" width="277.5" height="51.5" rx="25.75" fill="#2F80ED"/>
<path d="M62.8202 31.65C61.3102 31.65 60.1852 31.275 59.4452 30.525C58.7152 29.765 58.3502 28.645 58.3502 27.165V20.925H60.2852V27.15C60.2852 28.09 60.4852 28.8 60.8852 29.28C61.2952 29.76 61.9402 30 62.8202 30C63.6602 30 64.2902 29.76 64.7102 29.28C65.1402 28.8 65.3552 28.09 65.3552 27.15V20.925H67.2602V27.165C67.2602 28.645 66.8852 29.765 66.1352 30.525C65.3952 31.275 64.2902 31.65 62.8202 31.65ZM70.7638 31.5V20.925H75.4588C76.6188 20.925 77.5038 21.205 78.1138 21.765C78.7238 22.325 79.0288 23.095 79.0288 24.075C79.0288 25.045 78.7238 25.815 78.1138 26.385C77.5038 26.955 76.6188 27.24 75.4588 27.24H72.6988V31.5H70.7638ZM72.6988 25.71H75.2338C75.8738 25.71 76.3538 25.57 76.6738 25.29C76.9938 25 77.1538 24.595 77.1538 24.075C77.1538 23.555 76.9938 23.155 76.6738 22.875C76.3538 22.585 75.8738 22.44 75.2338 22.44H72.6988V25.71ZM82.004 31.5V20.925H85.844C87.054 20.925 88.074 21.135 88.904 21.555C89.744 21.965 90.379 22.565 90.809 23.355C91.239 24.135 91.454 25.085 91.454 26.205C91.454 27.315 91.239 28.265 90.809 29.055C90.379 29.845 89.744 30.45 88.904 30.87C88.074 31.29 87.054 31.5 85.844 31.5H82.004ZM83.939 29.895H85.724C87.004 29.895 87.954 29.59 88.574 28.98C89.194 28.37 89.504 27.445 89.504 26.205C89.504 24.955 89.194 24.03 88.574 23.43C87.954 22.82 87.004 22.515 85.724 22.515H83.939V29.895ZM93.29 31.5L98.075 20.925H99.695L104.54 31.5H102.575L101.285 28.53L102.065 29.055H95.72L96.53 28.53L95.24 31.5H93.29ZM98.87 22.995L96.755 28.005L96.365 27.54H101.405L101.09 28.005L98.93 22.995H98.87ZM108.278 31.5V22.515H104.783V20.925H113.708V22.515H110.213V31.5H108.278ZM116.325 31.5V20.925H123.45V22.44H118.185V25.365H123.105V26.895H118.185V29.97H123.45V31.5H116.325ZM135.552 31.65C134.702 31.65 133.917 31.545 133.197 31.335C132.487 31.115 131.877 30.815 131.367 30.435L131.967 28.92C132.307 29.16 132.662 29.365 133.032 29.535C133.402 29.695 133.797 29.82 134.217 29.91C134.637 29.99 135.082 30.03 135.552 30.03C136.342 30.03 136.912 29.9 137.262 29.64C137.612 29.38 137.787 29.04 137.787 28.62C137.787 28.25 137.667 27.97 137.427 27.78C137.187 27.58 136.757 27.415 136.137 27.285L134.442 26.94C133.472 26.74 132.747 26.405 132.267 25.935C131.787 25.465 131.547 24.835 131.547 24.045C131.547 23.385 131.722 22.81 132.072 22.32C132.422 21.83 132.912 21.45 133.542 21.18C134.172 20.91 134.907 20.775 135.747 20.775C136.497 20.775 137.192 20.885 137.832 21.105C138.472 21.315 139.007 21.62 139.437 22.02L138.837 23.46C138.407 23.1 137.937 22.835 137.427 22.665C136.917 22.485 136.347 22.395 135.717 22.395C135.007 22.395 134.452 22.535 134.052 22.815C133.662 23.085 133.467 23.46 133.467 23.94C133.467 24.31 133.587 24.605 133.827 24.825C134.077 25.045 134.497 25.215 135.087 25.335L136.767 25.665C137.767 25.865 138.507 26.195 138.987 26.655C139.467 27.105 139.707 27.715 139.707 28.485C139.707 29.115 139.537 29.67 139.197 30.15C138.857 30.62 138.377 30.99 137.757 31.26C137.137 31.52 136.402 31.65 135.552 31.65ZM147.7 31.65C146.6 31.65 145.655 31.43 144.865 30.99C144.085 30.54 143.485 29.91 143.065 29.1C142.645 28.28 142.435 27.315 142.435 26.205C142.435 25.095 142.645 24.135 143.065 23.325C143.485 22.515 144.085 21.89 144.865 21.45C145.655 21 146.6 20.775 147.7 20.775C148.44 20.775 149.105 20.88 149.695 21.09C150.295 21.3 150.81 21.61 151.24 22.02L150.61 23.55C150.14 23.17 149.685 22.9 149.245 22.74C148.815 22.57 148.32 22.485 147.76 22.485C146.69 22.485 145.87 22.81 145.3 23.46C144.74 24.1 144.46 25.015 144.46 26.205C144.46 27.395 144.74 28.315 145.3 28.965C145.87 29.615 146.69 29.94 147.76 29.94C148.32 29.94 148.815 29.86 149.245 29.7C149.685 29.53 150.14 29.25 150.61 28.86L151.24 30.39C150.81 30.79 150.295 31.1 149.695 31.32C149.105 31.54 148.44 31.65 147.7 31.65ZM154.299 31.5V20.925H156.234V25.335H161.649V20.925H163.584V31.5H161.649V26.94H156.234V31.5H154.299ZM167.165 31.5V20.925H174.29V22.44H169.025V25.365H173.945V26.895H169.025V29.97H174.29V31.5H167.165ZM177.336 31.5V20.925H181.176C182.386 20.925 183.406 21.135 184.236 21.555C185.076 21.965 185.711 22.565 186.141 23.355C186.571 24.135 186.786 25.085 186.786 26.205C186.786 27.315 186.571 28.265 186.141 29.055C185.711 29.845 185.076 30.45 184.236 30.87C183.406 31.29 182.386 31.5 181.176 31.5H177.336ZM179.271 29.895H181.056C182.336 29.895 183.286 29.59 183.906 28.98C184.526 28.37 184.836 27.445 184.836 26.205C184.836 24.955 184.526 24.03 183.906 23.43C183.286 22.82 182.336 22.515 181.056 22.515H179.271V29.895ZM194.422 31.65C192.912 31.65 191.787 31.275 191.047 30.525C190.317 29.765 189.952 28.645 189.952 27.165V20.925H191.887V27.15C191.887 28.09 192.087 28.8 192.487 29.28C192.897 29.76 193.542 30 194.422 30C195.262 30 195.892 29.76 196.312 29.28C196.742 28.8 196.957 28.09 196.957 27.15V20.925H198.862V27.165C198.862 28.645 198.487 29.765 197.737 30.525C196.997 31.275 195.892 31.65 194.422 31.65ZM202.365 31.5V20.925H204.3V29.865H209.28V31.5H202.365ZM212.009 31.5V20.925H219.134V22.44H213.869V25.365H218.789V26.895H213.869V29.97H219.134V31.5H212.009Z" fill="white"/>
<rect x="0.25" y="0.25" width="277.5" height="51.5" rx="25.75" stroke="#323F4B" stroke-width="0.5"/>
</svg>
