<svg width="1341" height="440" viewBox="0 0 1341 440" fill="none" xmlns="http://www.w3.org/2000/svg">
<g filter="url(#filter0_d_2765_3280)">
<g filter="url(#filter1_d_2765_3280)">
<g filter="url(#filter2_d_2765_3280)">
<mask id="path-1-outside-1_2765_3280" maskUnits="userSpaceOnUse" x="204" y="26" width="890" height="186" fill="black">
<rect fill="white" x="204" y="26" width="890" height="186"/>
<path d="M395.428 74.5H328.678V208H275.226V74.5H208.476V30.0435H395.428V74.5ZM608.976 208H456.833C440.059 208 425.631 202.655 413.55 191.964C401.469 181.187 395.428 168.715 395.428 154.548C395.428 140.468 401.469 128.083 413.55 117.392C425.631 106.615 440.059 101.226 456.833 101.226H555.654V87.7979C555.654 84.2344 554.046 81.1489 550.831 78.5415C547.615 75.8472 543.877 74.5 539.619 74.5H408.726V30.0435H542.226C560.652 30.0435 576.383 35.519 589.42 46.4702C602.458 57.3345 608.976 70.3716 608.976 85.5815V208ZM555.654 163.543V136.817H464.786C460.527 136.817 456.79 138.165 453.574 140.859C450.445 143.466 448.88 146.552 448.88 150.115C448.88 153.679 450.445 156.808 453.574 159.502C456.79 162.196 460.527 163.543 464.786 163.543H555.654ZM875.976 208H822.524V90.0142C822.524 85.7554 820.699 82.105 817.048 79.063C813.485 76.021 809.096 74.5 803.881 74.5H769.202V208H715.75V74.5H662.428V208H608.976V30.0435H809.226C827.652 30.0435 843.383 35.519 856.42 46.4702C869.458 57.3345 875.976 70.3716 875.976 85.5815V208ZM1089.52 154.548C1089.52 168.715 1083.48 181.187 1071.4 191.964C1059.23 202.655 1044.81 208 1028.12 208H889.274V163.543H1020.17C1024.43 163.543 1028.16 162.196 1031.38 159.502C1034.59 156.808 1036.2 153.679 1036.2 150.115C1036.2 146.552 1034.59 143.466 1031.38 140.859C1028.16 138.165 1024.43 136.817 1020.17 136.817H937.381C920.606 136.817 906.179 131.429 894.098 120.651C882.017 109.874 875.976 97.4453 875.976 83.3652C875.976 69.2852 882.017 56.8999 894.098 46.2095C906.179 35.4321 920.606 30.0435 937.381 30.0435H1076.23V74.5H945.333C941.075 74.5 937.337 75.8472 934.122 78.5415C930.993 81.1489 929.428 84.2344 929.428 87.7979C929.428 91.3613 930.993 94.4902 934.122 97.1846C937.337 99.8789 941.075 101.226 945.333 101.226H1028.12C1044.89 101.226 1059.32 106.615 1071.4 117.392C1083.48 128.083 1089.52 140.468 1089.52 154.548Z"/>
</mask>
<path d="M395.428 74.5H328.678V208H275.226V74.5H208.476V30.0435H395.428V74.5ZM608.976 208H456.833C440.059 208 425.631 202.655 413.55 191.964C401.469 181.187 395.428 168.715 395.428 154.548C395.428 140.468 401.469 128.083 413.55 117.392C425.631 106.615 440.059 101.226 456.833 101.226H555.654V87.7979C555.654 84.2344 554.046 81.1489 550.831 78.5415C547.615 75.8472 543.877 74.5 539.619 74.5H408.726V30.0435H542.226C560.652 30.0435 576.383 35.519 589.42 46.4702C602.458 57.3345 608.976 70.3716 608.976 85.5815V208ZM555.654 163.543V136.817H464.786C460.527 136.817 456.79 138.165 453.574 140.859C450.445 143.466 448.88 146.552 448.88 150.115C448.88 153.679 450.445 156.808 453.574 159.502C456.79 162.196 460.527 163.543 464.786 163.543H555.654ZM875.976 208H822.524V90.0142C822.524 85.7554 820.699 82.105 817.048 79.063C813.485 76.021 809.096 74.5 803.881 74.5H769.202V208H715.75V74.5H662.428V208H608.976V30.0435H809.226C827.652 30.0435 843.383 35.519 856.42 46.4702C869.458 57.3345 875.976 70.3716 875.976 85.5815V208ZM1089.52 154.548C1089.52 168.715 1083.48 181.187 1071.4 191.964C1059.23 202.655 1044.81 208 1028.12 208H889.274V163.543H1020.17C1024.43 163.543 1028.16 162.196 1031.38 159.502C1034.59 156.808 1036.2 153.679 1036.2 150.115C1036.2 146.552 1034.59 143.466 1031.38 140.859C1028.16 138.165 1024.43 136.817 1020.17 136.817H937.381C920.606 136.817 906.179 131.429 894.098 120.651C882.017 109.874 875.976 97.4453 875.976 83.3652C875.976 69.2852 882.017 56.8999 894.098 46.2095C906.179 35.4321 920.606 30.0435 937.381 30.0435H1076.23V74.5H945.333C941.075 74.5 937.337 75.8472 934.122 78.5415C930.993 81.1489 929.428 84.2344 929.428 87.7979C929.428 91.3613 930.993 94.4902 934.122 97.1846C937.337 99.8789 941.075 101.226 945.333 101.226H1028.12C1044.89 101.226 1059.32 106.615 1071.4 117.392C1083.48 128.083 1089.52 140.468 1089.52 154.548Z" fill="#1264D1"/>
<path d="M395.428 74.5V78.5H399.428V74.5H395.428ZM328.678 74.5V70.5H324.678V74.5H328.678ZM328.678 208V212H332.678V208H328.678ZM275.226 208H271.226V212H275.226V208ZM275.226 74.5H279.226V70.5H275.226V74.5ZM208.476 74.5H204.476V78.5H208.476V74.5ZM208.476 30.0435V26.0435H204.476V30.0435H208.476ZM395.428 30.0435H399.428V26.0435H395.428V30.0435ZM395.428 70.5H328.678V78.5H395.428V70.5ZM324.678 74.5V208H332.678V74.5H324.678ZM328.678 204H275.226V212H328.678V204ZM279.226 208V74.5H271.226V208H279.226ZM275.226 70.5H208.476V78.5H275.226V70.5ZM212.476 74.5V30.0435H204.476V74.5H212.476ZM208.476 34.0435H395.428V26.0435H208.476V34.0435ZM391.428 30.0435V74.5H399.428V30.0435H391.428ZM608.976 208V212H612.976V208H608.976ZM413.55 191.964L410.887 194.949L410.893 194.955L410.899 194.96L413.55 191.964ZM413.55 117.392L416.201 120.388L416.207 120.382L416.213 120.377L413.55 117.392ZM555.654 101.226V105.226H559.654V101.226H555.654ZM550.831 78.5415L548.262 81.6076L548.286 81.6283L548.311 81.6485L550.831 78.5415ZM408.726 74.5H404.726V78.5H408.726V74.5ZM408.726 30.0435V26.0435H404.726V30.0435H408.726ZM589.42 46.4702L586.848 49.533L586.854 49.5381L586.86 49.5431L589.42 46.4702ZM555.654 163.543V167.543H559.654V163.543H555.654ZM555.654 136.817H559.654V132.817H555.654V136.817ZM453.574 140.859L456.134 143.932L456.143 143.925L453.574 140.859ZM453.574 159.502L450.964 162.533L450.984 162.551L451.005 162.568L453.574 159.502ZM608.976 204H456.833V212H608.976V204ZM456.833 204C440.993 204 427.519 198.984 416.201 188.969L410.899 194.96C423.743 206.325 439.125 212 456.833 212V204ZM416.213 188.979C404.848 178.841 399.428 167.406 399.428 154.548H391.428C391.428 170.023 398.09 183.533 410.887 194.949L416.213 188.979ZM399.428 154.548C399.428 141.786 404.839 130.441 416.201 120.388L410.899 114.397C398.098 125.724 391.428 139.149 391.428 154.548H399.428ZM416.213 120.377C427.532 110.279 441.002 105.226 456.833 105.226V97.2261C439.115 97.2261 423.73 102.951 410.887 114.407L416.213 120.377ZM456.833 105.226H555.654V97.2261H456.833V105.226ZM559.654 101.226V87.7979H551.654V101.226H559.654ZM559.654 87.7979C559.654 82.8257 557.333 78.6638 553.35 75.4345L548.311 81.6485C550.76 83.6341 551.654 85.6431 551.654 87.7979H559.654ZM553.399 75.4754C549.452 72.1679 544.801 70.5 539.619 70.5V78.5C542.954 78.5 545.778 79.5265 548.262 81.6076L553.399 75.4754ZM539.619 70.5H408.726V78.5H539.619V70.5ZM412.726 74.5V30.0435H404.726V74.5H412.726ZM408.726 34.0435H542.226V26.0435H408.726V34.0435ZM542.226 34.0435C559.794 34.0435 574.592 39.2387 586.848 49.533L591.993 43.4074C578.174 31.7994 561.51 26.0435 542.226 26.0435V34.0435ZM586.86 49.5431C599.104 59.7466 604.976 71.7054 604.976 85.5815H612.976C612.976 69.0377 605.811 54.9223 591.981 43.3973L586.86 49.5431ZM604.976 85.5815V208H612.976V85.5815H604.976ZM559.654 163.543V136.817H551.654V163.543H559.654ZM555.654 132.817H464.786V140.817H555.654V132.817ZM464.786 132.817C459.603 132.817 454.953 134.485 451.005 137.793L456.143 143.925C458.627 141.844 461.451 140.817 464.786 140.817V132.817ZM451.013 137.786C447.118 141.032 444.88 145.187 444.88 150.115H452.88C452.88 147.917 453.772 145.901 456.134 143.932L451.013 137.786ZM444.88 150.115C444.88 155.034 447.108 159.213 450.964 162.533L456.184 156.471C453.782 154.403 452.88 152.324 452.88 150.115H444.88ZM451.005 162.568C454.953 165.876 459.603 167.543 464.786 167.543V159.543C461.451 159.543 458.627 158.517 456.143 156.436L451.005 162.568ZM464.786 167.543H555.654V159.543H464.786V167.543ZM875.976 208V212H879.976V208H875.976ZM822.524 208H818.524V212H822.524V208ZM817.048 79.063L814.451 82.1052L814.469 82.1207L814.488 82.1359L817.048 79.063ZM769.202 74.5V70.5H765.202V74.5H769.202ZM769.202 208V212H773.202V208H769.202ZM715.75 208H711.75V212H715.75V208ZM715.75 74.5H719.75V70.5H715.75V74.5ZM662.428 74.5V70.5H658.428V74.5H662.428ZM662.428 208V212H666.428V208H662.428ZM608.976 208H604.976V212H608.976V208ZM608.976 30.0435V26.0435H604.976V30.0435H608.976ZM856.42 46.4702L853.848 49.533L853.854 49.5381L853.86 49.5431L856.42 46.4702ZM875.976 204H822.524V212H875.976V204ZM826.524 208V90.0142H818.524V208H826.524ZM826.524 90.0142C826.524 84.4215 824.052 79.6929 819.609 75.9901L814.488 82.1359C817.345 84.5171 818.524 87.0892 818.524 90.0142H826.524ZM819.645 76.0207C815.275 72.2897 809.933 70.5 803.881 70.5V78.5C808.259 78.5 811.695 79.7522 814.451 82.1052L819.645 76.0207ZM803.881 70.5H769.202V78.5H803.881V70.5ZM765.202 74.5V208H773.202V74.5H765.202ZM769.202 204H715.75V212H769.202V204ZM719.75 208V74.5H711.75V208H719.75ZM715.75 70.5H662.428V78.5H715.75V70.5ZM658.428 74.5V208H666.428V74.5H658.428ZM662.428 204H608.976V212H662.428V204ZM612.976 208V30.0435H604.976V208H612.976ZM608.976 34.0435H809.226V26.0435H608.976V34.0435ZM809.226 34.0435C826.794 34.0435 841.592 39.2387 853.848 49.533L858.993 43.4074C845.174 31.7994 828.51 26.0435 809.226 26.0435V34.0435ZM853.86 49.5431C866.104 59.7466 871.976 71.7054 871.976 85.5815H879.976C879.976 69.0377 872.811 54.9223 858.981 43.3973L853.86 49.5431ZM871.976 85.5815V208H879.976V85.5815H871.976ZM1071.4 191.964L1074.04 194.969L1074.05 194.959L1074.07 194.949L1071.4 191.964ZM889.274 208H885.274V212H889.274V208ZM889.274 163.543V159.543H885.274V163.543H889.274ZM1031.38 140.859L1028.81 143.925L1028.83 143.946L1028.86 143.966L1031.38 140.859ZM894.098 46.2095L896.748 49.205L896.754 49.1997L896.76 49.1944L894.098 46.2095ZM1076.23 30.0435H1080.23V26.0435H1076.23V30.0435ZM1076.23 74.5V78.5H1080.23V74.5H1076.23ZM934.122 78.5415L936.682 81.6144L936.69 81.6076L934.122 78.5415ZM934.122 97.1846L931.511 100.216L931.532 100.233L931.553 100.251L934.122 97.1846ZM1071.4 117.392L1068.74 120.377L1068.75 120.382L1068.75 120.388L1071.4 117.392ZM1085.52 154.548C1085.52 167.406 1080.1 178.841 1068.74 188.979L1074.07 194.949C1086.86 183.533 1093.52 170.023 1093.52 154.548H1085.52ZM1068.76 188.959C1057.35 198.987 1043.87 204 1028.12 204V212C1045.75 212 1061.12 206.322 1074.04 194.969L1068.76 188.959ZM1028.12 204H889.274V212H1028.12V204ZM893.274 208V163.543H885.274V208H893.274ZM889.274 167.543H1020.17V159.543H889.274V167.543ZM1020.17 167.543C1025.35 167.543 1030 165.876 1033.95 162.568L1028.81 156.436C1026.33 158.517 1023.5 159.543 1020.17 159.543V167.543ZM1033.95 162.568C1037.89 159.263 1040.2 155.077 1040.2 150.115H1032.2C1032.2 152.281 1031.3 154.352 1028.81 156.436L1033.95 162.568ZM1040.2 150.115C1040.2 145.143 1037.88 140.981 1033.9 137.752L1028.86 143.966C1031.31 145.951 1032.2 147.96 1032.2 150.115H1040.2ZM1033.95 137.793C1030 134.485 1025.35 132.817 1020.17 132.817V140.817C1023.5 140.817 1026.33 141.844 1028.81 143.925L1033.95 137.793ZM1020.17 132.817H937.381V140.817H1020.17V132.817ZM937.381 132.817C921.55 132.817 908.08 127.765 896.76 117.666L891.435 123.636C904.277 135.093 919.663 140.817 937.381 140.817V132.817ZM896.76 117.666C885.389 107.522 879.976 96.1292 879.976 83.3652H871.976C871.976 98.7614 878.644 112.226 891.435 123.636L896.76 117.666ZM879.976 83.3652C879.976 70.6036 885.387 59.2588 896.748 49.205L891.447 43.2139C878.646 54.541 871.976 67.9667 871.976 83.3652H879.976ZM896.76 49.1944C908.08 39.0963 921.55 34.0435 937.381 34.0435V26.0435C919.663 26.0435 904.277 31.768 891.435 43.2246L896.76 49.1944ZM937.381 34.0435H1076.23V26.0435H937.381V34.0435ZM1072.23 30.0435V74.5H1080.23V30.0435H1072.23ZM1076.23 70.5H945.333V78.5H1076.23V70.5ZM945.333 70.5C940.151 70.5 935.5 72.1679 931.553 75.4754L936.69 81.6076C939.174 79.5265 941.999 78.5 945.333 78.5V70.5ZM931.561 75.4686C927.666 78.7143 925.428 82.8695 925.428 87.7979H933.428C933.428 85.5993 934.319 83.5835 936.682 81.6144L931.561 75.4686ZM925.428 87.7979C925.428 92.7163 927.655 96.8952 931.511 100.216L936.732 94.1535C934.33 92.0853 933.428 90.0064 933.428 87.7979H925.428ZM931.553 100.251C935.5 103.558 940.151 105.226 945.333 105.226V97.2261C941.999 97.2261 939.174 96.1996 936.69 94.1185L931.553 100.251ZM945.333 105.226H1028.12V97.2261H945.333V105.226ZM1028.12 105.226C1043.95 105.226 1057.42 110.279 1068.74 120.377L1074.07 114.407C1061.22 102.951 1045.84 97.2261 1028.12 97.2261V105.226ZM1068.75 120.388C1080.11 130.441 1085.52 141.786 1085.52 154.548H1093.52C1093.52 139.149 1086.85 125.724 1074.05 114.397L1068.75 120.388Z" fill="white" mask="url(#path-1-outside-1_2765_3280)"/>
</g>
<rect x="608" y="30" width="6" height="178" fill="white"/>
<rect x="875" y="66" width="3" height="142" fill="white"/>
</g>
</g>
<g filter="url(#filter3_d_2765_3280)">
<g filter="url(#filter4_d_2765_3280)">
<g filter="url(#filter5_d_2765_3280)">
<mask id="path-5-outside-2_2765_3280" maskUnits="userSpaceOnUse" x="31" y="258" width="1301" height="142" fill="black">
<rect fill="white" x="31" y="258" width="1301" height="142"/>
<path d="M75.5781 396H35.5391V262.699H75.5781V396ZM243.547 396H203.605V307.621C203.605 304.431 202.238 301.697 199.504 299.418C196.639 297.139 193.319 296 189.543 296H123.625V396H83.5859V262.699H193.547C207.349 262.699 219.133 266.801 228.898 275.004C238.664 283.142 243.547 292.908 243.547 304.301V396ZM398.527 262.699L340.52 396H296.574L238.762 262.699H282.512L318.547 358.793L354.582 262.699H398.527ZM553.508 302.641C553.508 313.188 548.983 322.497 539.934 330.57C530.884 338.643 520.077 342.68 507.512 342.68H433.586V352.641C433.586 355.31 434.758 357.654 437.102 359.672C439.51 361.69 442.31 362.699 445.5 362.699H543.547V396H443.547C429.875 396 418.091 391.931 408.195 383.793C398.43 375.59 393.547 365.759 393.547 354.301V304.301C393.547 292.908 398.43 283.142 408.195 275.004C417.961 266.801 429.745 262.699 443.547 262.699H507.512C520.077 262.699 530.884 266.736 539.934 274.809C548.983 282.816 553.508 292.094 553.508 302.641ZM513.371 305.961C513.371 303.031 512.264 300.655 510.051 298.832C507.902 296.944 505.07 296 501.555 296H445.5C442.31 296 439.51 297.009 437.102 299.027C434.758 300.98 433.586 303.292 433.586 305.961V316.02H501.555C505.07 316.02 507.902 315.076 510.051 313.188C512.264 311.299 513.371 308.891 513.371 305.961ZM713.469 396H673.527V307.621C673.527 304.431 672.16 301.697 669.426 299.418C666.561 297.139 663.241 296 659.465 296H593.547V396H553.508V262.699H663.469C677.271 262.699 689.055 266.801 698.82 275.004C708.586 283.142 713.469 292.908 713.469 304.301V396ZM853.508 296H803.508V396H763.469V296H713.469V262.699H853.508V296ZM1013.47 354.301C1013.47 365.759 1008.59 375.59 998.82 383.793C988.924 391.931 977.141 396 963.469 396H903.508C889.836 396 878.052 391.931 868.156 383.793C858.391 375.59 853.508 365.759 853.508 354.301V304.301C853.508 292.908 858.391 283.142 868.156 275.004C877.922 266.801 889.706 262.699 903.508 262.699H963.469C977.271 262.699 989.055 266.801 998.82 275.004C1008.59 283.142 1013.47 292.908 1013.47 304.301V354.301ZM973.527 350.98V307.621C973.527 304.431 972.16 301.697 969.426 299.418C966.561 297.139 963.241 296 959.465 296H907.512C903.736 296 900.415 297.139 897.551 299.418C894.882 301.697 893.547 304.431 893.547 307.621V350.98C893.547 354.236 894.882 357.003 897.551 359.281C900.415 361.56 903.736 362.699 907.512 362.699H959.465C963.241 362.699 966.561 361.56 969.426 359.281C972.16 357.068 973.527 354.301 973.527 350.98ZM1173.43 321C1173.43 332.458 1168.55 342.289 1158.78 350.492C1148.89 358.63 1137.1 362.699 1123.43 362.699H1107.51L1163.47 396H1105.46L1053.51 362.699V396H1013.47V262.699H1123.43C1137.23 262.699 1149.02 266.801 1158.78 275.004C1168.55 283.142 1173.43 292.908 1173.43 304.301V321ZM1133.49 317.68V307.621C1133.49 304.431 1132.12 301.697 1129.39 299.418C1126.52 297.139 1123.2 296 1119.43 296H1053.51V329.301H1119.43C1123.2 329.301 1126.52 328.161 1129.39 325.883C1132.12 323.669 1133.49 320.935 1133.49 317.68ZM1323.43 262.699L1263.47 346V396H1223.43V346L1163.57 262.699H1214.45L1243.45 312.699L1272.45 262.699H1323.43Z"/>
</mask>
<path d="M75.5781 396H35.5391V262.699H75.5781V396ZM243.547 396H203.605V307.621C203.605 304.431 202.238 301.697 199.504 299.418C196.639 297.139 193.319 296 189.543 296H123.625V396H83.5859V262.699H193.547C207.349 262.699 219.133 266.801 228.898 275.004C238.664 283.142 243.547 292.908 243.547 304.301V396ZM398.527 262.699L340.52 396H296.574L238.762 262.699H282.512L318.547 358.793L354.582 262.699H398.527ZM553.508 302.641C553.508 313.188 548.983 322.497 539.934 330.57C530.884 338.643 520.077 342.68 507.512 342.68H433.586V352.641C433.586 355.31 434.758 357.654 437.102 359.672C439.51 361.69 442.31 362.699 445.5 362.699H543.547V396H443.547C429.875 396 418.091 391.931 408.195 383.793C398.43 375.59 393.547 365.759 393.547 354.301V304.301C393.547 292.908 398.43 283.142 408.195 275.004C417.961 266.801 429.745 262.699 443.547 262.699H507.512C520.077 262.699 530.884 266.736 539.934 274.809C548.983 282.816 553.508 292.094 553.508 302.641ZM513.371 305.961C513.371 303.031 512.264 300.655 510.051 298.832C507.902 296.944 505.07 296 501.555 296H445.5C442.31 296 439.51 297.009 437.102 299.027C434.758 300.98 433.586 303.292 433.586 305.961V316.02H501.555C505.07 316.02 507.902 315.076 510.051 313.188C512.264 311.299 513.371 308.891 513.371 305.961ZM713.469 396H673.527V307.621C673.527 304.431 672.16 301.697 669.426 299.418C666.561 297.139 663.241 296 659.465 296H593.547V396H553.508V262.699H663.469C677.271 262.699 689.055 266.801 698.82 275.004C708.586 283.142 713.469 292.908 713.469 304.301V396ZM853.508 296H803.508V396H763.469V296H713.469V262.699H853.508V296ZM1013.47 354.301C1013.47 365.759 1008.59 375.59 998.82 383.793C988.924 391.931 977.141 396 963.469 396H903.508C889.836 396 878.052 391.931 868.156 383.793C858.391 375.59 853.508 365.759 853.508 354.301V304.301C853.508 292.908 858.391 283.142 868.156 275.004C877.922 266.801 889.706 262.699 903.508 262.699H963.469C977.271 262.699 989.055 266.801 998.82 275.004C1008.59 283.142 1013.47 292.908 1013.47 304.301V354.301ZM973.527 350.98V307.621C973.527 304.431 972.16 301.697 969.426 299.418C966.561 297.139 963.241 296 959.465 296H907.512C903.736 296 900.415 297.139 897.551 299.418C894.882 301.697 893.547 304.431 893.547 307.621V350.98C893.547 354.236 894.882 357.003 897.551 359.281C900.415 361.56 903.736 362.699 907.512 362.699H959.465C963.241 362.699 966.561 361.56 969.426 359.281C972.16 357.068 973.527 354.301 973.527 350.98ZM1173.43 321C1173.43 332.458 1168.55 342.289 1158.78 350.492C1148.89 358.63 1137.1 362.699 1123.43 362.699H1107.51L1163.47 396H1105.46L1053.51 362.699V396H1013.47V262.699H1123.43C1137.23 262.699 1149.02 266.801 1158.78 275.004C1168.55 283.142 1173.43 292.908 1173.43 304.301V321ZM1133.49 317.68V307.621C1133.49 304.431 1132.12 301.697 1129.39 299.418C1126.52 297.139 1123.2 296 1119.43 296H1053.51V329.301H1119.43C1123.2 329.301 1126.52 328.161 1129.39 325.883C1132.12 323.669 1133.49 320.935 1133.49 317.68ZM1323.43 262.699L1263.47 346V396H1223.43V346L1163.57 262.699H1214.45L1243.45 312.699L1272.45 262.699H1323.43Z" fill="#1264D1"/>
<path d="M75.5781 396V400H79.5781V396H75.5781ZM35.5391 396H31.5391V400H35.5391V396ZM35.5391 262.699V258.699H31.5391V262.699H35.5391ZM75.5781 262.699H79.5781V258.699H75.5781V262.699ZM75.5781 392H35.5391V400H75.5781V392ZM39.5391 396V262.699H31.5391V396H39.5391ZM35.5391 266.699H75.5781V258.699H35.5391V266.699ZM71.5781 262.699V396H79.5781V262.699H71.5781ZM243.547 396V400H247.547V396H243.547ZM203.605 396H199.605V400H203.605V396ZM199.504 299.418L202.065 296.345L202.03 296.316L201.994 296.288L199.504 299.418ZM123.625 296V292H119.625V296H123.625ZM123.625 396V400H127.625V396H123.625ZM83.5859 396H79.5859V400H83.5859V396ZM83.5859 262.699V258.699H79.5859V262.699H83.5859ZM228.898 275.004L226.326 278.067L226.332 278.072L226.338 278.077L228.898 275.004ZM243.547 392H203.605V400H243.547V392ZM207.605 396V307.621H199.605V396H207.605ZM207.605 307.621C207.605 303.097 205.592 299.284 202.065 296.345L196.943 302.491C198.885 304.109 199.605 305.765 199.605 307.621H207.605ZM201.994 296.288C198.398 293.427 194.193 292 189.543 292V300C192.445 300 194.881 300.852 197.014 302.548L201.994 296.288ZM189.543 292H123.625V300H189.543V292ZM119.625 296V396H127.625V296H119.625ZM123.625 392H83.5859V400H123.625V392ZM87.5859 396V262.699H79.5859V396H87.5859ZM83.5859 266.699H193.547V258.699H83.5859V266.699ZM193.547 266.699C206.491 266.699 217.342 270.52 226.326 278.067L231.471 271.941C220.924 263.081 208.207 258.699 193.547 258.699V266.699ZM226.338 278.077C235.31 285.554 239.547 294.241 239.547 304.301H247.547C247.547 291.574 242.018 280.73 231.459 271.931L226.338 278.077ZM239.547 304.301V396H247.547V304.301H239.547ZM398.527 262.699L402.195 264.295L404.63 258.699H398.527V262.699ZM340.52 396V400H343.141L344.187 397.596L340.52 396ZM296.574 396L292.904 397.592L293.949 400H296.574V396ZM238.762 262.699V258.699H232.667L235.092 264.291L238.762 262.699ZM282.512 262.699L286.257 261.295L285.284 258.699H282.512V262.699ZM318.547 358.793L314.802 360.197L318.547 370.185L322.292 360.197L318.547 358.793ZM354.582 262.699V258.699H351.81L350.837 261.295L354.582 262.699ZM394.86 261.103L336.852 394.404L344.187 397.596L402.195 264.295L394.86 261.103ZM340.52 392H296.574V400H340.52V392ZM300.244 394.408L242.431 261.108L235.092 264.291L292.904 397.592L300.244 394.408ZM238.762 266.699H282.512V258.699H238.762V266.699ZM278.766 264.104L314.802 360.197L322.292 357.388L286.257 261.295L278.766 264.104ZM322.292 360.197L358.327 264.104L350.837 261.295L314.802 357.388L322.292 360.197ZM354.582 266.699H398.527V258.699H354.582V266.699ZM539.934 330.57L537.271 327.585L539.934 330.57ZM433.586 342.68V338.68H429.586V342.68H433.586ZM437.102 359.672L434.491 362.703L434.512 362.721L434.533 362.738L437.102 359.672ZM543.547 362.699H547.547V358.699H543.547V362.699ZM543.547 396V400H547.547V396H543.547ZM408.195 383.793L405.623 386.856L405.639 386.869L405.655 386.882L408.195 383.793ZM408.195 275.004L410.756 278.077L410.762 278.072L410.768 278.067L408.195 275.004ZM539.934 274.809L537.271 277.793L537.277 277.799L537.283 277.804L539.934 274.809ZM510.051 298.832L507.41 301.837L507.458 301.879L507.508 301.92L510.051 298.832ZM437.102 299.027L439.662 302.1L439.67 302.093L437.102 299.027ZM433.586 316.02H429.586V320.02H433.586V316.02ZM510.051 313.188L507.455 310.144L507.433 310.163L507.41 310.183L510.051 313.188ZM549.508 302.641C549.508 311.871 545.61 320.146 537.271 327.585L542.596 333.555C552.356 324.849 557.508 314.504 557.508 302.641H549.508ZM537.271 327.585C528.983 334.979 519.134 338.68 507.512 338.68V346.68C521.02 346.68 532.785 342.307 542.596 333.555L537.271 327.585ZM507.512 338.68H433.586V346.68H507.512V338.68ZM429.586 342.68V352.641H437.586V342.68H429.586ZM429.586 352.641C429.586 356.665 431.421 360.059 434.491 362.703L439.712 356.641C438.095 355.249 437.586 353.955 437.586 352.641H429.586ZM434.533 362.738C437.673 365.369 441.386 366.699 445.5 366.699V358.699C443.234 358.699 441.347 358.011 439.67 356.606L434.533 362.738ZM445.5 366.699H543.547V358.699H445.5V366.699ZM539.547 362.699V396H547.547V362.699H539.547ZM543.547 392H443.547V400H543.547V392ZM443.547 392C430.735 392 419.866 388.212 410.736 380.703L405.655 386.882C416.316 395.65 429.015 400 443.547 400V392ZM410.768 380.73C401.792 373.19 397.547 364.435 397.547 354.301H389.547C389.547 367.083 395.067 377.989 405.623 386.856L410.768 380.73ZM397.547 354.301V304.301H389.547V354.301H397.547ZM397.547 304.301C397.547 294.241 401.783 285.554 410.756 278.077L405.635 271.931C395.076 280.73 389.547 291.574 389.547 304.301H397.547ZM410.768 278.067C419.752 270.52 430.603 266.699 443.547 266.699V258.699C428.887 258.699 416.17 263.081 405.623 271.941L410.768 278.067ZM443.547 266.699H507.512V258.699H443.547V266.699ZM507.512 266.699C519.134 266.699 528.983 270.4 537.271 277.793L542.596 271.824C532.785 263.072 521.02 258.699 507.512 258.699V266.699ZM537.283 277.804C545.613 285.175 549.508 293.412 549.508 302.641H557.508C557.508 290.775 552.353 280.458 542.584 271.813L537.283 277.804ZM517.371 305.961C517.371 301.866 515.753 298.346 512.594 295.744L507.508 301.92C508.776 302.964 509.371 304.197 509.371 305.961H517.371ZM512.691 295.827C509.656 293.16 505.81 292 501.555 292V300C504.331 300 506.149 300.728 507.41 301.837L512.691 295.827ZM501.555 292H445.5V300H501.555V292ZM445.5 292C441.386 292 437.673 293.33 434.533 295.961L439.67 302.093C441.347 300.688 443.234 300 445.5 300V292ZM434.541 295.954C431.431 298.546 429.586 301.927 429.586 305.961H437.586C437.586 304.657 438.085 303.415 439.662 302.1L434.541 295.954ZM429.586 305.961V316.02H437.586V305.961H429.586ZM433.586 320.02H501.555V312.02H433.586V320.02ZM501.555 320.02C505.81 320.02 509.656 318.86 512.691 316.192L507.41 310.183C506.149 311.291 504.331 312.02 501.555 312.02V320.02ZM512.647 316.231C515.758 313.577 517.371 310.052 517.371 305.961H509.371C509.371 307.729 508.77 309.022 507.455 310.144L512.647 316.231ZM713.469 396V400H717.469V396H713.469ZM673.527 396H669.527V400H673.527V396ZM669.426 299.418L671.987 296.345L671.952 296.316L671.916 296.288L669.426 299.418ZM593.547 296V292H589.547V296H593.547ZM593.547 396V400H597.547V396H593.547ZM553.508 396H549.508V400H553.508V396ZM553.508 262.699V258.699H549.508V262.699H553.508ZM698.82 275.004L696.248 278.067L696.254 278.072L696.26 278.077L698.82 275.004ZM713.469 392H673.527V400H713.469V392ZM677.527 396V307.621H669.527V396H677.527ZM677.527 307.621C677.527 303.097 675.514 299.284 671.987 296.345L666.865 302.491C668.807 304.109 669.527 305.765 669.527 307.621H677.527ZM671.916 296.288C668.32 293.427 664.114 292 659.465 292V300C662.367 300 664.803 300.852 666.936 302.548L671.916 296.288ZM659.465 292H593.547V300H659.465V292ZM589.547 296V396H597.547V296H589.547ZM593.547 392H553.508V400H593.547V392ZM557.508 396V262.699H549.508V396H557.508ZM553.508 266.699H663.469V258.699H553.508V266.699ZM663.469 266.699C676.413 266.699 687.264 270.52 696.248 278.067L701.393 271.941C690.846 263.081 678.129 258.699 663.469 258.699V266.699ZM696.26 278.077C705.232 285.554 709.469 294.241 709.469 304.301H717.469C717.469 291.574 711.94 280.73 701.381 271.931L696.26 278.077ZM709.469 304.301V396H717.469V304.301H709.469ZM853.508 296V300H857.508V296H853.508ZM803.508 296V292H799.508V296H803.508ZM803.508 396V400H807.508V396H803.508ZM763.469 396H759.469V400H763.469V396ZM763.469 296H767.469V292H763.469V296ZM713.469 296H709.469V300H713.469V296ZM713.469 262.699V258.699H709.469V262.699H713.469ZM853.508 262.699H857.508V258.699H853.508V262.699ZM853.508 292H803.508V300H853.508V292ZM799.508 296V396H807.508V296H799.508ZM803.508 392H763.469V400H803.508V392ZM767.469 396V296H759.469V396H767.469ZM763.469 292H713.469V300H763.469V292ZM717.469 296V262.699H709.469V296H717.469ZM713.469 266.699H853.508V258.699H713.469V266.699ZM849.508 262.699V296H857.508V262.699H849.508ZM998.82 383.793L1001.36 386.882L1001.38 386.869L1001.39 386.856L998.82 383.793ZM868.156 383.793L865.583 386.856L865.599 386.869L865.616 386.882L868.156 383.793ZM868.156 275.004L870.717 278.077L870.723 278.072L870.729 278.067L868.156 275.004ZM998.82 275.004L996.248 278.067L996.254 278.072L996.26 278.077L998.82 275.004ZM969.426 299.418L971.987 296.345L971.952 296.316L971.916 296.288L969.426 299.418ZM897.551 299.418L895.061 296.288L895.006 296.331L894.954 296.376L897.551 299.418ZM897.551 359.281L894.954 362.324L895.006 362.369L895.061 362.412L897.551 359.281ZM969.426 359.281L971.916 362.412L971.929 362.401L971.943 362.39L969.426 359.281ZM1009.47 354.301C1009.47 364.435 1005.22 373.19 996.248 380.73L1001.39 386.856C1011.95 377.989 1017.47 367.083 1017.47 354.301H1009.47ZM996.28 380.703C987.15 388.212 976.281 392 963.469 392V400C978 400 990.699 395.65 1001.36 386.882L996.28 380.703ZM963.469 392H903.508V400H963.469V392ZM903.508 392C890.696 392 879.827 388.212 870.697 380.703L865.616 386.882C876.277 395.65 888.976 400 903.508 400V392ZM870.729 380.73C861.753 373.19 857.508 364.435 857.508 354.301H849.508C849.508 367.083 855.028 377.989 865.583 386.856L870.729 380.73ZM857.508 354.301V304.301H849.508V354.301H857.508ZM857.508 304.301C857.508 294.241 861.744 285.554 870.717 278.077L865.596 271.931C855.037 280.73 849.508 291.574 849.508 304.301H857.508ZM870.729 278.067C879.713 270.52 890.564 266.699 903.508 266.699V258.699C888.848 258.699 876.131 263.081 865.583 271.941L870.729 278.067ZM903.508 266.699H963.469V258.699H903.508V266.699ZM963.469 266.699C976.413 266.699 987.264 270.52 996.248 278.067L1001.39 271.941C990.846 263.081 978.129 258.699 963.469 258.699V266.699ZM996.26 278.077C1005.23 285.554 1009.47 294.241 1009.47 304.301H1017.47C1017.47 291.574 1011.94 280.73 1001.38 271.931L996.26 278.077ZM1009.47 304.301V354.301H1017.47V304.301H1009.47ZM977.527 350.98V307.621H969.527V350.98H977.527ZM977.527 307.621C977.527 303.097 975.514 299.284 971.987 296.345L966.865 302.491C968.807 304.109 969.527 305.765 969.527 307.621H977.527ZM971.916 296.288C968.32 293.427 964.114 292 959.465 292V300C962.367 300 964.803 300.852 966.936 302.548L971.916 296.288ZM959.465 292H907.512V300H959.465V292ZM907.512 292C902.862 292 898.657 293.427 895.061 296.288L900.041 302.548C902.174 300.852 904.609 300 907.512 300V292ZM894.954 296.376C891.495 299.328 889.547 303.134 889.547 307.621H897.547C897.547 305.728 898.268 304.065 900.148 302.46L894.954 296.376ZM889.547 307.621V350.98H897.547V307.621H889.547ZM889.547 350.98C889.547 355.506 891.473 359.352 894.954 362.324L900.148 356.239C898.29 354.653 897.547 352.965 897.547 350.98H889.547ZM895.061 362.412C898.657 365.272 902.862 366.699 907.512 366.699V358.699C904.609 358.699 902.174 357.847 900.041 356.151L895.061 362.412ZM907.512 366.699H959.465V358.699H907.512V366.699ZM959.465 366.699C964.114 366.699 968.32 365.272 971.916 362.412L966.936 356.151C964.803 357.847 962.367 358.699 959.465 358.699V366.699ZM971.943 362.39C975.551 359.469 977.527 355.588 977.527 350.98H969.527C969.527 353.013 968.769 354.666 966.909 356.172L971.943 362.39ZM1158.78 350.492L1161.32 353.582L1161.34 353.568L1161.35 353.555L1158.78 350.492ZM1107.51 362.699V358.699H1092.97L1105.47 366.137L1107.51 362.699ZM1163.47 396V400H1178.01L1165.51 392.563L1163.47 396ZM1105.46 396L1103.3 399.368L1104.29 400H1105.46V396ZM1053.51 362.699L1055.67 359.332L1049.51 355.384V362.699H1053.51ZM1053.51 396V400H1057.51V396H1053.51ZM1013.47 396H1009.47V400H1013.47V396ZM1013.47 262.699V258.699H1009.47V262.699H1013.47ZM1158.78 275.004L1156.21 278.067L1156.21 278.072L1156.22 278.077L1158.78 275.004ZM1129.39 299.418L1131.95 296.345L1131.91 296.316L1131.88 296.288L1129.39 299.418ZM1053.51 296V292H1049.51V296H1053.51ZM1053.51 329.301H1049.51V333.301H1053.51V329.301ZM1129.39 325.883L1131.88 329.013L1131.89 329.003L1131.9 328.992L1129.39 325.883ZM1169.43 321C1169.43 331.134 1165.18 339.889 1156.21 347.429L1161.35 353.555C1171.91 344.689 1177.43 333.783 1177.43 321H1169.43ZM1156.24 347.403C1147.11 354.911 1136.24 358.699 1123.43 358.699V366.699C1137.96 366.699 1150.66 362.35 1161.32 353.582L1156.24 347.403ZM1123.43 358.699H1107.51V366.699H1123.43V358.699ZM1105.47 366.137L1161.42 399.437L1165.51 392.563L1109.56 359.262L1105.47 366.137ZM1163.47 392H1105.46V400H1163.47V392ZM1107.62 392.632L1055.67 359.332L1051.35 366.067L1103.3 399.368L1107.62 392.632ZM1049.51 362.699V396H1057.51V362.699H1049.51ZM1053.51 392H1013.47V400H1053.51V392ZM1017.47 396V262.699H1009.47V396H1017.47ZM1013.47 266.699H1123.43V258.699H1013.47V266.699ZM1123.43 266.699C1136.37 266.699 1147.22 270.52 1156.21 278.067L1161.35 271.941C1150.81 263.081 1138.09 258.699 1123.43 258.699V266.699ZM1156.22 278.077C1165.19 285.554 1169.43 294.241 1169.43 304.301H1177.43C1177.43 291.574 1171.9 280.73 1161.34 271.931L1156.22 278.077ZM1169.43 304.301V321H1177.43V304.301H1169.43ZM1137.49 317.68V307.621H1129.49V317.68H1137.49ZM1137.49 307.621C1137.49 303.097 1135.47 299.284 1131.95 296.345L1126.83 302.491C1128.77 304.109 1129.49 305.765 1129.49 307.621H1137.49ZM1131.88 296.288C1128.28 293.427 1124.08 292 1119.43 292V300C1122.33 300 1124.76 300.852 1126.9 302.548L1131.88 296.288ZM1119.43 292H1053.51V300H1119.43V292ZM1049.51 296V329.301H1057.51V296H1049.51ZM1053.51 333.301H1119.43V325.301H1053.51V333.301ZM1119.43 333.301C1124.08 333.301 1128.28 331.874 1131.88 329.013L1126.9 322.752C1124.76 324.449 1122.33 325.301 1119.43 325.301V333.301ZM1131.9 328.992C1135.49 326.089 1137.49 322.249 1137.49 317.68H1129.49C1129.49 319.621 1128.75 321.25 1126.87 322.774L1131.9 328.992ZM1323.43 262.699L1326.68 265.036L1331.24 258.699H1323.43V262.699ZM1263.47 346L1260.22 343.663L1259.47 344.71V346H1263.47ZM1263.47 396V400H1267.47V396H1263.47ZM1223.43 396H1219.43V400H1223.43V396ZM1223.43 346H1227.43V344.712L1226.68 343.666L1223.43 346ZM1163.57 262.699V258.699H1155.77L1160.32 265.034L1163.57 262.699ZM1214.45 262.699L1217.91 260.692L1216.75 258.699H1214.45V262.699ZM1243.45 312.699L1239.99 314.706L1243.45 320.671L1246.91 314.706L1243.45 312.699ZM1272.45 262.699V258.699H1270.15L1268.99 260.692L1272.45 262.699ZM1320.18 260.362L1260.22 343.663L1266.72 348.337L1326.68 265.036L1320.18 260.362ZM1259.47 346V396H1267.47V346H1259.47ZM1263.47 392H1223.43V400H1263.47V392ZM1227.43 396V346H1219.43V396H1227.43ZM1226.68 343.666L1166.81 260.365L1160.32 265.034L1220.18 348.334L1226.68 343.666ZM1163.57 266.699H1214.45V258.699H1163.57V266.699ZM1210.99 264.706L1239.99 314.706L1246.91 310.692L1217.91 260.692L1210.99 264.706ZM1246.91 314.706L1275.91 264.706L1268.99 260.692L1239.99 310.692L1246.91 314.706ZM1272.45 266.699H1323.43V258.699H1272.45V266.699Z" fill="white" mask="url(#path-5-outside-2_2765_3280)"/>
</g>
</g>
</g>
<defs>
<filter id="filter0_d_2765_3280" x="200.476" y="26.043" width="897.048" height="193.957" filterUnits="userSpaceOnUse" color-interpolation-filters="sRGB">
<feFlood flood-opacity="0" result="BackgroundImageFix"/>
<feColorMatrix in="SourceAlpha" type="matrix" values="0 0 0 0 0 0 0 0 0 0 0 0 0 0 0 0 0 0 127 0" result="hardAlpha"/>
<feOffset dy="4"/>
<feGaussianBlur stdDeviation="2"/>
<feComposite in2="hardAlpha" operator="out"/>
<feColorMatrix type="matrix" values="0 0 0 0 0 0 0 0 0 0 0 0 0 0 0 0 0 0 0.25 0"/>
<feBlend mode="normal" in2="BackgroundImageFix" result="effect1_dropShadow_2765_3280"/>
<feBlend mode="normal" in="SourceGraphic" in2="effect1_dropShadow_2765_3280" result="shape"/>
</filter>
<filter id="filter1_d_2765_3280" x="200.476" y="26.043" width="897.048" height="193.957" filterUnits="userSpaceOnUse" color-interpolation-filters="sRGB">
<feFlood flood-opacity="0" result="BackgroundImageFix"/>
<feColorMatrix in="SourceAlpha" type="matrix" values="0 0 0 0 0 0 0 0 0 0 0 0 0 0 0 0 0 0 127 0" result="hardAlpha"/>
<feOffset dy="4"/>
<feGaussianBlur stdDeviation="2"/>
<feComposite in2="hardAlpha" operator="out"/>
<feColorMatrix type="matrix" values="0 0 0 0 0 0 0 0 0 0 0 0 0 0 0 0 0 0 0.25 0"/>
<feBlend mode="normal" in2="BackgroundImageFix" result="effect1_dropShadow_2765_3280"/>
<feBlend mode="normal" in="SourceGraphic" in2="effect1_dropShadow_2765_3280" result="shape"/>
</filter>
<filter id="filter2_d_2765_3280" x="200.476" y="26.043" width="897.048" height="193.957" filterUnits="userSpaceOnUse" color-interpolation-filters="sRGB">
<feFlood flood-opacity="0" result="BackgroundImageFix"/>
<feColorMatrix in="SourceAlpha" type="matrix" values="0 0 0 0 0 0 0 0 0 0 0 0 0 0 0 0 0 0 127 0" result="hardAlpha"/>
<feOffset dy="4"/>
<feGaussianBlur stdDeviation="2"/>
<feComposite in2="hardAlpha" operator="out"/>
<feColorMatrix type="matrix" values="0 0 0 0 0 0 0 0 0 0 0 0 0 0 0 0 0 0 0.25 0"/>
<feBlend mode="normal" in2="BackgroundImageFix" result="effect1_dropShadow_2765_3280"/>
<feBlend mode="normal" in="SourceGraphic" in2="effect1_dropShadow_2765_3280" result="shape"/>
</filter>
<filter id="filter3_d_2765_3280" x="27.5391" y="258.699" width="1307.7" height="149.301" filterUnits="userSpaceOnUse" color-interpolation-filters="sRGB">
<feFlood flood-opacity="0" result="BackgroundImageFix"/>
<feColorMatrix in="SourceAlpha" type="matrix" values="0 0 0 0 0 0 0 0 0 0 0 0 0 0 0 0 0 0 127 0" result="hardAlpha"/>
<feOffset dy="4"/>
<feGaussianBlur stdDeviation="2"/>
<feComposite in2="hardAlpha" operator="out"/>
<feColorMatrix type="matrix" values="0 0 0 0 0 0 0 0 0 0 0 0 0 0 0 0 0 0 0.25 0"/>
<feBlend mode="normal" in2="BackgroundImageFix" result="effect1_dropShadow_2765_3280"/>
<feBlend mode="normal" in="SourceGraphic" in2="effect1_dropShadow_2765_3280" result="shape"/>
</filter>
<filter id="filter4_d_2765_3280" x="27.5391" y="258.699" width="1307.7" height="149.301" filterUnits="userSpaceOnUse" color-interpolation-filters="sRGB">
<feFlood flood-opacity="0" result="BackgroundImageFix"/>
<feColorMatrix in="SourceAlpha" type="matrix" values="0 0 0 0 0 0 0 0 0 0 0 0 0 0 0 0 0 0 127 0" result="hardAlpha"/>
<feOffset dy="4"/>
<feGaussianBlur stdDeviation="2"/>
<feComposite in2="hardAlpha" operator="out"/>
<feColorMatrix type="matrix" values="0 0 0 0 0 0 0 0 0 0 0 0 0 0 0 0 0 0 0.25 0"/>
<feBlend mode="normal" in2="BackgroundImageFix" result="effect1_dropShadow_2765_3280"/>
<feBlend mode="normal" in="SourceGraphic" in2="effect1_dropShadow_2765_3280" result="shape"/>
</filter>
<filter id="filter5_d_2765_3280" x="27.5391" y="258.699" width="1307.7" height="149.301" filterUnits="userSpaceOnUse" color-interpolation-filters="sRGB">
<feFlood flood-opacity="0" result="BackgroundImageFix"/>
<feColorMatrix in="SourceAlpha" type="matrix" values="0 0 0 0 0 0 0 0 0 0 0 0 0 0 0 0 0 0 127 0" result="hardAlpha"/>
<feOffset dy="4"/>
<feGaussianBlur stdDeviation="2"/>
<feComposite in2="hardAlpha" operator="out"/>
<feColorMatrix type="matrix" values="0 0 0 0 0 0 0 0 0 0 0 0 0 0 0 0 0 0 0.25 0"/>
<feBlend mode="normal" in2="BackgroundImageFix" result="effect1_dropShadow_2765_3280"/>
<feBlend mode="normal" in="SourceGraphic" in2="effect1_dropShadow_2765_3280" result="shape"/>
</filter>
</defs>
</svg>
