<svg width="160" height="52" viewBox="0 0 160 52" fill="none" xmlns="http://www.w3.org/2000/svg">
<rect x="0.25" y="0.25" width="159.5" height="51.5" rx="25.75" fill="#2F80ED"/>
<path d="M35.1144 31.65C34.2644 31.65 33.4794 31.545 32.7594 31.335C32.0494 31.115 31.4394 30.815 30.9294 30.435L31.5294 28.92C31.8694 29.16 32.2244 29.365 32.5944 29.535C32.9644 29.695 33.3594 29.82 33.7794 29.91C34.1994 29.99 34.6444 30.03 35.1144 30.03C35.9044 30.03 36.4744 29.9 36.8244 29.64C37.1744 29.38 37.3494 29.04 37.3494 28.62C37.3494 28.25 37.2294 27.97 36.9894 27.78C36.7494 27.58 36.3194 27.415 35.6994 27.285L34.0044 26.94C33.0344 26.74 32.3094 26.405 31.8294 25.935C31.3494 25.465 31.1094 24.835 31.1094 24.045C31.1094 23.385 31.2844 22.81 31.6344 22.32C31.9844 21.83 32.4744 21.45 33.1044 21.18C33.7344 20.91 34.4694 20.775 35.3094 20.775C36.0594 20.775 36.7544 20.885 37.3944 21.105C38.0344 21.315 38.5694 21.62 38.9994 22.02L38.3994 23.46C37.9694 23.1 37.4994 22.835 36.9894 22.665C36.4794 22.485 35.9094 22.395 35.2794 22.395C34.5694 22.395 34.0144 22.535 33.6144 22.815C33.2244 23.085 33.0294 23.46 33.0294 23.94C33.0294 24.31 33.1494 24.605 33.3894 24.825C33.6394 25.045 34.0594 25.215 34.6494 25.335L36.3294 25.665C37.3294 25.865 38.0694 26.195 38.5494 26.655C39.0294 27.105 39.2694 27.715 39.2694 28.485C39.2694 29.115 39.0994 29.67 38.7594 30.15C38.4194 30.62 37.9394 30.99 37.3194 31.26C36.6994 31.52 35.9644 31.65 35.1144 31.65ZM47.2624 31.65C46.1624 31.65 45.2174 31.43 44.4274 30.99C43.6474 30.54 43.0474 29.91 42.6274 29.1C42.2074 28.28 41.9974 27.315 41.9974 26.205C41.9974 25.095 42.2074 24.135 42.6274 23.325C43.0474 22.515 43.6474 21.89 44.4274 21.45C45.2174 21 46.1624 20.775 47.2624 20.775C48.0024 20.775 48.6674 20.88 49.2574 21.09C49.8574 21.3 50.3724 21.61 50.8024 22.02L50.1724 23.55C49.7024 23.17 49.2474 22.9 48.8074 22.74C48.3774 22.57 47.8824 22.485 47.3224 22.485C46.2524 22.485 45.4324 22.81 44.8624 23.46C44.3024 24.1 44.0224 25.015 44.0224 26.205C44.0224 27.395 44.3024 28.315 44.8624 28.965C45.4324 29.615 46.2524 29.94 47.3224 29.94C47.8824 29.94 48.3774 29.86 48.8074 29.7C49.2474 29.53 49.7024 29.25 50.1724 28.86L50.8024 30.39C50.3724 30.79 49.8574 31.1 49.2574 31.32C48.6674 31.54 48.0024 31.65 47.2624 31.65ZM52.4712 31.5L57.2562 20.925H58.8762L63.7212 31.5H61.7562L60.4662 28.53L61.2462 29.055H54.9012L55.7112 28.53L54.4212 31.5H52.4712ZM58.0512 22.995L55.9362 28.005L55.5462 27.54H60.5862L60.2712 28.005L58.1112 22.995H58.0512ZM66.1412 31.5V20.925H67.5962L73.7312 28.86H73.3412V20.925H75.1412V31.5H73.6862L67.5662 23.565H67.9412V31.5H66.1412ZM89.0006 31.65C87.9006 31.65 86.9556 31.43 86.1656 30.99C85.3856 30.54 84.7856 29.91 84.3656 29.1C83.9456 28.28 83.7356 27.315 83.7356 26.205C83.7356 25.095 83.9456 24.135 84.3656 23.325C84.7856 22.515 85.3856 21.89 86.1656 21.45C86.9556 21 87.9006 20.775 89.0006 20.775C89.7406 20.775 90.4056 20.88 90.9956 21.09C91.5956 21.3 92.1106 21.61 92.5406 22.02L91.9106 23.55C91.4406 23.17 90.9856 22.9 90.5456 22.74C90.1156 22.57 89.6206 22.485 89.0606 22.485C87.9906 22.485 87.1706 22.81 86.6006 23.46C86.0406 24.1 85.7606 25.015 85.7606 26.205C85.7606 27.395 86.0406 28.315 86.6006 28.965C87.1706 29.615 87.9906 29.94 89.0606 29.94C89.6206 29.94 90.1156 29.86 90.5456 29.7C90.9856 29.53 91.4406 29.25 91.9106 28.86L92.5406 30.39C92.1106 30.79 91.5956 31.1 90.9956 31.32C90.4056 31.54 89.7406 31.65 89.0006 31.65ZM94.9173 26.205C94.9173 25.095 95.1173 24.135 95.5173 23.325C95.9273 22.515 96.5123 21.89 97.2723 21.45C98.0323 21 98.9373 20.775 99.9873 20.775C101.027 20.775 101.927 21 102.687 21.45C103.447 21.89 104.032 22.515 104.442 23.325C104.862 24.135 105.072 25.09 105.072 26.19C105.072 27.3 104.862 28.265 104.442 29.085C104.032 29.895 103.447 30.525 102.687 30.975C101.927 31.425 101.027 31.65 99.9873 31.65C98.9373 31.65 98.0323 31.425 97.2723 30.975C96.5223 30.525 95.9423 29.895 95.5323 29.085C95.1223 28.265 94.9173 27.305 94.9173 26.205ZM96.9423 26.205C96.9423 27.395 97.1973 28.325 97.7073 28.995C98.2173 29.665 98.9773 30 99.9873 30C100.967 30 101.722 29.665 102.252 28.995C102.782 28.325 103.047 27.395 103.047 26.205C103.047 25.005 102.782 24.075 102.252 23.415C101.732 22.755 100.977 22.425 99.9873 22.425C98.9773 22.425 98.2173 22.755 97.7073 23.415C97.1973 24.075 96.9423 25.005 96.9423 26.205ZM108.319 31.5V20.925H112.159C113.369 20.925 114.389 21.135 115.219 21.555C116.059 21.965 116.694 22.565 117.124 23.355C117.554 24.135 117.769 25.085 117.769 26.205C117.769 27.315 117.554 28.265 117.124 29.055C116.694 29.845 116.059 30.45 115.219 30.87C114.389 31.29 113.369 31.5 112.159 31.5H108.319ZM110.254 29.895H112.039C113.319 29.895 114.269 29.59 114.889 28.98C115.509 28.37 115.819 27.445 115.819 26.205C115.819 24.955 115.509 24.03 114.889 23.43C114.269 22.82 113.319 22.515 112.039 22.515H110.254V29.895ZM120.995 31.5V20.925H128.12V22.44H122.855V25.365H127.775V26.895H122.855V29.97H128.12V31.5H120.995Z" fill="white"/>
<rect x="0.25" y="0.25" width="159.5" height="51.5" rx="25.75" stroke="#323F4B" stroke-width="0.5"/>
</svg>
