<svg width="200" height="200" viewBox="0 0 200 200" fill="none" xmlns="http://www.w3.org/2000/svg">
<path fill-rule="evenodd" clip-rule="evenodd" d="M100 200C155.228 200 200 155.228 200 100C200 44.7715 155.228 0 100 0C44.7715 0 0 44.7715 0 100C0 155.228 44.7715 200 100 200Z" fill="#2F80ED"/>
<path fill-rule="evenodd" clip-rule="evenodd" d="M134.185 121.631C134.185 125.097 131.374 127.908 127.908 127.908H71.4154C67.9487 127.908 65.1384 125.097 65.1384 121.631V87.1076C65.1384 83.6409 67.9487 80.8307 71.4154 80.8307H83.9692L90.2461 71.4153H109.077L115.354 80.8307H127.908C131.374 80.8307 134.185 83.6409 134.185 87.1076V121.631Z" stroke="white" stroke-width="5" stroke-linecap="round" stroke-linejoin="round"/>
<path fill-rule="evenodd" clip-rule="evenodd" d="M99.6615 115.354C106.595 115.354 112.215 109.733 112.215 102.8C112.215 95.8666 106.595 90.2461 99.6615 90.2461C92.7282 90.2461 87.1077 95.8666 87.1077 102.8C87.1077 109.733 92.7282 115.354 99.6615 115.354Z" stroke="white" stroke-width="5" stroke-linecap="round" stroke-linejoin="round"/>
</svg>
