<svg width="160" height="52" viewBox="0 0 160 52" fill="none" xmlns="http://www.w3.org/2000/svg">
<rect x="0.25" y="0.25" width="159.5" height="51.5" rx="25.75" fill="#2F80ED"/>
<path d="M62.1437 31.65C61.2937 31.65 60.5087 31.545 59.7887 31.335C59.0787 31.115 58.4687 30.815 57.9587 30.435L58.5587 28.92C58.8987 29.16 59.2537 29.365 59.6237 29.535C59.9937 29.695 60.3887 29.82 60.8087 29.91C61.2287 29.99 61.6737 30.03 62.1437 30.03C62.9337 30.03 63.5037 29.9 63.8537 29.64C64.2037 29.38 64.3787 29.04 64.3787 28.62C64.3787 28.25 64.2587 27.97 64.0187 27.78C63.7787 27.58 63.3487 27.415 62.7287 27.285L61.0337 26.94C60.0637 26.74 59.3387 26.405 58.8587 25.935C58.3787 25.465 58.1387 24.835 58.1387 24.045C58.1387 23.385 58.3137 22.81 58.6637 22.32C59.0137 21.83 59.5037 21.45 60.1337 21.18C60.7637 20.91 61.4987 20.775 62.3387 20.775C63.0887 20.775 63.7837 20.885 64.4237 21.105C65.0637 21.315 65.5987 21.62 66.0287 22.02L65.4287 23.46C64.9987 23.1 64.5287 22.835 64.0187 22.665C63.5087 22.485 62.9387 22.395 62.3087 22.395C61.5987 22.395 61.0437 22.535 60.6437 22.815C60.2537 23.085 60.0587 23.46 60.0587 23.94C60.0587 24.31 60.1787 24.605 60.4187 24.825C60.6687 25.045 61.0887 25.215 61.6787 25.335L63.3587 25.665C64.3587 25.865 65.0987 26.195 65.5787 26.655C66.0587 27.105 66.2987 27.715 66.2987 28.485C66.2987 29.115 66.1287 29.67 65.7887 30.15C65.4487 30.62 64.9687 30.99 64.3487 31.26C63.7287 31.52 62.9937 31.65 62.1437 31.65ZM68.1284 31.5L72.9134 20.925H74.5334L79.3784 31.5H77.4134L76.1234 28.53L76.9034 29.055H70.5584L71.3684 28.53L70.0784 31.5H68.1284ZM73.7084 22.995L71.5934 28.005L71.2034 27.54H76.2434L75.9284 28.005L73.7684 22.995H73.7084ZM84.3249 31.5L79.6149 20.925H81.6999L85.4949 29.805H84.8649L88.6599 20.925H90.6699L85.9599 31.5H84.3249ZM92.9654 31.5V20.925H100.09V22.44H94.8254V25.365H99.7454V26.895H94.8254V29.97H100.09V31.5H92.9654Z" fill="white"/>
<rect x="0.25" y="0.25" width="159.5" height="51.5" rx="25.75" stroke="#323F4B" stroke-width="0.5"/>
</svg>
