<svg width="200" height="200" viewBox="0 0 200 200" fill="none" xmlns="http://www.w3.org/2000/svg">
<path fill-rule="evenodd" clip-rule="evenodd" d="M100 200C155.228 200 200 155.228 200 100C200 44.7715 155.228 0 100 0C44.7715 0 0 44.7715 0 100C0 155.228 44.7715 200 100 200Z" fill="#00B929"/>
<path d="M51.3316 100.36C49.2916 100.36 47.4076 100.108 45.6796 99.604C43.9756 99.076 42.5116 98.356 41.2876 97.444L42.7276 93.808C43.5436 94.384 44.3956 94.876 45.2836 95.284C46.1716 95.668 47.1196 95.968 48.1276 96.184C49.1356 96.376 50.2036 96.472 51.3316 96.472C53.2276 96.472 54.5956 96.16 55.4356 95.536C56.2756 94.912 56.6956 94.096 56.6956 93.088C56.6956 92.2 56.4076 91.528 55.8316 91.072C55.2556 90.592 54.2236 90.196 52.7356 89.884L48.6676 89.056C46.3396 88.576 44.5996 87.772 43.4476 86.644C42.2956 85.516 41.7196 84.004 41.7196 82.108C41.7196 80.524 42.1396 79.144 42.9796 77.968C43.8196 76.792 44.9956 75.88 46.5076 75.232C48.0196 74.584 49.7836 74.26 51.7996 74.26C53.5996 74.26 55.2676 74.524 56.8036 75.052C58.3396 75.556 59.6236 76.288 60.6556 77.248L59.2156 80.704C58.1836 79.84 57.0556 79.204 55.8316 78.796C54.6076 78.364 53.2396 78.148 51.7276 78.148C50.0236 78.148 48.6916 78.484 47.7316 79.156C46.7956 79.804 46.3276 80.704 46.3276 81.856C46.3276 82.744 46.6156 83.452 47.1916 83.98C47.7916 84.508 48.7996 84.916 50.2156 85.204L54.2476 85.996C56.6476 86.476 58.4236 87.268 59.5756 88.372C60.7276 89.452 61.3036 90.916 61.3036 92.764C61.3036 94.276 60.8956 95.608 60.0796 96.76C59.2636 97.888 58.1116 98.776 56.6236 99.424C55.1356 100.048 53.3716 100.36 51.3316 100.36ZM72.3774 100V78.436H63.9894V74.62H85.4094V78.436H77.0214V100H72.3774ZM84.32 100L95.804 74.62H99.692L111.32 100H106.604L103.508 92.872L105.38 94.132H90.152L92.096 92.872L89 100H84.32ZM97.712 79.588L92.636 91.612L91.7 90.496H103.796L103.04 91.612L97.856 79.588H97.712ZM115.378 100V74.62H126.466C129.25 74.62 131.398 75.28 132.91 76.6C134.446 77.92 135.214 79.756 135.214 82.108C135.214 83.668 134.866 85 134.17 86.104C133.498 87.208 132.526 88.06 131.254 88.66C129.982 89.236 128.482 89.524 126.754 89.524L127.258 88.84H128.482C129.49 88.84 130.39 89.104 131.182 89.632C131.974 90.16 132.622 90.964 133.126 92.044L136.834 100H131.722L127.978 91.756C127.642 90.916 127.126 90.364 126.43 90.1C125.758 89.836 124.942 89.704 123.982 89.704H120.022V100H115.378ZM120.022 86.284H125.71C127.342 86.284 128.578 85.948 129.418 85.276C130.282 84.58 130.714 83.572 130.714 82.252C130.714 80.932 130.282 79.936 129.418 79.264C128.578 78.592 127.342 78.256 125.71 78.256H120.022V86.284ZM147.178 100V78.436H138.79V74.62H160.21V78.436H151.822V100H147.178ZM64.4575 136V114.436H56.0695V110.62H77.4895V114.436H69.1015V136H64.4575ZM82.0205 136V110.62H86.6645V136H82.0205ZM93.537 136V110.62H97.605L106.929 131.608H105.813L115.137 110.62H119.169V136H114.957V117.172H116.253L107.721 136H104.949L96.417 117.172H97.749V136H93.537ZM126.075 136V110.62H143.175V114.256H130.539V121.276H142.347V124.948H130.539V132.328H143.175V136H126.075Z" fill="white"/>
<a href="https://www.figma.com/file/Lt8b2V6T9zKJw7xeG55yrD/solomon&#39;s-UI?node-id=46-4606">
<rect fill="black" fill-opacity="0" x="9.66763" y="-0.23912" width="121.011" height="45.18"/>
</a>
<a href="https://www.figma.com/file/Lt8b2V6T9zKJw7xeG55yrD/solomon&#39;s-UI?node-id=46-4606">
<rect fill="black" fill-opacity="0" x="25.6735" y="35.7609" width="89.0138" height="45.18"/>
</a>
</svg>
