<svg width="279" height="213" viewBox="0 0 279 213" fill="none" xmlns="http://www.w3.org/2000/svg">
<path d="M45.599 62.4243C55.3888 62.4243 63.325 54.4955 63.325 44.7148C63.325 34.9341 55.3888 27.0053 45.599 27.0053C35.8092 27.0053 27.873 34.9341 27.873 44.7148C27.873 54.4955 35.8092 62.4243 45.599 62.4243Z" fill="white"/>
<path d="M45.5994 62.8729C42.0044 62.8747 38.4896 61.8112 35.4996 59.8171C32.5095 57.8229 30.1786 54.9876 28.8016 51.6698C27.4246 48.352 27.0634 44.7008 27.7637 41.1779C28.4639 37.655 30.1942 34.4187 32.7357 31.8783C35.2771 29.338 38.5156 27.6077 42.0414 26.9063C45.5673 26.205 49.2221 26.564 52.5436 27.9381C55.8652 29.3122 58.7043 31.6395 60.7018 34.6258C62.6992 37.6121 63.7654 41.1231 63.7654 44.7148C63.7607 49.5276 61.8455 54.1421 58.44 57.5461C55.0345 60.9501 50.4167 62.8658 45.5994 62.8729ZM45.5994 27.4629C42.1816 27.4611 38.8401 28.4722 35.9975 30.3681C33.1549 32.2641 30.9391 34.9598 29.6304 38.1142C28.3216 41.2686 27.9787 44.7399 28.645 48.089C29.3114 51.4382 30.957 54.5146 33.3738 56.9291C35.7906 59.3436 38.8699 60.9878 42.2221 61.6535C45.5743 62.3192 49.0489 61.9767 52.2062 60.6691C55.3635 59.3616 58.0617 57.1478 59.9595 54.3079C61.8572 51.4679 62.8692 48.1295 62.8674 44.7148C62.8603 40.1415 61.0387 35.7575 57.8019 32.5237C54.5651 29.2899 50.177 27.47 45.5994 27.4629Z" fill="#ACCCF8"/>
<path d="M169.735 81.372L228.471 101.925L197.626 109.829L161.491 91.9852L169.735 81.372Z" fill="#093269"/>
<path d="M197.652 110.224C197.596 110.237 197.538 110.237 197.482 110.224L161.347 92.3799C161.294 92.3537 161.247 92.316 161.209 92.2694C161.172 92.2229 161.146 92.1687 161.132 92.1107C161.119 92.0535 161.119 91.9942 161.131 91.9368C161.144 91.8795 161.168 91.8256 161.204 91.7788L169.42 81.1208C169.473 81.0555 169.544 81.0077 169.624 80.9837C169.704 80.9597 169.789 80.9605 169.869 80.9862L228.605 101.54C228.686 101.569 228.754 101.623 228.801 101.694C228.848 101.765 228.871 101.849 228.866 101.934C228.862 102.018 228.831 102.099 228.778 102.163C228.724 102.228 228.651 102.274 228.57 102.293L197.724 110.206L197.652 110.224ZM162.102 91.8864L197.652 109.408L227.088 101.863L169.878 81.8385L162.102 91.8864Z" fill="#093269"/>
<path d="M100.924 149.752C100.924 149.752 69.7819 159.181 54.2739 149.752C54.2739 149.752 66.1271 164.537 82.2547 162.886C98.3823 161.235 100.924 149.752 100.924 149.752Z" fill="#ACCCF8"/>
<path d="M111.779 141.579C111.779 141.579 88.0461 164.554 61.098 158.508C23.6795 150.164 -5.14534 105.711 19.9081 49.9541C19.9081 49.9541 -6.1331 87.7415 7.33646 129.889C25.7987 187.584 70.392 185.198 115.793 173.418" fill="#ACCCF8"/>
<path d="M176.308 37.78C176.308 37.78 169.528 68.6146 169.735 81.3719C169.735 81.9999 171.755 83.5699 171.8 84.0633C172.779 95.448 136.025 85.8576 136.025 85.8576C136.025 85.8576 134.66 61.7156 137.399 53.0762C140.138 44.4367 143.074 42.5438 143.074 42.5438C143.074 42.5438 167.661 32.8906 171.98 34.2452C176.299 35.5999 176.308 37.78 176.308 37.78Z" fill="#1264D1"/>
<path d="M163.117 50.9411L209.874 26.4402L206.147 14.4365L156.148 39.7538L163.117 50.9411Z" fill="#1264D1"/>
<path d="M96.4787 150.102C96.4787 150.102 95.7872 155.099 99.7922 165.138C103.797 175.177 107.739 178.317 107.739 178.317L121.981 176.522L108.018 141.534L96.4787 150.102Z" fill="#093269"/>
<path d="M107.739 178.711C107.651 178.712 107.566 178.684 107.496 178.631C107.335 178.496 103.42 175.302 99.4146 165.281C95.4096 155.26 96.0472 150.254 96.0741 150.03C96.0819 149.978 96.1002 149.928 96.128 149.883C96.1558 149.838 96.1925 149.8 96.2357 149.77L107.775 141.247C107.823 141.211 107.879 141.186 107.938 141.175C107.997 141.164 108.058 141.167 108.116 141.184C108.175 141.199 108.229 141.228 108.275 141.269C108.32 141.309 108.355 141.36 108.376 141.417L122.34 176.406C122.366 176.46 122.38 176.52 122.38 176.581C122.38 176.641 122.366 176.701 122.34 176.756C122.309 176.807 122.267 176.85 122.218 176.883C122.168 176.915 122.111 176.936 122.052 176.944L107.811 178.693L107.739 178.711ZM96.8553 150.317C96.7835 151.214 96.6308 156.166 100.16 164.985C103.689 173.804 107.182 177.285 107.864 177.904L121.424 176.244L107.855 142.198L96.8553 150.317Z" fill="#093269"/>
<path d="M167.355 173.419C167.355 173.419 163.386 184.839 150.689 195.551C137.991 206.263 106.015 212.596 106.015 212.596L123.543 175.984L167.355 173.419Z" fill="white"/>
<path d="M106.06 213C105.992 213 105.925 212.985 105.865 212.956C105.804 212.926 105.751 212.883 105.709 212.829C105.657 212.763 105.625 212.683 105.615 212.599C105.606 212.515 105.62 212.431 105.655 212.354L123.121 175.751C123.156 175.679 123.209 175.618 123.276 175.574C123.342 175.53 123.419 175.504 123.498 175.5L167.31 172.97C167.385 172.964 167.459 172.977 167.527 173.008C167.595 173.04 167.653 173.088 167.696 173.149C167.74 173.207 167.77 173.275 167.782 173.347C167.795 173.419 167.79 173.492 167.768 173.562C167.723 173.678 163.611 185.225 150.958 195.892C138.306 206.558 106.41 212.937 106.06 213ZM123.884 176.37L106.823 211.932C112.058 210.82 139.15 204.755 150.41 195.201C161.186 186.122 165.676 176.433 166.691 173.894L123.884 176.37Z" fill="#093269"/>
<path d="M143.11 112.673C143.11 112.673 132.388 108.869 115.794 109.829C99.1994 110.789 71.6406 126.444 71.6406 126.444L109.58 140.96L143.11 112.673Z" fill="white"/>
<path d="M109.579 141.408C109.526 141.417 109.471 141.417 109.418 141.408L71.4785 126.875C71.4 126.842 71.3318 126.79 71.2812 126.722C71.2306 126.654 71.1994 126.573 71.1911 126.489C71.185 126.405 71.2028 126.32 71.2425 126.246C71.2822 126.171 71.3422 126.109 71.4156 126.067C71.694 125.906 99.2527 110.34 115.766 109.389C132.28 108.438 143.155 112.215 143.253 112.251C143.329 112.277 143.397 112.322 143.45 112.382C143.503 112.443 143.538 112.516 143.553 112.595C143.567 112.674 143.561 112.755 143.533 112.83C143.506 112.905 143.459 112.972 143.397 113.023L109.867 141.31C109.784 141.372 109.683 141.406 109.579 141.408ZM72.6997 126.372L109.517 140.439L142.221 112.852C139.527 112.036 129.649 109.47 115.847 110.278C101.12 111.13 77.432 123.771 72.6997 126.372Z" fill="#093269"/>
<path d="M100.95 138.062C114.896 124.408 137.39 110.35 164.374 99.5929C205.268 83.3009 235.556 97.359 245.586 103.28C246.677 103.924 247.523 104.911 247.992 106.086C248.462 107.261 248.529 108.558 248.182 109.775C244.985 120.972 232.683 151.986 191.789 168.278C164.805 179.043 138.809 184.301 119.287 183.978C119.287 183.978 113.001 178.424 106.599 162.446C100.196 146.468 100.95 138.062 100.95 138.062Z" fill="white"/>
<path d="M120.966 184.444H119.277C119.169 184.445 119.064 184.407 118.981 184.337C118.721 184.103 112.534 178.523 106.185 162.608C99.8363 146.693 100.474 138.385 100.501 138.035C100.512 137.93 100.56 137.831 100.635 137.757C115.111 123.582 138.278 109.524 164.212 99.1802C204.809 83.0318 234.801 96.3901 245.819 102.894C246.993 103.589 247.903 104.652 248.408 105.918C248.913 107.184 248.985 108.581 248.612 109.892C245.101 122.192 232.556 152.524 191.959 168.699C166.744 178.747 140.999 184.444 120.966 184.444ZM119.466 183.547C139.563 183.816 165.882 178.164 191.627 167.874C231.856 151.842 244.275 121.824 247.75 109.659C248.068 108.538 248.006 107.343 247.574 106.261C247.142 105.179 246.364 104.27 245.361 103.675C234.46 97.2424 204.764 83.9917 164.544 100.024C138.799 110.278 115.793 124.246 101.39 138.269C101.336 139.498 101.228 147.76 107.02 162.267C112.812 176.774 118.577 182.677 119.466 183.538V183.547Z" fill="#093269"/>
<path d="M248.182 109.775C243.991 123.617 236.368 136.177 226.02 146.289C226.02 146.289 217.3 140.332 209.721 121.33C202.143 102.329 204.334 92.021 204.334 92.021C218.806 92.2379 232.989 96.1112 245.56 103.28C246.655 103.92 247.506 104.905 247.981 106.08C248.456 107.256 248.526 108.555 248.182 109.775Z" fill="white"/>
<path d="M226.02 146.737C225.93 146.736 225.842 146.708 225.768 146.657C225.409 146.405 216.852 140.377 209.3 121.537C201.748 102.697 203.831 92.3888 203.912 91.9313C203.934 91.8307 203.99 91.7406 204.069 91.6755C204.149 91.6103 204.249 91.574 204.352 91.5724C218.906 91.7762 233.169 95.6721 245.802 102.894C246.976 103.589 247.886 104.652 248.391 105.918C248.896 107.184 248.968 108.581 248.595 109.892C244.423 123.813 236.782 136.447 226.388 146.612C226.34 146.658 226.282 146.694 226.218 146.716C226.154 146.737 226.087 146.745 226.02 146.737ZM204.738 92.4785C204.451 94.4612 203.481 104.491 210.126 121.187C216.771 137.883 224.395 144.513 225.975 145.715C236.142 135.713 243.628 123.317 247.742 109.668C248.06 108.547 247.998 107.352 247.566 106.27C247.134 105.188 246.356 104.279 245.353 103.684C232.973 96.5977 219.004 92.7439 204.738 92.4785Z" fill="#093269"/>
<path d="M107.191 136.142C107.127 136.142 107.063 136.128 107.004 136.102C106.946 136.075 106.893 136.037 106.85 135.99C106.811 135.945 106.782 135.894 106.764 135.838C106.746 135.782 106.739 135.723 106.744 135.664C106.749 135.606 106.766 135.549 106.793 135.497C106.82 135.445 106.858 135.399 106.903 135.362C116.996 127.113 127.582 119.485 138.602 112.521C138.704 112.46 138.825 112.441 138.941 112.467C139.056 112.494 139.157 112.565 139.221 112.664C139.253 112.713 139.274 112.768 139.283 112.826C139.293 112.884 139.291 112.942 139.278 112.999C139.264 113.056 139.24 113.109 139.205 113.157C139.171 113.204 139.128 113.244 139.078 113.274C128.098 120.218 117.545 127.816 107.478 136.026C107.4 136.098 107.298 136.139 107.191 136.142Z" fill="white"/>
<path d="M141.638 182.757C141.525 182.758 141.416 182.717 141.332 182.641C141.206 182.524 129.075 170.978 123.049 155.87C117.024 140.762 117.868 124.04 117.877 123.878C117.878 123.818 117.892 123.759 117.916 123.704C117.941 123.649 117.977 123.6 118.022 123.56C118.066 123.52 118.119 123.489 118.176 123.469C118.233 123.45 118.293 123.443 118.353 123.448C118.471 123.457 118.582 123.511 118.66 123.6C118.739 123.689 118.78 123.805 118.775 123.923C118.775 124.085 117.94 140.637 123.885 155.538C129.829 170.44 141.844 181.869 141.952 181.986C141.994 182.028 142.027 182.077 142.05 182.132C142.073 182.186 142.085 182.245 142.085 182.304C142.085 182.364 142.073 182.422 142.05 182.477C142.027 182.531 141.994 182.581 141.952 182.623C141.868 182.707 141.756 182.755 141.638 182.757Z" fill="#093269"/>
<path d="M244.347 102.168C244.347 102.168 261.606 97.6819 262.63 100.248C263.654 102.814 248.047 111.426 248.047 111.426" fill="#093269"/>
<path d="M248.047 111.821C247.961 111.819 247.878 111.788 247.811 111.735C247.744 111.681 247.696 111.607 247.675 111.524C247.653 111.441 247.66 111.353 247.693 111.274C247.726 111.195 247.784 111.128 247.859 111.085C255.222 107.012 262.828 101.773 262.226 100.391C261.625 99.0097 252.546 100.436 244.41 102.553C244.36 102.566 244.307 102.569 244.255 102.562C244.203 102.554 244.153 102.537 244.108 102.51C244.063 102.484 244.024 102.448 243.993 102.406C243.961 102.365 243.938 102.317 243.926 102.266C243.913 102.216 243.91 102.163 243.917 102.111C243.925 102.059 243.942 102.01 243.969 101.965C243.995 101.92 244.031 101.88 244.073 101.849C244.115 101.818 244.162 101.795 244.213 101.782C248.344 100.714 261.894 97.4307 262.963 100.104C264.031 102.778 251.935 109.713 248.2 111.767C248.152 111.793 248.101 111.812 248.047 111.821Z" fill="#093269"/>
<path d="M245.883 113.05C243.519 109.988 242.058 106.328 241.663 102.482C241.638 101.876 241.842 101.283 242.235 100.821C242.627 100.359 243.18 100.061 243.782 99.9876C244.039 99.9288 244.305 99.9227 244.564 99.9696C244.824 100.017 245.071 100.116 245.291 100.261C245.511 100.406 245.699 100.594 245.844 100.814C245.989 101.034 246.088 101.28 246.135 101.54C246.469 104.852 247.715 108.007 249.735 110.655C249.882 110.874 249.982 111.121 250.03 111.38C250.077 111.639 250.072 111.905 250.013 112.162C249.954 112.419 249.843 112.662 249.688 112.874C249.532 113.087 249.334 113.266 249.107 113.4C248.623 113.753 248.023 113.913 247.427 113.849C246.831 113.784 246.28 113.499 245.883 113.05Z" fill="white"/>
<path d="M247.669 114.315C247.258 114.322 246.851 114.235 246.479 114.061C246.107 113.887 245.78 113.63 245.523 113.31C243.121 110.187 241.629 106.461 241.213 102.544C241.171 101.82 241.408 101.107 241.876 100.552C242.343 99.9964 243.005 99.6405 243.727 99.557C244.084 99.5014 244.448 99.5181 244.798 99.6059C245.148 99.6938 245.477 99.851 245.765 100.068C245.993 100.241 246.183 100.458 246.324 100.706C246.464 100.955 246.552 101.229 246.583 101.513C246.922 104.746 248.15 107.823 250.13 110.403C250.303 110.629 250.429 110.888 250.498 111.164C250.568 111.441 250.58 111.728 250.534 112.009C250.476 112.369 250.347 112.714 250.152 113.022C249.958 113.331 249.703 113.597 249.402 113.804C248.893 114.152 248.286 114.331 247.669 114.315ZM244.14 100.4H243.844C243.356 100.458 242.907 100.697 242.586 101.069C242.266 101.441 242.096 101.919 242.111 102.41C242.507 106.171 243.933 109.75 246.232 112.754C246.56 113.119 247.013 113.348 247.502 113.396C247.99 113.444 248.479 113.308 248.872 113.014C249.074 112.88 249.246 112.707 249.378 112.505C249.511 112.303 249.602 112.077 249.645 111.839C249.668 111.682 249.661 111.522 249.622 111.368C249.584 111.214 249.515 111.069 249.42 110.942C247.338 108.228 246.045 104.994 245.685 101.594C245.666 101.43 245.615 101.273 245.535 101.13C245.455 100.986 245.347 100.86 245.218 100.759C244.908 100.525 244.528 100.402 244.14 100.409V100.4Z" fill="#093269"/>
<path d="M145.202 175.15C145.083 175.157 144.966 175.116 144.876 175.037C144.787 174.958 144.733 174.847 144.726 174.728C144.719 174.609 144.759 174.492 144.838 174.403C144.918 174.314 145.029 174.26 145.148 174.253C145.552 174.208 185.602 169.408 217.488 143.597C217.58 143.523 217.698 143.488 217.816 143.5C217.933 143.511 218.042 143.569 218.117 143.66C218.19 143.754 218.224 143.873 218.212 143.991C218.201 144.11 218.144 144.219 218.054 144.297C185.961 170.314 145.66 175.096 145.256 175.141L145.202 175.15Z" fill="#ACCCF8"/>
<path d="M163.817 32.2088C164.615 31.8716 165.256 31.2471 165.613 30.4594C167.095 28.1792 167.899 25.5254 167.93 22.8068C167.851 18.8246 166.222 15.0299 163.389 12.2278C160.555 9.42564 156.741 7.83657 152.754 7.79769L155.933 10.3814C153.209 10.2744 150.5 10.8377 148.045 12.022C145.59 13.2062 143.464 14.975 141.853 17.1728C142.929 16.8588 144.08 16.9125 145.122 17.3253C143.497 17.7477 141.899 18.266 140.336 18.8773C140.087 18.9448 139.867 19.0894 139.707 19.29C139.576 19.5716 139.557 19.892 139.653 20.1872C140.802 25.5251 144.807 30.4504 150.15 31.5808C151.048 31.7692 151.946 31.85 152.907 31.9666C154.946 32.2267 156.957 32.6574 159.013 32.765C160.304 32.8567 161.601 32.763 162.866 32.4869C163.188 32.414 163.506 32.3211 163.817 32.2088Z" fill="white"/>
<path d="M159.938 33.2226H158.933C157.59 33.1272 156.253 32.9625 154.928 32.7291C154.218 32.6215 153.509 32.5138 152.8 32.4241L152.135 32.3434C151.435 32.2537 150.716 32.1729 150.007 32.0204C144.808 30.9259 140.47 26.2249 139.231 20.3576C139.164 20.1564 139.138 19.9433 139.157 19.7318C139.175 19.5204 139.237 19.315 139.339 19.1285C139.543 18.8563 139.829 18.6579 140.156 18.5633C141.216 18.1417 142.293 17.7739 143.38 17.4419C142.894 17.4281 142.409 17.4917 141.943 17.6303C141.862 17.654 141.775 17.6521 141.694 17.6248C141.614 17.5976 141.544 17.5462 141.494 17.4778C141.445 17.4064 141.419 17.322 141.419 17.2356C141.419 17.1492 141.445 17.0648 141.494 16.9933C143.031 14.9072 145.022 13.1962 147.316 11.9889C149.61 10.7815 152.148 10.1093 154.739 10.0226L152.467 8.17448C152.403 8.11962 152.356 8.04665 152.334 7.96505C152.311 7.88345 152.314 7.797 152.342 7.71694C152.372 7.63742 152.427 7.56912 152.497 7.52107C152.568 7.47302 152.651 7.44747 152.737 7.4478C156.823 7.48837 160.734 9.11238 163.646 11.9776C166.557 14.8427 168.241 18.7252 168.343 22.8068C168.323 25.6146 167.497 28.3576 165.964 30.7106C165.561 31.5758 164.85 32.2602 163.97 32.6305C163.639 32.7648 163.296 32.8699 162.947 32.9445C161.958 33.1547 160.949 33.248 159.938 33.2226ZM143.254 16.5268C143.94 16.5291 144.619 16.6599 145.257 16.9126C145.337 16.947 145.404 17.0049 145.451 17.0785C145.497 17.1522 145.52 17.2383 145.517 17.3253C145.509 17.4103 145.476 17.4909 145.422 17.5566C145.367 17.6223 145.294 17.6699 145.212 17.6931C143.598 18.1085 142.011 18.6238 140.461 19.2362C140.359 19.2394 140.259 19.271 140.173 19.3274C140.087 19.3837 140.019 19.4627 139.975 19.5555C139.932 19.6484 139.914 19.7515 139.926 19.8535C139.937 19.9554 139.976 20.0523 140.039 20.1333C141.243 25.7315 145.328 30.1813 150.213 31.213C150.887 31.3565 151.587 31.4373 152.261 31.518L152.943 31.5987C153.653 31.6885 154.371 31.8051 155.089 31.9127C156.388 32.142 157.698 32.3037 159.013 32.3972C160.266 32.4914 161.525 32.3977 162.749 32.1191C163.056 32.0512 163.356 31.9582 163.647 31.841C164.362 31.5429 164.935 30.9805 165.245 30.271C166.697 28.0487 167.488 25.4604 167.526 22.8068C167.449 19.1443 166.025 15.6383 163.526 12.9577C161.027 10.2772 157.627 8.60959 153.976 8.27317L156.176 10.0674C156.242 10.123 156.29 10.1975 156.312 10.2809C156.335 10.3644 156.331 10.4527 156.302 10.534C156.275 10.6175 156.22 10.6892 156.146 10.7367C156.073 10.7842 155.985 10.8045 155.898 10.7941C153.421 10.7082 150.957 11.1842 148.691 12.1864C146.425 13.1887 144.415 14.6911 142.814 16.5807L143.254 16.5268Z" fill="#093269"/>
<path d="M152.871 40.265C152.871 40.265 153.033 49.649 157.451 49.9451C161.869 50.2411 161.941 41.6466 161.941 41.6466" fill="#093269"/>
<path d="M157.666 50.3489H157.424C152.691 50.0349 152.476 40.6778 152.467 40.2831C152.458 40.2256 152.462 40.167 152.478 40.1112C152.494 40.0554 152.522 40.0037 152.56 39.9597C152.598 39.9156 152.645 39.8803 152.698 39.8561C152.751 39.8319 152.808 39.8193 152.866 39.8193C152.925 39.8193 152.982 39.8319 153.035 39.8561C153.088 39.8803 153.135 39.9156 153.173 39.9597C153.211 40.0037 153.239 40.0554 153.255 40.1112C153.271 40.167 153.275 40.2256 153.266 40.2831C153.266 40.3728 153.473 49.2993 157.478 49.5684C157.825 49.6002 158.176 49.5556 158.505 49.4379C158.834 49.3201 159.133 49.132 159.381 48.8866C161.483 46.9488 161.581 41.7095 161.581 41.6557C161.588 41.554 161.632 41.4583 161.705 41.3871C161.778 41.3159 161.875 41.2741 161.976 41.2699C162.081 41.2699 162.182 41.3115 162.256 41.3855C162.33 41.4596 162.372 41.56 162.372 41.6647C162.372 41.8979 162.273 47.2987 159.92 49.4698C159.31 50.0417 158.503 50.3566 157.666 50.3489Z" fill="#093269"/>
<path d="M161.564 35.7254L161.977 41.6465C161.977 41.6465 161.591 44.9839 157.918 44.2033C156.837 43.9628 155.823 43.4845 154.95 42.8032C154.077 42.1219 153.367 41.2548 152.871 40.2649C152.871 40.2649 151.973 26.0901 151.641 22.3222C154.279 22.0076 156.821 21.1426 159.103 19.7833C159.442 19.5237 159.813 19.3096 160.208 19.1463C160.944 19.0387 160.854 19.4513 161.178 20.0434C161.768 21.1766 162.714 22.0845 163.871 22.6272C164.019 22.6762 164.15 22.7665 164.249 22.8874C164.304 22.9862 164.335 23.097 164.338 23.2103C164.716 26.5925 165.407 29.9568 164.922 33.357C164.527 36.2637 161.564 35.7254 161.564 35.7254Z" fill="white"/>
<path d="M158.969 44.7328C158.588 44.7335 158.208 44.6914 157.837 44.6072C156.69 44.3589 155.613 43.8547 154.688 43.1323C153.763 42.4099 153.013 41.4881 152.494 40.4355C152.486 40.388 152.486 40.3395 152.494 40.292C152.494 40.1484 151.596 26.0813 151.273 22.3492C151.265 22.2386 151.301 22.1294 151.372 22.0442C151.406 22.0034 151.449 21.9703 151.497 21.9471C151.544 21.9239 151.597 21.9111 151.65 21.9096C154.229 21.5982 156.713 20.7484 158.942 19.4156L159.247 19.2182C159.508 18.9942 159.814 18.829 160.145 18.7338C160.277 18.6993 160.415 18.6922 160.55 18.7127C160.685 18.7333 160.815 18.7811 160.931 18.8533C161.047 18.9255 161.147 19.0205 161.225 19.1326C161.303 19.2447 161.357 19.3715 161.384 19.5053C161.428 19.6351 161.482 19.7612 161.546 19.8821C162.086 20.9373 162.965 21.7808 164.042 22.2775C164.266 22.3584 164.46 22.5055 164.599 22.6991C164.685 22.85 164.734 23.0191 164.743 23.1925C164.823 23.9192 164.922 24.6459 165.012 25.3636C165.49 28.0275 165.596 30.7449 165.326 33.4379C165.289 33.8487 165.166 34.2474 164.967 34.6087C164.768 34.97 164.496 35.2861 164.168 35.5372C163.526 35.9577 162.771 36.1707 162.004 36.1472L162.381 41.5839C162.323 42.0783 162.168 42.5564 161.925 42.9907C161.681 43.4249 161.354 43.8066 160.962 44.1138C160.381 44.5282 159.682 44.7452 158.969 44.7328ZM153.275 40.1664C153.752 41.0804 154.422 41.8798 155.24 42.5088C156.057 43.1378 157.002 43.5814 158.008 43.8088C158.39 43.9467 158.798 43.9967 159.201 43.955C159.605 43.9133 159.994 43.781 160.34 43.5679C160.685 43.3548 160.978 43.0665 161.196 42.7245C161.414 42.3825 161.552 41.9956 161.6 41.5928L161.187 35.7614C161.182 35.7003 161.19 35.6387 161.212 35.5813C161.234 35.5239 161.268 35.472 161.312 35.4295C161.359 35.3864 161.414 35.3544 161.475 35.3357C161.536 35.3171 161.6 35.3123 161.663 35.3218C162.373 35.4271 163.099 35.2778 163.71 34.9002C163.947 34.7116 164.144 34.4767 164.287 34.2099C164.431 33.9431 164.518 33.6499 164.545 33.3481C164.791 30.7292 164.685 28.0891 164.231 25.4982C164.132 24.7715 164.042 24.0448 163.961 23.3092C163.961 23.3092 163.961 23.1836 163.961 23.1567L163.773 23.058C162.51 22.49 161.475 21.5134 160.836 20.2858C160.759 20.1371 160.69 19.9844 160.63 19.8283C160.599 19.7353 160.56 19.6453 160.513 19.5591C160.438 19.5512 160.363 19.5512 160.289 19.5591C160.075 19.6462 159.875 19.7641 159.696 19.909C159.552 19.9987 159.427 20.0974 159.319 20.1512C157.113 21.4599 154.673 22.3254 152.135 22.6991C152.404 26.7721 153.204 39.0539 153.275 40.1664Z" fill="#093269"/>
<path d="M161.734 38.6412C160.277 38.7566 158.831 38.3104 157.693 37.3942C157.227 37.0138 156.849 36.5369 156.585 35.9963C156.322 35.4557 156.179 34.8644 156.167 34.2632C157.815 35.1857 159.665 35.6879 161.554 35.7256L161.734 38.6412Z" fill="#093269"/>
<path d="M161.285 39.0538C159.868 39.0819 158.489 38.594 157.406 37.6811C156.896 37.2614 156.485 36.7357 156.199 36.1407C155.914 35.5458 155.762 34.8958 155.753 34.2361C155.761 34.169 155.784 34.1046 155.822 34.0484C155.859 33.9922 155.91 33.9458 155.969 33.9132C156.028 33.8802 156.094 33.8628 156.162 33.8628C156.23 33.8628 156.296 33.8802 156.355 33.9132C157.94 34.8157 159.722 35.3148 161.545 35.3665C161.649 35.3661 161.749 35.4047 161.825 35.4744C161.902 35.5442 161.949 35.6402 161.958 35.7433L162.111 38.6501C162.119 38.751 162.086 38.8508 162.02 38.928C161.955 39.0052 161.862 39.0536 161.761 39.0627C161.602 39.0734 161.443 39.0704 161.285 39.0538ZM156.615 34.9449C156.825 35.7804 157.286 36.5319 157.935 37.098C158.882 37.8762 160.078 38.2871 161.303 38.2553L161.186 36.1291C159.597 36.0533 158.041 35.6502 156.615 34.9449Z" fill="#093269"/>
<path d="M160.656 25.22C160.656 25.22 162.74 27.9114 162.317 28.4676C161.895 29.0239 160.611 28.7457 160.611 28.7457" fill="white"/>
<path d="M161.267 29.2034C161.022 29.2057 160.778 29.1816 160.539 29.1316C160.488 29.1222 160.439 29.1027 160.395 29.0744C160.351 29.0461 160.314 29.0094 160.284 28.9665C160.254 28.9236 160.234 28.8753 160.223 28.8244C160.212 28.7734 160.211 28.7208 160.22 28.6696C160.23 28.6183 160.249 28.5694 160.278 28.5257C160.306 28.4819 160.343 28.4442 160.386 28.4146C160.429 28.3851 160.477 28.3642 160.528 28.3533C160.579 28.3424 160.632 28.3417 160.683 28.3511C161.123 28.4408 161.832 28.4408 162.012 28.2165C161.595 27.2316 161.032 26.3152 160.342 25.4982C160.31 25.457 160.286 25.41 160.272 25.3597C160.258 25.3094 160.255 25.2568 160.261 25.2051C160.268 25.1534 160.285 25.1035 160.311 25.0583C160.337 25.0132 160.372 24.9736 160.413 24.942C160.455 24.9104 160.503 24.8874 160.553 24.8744C160.604 24.8613 160.657 24.8585 160.709 24.866C160.761 24.8735 160.81 24.8912 160.855 24.9181C160.9 24.945 160.939 24.9806 160.97 25.0227C162.479 26.9874 163.036 28.2434 162.631 28.7548C162.447 28.9194 162.231 29.0442 161.996 29.1214C161.761 29.1986 161.513 29.2265 161.267 29.2034Z" fill="#093269"/>
<path d="M160.396 32.2805H160.234C158.25 32.1729 156.759 30.253 156.696 30.1723C156.665 30.131 156.641 30.0839 156.628 30.0337C156.614 29.9834 156.61 29.931 156.617 29.8793C156.624 29.8277 156.64 29.7778 156.666 29.7327C156.692 29.6875 156.727 29.6479 156.768 29.6161C156.81 29.5842 156.857 29.5609 156.907 29.5473C156.957 29.5337 157.01 29.5301 157.062 29.5367C157.113 29.5434 157.163 29.5602 157.208 29.5861C157.254 29.612 157.293 29.6466 157.325 29.6878C157.325 29.6878 158.663 31.4014 160.27 31.4821C160.694 31.4874 161.114 31.3956 161.497 31.2136C161.88 31.0316 162.216 30.7644 162.479 30.4325C162.554 30.3611 162.654 30.3214 162.758 30.3214C162.861 30.3214 162.961 30.3611 163.036 30.4325C163.074 30.4692 163.104 30.5132 163.124 30.5617C163.145 30.6102 163.155 30.6624 163.155 30.715C163.155 30.7677 163.145 30.8199 163.124 30.8684C163.104 30.9169 163.074 30.9609 163.036 30.9976C162.711 31.3852 162.308 31.6998 161.853 31.9209C161.398 32.142 160.902 32.2645 160.396 32.2805Z" fill="#093269"/>
<path d="M163.342 115.705L156.777 142.386C156.777 142.386 189.472 131.45 190.649 127.879C191.825 124.309 173.74 128.418 173.74 128.418L175.024 120.792L163.342 115.705Z" fill="white"/>
<path d="M156.777 142.835C156.709 142.834 156.643 142.818 156.582 142.788C156.521 142.758 156.468 142.714 156.427 142.661C156.386 142.607 156.357 142.545 156.343 142.479C156.329 142.413 156.33 142.344 156.346 142.279L162.901 115.598C162.917 115.534 162.946 115.474 162.987 115.422C163.028 115.371 163.08 115.329 163.139 115.3C163.199 115.271 163.263 115.255 163.329 115.254C163.395 115.252 163.461 115.266 163.521 115.293L175.195 120.379C175.285 120.421 175.361 120.49 175.409 120.577C175.458 120.664 175.477 120.765 175.464 120.864L174.306 127.835C177.897 127.045 189.05 124.784 190.855 126.776C191.008 126.939 191.111 127.142 191.151 127.362C191.19 127.582 191.166 127.808 191.08 128.014C189.867 131.701 160.297 141.686 156.957 142.808C156.9 142.832 156.838 142.841 156.777 142.835ZM163.647 116.333L157.415 141.695C169.986 137.452 189.427 130.131 190.227 127.736C190.289 127.521 190.227 127.44 190.182 127.377C188.951 126.022 179.505 127.565 173.839 128.857C173.767 128.872 173.692 128.87 173.622 128.849C173.552 128.829 173.487 128.792 173.435 128.741C173.38 128.69 173.34 128.626 173.316 128.556C173.293 128.485 173.287 128.41 173.3 128.337L174.53 121.061L163.647 116.333Z" fill="#093269"/>
<path d="M136.025 85.8667C136.025 85.8667 131.491 104.707 140.443 107.263C149.396 109.82 164.374 99.5929 164.374 99.5929L159.525 117.096C159.525 117.096 156.275 125 160.989 124.65C165.236 119.15 171.037 117.697 175.024 120.792C181.265 113.875 192.22 92.1466 185.144 84.6914C178.068 77.2362 136.025 85.8667 136.025 85.8667Z" fill="#093269"/>
<path d="M160.692 125.08C160.294 125.108 159.895 125.036 159.532 124.871C159.168 124.707 158.851 124.455 158.609 124.138C157.091 122.057 159.076 117.186 159.157 116.961L163.709 100.526C160.324 102.688 148.201 109.91 140.362 107.703C131.149 105.074 135.477 86.6112 135.666 85.8307C135.683 85.7574 135.721 85.6906 135.775 85.6381C135.829 85.5857 135.897 85.5498 135.971 85.5347C137.704 85.1758 178.319 76.9401 185.458 84.476C192.597 92.012 181.866 113.911 175.347 121.106C175.281 121.182 175.188 121.23 175.088 121.24C174.988 121.25 174.888 121.221 174.808 121.16C174.053 120.571 173.187 120.139 172.261 119.889C171.336 119.64 170.37 119.578 169.42 119.707C166.547 120.074 163.691 121.932 161.339 124.946C161.306 124.99 161.264 125.027 161.216 125.053C161.168 125.079 161.115 125.095 161.06 125.098L160.692 125.08ZM164.374 99.225C164.458 99.2256 164.54 99.254 164.607 99.3057C164.673 99.3514 164.724 99.4165 164.751 99.4921C164.779 99.5677 164.782 99.65 164.76 99.7274L159.938 117.204C159.399 118.54 158.241 122.21 159.291 123.654C159.472 123.878 159.707 124.052 159.975 124.158C160.242 124.265 160.532 124.302 160.818 124.264C163.26 121.169 166.26 119.258 169.295 118.881C171.305 118.595 173.349 119.089 175.006 120.263C181.202 113.149 191.573 92.021 184.883 84.9695C178.194 77.918 139.868 85.5167 136.393 86.2165C135.908 88.4145 132.639 104.626 140.587 106.851C149.243 109.318 164.042 99.3326 164.185 99.234C164.244 99.2074 164.309 99.1951 164.374 99.1981V99.225Z" fill="#093269"/>
<path d="M156.777 142.386C156.777 142.386 160.369 145.903 170.606 142.386C180.843 138.869 193.774 129.441 190.649 127.88C187.524 126.319 160.244 137.461 156.777 142.386Z" fill="#093269"/>
<path d="M162.462 144.351C158.304 144.351 156.607 142.763 156.508 142.664C156.439 142.6 156.396 142.513 156.386 142.419C156.377 142.325 156.401 142.231 156.454 142.153C159.867 137.317 187.174 125.691 190.829 127.521C191.051 127.622 191.237 127.789 191.361 127.999C191.484 128.209 191.54 128.453 191.52 128.696C191.305 131.8 179.658 139.686 170.741 142.763C168.087 143.743 165.29 144.28 162.462 144.351ZM157.343 142.315C158.358 142.987 162.192 144.862 170.481 142.01C179.46 138.914 190.559 131.172 190.73 128.642C190.739 128.554 190.718 128.466 190.671 128.391C190.624 128.316 190.553 128.259 190.469 128.229C187.776 126.875 161.609 137.317 157.343 142.315Z" fill="#093269"/>
<path d="M175.204 126.722C172.841 127.599 170.55 128.658 168.352 129.889L168.72 125.762C168.72 125.762 174.027 123.188 175.204 123.34V126.722Z" fill="white"/>
<path d="M168.37 130.338C168.291 130.338 168.213 130.317 168.146 130.275C168.072 130.232 168.012 130.168 167.974 130.092C167.935 130.015 167.92 129.929 167.93 129.844L168.298 125.726C168.303 125.651 168.329 125.577 168.371 125.514C168.414 125.451 168.472 125.401 168.541 125.368C169.439 124.928 174.045 122.748 175.285 122.892C175.393 122.905 175.493 122.958 175.564 123.041C175.636 123.124 175.674 123.231 175.671 123.34V126.722C175.67 126.813 175.642 126.902 175.591 126.977C175.54 127.052 175.468 127.11 175.383 127.144C173.053 128.01 170.792 129.054 168.622 130.266C168.546 130.312 168.459 130.337 168.37 130.338ZM169.169 126.058L168.9 129.046C170.806 128.059 172.767 127.182 174.773 126.417V123.816C172.843 124.4 170.969 125.15 169.169 126.058Z" fill="#093269"/>
<path d="M147.034 41.0546C147.034 41.0546 114.608 54.2067 111.861 57.9029C109.113 61.5991 104.398 84.0096 104.398 84.0096L114.195 82.6011C114.195 82.6011 123.058 68.6955 125.806 65.7528C128.554 62.8102 144.08 58.6924 144.08 58.6924L147.034 41.0546Z" fill="#1264D1"/>
<path d="M119.529 76.2583L112.938 87.5264C112.938 87.5264 118.542 92.0121 117.177 92.7477C115.812 93.4834 114.483 94.0665 114.483 94.0665C114.483 94.0665 114.339 97.7537 112.687 98.1933C111.034 98.6329 101.812 97.8165 102.225 94.6586C103.662 83.7674 105.449 71.3779 105.332 72.7954L119.529 76.2583Z" fill="white"/>
<path d="M111.394 98.7495C108.924 98.7495 104.488 98.1305 102.683 96.5515C102.384 96.3278 102.148 96.0295 102 95.6863C101.852 95.3431 101.796 94.967 101.839 94.5958C102.441 89.9755 103.186 84.5568 103.869 79.7392C104.47 75.5316 104.767 73.6655 104.937 72.8491C104.933 72.8164 104.933 72.7832 104.937 72.7504C104.932 72.7711 104.932 72.7926 104.937 72.8132C105.09 72.2032 105.207 72.2122 105.422 72.2391C105.486 72.2438 105.548 72.2622 105.604 72.2932C105.659 72.3242 105.708 72.367 105.745 72.4185L119.619 75.8187C119.686 75.8366 119.748 75.8693 119.801 75.9143C119.854 75.9593 119.896 76.0155 119.924 76.0788C119.955 76.1416 119.971 76.2107 119.971 76.2807C119.971 76.3507 119.955 76.4197 119.924 76.4825L113.513 87.4007C114.86 88.5042 117.94 91.1687 117.823 92.4516C117.811 92.5923 117.763 92.7277 117.685 92.8453C117.606 92.9629 117.499 93.0588 117.374 93.1244C116.369 93.6627 115.39 94.1382 114.941 94.3446C114.869 95.3045 114.519 98.1574 112.866 98.606C112.383 98.7108 111.889 98.759 111.394 98.7495ZM105.719 73.3426C105.341 75.702 103.923 85.4001 102.728 94.7124C102.71 94.9376 102.751 95.1635 102.848 95.368C102.944 95.5725 103.091 95.7485 103.276 95.8787C105.27 97.6191 111.358 98.0946 112.624 97.7537C113.693 97.4666 114.025 94.9187 114.061 94.0485C114.065 93.9666 114.091 93.8873 114.137 93.8192C114.183 93.7512 114.247 93.6971 114.321 93.6627C114.321 93.6627 115.614 93.0706 116.952 92.3529C117.006 91.8774 115.004 89.7602 112.651 87.8672C112.566 87.8013 112.508 87.7064 112.488 87.6006C112.468 87.4948 112.488 87.3853 112.543 87.293L118.829 76.5274L105.719 73.3426Z" fill="#093269"/>
<path d="M206.911 29.9305C206.911 29.4819 202.484 14.4369 202.484 14.4369L212.065 11.0816C212.065 11.0816 211.921 7.5469 213.978 6.21914C216.034 4.89138 218.845 6.21914 218.845 6.21914C218.845 6.21914 227.241 -0.841332 228.273 0.629974C229.306 2.10128 226.208 5.33994 221.494 8.70421C221.494 8.70421 223.999 15.7737 221.197 17.9806C219.558 19.2923 217.569 20.0941 215.477 20.2863L206.911 29.9305Z" fill="white"/>
<path d="M206.911 30.3786C206.857 30.3872 206.803 30.3872 206.749 30.3786C206.668 30.3486 206.597 30.295 206.546 30.2248C206.495 30.1545 206.465 30.0707 206.462 29.9839C206.363 29.3559 203.768 20.4473 202.053 14.589C202.023 14.4772 202.036 14.3584 202.089 14.2556C202.142 14.1528 202.232 14.0734 202.34 14.0328L211.616 10.7851C211.616 9.82521 211.859 7.07997 213.736 5.86883C215.612 4.6577 217.974 5.41129 218.764 5.72529C220.372 4.38855 226.065 -0.249647 227.977 0.0105229C228.109 0.0246012 228.236 0.066229 228.351 0.132696C228.465 0.199163 228.564 0.288978 228.642 0.396292C230.132 2.52251 225.265 6.5686 222.024 8.9191C222.491 10.3814 224.17 16.2577 221.476 18.3749C219.812 19.7005 217.808 20.5306 215.693 20.7703L207.243 30.253C207.199 30.2954 207.147 30.3285 207.09 30.3501C207.033 30.3717 206.972 30.3814 206.911 30.3786ZM203.041 14.7326C204.415 19.4336 206.471 26.4761 207.135 29.015L215.145 20.0436C215.227 19.9548 215.339 19.9003 215.46 19.8911C217.455 19.699 219.352 18.9323 220.919 17.6841C223.012 16.0334 221.736 10.7941 221.072 8.91013C221.04 8.81887 221.039 8.7198 221.068 8.62766C221.097 8.53552 221.155 8.45523 221.234 8.39876C226.711 4.4693 228.525 1.8048 227.905 0.916632C227.268 0.530863 223.182 3.19536 219.132 6.60448C219.067 6.65842 218.987 6.69221 218.902 6.70176C218.818 6.71132 218.732 6.69622 218.656 6.65831C218.656 6.65831 216.043 5.46512 214.22 6.65831C212.398 7.85151 212.514 11.0902 212.514 11.144C212.517 11.2403 212.489 11.3351 212.434 11.4143C212.379 11.4934 212.3 11.5528 212.209 11.5836L203.041 14.7326Z" fill="#093269"/>
<path d="M170.13 74.3563H170.049C169.942 74.3346 169.848 74.2715 169.788 74.1807C169.727 74.0899 169.705 73.9789 169.726 73.8718C172.357 60.9351 174.854 37.6723 174.728 36.5419C174.714 36.4913 174.711 36.4384 174.718 36.3865C174.726 36.3346 174.743 36.2846 174.77 36.2395C174.797 36.1944 174.832 36.1551 174.874 36.1238C174.916 36.0926 174.964 36.07 175.015 36.0575C175.123 36.0303 175.238 36.0471 175.334 36.1043C175.43 36.1615 175.499 36.2543 175.527 36.3625C175.751 37.1968 173.165 61.0876 170.534 74.0423C170.511 74.1316 170.458 74.2107 170.385 74.2675C170.312 74.3242 170.223 74.3554 170.13 74.3563Z" fill="#093269"/>
<path d="M128.724 63.6264C128.629 63.6237 128.537 63.588 128.465 63.5253C128.393 63.4625 128.344 63.3767 128.328 63.2825C128.313 63.1883 128.33 63.0914 128.378 63.0085C128.425 62.9256 128.5 62.8618 128.59 62.828L146.899 56.8171C147 56.7923 147.106 56.8063 147.197 56.8564C147.288 56.9064 147.357 56.9889 147.39 57.0873C147.423 57.1857 147.417 57.2929 147.375 57.3875C147.332 57.4821 147.255 57.5571 147.16 57.5977L128.85 63.6085C128.81 63.6227 128.767 63.6288 128.724 63.6264Z" fill="#093269"/>
<path d="M219.015 15.6298C218.938 15.6383 218.859 15.6383 218.782 15.6298C218.087 15.4792 217.443 15.1525 216.911 14.6811C216.38 14.2097 215.979 13.6095 215.747 12.9383C215.683 13.5289 215.45 14.0885 215.075 14.55C214.701 15.0115 214.201 15.3553 213.636 15.54C213.585 15.5571 213.531 15.5634 213.477 15.5586C213.423 15.5538 213.37 15.538 213.323 15.5121C213.275 15.4863 213.234 15.4509 213.2 15.4083C213.167 15.3657 213.143 15.3167 213.129 15.2643C213.116 15.212 213.113 15.1574 213.122 15.104C213.13 15.0506 213.149 14.9994 213.178 14.9538C213.207 14.9082 213.245 14.8689 213.29 14.8386C213.335 14.8083 213.386 14.7875 213.439 14.7775C215.441 14.2571 215.091 10.7673 215.082 10.7314C215.072 10.627 215.103 10.5228 215.168 10.4407C215.233 10.3587 215.328 10.3053 215.432 10.2918C215.535 10.2836 215.637 10.314 215.718 10.377C215.8 10.4401 215.855 10.5313 215.872 10.6327C215.872 10.6327 216.429 14.4007 218.898 14.7685C218.981 14.7903 219.067 14.7884 219.148 14.763C219.229 14.7376 219.301 14.6897 219.356 14.625C220.254 13.6381 219.267 8.99991 218.458 6.31747C218.428 6.21753 218.438 6.10944 218.486 6.01693C218.535 5.92442 218.619 5.85504 218.719 5.82404C218.769 5.80894 218.822 5.80394 218.874 5.80933C218.926 5.81472 218.976 5.83039 219.022 5.85543C219.068 5.88047 219.109 5.91438 219.141 5.9552C219.174 5.99601 219.198 6.04291 219.213 6.09318C219.437 6.84678 221.368 13.5035 219.94 15.1453C219.833 15.2908 219.694 15.41 219.533 15.4939C219.373 15.5778 219.196 15.6243 219.015 15.6298Z" fill="#093269"/>
<path d="M16.514 137.99C15.1671 135.299 2.02078 112.7 0.000341323 98.22C0.000341323 98.22 -0.233131 126.435 11.5123 140.96C23.2578 155.484 16.514 137.99 16.514 137.99Z" fill="#ACCCF8"/>
<path d="M154.407 24.0807L149.881 26.0274V27.0143L155.996 25.22L154.407 24.0807Z" fill="#093269"/>
<path d="M149.881 27.4091C149.793 27.4098 149.708 27.3814 149.638 27.3284C149.59 27.2917 149.551 27.2442 149.524 27.1896C149.498 27.1351 149.484 27.075 149.485 27.0144V26.0275C149.484 25.9501 149.505 25.8739 149.547 25.8085C149.588 25.7431 149.648 25.6914 149.719 25.6597L154.209 23.7129C154.272 23.6865 154.34 23.6768 154.408 23.6846C154.475 23.6925 154.54 23.7177 154.595 23.7578L156.184 24.9061C156.243 24.9499 156.288 25.0092 156.315 25.0773C156.342 25.1455 156.35 25.2198 156.337 25.2919C156.326 25.3655 156.294 25.4343 156.244 25.49C156.195 25.5457 156.13 25.5859 156.059 25.6059L149.943 27.4002L149.881 27.4091ZM150.276 26.2877V26.4851L155.107 25.0676L154.361 24.5293L150.276 26.2877Z" fill="#093269"/>
<path d="M152.925 27.8397C152.242 26.9964 151.129 25.4533 149.881 26.0454C149.54 26.2053 149.249 26.453 149.037 26.7631C148.617 27.3995 148.399 28.1475 148.412 28.9094C148.425 29.6713 148.668 30.4116 149.108 31.0335C149.782 32.1819 151.802 33.8505 152.97 32.2805" fill="white"/>
<path d="M151.775 33.3122H151.658C151.053 33.1915 150.481 32.9434 149.979 32.5845C149.478 32.2257 149.058 31.7642 148.749 31.2308C148.272 30.533 148.017 29.7075 148.017 28.8624C148.017 28.0172 148.272 27.1918 148.749 26.4939C149.004 26.1291 149.351 25.8381 149.755 25.6506C151.227 24.9957 152.449 26.485 153.122 27.3731L153.284 27.5795C153.352 27.6647 153.385 27.7731 153.375 27.8819C153.365 27.9907 153.313 28.0913 153.23 28.1626C153.188 28.197 153.139 28.2227 153.087 28.2382C153.034 28.2537 152.979 28.2587 152.925 28.2528C152.871 28.247 152.818 28.2305 152.77 28.2042C152.722 28.1779 152.68 28.1425 152.646 28.0998L152.476 27.8845C151.685 26.8887 150.904 26.0364 150.087 26.3953C149.813 26.5313 149.578 26.7351 149.405 26.9874C149.036 27.5609 148.848 28.2319 148.865 28.9134C148.883 29.595 149.105 30.2554 149.503 30.8092C149.74 31.2292 150.062 31.5953 150.449 31.8842C150.835 32.173 151.278 32.3783 151.748 32.4868C151.926 32.4875 152.1 32.4444 152.257 32.3615C152.414 32.2785 152.547 32.1583 152.646 32.0113C152.714 31.9265 152.811 31.8714 152.919 31.858C153.026 31.8445 153.135 31.8738 153.221 31.9396C153.264 31.9721 153.3 32.0129 153.327 32.0596C153.354 32.1063 153.371 32.158 153.378 32.2115C153.385 32.265 153.381 32.3193 153.366 32.3712C153.351 32.4232 153.327 32.4716 153.293 32.5137C153.122 32.7577 152.895 32.9574 152.631 33.0963C152.367 33.2351 152.073 33.3092 151.775 33.3122Z" fill="#093269"/>
<path d="M157.364 25.8965C158.873 25.7361 159.996 24.6676 159.873 23.5097C159.75 22.3519 158.426 21.5432 156.917 21.7036C155.408 21.8639 154.285 22.9325 154.408 24.0903C154.531 25.2481 155.855 26.0568 157.364 25.8965Z" fill="white"/>
<path d="M156.992 26.3237C156.312 26.383 155.633 26.1926 155.082 25.7881C154.532 25.3836 154.148 24.7926 154.002 24.1257C153.849 22.7441 155.142 21.4343 156.875 21.2818C157.657 21.1913 158.448 21.3549 159.129 21.7483C159.442 21.922 159.709 22.1669 159.908 22.4631C160.108 22.7593 160.235 23.0984 160.279 23.4528C160.431 24.8344 159.138 26.1443 157.405 26.2968C157.268 26.3147 157.13 26.3237 156.992 26.3237ZM157.298 22.0802H156.956C155.681 22.2148 154.72 23.085 154.819 24.018C154.918 24.9511 156.031 25.597 157.324 25.4624C158.618 25.3279 159.569 24.4576 159.471 23.5246C159.434 23.2955 159.345 23.0778 159.211 22.8882C159.077 22.6985 158.902 22.5418 158.698 22.4301C158.272 22.1883 157.788 22.0673 157.298 22.0802Z" fill="#093269"/>
<path d="M162.988 25.6272C164.497 25.4669 165.62 24.3983 165.497 23.2404C165.374 22.0826 164.051 21.274 162.541 21.4343C161.032 21.5946 159.909 22.6632 160.032 23.821C160.155 24.9789 161.479 25.7875 162.988 25.6272Z" fill="white"/>
<path d="M162.632 26.0545C161.951 26.1138 161.272 25.9234 160.721 25.5189C160.171 25.1143 159.787 24.5234 159.641 23.8565C159.498 22.4749 160.791 21.165 162.515 21.0125C164.239 20.86 165.783 21.802 165.927 23.1836C166.071 24.5652 164.787 25.875 163.054 26.0186L162.632 26.0545ZM162.946 21.811H162.605C161.32 21.9456 160.36 22.8158 160.458 23.7488C160.557 24.6818 161.689 25.3278 162.964 25.1932C164.239 25.0586 165.209 24.1884 165.11 23.2554C164.982 22.7921 164.69 22.3907 164.289 22.1253C163.888 21.8598 163.405 21.7482 162.928 21.811H162.946Z" fill="#093269"/>
<path d="M50.1338 121.187C52.4201 121.187 54.2734 119.335 54.2734 117.051C54.2734 114.767 52.4201 112.915 50.1338 112.915C47.8475 112.915 45.9941 114.767 45.9941 117.051C45.9941 119.335 47.8475 121.187 50.1338 121.187Z" fill="white"/>
<path d="M50.1339 121.635C49.2242 121.637 48.3345 121.369 47.5772 120.866C46.8199 120.362 46.2293 119.645 45.8799 118.806C45.5305 117.967 45.4382 117.043 45.6146 116.151C45.791 115.26 46.2281 114.44 46.8708 113.797C47.5134 113.154 48.3326 112.716 49.2247 112.538C50.1168 112.36 51.0417 112.45 51.8823 112.797C52.7229 113.145 53.4415 113.734 53.9471 114.489C54.4527 115.245 54.7226 116.133 54.7226 117.042C54.7226 118.259 54.2394 119.426 53.3791 120.287C52.5189 121.148 51.3517 121.633 50.1339 121.635ZM50.1339 113.355C49.4015 113.353 48.6849 113.568 48.0752 113.974C47.4654 114.379 46.9898 114.957 46.7087 115.632C46.4275 116.308 46.3535 117.052 46.496 117.77C46.6384 118.488 46.991 119.147 47.5089 119.665C48.0269 120.182 48.6869 120.534 49.4054 120.677C50.1239 120.819 50.8685 120.745 51.5449 120.464C52.2213 120.183 52.799 119.708 53.2048 119.099C53.6107 118.49 53.8264 117.774 53.8246 117.042C53.8222 116.065 53.4326 115.128 52.741 114.437C52.0494 113.746 51.112 113.357 50.1339 113.355Z" fill="#ACCCF8"/>
<path d="M206.139 68.2289C207.285 68.2289 208.214 67.3011 208.214 66.1565C208.214 65.012 207.285 64.0842 206.139 64.0842C204.994 64.0842 204.065 65.012 204.065 66.1565C204.065 67.3011 204.994 68.2289 206.139 68.2289Z" fill="white"/>
<path d="M206.139 68.6775C205.639 68.6793 205.151 68.5329 204.734 68.257C204.318 67.9811 203.993 67.588 203.801 67.1275C203.609 66.667 203.557 66.1599 203.654 65.6702C203.75 65.1806 203.99 64.7306 204.342 64.3771C204.695 64.0237 205.144 63.7827 205.634 63.6847C206.124 63.5867 206.632 63.6361 207.093 63.8266C207.555 64.0172 207.949 64.3403 208.227 64.755C208.505 65.1698 208.653 65.6576 208.653 66.1565C208.653 66.8236 208.388 67.4634 207.917 67.936C207.446 68.4085 206.806 68.6751 206.139 68.6775ZM206.139 64.5327C205.817 64.5309 205.502 64.6247 205.233 64.802C204.965 64.9794 204.755 65.2323 204.631 65.5289C204.506 65.8254 204.473 66.1522 204.535 66.4678C204.596 66.7834 204.75 67.0735 204.977 67.3015C205.204 67.5295 205.494 67.6851 205.809 67.7485C206.125 67.8118 206.452 67.7802 206.75 67.6576C207.047 67.535 207.302 67.3268 207.481 67.0596C207.66 66.7924 207.755 66.4781 207.755 66.1565C207.755 65.7274 207.585 65.3158 207.282 65.0115C206.979 64.7072 206.568 64.5351 206.139 64.5327Z" fill="#ACCCF8"/>
<path d="M235.494 61.3479C237.78 61.3479 239.633 59.4963 239.633 57.2121C239.633 54.928 237.78 53.0763 235.494 53.0763C233.207 53.0763 231.354 54.928 231.354 57.2121C231.354 59.4963 233.207 61.3479 235.494 61.3479Z" fill="#ACCCF8"/>
<path d="M242.354 210.838C255.233 210.838 265.674 200.407 265.674 187.539C265.674 174.672 255.233 164.241 242.354 164.241C229.475 164.241 219.034 174.672 219.034 187.539C219.034 200.407 229.475 210.838 242.354 210.838Z" fill="white"/>
<path d="M242.363 211.287C237.934 211.286 233.592 210.05 229.829 207.716C226.066 205.383 223.03 202.045 221.064 198.079C219.098 194.114 218.28 189.679 218.703 185.273C219.125 180.868 220.772 176.669 223.456 173.149C226.14 169.629 229.755 166.928 233.894 165.351C238.032 163.774 242.529 163.384 246.878 164.224C251.227 165.065 255.254 167.103 258.505 170.108C261.757 173.113 264.103 176.966 265.279 181.232C266.249 184.758 266.392 188.459 265.696 192.048C265 195.638 263.484 199.018 261.267 201.926C259.049 204.835 256.19 207.192 252.911 208.816C249.632 210.439 246.022 211.285 242.363 211.287ZM242.363 164.68C237.575 164.679 232.908 166.178 229.018 168.966C225.128 171.755 222.212 175.692 220.68 180.223C219.148 184.755 219.077 189.653 220.477 194.226C221.878 198.8 224.679 202.82 228.487 205.719C232.294 208.619 236.916 210.252 241.702 210.389C246.488 210.526 251.195 209.16 255.163 206.483C259.13 203.805 262.157 199.952 263.817 195.466C265.478 190.98 265.687 186.086 264.417 181.475C263.082 176.651 260.202 172.397 256.218 169.364C252.233 166.331 247.363 164.686 242.354 164.68H242.363Z" fill="#ACCCF8"/>
<path d="M214.274 200.288C210.108 200.288 206.336 199.687 205.761 197.596C204.836 194.16 213.556 189.674 218.863 187.288C218.972 187.241 219.096 187.238 219.207 187.282C219.319 187.326 219.408 187.412 219.455 187.521C219.503 187.631 219.505 187.755 219.461 187.866C219.418 187.977 219.332 188.066 219.222 188.113C209.272 192.536 206.192 195.784 206.65 197.354C207.108 198.924 211.401 200.153 222.203 198.861C237.101 196.856 251.661 192.86 265.494 186.983C275.435 182.578 278.515 179.322 278.066 177.743C277.617 176.164 273.325 174.952 262.513 176.244C262.394 176.259 262.274 176.225 262.18 176.151C262.086 176.077 262.025 175.969 262.01 175.85C261.996 175.731 262.03 175.611 262.104 175.517C262.178 175.422 262.286 175.361 262.405 175.347C268.17 174.656 277.976 174.028 278.928 177.5C279.88 180.972 271.143 185.449 265.845 187.79C251.925 193.727 237.266 197.759 222.266 199.776C219.614 200.1 216.946 200.271 214.274 200.288Z" fill="#ACCCF8"/>
<path d="M194.959 181.412C194.84 181.412 194.725 181.365 194.641 181.28C194.557 181.196 194.51 181.082 194.51 180.963V175.679C194.51 175.56 194.557 175.446 194.641 175.362C194.725 175.278 194.84 175.231 194.959 175.231C195.078 175.231 195.192 175.278 195.276 175.362C195.36 175.446 195.408 175.56 195.408 175.679V180.963C195.408 181.082 195.36 181.196 195.276 181.28C195.192 181.365 195.078 181.412 194.959 181.412Z" fill="#ACCCF8"/>
<path d="M197.653 178.766H192.364C192.244 178.766 192.13 178.719 192.046 178.634C191.962 178.55 191.915 178.436 191.915 178.317C191.917 178.199 191.965 178.086 192.049 178.002C192.132 177.918 192.245 177.87 192.364 177.868H197.653C197.772 177.868 197.886 177.915 197.97 178C198.054 178.084 198.102 178.198 198.102 178.317C198.102 178.436 198.054 178.55 197.97 178.634C197.886 178.719 197.772 178.766 197.653 178.766Z" fill="#ACCCF8"/>
<path d="M256.165 74.3922C256.046 74.3922 255.932 74.345 255.847 74.2608C255.763 74.1767 255.716 74.0626 255.716 73.9437V68.6595C255.716 68.5405 255.763 68.4264 255.847 68.3423C255.932 68.2582 256.046 68.2109 256.165 68.2109C256.284 68.2109 256.398 68.2582 256.482 68.3423C256.566 68.4264 256.614 68.5405 256.614 68.6595V73.9437C256.614 74.0626 256.566 74.1767 256.482 74.2608C256.398 74.345 256.284 74.3922 256.165 74.3922Z" fill="#ACCCF8"/>
<path d="M258.814 71.7555H253.525C253.406 71.7555 253.291 71.7082 253.207 71.624C253.123 71.5398 253.076 71.4256 253.076 71.3065C253.076 71.1874 253.123 71.0732 253.207 70.989C253.291 70.9048 253.406 70.8575 253.525 70.8575H258.814C258.933 70.8575 259.047 70.9048 259.131 70.989C259.215 71.0732 259.263 71.1874 259.263 71.3065C259.26 71.4249 259.212 71.5377 259.129 71.6215C259.045 71.7052 258.932 71.7532 258.814 71.7555Z" fill="#ACCCF8"/>
<path d="M33.1531 190.222C33.034 190.222 32.9198 190.174 32.8356 190.09C32.7514 190.006 32.7041 189.892 32.7041 189.773V184.489C32.7041 184.37 32.7514 184.256 32.8356 184.172C32.9198 184.088 33.034 184.04 33.1531 184.04C33.2722 184.04 33.3864 184.088 33.4706 184.172C33.5548 184.256 33.6021 184.37 33.6021 184.489V189.773C33.6021 189.892 33.5548 190.006 33.4706 190.09C33.3864 190.174 33.2722 190.222 33.1531 190.222Z" fill="#ACCCF8"/>
<path d="M35.7932 187.585H30.5042C30.3858 187.583 30.2729 187.535 30.1892 187.451C30.1055 187.367 30.0575 187.254 30.0552 187.136C30.0552 187.017 30.1025 186.903 30.1867 186.819C30.2709 186.734 30.3851 186.687 30.5042 186.687H35.7932C35.9123 186.687 36.0265 186.734 36.1107 186.819C36.1949 186.903 36.2422 187.017 36.2422 187.136C36.2422 187.255 36.1949 187.369 36.1107 187.454C36.0265 187.538 35.9123 187.585 35.7932 187.585Z" fill="#ACCCF8"/>
<path d="M86.4661 77.0388C86.347 77.0388 86.2328 76.9915 86.1486 76.9074C86.0644 76.8233 86.0171 76.7092 86.0171 76.5902V71.3061C86.0171 71.1871 86.0644 71.073 86.1486 70.9889C86.2328 70.9048 86.347 70.8575 86.4661 70.8575C86.5851 70.8575 86.6994 70.9048 86.7836 70.9889C86.8678 71.073 86.9151 71.1871 86.9151 71.3061V76.6351C86.9039 76.7461 86.8517 76.849 86.7687 76.9237C86.6857 76.9983 86.5778 77.0394 86.4661 77.0388Z" fill="#ACCCF8"/>
<path d="M89.1057 74.3929H83.8167C83.6976 74.3929 83.5834 74.3456 83.4992 74.2614C83.415 74.1772 83.3677 74.063 83.3677 73.9439C83.3677 73.8249 83.415 73.7107 83.4992 73.6265C83.5834 73.5423 83.6976 73.495 83.8167 73.495H89.1057C89.2248 73.495 89.339 73.5423 89.4232 73.6265C89.5074 73.7107 89.5547 73.8249 89.5547 73.9439C89.5547 74.063 89.5074 74.1772 89.4232 74.2614C89.339 74.3456 89.2248 74.3929 89.1057 74.3929Z" fill="#ACCCF8"/>
</svg>
