<svg width="278" height="52" viewBox="0 0 278 52" fill="none" xmlns="http://www.w3.org/2000/svg">
<rect x="0.25" y="0.25" width="277.5" height="51.5" rx="25.75" fill="#2F80ED"/>
<path d="M55.2638 31.65C54.1638 31.65 53.2188 31.43 52.4288 30.99C51.6488 30.54 51.0488 29.91 50.6288 29.1C50.2088 28.28 49.9988 27.315 49.9988 26.205C49.9988 25.095 50.2088 24.135 50.6288 23.325C51.0488 22.515 51.6488 21.89 52.4288 21.45C53.2188 21 54.1638 20.775 55.2638 20.775C56.0038 20.775 56.6688 20.88 57.2588 21.09C57.8588 21.3 58.3738 21.61 58.8038 22.02L58.1738 23.55C57.7038 23.17 57.2488 22.9 56.8088 22.74C56.3788 22.57 55.8838 22.485 55.3238 22.485C54.2538 22.485 53.4338 22.81 52.8638 23.46C52.3038 24.1 52.0238 25.015 52.0238 26.205C52.0238 27.395 52.3038 28.315 52.8638 28.965C53.4338 29.615 54.2538 29.94 55.3238 29.94C55.8838 29.94 56.3788 29.86 56.8088 29.7C57.2488 29.53 57.7038 29.25 58.1738 28.86L58.8038 30.39C58.3738 30.79 57.8588 31.1 57.2588 31.32C56.6688 31.54 56.0038 31.65 55.2638 31.65ZM66.2724 31.65C64.7624 31.65 63.6374 31.275 62.8974 30.525C62.1674 29.765 61.8024 28.645 61.8024 27.165V20.925H63.7374V27.15C63.7374 28.09 63.9374 28.8 64.3374 29.28C64.7474 29.76 65.3924 30 66.2724 30C67.1124 30 67.7424 29.76 68.1624 29.28C68.5924 28.8 68.8074 28.09 68.8074 27.15V20.925H70.7124V27.165C70.7124 28.645 70.3374 29.765 69.5874 30.525C68.8474 31.275 67.7424 31.65 66.2724 31.65ZM77.9059 31.65C77.0559 31.65 76.2709 31.545 75.5509 31.335C74.8409 31.115 74.2309 30.815 73.7209 30.435L74.3209 28.92C74.6609 29.16 75.0159 29.365 75.3859 29.535C75.7559 29.695 76.1509 29.82 76.5709 29.91C76.9909 29.99 77.4359 30.03 77.9059 30.03C78.6959 30.03 79.2659 29.9 79.6159 29.64C79.9659 29.38 80.1409 29.04 80.1409 28.62C80.1409 28.25 80.0209 27.97 79.7809 27.78C79.5409 27.58 79.1109 27.415 78.4909 27.285L76.7959 26.94C75.8259 26.74 75.1009 26.405 74.6209 25.935C74.1409 25.465 73.9009 24.835 73.9009 24.045C73.9009 23.385 74.0759 22.81 74.4259 22.32C74.7759 21.83 75.2659 21.45 75.8959 21.18C76.5259 20.91 77.2609 20.775 78.1009 20.775C78.8509 20.775 79.5459 20.885 80.1859 21.105C80.8259 21.315 81.3609 21.62 81.7909 22.02L81.1909 23.46C80.7609 23.1 80.2909 22.835 79.7809 22.665C79.2709 22.485 78.7009 22.395 78.0709 22.395C77.3609 22.395 76.8059 22.535 76.4059 22.815C76.0159 23.085 75.8209 23.46 75.8209 23.94C75.8209 24.31 75.9409 24.605 76.1809 24.825C76.4309 25.045 76.8509 25.215 77.4409 25.335L79.1209 25.665C80.1209 25.865 80.8609 26.195 81.3409 26.655C81.8209 27.105 82.0609 27.715 82.0609 28.485C82.0609 29.115 81.8909 29.67 81.5509 30.15C81.2109 30.62 80.7309 30.99 80.1109 31.26C79.4909 31.52 78.7559 31.65 77.9059 31.65ZM87.4041 31.5V22.515H83.9091V20.925H92.8341V22.515H89.3391V31.5H87.4041ZM94.4617 26.205C94.4617 25.095 94.6617 24.135 95.0617 23.325C95.4717 22.515 96.0567 21.89 96.8167 21.45C97.5767 21 98.4817 20.775 99.5317 20.775C100.572 20.775 101.472 21 102.232 21.45C102.992 21.89 103.577 22.515 103.987 23.325C104.407 24.135 104.617 25.09 104.617 26.19C104.617 27.3 104.407 28.265 103.987 29.085C103.577 29.895 102.992 30.525 102.232 30.975C101.472 31.425 100.572 31.65 99.5317 31.65C98.4817 31.65 97.5767 31.425 96.8167 30.975C96.0667 30.525 95.4867 29.895 95.0767 29.085C94.6667 28.265 94.4617 27.305 94.4617 26.205ZM96.4867 26.205C96.4867 27.395 96.7417 28.325 97.2517 28.995C97.7617 29.665 98.5217 30 99.5317 30C100.512 30 101.267 29.665 101.797 28.995C102.327 28.325 102.592 27.395 102.592 26.205C102.592 25.005 102.327 24.075 101.797 23.415C101.277 22.755 100.522 22.425 99.5317 22.425C98.5217 22.425 97.7617 22.755 97.2517 23.415C96.7417 24.075 96.4867 25.005 96.4867 26.205ZM107.878 31.5V20.925H109.573L113.458 29.67H112.993L116.878 20.925H118.558V31.5H116.803V23.655H117.343L113.788 31.5H112.633L109.078 23.655H109.633V31.5H107.878ZM122.165 31.5V20.925H129.29V22.44H124.025V25.365H128.945V26.895H124.025V29.97H129.29V31.5H122.165ZM132.336 31.5V20.925H136.956C138.116 20.925 139.011 21.2 139.641 21.75C140.281 22.3 140.601 23.065 140.601 24.045C140.601 24.695 140.456 25.25 140.166 25.71C139.886 26.17 139.481 26.525 138.951 26.775C138.421 27.015 137.796 27.135 137.076 27.135L137.286 26.85H137.796C138.216 26.85 138.591 26.96 138.921 27.18C139.251 27.4 139.521 27.735 139.731 28.185L141.276 31.5H139.146L137.586 28.065C137.446 27.715 137.231 27.485 136.941 27.375C136.661 27.265 136.321 27.21 135.921 27.21H134.271V31.5H132.336ZM134.271 25.785H136.641C137.321 25.785 137.836 25.645 138.186 25.365C138.546 25.075 138.726 24.655 138.726 24.105C138.726 23.555 138.546 23.14 138.186 22.86C137.836 22.58 137.321 22.44 136.641 22.44H134.271V25.785ZM153.174 31.65C152.324 31.65 151.539 31.545 150.819 31.335C150.109 31.115 149.499 30.815 148.989 30.435L149.589 28.92C149.929 29.16 150.284 29.365 150.654 29.535C151.024 29.695 151.419 29.82 151.839 29.91C152.259 29.99 152.704 30.03 153.174 30.03C153.964 30.03 154.534 29.9 154.884 29.64C155.234 29.38 155.409 29.04 155.409 28.62C155.409 28.25 155.289 27.97 155.049 27.78C154.809 27.58 154.379 27.415 153.759 27.285L152.064 26.94C151.094 26.74 150.369 26.405 149.889 25.935C149.409 25.465 149.169 24.835 149.169 24.045C149.169 23.385 149.344 22.81 149.694 22.32C150.044 21.83 150.534 21.45 151.164 21.18C151.794 20.91 152.529 20.775 153.369 20.775C154.119 20.775 154.814 20.885 155.454 21.105C156.094 21.315 156.629 21.62 157.059 22.02L156.459 23.46C156.029 23.1 155.559 22.835 155.049 22.665C154.539 22.485 153.969 22.395 153.339 22.395C152.629 22.395 152.074 22.535 151.674 22.815C151.284 23.085 151.089 23.46 151.089 23.94C151.089 24.31 151.209 24.605 151.449 24.825C151.699 25.045 152.119 25.215 152.709 25.335L154.389 25.665C155.389 25.865 156.129 26.195 156.609 26.655C157.089 27.105 157.329 27.715 157.329 28.485C157.329 29.115 157.159 29.67 156.819 30.15C156.479 30.62 155.999 30.99 155.379 31.26C154.759 31.52 154.024 31.65 153.174 31.65ZM164.812 31.65C163.302 31.65 162.177 31.275 161.437 30.525C160.707 29.765 160.342 28.645 160.342 27.165V20.925H162.277V27.15C162.277 28.09 162.477 28.8 162.877 29.28C163.287 29.76 163.932 30 164.812 30C165.652 30 166.282 29.76 166.702 29.28C167.132 28.8 167.347 28.09 167.347 27.15V20.925H169.252V27.165C169.252 28.645 168.877 29.765 168.127 30.525C167.387 31.275 166.282 31.65 164.812 31.65ZM172.756 31.5V20.925H177.451C178.611 20.925 179.496 21.205 180.106 21.765C180.716 22.325 181.021 23.095 181.021 24.075C181.021 25.045 180.716 25.815 180.106 26.385C179.496 26.955 178.611 27.24 177.451 27.24H174.691V31.5H172.756ZM174.691 25.71H177.226C177.866 25.71 178.346 25.57 178.666 25.29C178.986 25 179.146 24.595 179.146 24.075C179.146 23.555 178.986 23.155 178.666 22.875C178.346 22.585 177.866 22.44 177.226 22.44H174.691V25.71ZM183.996 31.5V20.925H188.691C189.851 20.925 190.736 21.205 191.346 21.765C191.956 22.325 192.261 23.095 192.261 24.075C192.261 25.045 191.956 25.815 191.346 26.385C190.736 26.955 189.851 27.24 188.691 27.24H185.931V31.5H183.996ZM185.931 25.71H188.466C189.106 25.71 189.586 25.57 189.906 25.29C190.226 25 190.386 24.595 190.386 24.075C190.386 23.555 190.226 23.155 189.906 22.875C189.586 22.585 189.106 22.44 188.466 22.44H185.931V25.71ZM194.818 26.205C194.818 25.095 195.018 24.135 195.418 23.325C195.828 22.515 196.413 21.89 197.173 21.45C197.933 21 198.838 20.775 199.888 20.775C200.928 20.775 201.828 21 202.588 21.45C203.348 21.89 203.933 22.515 204.343 23.325C204.763 24.135 204.973 25.09 204.973 26.19C204.973 27.3 204.763 28.265 204.343 29.085C203.933 29.895 203.348 30.525 202.588 30.975C201.828 31.425 200.928 31.65 199.888 31.65C198.838 31.65 197.933 31.425 197.173 30.975C196.423 30.525 195.843 29.895 195.433 29.085C195.023 28.265 194.818 27.305 194.818 26.205ZM196.843 26.205C196.843 27.395 197.098 28.325 197.608 28.995C198.118 29.665 198.878 30 199.888 30C200.868 30 201.623 29.665 202.153 28.995C202.683 28.325 202.948 27.395 202.948 26.205C202.948 25.005 202.683 24.075 202.153 23.415C201.633 22.755 200.878 22.425 199.888 22.425C198.878 22.425 198.118 22.755 197.608 23.415C197.098 24.075 196.843 25.005 196.843 26.205ZM208.22 31.5V20.925H212.84C214 20.925 214.895 21.2 215.525 21.75C216.165 22.3 216.485 23.065 216.485 24.045C216.485 24.695 216.34 25.25 216.05 25.71C215.77 26.17 215.365 26.525 214.835 26.775C214.305 27.015 213.68 27.135 212.96 27.135L213.17 26.85H213.68C214.1 26.85 214.475 26.96 214.805 27.18C215.135 27.4 215.405 27.735 215.615 28.185L217.16 31.5H215.03L213.47 28.065C213.33 27.715 213.115 27.485 212.825 27.375C212.545 27.265 212.205 27.21 211.805 27.21H210.155V31.5H208.22ZM210.155 25.785H212.525C213.205 25.785 213.72 25.645 214.07 25.365C214.43 25.075 214.61 24.655 214.61 24.105C214.61 23.555 214.43 23.14 214.07 22.86C213.72 22.58 213.205 22.44 212.525 22.44H210.155V25.785ZM222.199 31.5V22.515H218.704V20.925H227.629V22.515H224.134V31.5H222.199Z" fill="white"/>
<rect x="0.25" y="0.25" width="277.5" height="51.5" rx="25.75" stroke="#323F4B" stroke-width="0.5"/>
</svg>
