<svg width="278" height="52" viewBox="0 0 278 52" fill="none" xmlns="http://www.w3.org/2000/svg">
<rect x="0.25" y="0.25" width="277.5" height="51.5" rx="25.75" fill="#2F80ED"/>
<path d="M97.1724 31.5L101.957 20.925H103.577L108.422 31.5H106.457L105.167 28.53L105.947 29.055H99.6024L100.412 28.53L99.1224 31.5H97.1724ZM102.752 22.995L100.637 28.005L100.247 27.54H105.287L104.972 28.005L102.812 22.995H102.752ZM115.543 31.65C114.443 31.65 113.498 31.43 112.708 30.99C111.928 30.54 111.328 29.91 110.908 29.1C110.488 28.28 110.278 27.315 110.278 26.205C110.278 25.095 110.488 24.135 110.908 23.325C111.328 22.515 111.928 21.89 112.708 21.45C113.498 21 114.443 20.775 115.543 20.775C116.283 20.775 116.948 20.88 117.538 21.09C118.138 21.3 118.653 21.61 119.083 22.02L118.453 23.55C117.983 23.17 117.528 22.9 117.088 22.74C116.658 22.57 116.163 22.485 115.603 22.485C114.533 22.485 113.713 22.81 113.143 23.46C112.583 24.1 112.303 25.015 112.303 26.205C112.303 27.395 112.583 28.315 113.143 28.965C113.713 29.615 114.533 29.94 115.603 29.94C116.163 29.94 116.658 29.86 117.088 29.7C117.528 29.53 117.983 29.25 118.453 28.86L119.083 30.39C118.653 30.79 118.138 31.1 117.538 31.32C116.948 31.54 116.283 31.65 115.543 31.65ZM124.485 31.5V22.515H120.99V20.925H129.915V22.515H126.42V31.5H124.485ZM132.532 31.5V20.925H134.467V31.5H132.532ZM141.465 31.5L136.755 20.925H138.84L142.635 29.805H142.005L145.8 20.925H147.81L143.1 31.5H141.465ZM148.042 31.5L152.827 20.925H154.447L159.292 31.5H157.327L156.037 28.53L156.817 29.055H150.472L151.282 28.53L149.992 31.5H148.042ZM153.622 22.995L151.507 28.005L151.117 27.54H156.157L155.842 28.005L153.682 22.995H153.622ZM163.03 31.5V22.515H159.535V20.925H168.46V22.515H164.965V31.5H163.03ZM171.077 31.5V20.925H178.202V22.44H172.937V25.365H177.857V26.895H172.937V29.97H178.202V31.5H171.077Z" fill="white"/>
<rect x="0.25" y="0.25" width="277.5" height="51.5" rx="25.75" stroke="#323F4B" stroke-width="0.5"/>
</svg>
