<svg width="200" height="200" viewBox="0 0 200 200" fill="none" xmlns="http://www.w3.org/2000/svg">
<path fill-rule="evenodd" clip-rule="evenodd" d="M100 200C155.228 200 200 155.228 200 100C200 44.7715 155.228 0 100 0C44.7715 0 0 44.7715 0 100C0 155.228 44.7715 200 100 200Z" fill="#E02B2B"/>
<path d="M63.3085 100V74.62H80.4085V78.256H67.7725V85.276H79.5805V88.948H67.7725V96.328H80.4085V100H63.3085ZM85.9686 100V74.62H89.4606L104.185 93.664H103.249V74.62H107.569V100H104.077L89.3886 80.956H90.2886V100H85.9686ZM114.394 100V74.62H123.61C126.514 74.62 128.962 75.124 130.954 76.132C132.97 77.116 134.494 78.556 135.526 80.452C136.558 82.324 137.074 84.604 137.074 87.292C137.074 89.956 136.558 92.236 135.526 94.132C134.494 96.028 132.97 97.48 130.954 98.488C128.962 99.496 126.514 100 123.61 100H114.394ZM119.038 96.148H123.322C126.394 96.148 128.674 95.416 130.162 93.952C131.65 92.488 132.394 90.268 132.394 87.292C132.394 84.292 131.65 82.072 130.162 80.632C128.674 79.168 126.394 78.436 123.322 78.436H119.038V96.148ZM64.0364 136V114.436H55.6484V110.62H77.0684V114.436H68.6804V136H64.0364ZM81.5995 136V110.62H86.2435V136H81.5995ZM93.116 136V110.62H97.184L106.508 131.608H105.392L114.716 110.62H118.748V136H114.536V117.172H115.832L107.3 136H104.528L95.996 117.172H97.328V136H93.116ZM125.654 136V110.62H142.754V114.256H130.118V121.276H141.926V124.948H130.118V132.328H142.754V136H125.654Z" fill="white"/>
</svg>
