<svg width="114" height="82" viewBox="0 0 114 82" fill="none" xmlns="http://www.w3.org/2000/svg">
<rect x="2" y="2" width="110" height="78" rx="39" fill="#2F80ED" fill-opacity="0.17"/>
<rect x="2" y="2" width="110" height="78" rx="39" stroke="#2F80ED" stroke-width="4"/>
<path fill-rule="evenodd" clip-rule="evenodd" d="M80 56C80 58.2091 78.2091 60 76 60H40C37.7909 60 36 58.2091 36 56V34C36 31.7909 37.7909 30 40 30H48L52 24H64L68 30H76C78.2091 30 80 31.7909 80 34V56Z" stroke="#2F80ED" stroke-width="5" stroke-linecap="round" stroke-linejoin="round"/>
<path fill-rule="evenodd" clip-rule="evenodd" d="M58 52C62.4183 52 66 48.4183 66 44C66 39.5817 62.4183 36 58 36C53.5817 36 50 39.5817 50 44C50 48.4183 53.5817 52 58 52Z" stroke="#2F80ED" stroke-width="5" stroke-linecap="round" stroke-linejoin="round"/>
</svg>
