<svg width="211" height="118" viewBox="0 0 211 118" fill="none" xmlns="http://www.w3.org/2000/svg">
<rect x="2" y="2" width="207" height="114" rx="57" fill="#2F80ED" fill-opacity="0.17"/>
<rect x="2" y="2" width="207" height="114" rx="57" stroke="#2F80ED" stroke-width="4"/>
<path fill-rule="evenodd" clip-rule="evenodd" d="M128 93C128 95.2091 126.209 97 124 97H88C85.7909 97 84 95.2091 84 93V71C84 68.7909 85.7909 67 88 67H96L100 61H112L116 67H124C126.209 67 128 68.7909 128 71V93Z" stroke="#2F80ED" stroke-width="5" stroke-linecap="round" stroke-linejoin="round"/>
<path fill-rule="evenodd" clip-rule="evenodd" d="M106 89C110.418 89 114 85.4183 114 81C114 76.5817 110.418 73 106 73C101.582 73 98 76.5817 98 81C98 85.4183 101.582 89 106 89Z" stroke="#2F80ED" stroke-width="5" stroke-linecap="round" stroke-linejoin="round"/>
<path d="M56.446 44V26.03H49.456V22.85H67.306V26.03H60.316V44H56.446ZM66.6064 44L76.1764 22.85H79.4164L89.1064 44H85.1764L82.5964 38.06L84.1564 39.11H71.4664L73.0864 38.06L70.5064 44H66.6064ZM77.7664 26.99L73.5364 37.01L72.7564 36.08H82.8364L82.2064 37.01L77.8864 26.99H77.7664ZM92.6964 44V22.85H96.5664V32.21H96.6264L105.836 22.85H110.516L99.4764 33.86L99.5064 32.18L111.236 44H106.406L96.6264 34.22H96.5664V44H92.6964ZM113.927 44V22.85H128.177V25.88H117.647V31.73H127.487V34.79H117.647V40.94H128.177V44H113.927ZM142.501 44V22.85H151.771C154.071 22.85 155.841 23.34 157.081 24.32C158.321 25.28 158.941 26.62 158.941 28.34C158.941 29.62 158.561 30.7 157.801 31.58C157.041 32.46 155.991 33.05 154.651 33.35V32.9C156.191 33.12 157.381 33.68 158.221 34.58C159.081 35.46 159.511 36.63 159.511 38.09C159.511 39.97 158.861 41.43 157.561 42.47C156.261 43.49 154.451 44 152.131 44H142.501ZM146.221 41.06H151.681C152.981 41.06 153.991 40.82 154.711 40.34C155.431 39.84 155.791 39.03 155.791 37.91C155.791 36.77 155.431 35.96 154.711 35.48C153.991 34.98 152.981 34.73 151.681 34.73H146.221V41.06ZM146.221 31.82H151.111C152.491 31.82 153.511 31.57 154.171 31.07C154.851 30.55 155.191 29.79 155.191 28.79C155.191 27.79 154.851 27.04 154.171 26.54C153.511 26.02 152.491 25.76 151.111 25.76H146.221V31.82Z" fill="#2F80ED"/>
</svg>
