<svg width="211" height="118" viewBox="0 0 211 118" fill="none" xmlns="http://www.w3.org/2000/svg">
<rect x="2" y="2" width="207" height="114" rx="57" fill="#2F80ED" fill-opacity="0.17"/>
<rect x="2" y="2" width="207" height="114" rx="57" stroke="#2F80ED" stroke-width="4"/>
<path d="M55.4222 44L46.0022 22.85H50.1722L57.7622 40.61H56.5022L64.0922 22.85H68.1122L58.6922 44H55.4222ZM71.4533 44V22.85H75.3233V44H71.4533ZM81.2287 44V22.85H95.4787V25.88H84.9487V31.73H94.7887V34.79H84.9487V40.94H95.4787V44H81.2287ZM106.113 44L98.6426 22.85H102.663L108.423 40.19H107.223L113.433 22.85H116.313L122.073 40.19H120.963L126.993 22.85H130.773L123.243 44H120.033L114.453 27.74H115.113L109.323 44H106.113ZM142.258 44L151.828 22.85H155.068L164.758 44H160.828L158.248 38.06L159.808 39.11H147.118L148.738 38.06L146.158 44H142.258ZM153.418 26.99L149.188 37.01L148.408 36.08H158.488L157.858 37.01L153.538 26.99H153.418Z" fill="#2F80ED"/>
<path fill-rule="evenodd" clip-rule="evenodd" d="M78.5 79C78.5 79 88.5 59 106 59C123.5 59 133.5 79 133.5 79C133.5 79 123.5 99 106 99C88.5 99 78.5 79 78.5 79Z" stroke="#2F80ED" stroke-width="5" stroke-linecap="round" stroke-linejoin="round"/>
<path fill-rule="evenodd" clip-rule="evenodd" d="M106 86.5C110.142 86.5 113.5 83.1421 113.5 79C113.5 74.8579 110.142 71.5 106 71.5C101.858 71.5 98.5 74.8579 98.5 79C98.5 83.1421 101.858 86.5 106 86.5Z" stroke="#2F80ED" stroke-width="5" stroke-linecap="round" stroke-linejoin="round"/>
</svg>
