<svg width="160" height="52" viewBox="0 0 160 52" fill="none" xmlns="http://www.w3.org/2000/svg">
<rect x="0.25" y="0.25" width="159.5" height="51.5" rx="25.75" fill="#2F80ED"/>
<path d="M46.232 31.5V20.925H50.852C52.012 20.925 52.907 21.2 53.537 21.75C54.177 22.3 54.497 23.065 54.497 24.045C54.497 24.695 54.352 25.25 54.062 25.71C53.782 26.17 53.377 26.525 52.847 26.775C52.317 27.015 51.692 27.135 50.972 27.135L51.182 26.85H51.692C52.112 26.85 52.487 26.96 52.817 27.18C53.147 27.4 53.417 27.735 53.627 28.185L55.172 31.5H53.042L51.482 28.065C51.342 27.715 51.127 27.485 50.837 27.375C50.557 27.265 50.217 27.21 49.817 27.21H48.167V31.5H46.232ZM48.167 25.785H50.537C51.217 25.785 51.732 25.645 52.082 25.365C52.442 25.075 52.622 24.655 52.622 24.105C52.622 23.555 52.442 23.14 52.082 22.86C51.732 22.58 51.217 22.44 50.537 22.44H48.167V25.785ZM58.0142 31.5V20.925H65.1392V22.44H59.8742V25.365H64.7942V26.895H59.8742V29.97H65.1392V31.5H58.0142ZM70.6019 31.5V22.515H67.1069V20.925H76.0319V22.515H72.5369V31.5H70.6019ZM83.059 31.65C81.549 31.65 80.424 31.275 79.684 30.525C78.954 29.765 78.589 28.645 78.589 27.165V20.925H80.524V27.15C80.524 28.09 80.724 28.8 81.124 29.28C81.534 29.76 82.179 30 83.059 30C83.899 30 84.529 29.76 84.949 29.28C85.379 28.8 85.594 28.09 85.594 27.15V20.925H87.499V27.165C87.499 28.645 87.124 29.765 86.374 30.525C85.634 31.275 84.529 31.65 83.059 31.65ZM91.0025 31.5V20.925H95.6225C96.7825 20.925 97.6775 21.2 98.3075 21.75C98.9475 22.3 99.2675 23.065 99.2675 24.045C99.2675 24.695 99.1225 25.25 98.8325 25.71C98.5525 26.17 98.1475 26.525 97.6175 26.775C97.0875 27.015 96.4625 27.135 95.7425 27.135L95.9525 26.85H96.4625C96.8825 26.85 97.2575 26.96 97.5875 27.18C97.9175 27.4 98.1875 27.735 98.3975 28.185L99.9425 31.5H97.8125L96.2525 28.065C96.1125 27.715 95.8975 27.485 95.6075 27.375C95.3275 27.265 94.9875 27.21 94.5875 27.21H92.9375V31.5H91.0025ZM92.9375 25.785H95.3075C95.9875 25.785 96.5025 25.645 96.8525 25.365C97.2125 25.075 97.3925 24.655 97.3925 24.105C97.3925 23.555 97.2125 23.14 96.8525 22.86C96.5025 22.58 95.9875 22.44 95.3075 22.44H92.9375V25.785ZM102.785 31.5V20.925H104.24L110.375 28.86H109.985V20.925H111.785V31.5H110.33L104.21 23.565H104.585V31.5H102.785Z" fill="white"/>
<rect x="0.25" y="0.25" width="159.5" height="51.5" rx="25.75" stroke="#323F4B" stroke-width="0.5"/>
</svg>
