<svg width="147" height="52" viewBox="0 0 147 52" fill="none" xmlns="http://www.w3.org/2000/svg">
<rect x="0.25" y="0.25" width="146.5" height="51.5" rx="25.75" fill="#2F80ED"/>
<path d="M48.5108 31.5V20.925H50.4458V29.865H55.4258V31.5H48.5108ZM57.2381 26.205C57.2381 25.095 57.4381 24.135 57.8381 23.325C58.2481 22.515 58.8331 21.89 59.5931 21.45C60.3531 21 61.2581 20.775 62.3081 20.775C63.3481 20.775 64.2481 21 65.0081 21.45C65.7681 21.89 66.3531 22.515 66.7631 23.325C67.1831 24.135 67.3931 25.09 67.3931 26.19C67.3931 27.3 67.1831 28.265 66.7631 29.085C66.3531 29.895 65.7681 30.525 65.0081 30.975C64.2481 31.425 63.3481 31.65 62.3081 31.65C61.2581 31.65 60.3531 31.425 59.5931 30.975C58.8431 30.525 58.2631 29.895 57.8531 29.085C57.4431 28.265 57.2381 27.305 57.2381 26.205ZM59.2631 26.205C59.2631 27.395 59.5181 28.325 60.0281 28.995C60.5381 29.665 61.2981 30 62.3081 30C63.2881 30 64.0431 29.665 64.5731 28.995C65.1031 28.325 65.3681 27.395 65.3681 26.205C65.3681 25.005 65.1031 24.075 64.5731 23.415C64.0531 22.755 63.2981 22.425 62.3081 22.425C61.2981 22.425 60.5381 22.755 60.0281 23.415C59.5181 24.075 59.2631 25.005 59.2631 26.205ZM75.7397 31.65C74.5497 31.65 73.5497 31.43 72.7397 30.99C71.9297 30.55 71.3197 29.925 70.9097 29.115C70.4997 28.305 70.2947 27.345 70.2947 26.235C70.2947 25.115 70.5147 24.15 70.9547 23.34C71.3947 22.52 72.0247 21.89 72.8447 21.45C73.6747 21 74.6697 20.775 75.8297 20.775C76.5997 20.775 77.2747 20.88 77.8547 21.09C78.4347 21.29 78.9447 21.585 79.3847 21.975L78.7397 23.475C78.4197 23.225 78.1147 23.025 77.8247 22.875C77.5347 22.725 77.2347 22.62 76.9247 22.56C76.6147 22.49 76.2547 22.455 75.8447 22.455C74.6847 22.455 73.8047 22.785 73.2047 23.445C72.6147 24.095 72.3197 25.03 72.3197 26.25C72.3197 27.47 72.5997 28.4 73.1597 29.04C73.7297 29.68 74.6197 30 75.8297 30C76.2397 30 76.6497 29.96 77.0597 29.88C77.4797 29.8 77.8897 29.685 78.2897 29.535L77.9297 30.345V27.18H75.4547V25.77H79.5347V30.855C79.0447 31.105 78.4597 31.3 77.7797 31.44C77.0997 31.58 76.4197 31.65 75.7397 31.65ZM82.9932 31.5V20.925H84.9282V31.5H82.9932ZM88.5059 31.5V20.925H89.9609L96.0959 28.86H95.7059V20.925H97.5059V31.5H96.0509L89.9309 23.565H90.3059V31.5H88.5059Z" fill="white"/>
<rect x="0.25" y="0.25" width="146.5" height="51.5" rx="25.75" stroke="#323F4B" stroke-width="0.5"/>
</svg>
