<?xml version="1.0" encoding="UTF-8"?>
<!--Generator: CustomSymbols by @serious_bret-->
<!DOCTYPE svg
PUBLIC "-//W3C//DTD SVG 1.1//EN"
       "http://www.w3.org/Graphics/SVG/1.1/DTD/svg11.dtd">
<svg version="1.1" xmlns="http://www.w3.org/2000/svg" xmlns:xlink="http://www.w3.org/1999/xlink" width="3300" height="2200">
 <g id="Notes">
  <rect height="2200" id="artboard" style="fill:white;opacity:1" width="3300" x="0" y="0"/>
  <line id="" style="fill:none;stroke:black;opacity:1;stroke-width:0.5;" x1="263" x2="3036" y1="292" y2="292"/>
  <text id="reftext1" style="stroke:none;fill:black;font-family:-apple-system,&quot;SF Pro Display&quot;,&quot;SF Pro Text&quot;,Helvetica,sans-serif;font-weight:bold;" transform="matrix(1 0 0 1 263 322)">Weight/Scale Variations</text>
  <text id="reftext2" style="stroke:none;fill:black;font-family:-apple-system,&quot;SF Pro Display&quot;,&quot;SF Pro Text&quot;,Helvetica,sans-serif;text-anchor:middle;" transform="matrix(1 0 0 1 559.711 322)">Ultralight</text>
  <text style="stroke:none;fill:black;font-family:-apple-system,&quot;SF Pro Display&quot;,&quot;SF Pro Text&quot;,Helvetica,sans-serif;text-anchor:middle;" transform="matrix(1 0 0 1 856.422 322)">Thin</text>
  <text style="stroke:none;fill:black;font-family:-apple-system,&quot;SF Pro Display&quot;,&quot;SF Pro Text&quot;,Helvetica,sans-serif;text-anchor:middle;" transform="matrix(1 0 0 1 1153.13 322)">Light</text>
  <text style="stroke:none;fill:black;font-family:-apple-system,&quot;SF Pro Display&quot;,&quot;SF Pro Text&quot;,Helvetica,sans-serif;text-anchor:middle;" transform="matrix(1 0 0 1 1449.84 322)">Regular</text>
  <text style="stroke:none;fill:black;font-family:-apple-system,&quot;SF Pro Display&quot;,&quot;SF Pro Text&quot;,Helvetica,sans-serif;text-anchor:middle;" transform="matrix(1 0 0 1 1746.56 322)">Medium</text>
  <text style="stroke:none;fill:black;font-family:-apple-system,&quot;SF Pro Display&quot;,&quot;SF Pro Text&quot;,Helvetica,sans-serif;text-anchor:middle;" transform="matrix(1 0 0 1 2043.27 322)">Semibold</text>
  <text style="stroke:none;fill:black;font-family:-apple-system,&quot;SF Pro Display&quot;,&quot;SF Pro Text&quot;,Helvetica,sans-serif;text-anchor:middle;" transform="matrix(1 0 0 1 2339.98 322)">Bold</text>
  <text style="stroke:none;fill:black;font-family:-apple-system,&quot;SF Pro Display&quot;,&quot;SF Pro Text&quot;,Helvetica,sans-serif;text-anchor:middle;" transform="matrix(1 0 0 1 2636.69 322)">Heavy</text>
  <text style="stroke:none;fill:black;font-family:-apple-system,&quot;SF Pro Display&quot;,&quot;SF Pro Text&quot;,Helvetica,sans-serif;text-anchor:middle;" transform="matrix(1 0 0 1 2933.4 322)">Black</text>
  <line id="" style="fill:none;stroke:black;opacity:1;stroke-width:0.5;" x1="263" x2="3036" y1="1903" y2="1903"/>
  <g id="" transform="matrix(1 0 0 1 263 1933)">
   <path d="M9.24805 0.830078C13.5547 0.830078 17.1387-2.74414 17.1387-7.05078C17.1387-11.3574 13.5449-14.9316 9.23828-14.9316C4.94141-14.9316 1.36719-11.3574 1.36719-7.05078C1.36719-2.74414 4.95117 0.830078 9.24805 0.830078ZM9.24805-0.654297C5.70312-0.654297 2.87109-3.49609 2.87109-7.05078C2.87109-10.6055 5.69336-13.4473 9.23828-13.4473C12.793-13.4473 15.6348-10.6055 15.6445-7.05078C15.6543-3.49609 12.8027-0.654297 9.24805-0.654297ZM6.39648-6.31836L8.50586-6.31836L8.50586-4.19922C8.50586-3.75977 8.79883-3.45703 9.22852-3.45703C9.67773-3.45703 9.9707-3.75977 9.9707-4.19922L9.9707-6.31836L12.0996-6.31836C12.5391-6.31836 12.8418-6.61133 12.8418-7.04102C12.8418-7.48047 12.5391-7.7832 12.0996-7.7832L9.9707-7.7832L9.9707-9.89258C9.9707-10.3418 9.67773-10.6445 9.22852-10.6445C8.79883-10.6445 8.50586-10.3418 8.50586-9.89258L8.50586-7.7832L6.39648-7.7832C5.94727-7.7832 5.64453-7.48047 5.64453-7.04102C5.64453-6.61133 5.94727-6.31836 6.39648-6.31836Z"/>
  </g>
  <g id="" transform="matrix(1 0 0 1 281.506 1933)">
   <path d="M11.709 2.91016C17.1582 2.91016 21.6699-1.61133 21.6699-7.05078C21.6699-12.5 17.1484-17.0117 11.6992-17.0117C6.25977-17.0117 1.74805-12.5 1.74805-7.05078C1.74805-1.61133 6.26953 2.91016 11.709 2.91016ZM11.709 1.25C7.09961 1.25 3.41797-2.44141 3.41797-7.05078C3.41797-11.6602 7.08984-15.3516 11.6992-15.3516C16.3086-15.3516 20-11.6602 20.0098-7.05078C20.0195-2.44141 16.3184 1.25 11.709 1.25ZM7.98828-6.23047L10.8789-6.23047L10.8789-3.32031C10.8789-2.83203 11.2109-2.5 11.6895-2.5C12.1777-2.5 12.5195-2.83203 12.5195-3.32031L12.5195-6.23047L15.4297-6.23047C15.918-6.23047 16.25-6.5625 16.25-7.04102C16.25-7.5293 15.918-7.87109 15.4297-7.87109L12.5195-7.87109L12.5195-10.7617C12.5195-11.2695 12.1777-11.6016 11.6895-11.6016C11.2109-11.6016 10.8789-11.2598 10.8789-10.7617L10.8789-7.87109L7.98828-7.87109C7.48047-7.87109 7.14844-7.5293 7.14844-7.04102C7.14844-6.5625 7.49023-6.23047 7.98828-6.23047Z"/>
  </g>
  <g id="" transform="matrix(1 0 0 1 304.924 1933)">
   <path d="M14.9707 5.66406C21.9336 5.66406 27.6953-0.0976562 27.6953-7.05078C27.6953-14.0137 21.9238-19.7754 14.9609-19.7754C8.00781-19.7754 2.25586-14.0137 2.25586-7.05078C2.25586-0.0976562 8.01758 5.66406 14.9707 5.66406ZM14.9707 3.84766C8.93555 3.84766 4.08203-1.01562 4.08203-7.05078C4.08203-13.0957 8.92578-17.9492 14.9609-17.9492C21.0059-17.9492 25.8594-13.0957 25.8691-7.05078C25.8789-1.01562 21.0156 3.84766 14.9707 3.84766ZM10.0586-6.14258L14.0625-6.14258L14.0625-2.12891C14.0625-1.5918 14.4336-1.2207 14.9512-1.2207C15.4883-1.2207 15.8594-1.5918 15.8594-2.12891L15.8594-6.14258L19.8828-6.14258C20.4102-6.14258 20.791-6.51367 20.791-7.03125C20.791-7.56836 20.4199-7.94922 19.8828-7.94922L15.8594-7.94922L15.8594-11.9531C15.8594-12.5098 15.4883-12.8809 14.9512-12.8809C14.4336-12.8809 14.0625-12.5 14.0625-11.9531L14.0625-7.94922L10.0586-7.94922C9.50195-7.94922 9.13086-7.56836 9.13086-7.03125C9.13086-6.51367 9.51172-6.14258 10.0586-6.14258Z"/>
  </g>
  <text style="stroke:none;fill:black;font-family:-apple-system,&quot;SF Pro Display&quot;,&quot;SF Pro Text&quot;,Helvetica,sans-serif;font-weight:bold;" transform="matrix(1 0 0 1 263 1953)">Design Variations</text>
  <text style="stroke:none;fill:black;font-family:-apple-system,&quot;SF Pro Display&quot;,&quot;SF Pro Text&quot;,Helvetica,sans-serif;" transform="matrix(1 0 0 1 263 1971)">Symbols are supported in up to nine weights and three scales.</text>
  <text style="stroke:none;fill:black;font-family:-apple-system,&quot;SF Pro Display&quot;,&quot;SF Pro Text&quot;,Helvetica,sans-serif;" transform="matrix(1 0 0 1 263 1989)">For optimal layout with text and other symbols, vertically align</text>
  <text style="stroke:none;fill:black;font-family:-apple-system,&quot;SF Pro Display&quot;,&quot;SF Pro Text&quot;,Helvetica,sans-serif;" transform="matrix(1 0 0 1 263 2007)">symbols with the adjacent text.</text>
  <line id="" style="fill:none;stroke:#00AEEF;stroke-width:0.5;opacity:1.0;" x1="776" x2="776" y1="1919" y2="1933"/>
  <g id="" transform="matrix(1 0 0 1 776 1933)">
   <path d="M3.31055 0.126953C3.82812 0.126953 4.08203-0.0683594 4.26758-0.605469L5.52734-4.0625L11.2891-4.0625L12.5488-0.605469C12.7344-0.0683594 12.9883 0.126953 13.4961 0.126953C14.0137 0.126953 14.3457-0.185547 14.3457-0.673828C14.3457-0.839844 14.3164-0.986328 14.2383-1.20117L9.6582-13.3887C9.43359-13.9941 9.0332-14.2871 8.4082-14.2871C7.80273-14.2871 7.39258-13.9941 7.17773-13.3984L2.59766-1.19141C2.51953-0.976562 2.49023-0.830078 2.49023-0.664062C2.49023-0.175781 2.80273 0.126953 3.31055 0.126953ZM6.00586-5.53711L8.37891-12.1094L8.42773-12.1094L10.8008-5.53711Z"/>
  </g>
  <line id="" style="fill:none;stroke:#00AEEF;stroke-width:0.5;opacity:1.0;" x1="792.836" x2="792.836" y1="1919" y2="1933"/>
  <text style="stroke:none;fill:black;font-family:-apple-system,&quot;SF Pro Display&quot;,&quot;SF Pro Text&quot;,Helvetica,sans-serif;font-weight:bold;" transform="matrix(1 0 0 1 776 1953)">Margins</text>
  <text style="stroke:none;fill:black;font-family:-apple-system,&quot;SF Pro Display&quot;,&quot;SF Pro Text&quot;,Helvetica,sans-serif;" transform="matrix(1 0 0 1 776 1971)">Leading and trailing margins on the left and right side of each symbol</text>
  <text style="stroke:none;fill:black;font-family:-apple-system,&quot;SF Pro Display&quot;,&quot;SF Pro Text&quot;,Helvetica,sans-serif;" transform="matrix(1 0 0 1 776 1989)">can be adjusted by modifying the x-location of the margin guidelines.</text>
  <text style="stroke:none;fill:black;font-family:-apple-system,&quot;SF Pro Display&quot;,&quot;SF Pro Text&quot;,Helvetica,sans-serif;" transform="matrix(1 0 0 1 776 2007)">Modifications are automatically applied proportionally to all</text>
  <text style="stroke:none;fill:black;font-family:-apple-system,&quot;SF Pro Display&quot;,&quot;SF Pro Text&quot;,Helvetica,sans-serif;" transform="matrix(1 0 0 1 776 2025)">scales and weights.</text>
  <g id="" transform="matrix(1 0 0 1 1289 1933)">
   <path d="M2.8418 1.86523L4.54102 3.57422C5.40039 4.44336 6.38672 4.38477 7.31445 3.35938L17.4902-7.85156C17.7539-7.76367 18.0273-7.7832 18.3398-7.8418L19.4043-8.03711L20.0684-7.36328L20.0293-6.80664C19.9902-6.30859 20.1172-5.92773 20.6055-5.44922L21.3672-4.70703C21.8457-4.22852 22.4609-4.19922 22.9297-4.66797L25.8398-7.58789C26.3086-8.05664 26.2891-8.65234 25.8105-9.13086L25.0391-9.89258C24.5605-10.3711 24.1895-10.5273 23.7109-10.4883L23.1348-10.4395L22.4902-11.0742L22.7344-12.1973C22.8613-12.7637 22.7051-13.2031 22.1191-13.7891L19.9219-15.9766C16.582-19.2969 12.1484-19.2188 9.25781-16.3281C8.83789-15.918 8.80859-15.3418 9.04297-14.9512C9.27734-14.5898 9.73633-14.3555 10.3809-14.5215C11.8457-14.8633 13.3691-14.9219 14.7949-13.9844L14.209-12.5293C14.0137-12.0508 13.9844-11.6504 14.1113-11.2891L3.04688-0.898438C2.06055 0.0195312 1.98242 0.996094 2.8418 1.86523ZM10.752-15.957C13.1836-17.7344 16.4746-17.4316 18.7012-15.2051L21.1328-12.793C21.3672-12.5586 21.4062-12.373 21.3379-12.0312L21.0156-10.5469L22.5195-9.0625L23.5059-9.12109C23.7598-9.13086 23.8379-9.11133 24.0332-8.91602L24.6094-8.33984L22.168-5.89844L21.5918-6.47461C21.3965-6.66992 21.3672-6.74805 21.377-7.01172L21.4453-7.98828L19.9512-9.47266L18.4277-9.21875C18.1055-9.15039 17.959-9.17969 17.7148-9.41406L15.7129-11.416C15.459-11.6504 15.4297-11.8164 15.5859-12.1875L16.4648-14.2773C14.9023-15.7324 12.8711-16.3574 10.8398-15.7617C10.6836-15.7227 10.625-15.8496 10.752-15.957ZM5.27344 2.30469L4.10156 1.14258C3.63281 0.683594 3.74023 0.341797 4.14062-0.0195312L14.9512-10.1953L16.416-8.71094L6.42578 2.27539C6.07422 2.67578 5.74219 2.77344 5.27344 2.30469Z"/>
  </g>
  <text style="stroke:none;fill:black;font-family:-apple-system,&quot;SF Pro Display&quot;,&quot;SF Pro Text&quot;,Helvetica,sans-serif;font-weight:bold;" transform="matrix(1 0 0 1 1289 1953)">Exporting</text>
  <text style="stroke:none;fill:black;font-family:-apple-system,&quot;SF Pro Display&quot;,&quot;SF Pro Text&quot;,Helvetica,sans-serif;" transform="matrix(1 0 0 1 1289 1971)">Symbols should be outlined when exporting to ensure the</text>
  <text style="stroke:none;fill:black;font-family:-apple-system,&quot;SF Pro Display&quot;,&quot;SF Pro Text&quot;,Helvetica,sans-serif;" transform="matrix(1 0 0 1 1289 1989)">design is preserved when submitting to Xcode.</text>
  <text id="template-version" style="stroke:none;fill:black;font-family:-apple-system,&quot;SF Pro Display&quot;,&quot;SF Pro Text&quot;,Helvetica,sans-serif;text-anchor:end;" transform="matrix(1 0 0 1 3036 1933)">Template v.2.0</text>
  <text style="stroke:none;fill:black;font-family:-apple-system,&quot;SF Pro Display&quot;,&quot;SF Pro Text&quot;,Helvetica,sans-serif;text-anchor:end;" transform="matrix(1 0 0 1 3036 1951)">Requires Xcode 12 or greater</text>
  <text style="stroke:none;fill:black;font-family:-apple-system,&quot;SF Pro Display&quot;,&quot;SF Pro Text&quot;,Helvetica,sans-serif;" transform="matrix(1 0 0 1 263 726)">Small</text>
  <text style="stroke:none;fill:black;font-family:-apple-system,&quot;SF Pro Display&quot;,&quot;SF Pro Text&quot;,Helvetica,sans-serif;" transform="matrix(1 0 0 1 263 1156)">Medium</text>
  <text style="stroke:none;fill:black;font-family:-apple-system,&quot;SF Pro Display&quot;,&quot;SF Pro Text&quot;,Helvetica,sans-serif;" transform="matrix(1 0 0 1 263 1586)">Large</text>
 </g>
 <g id="Guides">
  <g id="H-reference" style="fill:#27AAE1;stroke:none;" transform="matrix(1 0 0 1 339 696)">
   <path d="M0.976562 0L3.66211 0L12.9883-24.4629L45.752-24.4629L55.127 0L57.7637 0L30.6152-70.459L28.125-70.459ZM29.3457-67.1387L29.4434-67.1387L44.873-26.709L13.8672-26.709Z"/>
  </g>
  <line id="Baseline-S" style="fill:none;stroke:#27AAE1;opacity:1;stroke-width:0.5;" x1="263" x2="3036" y1="696" y2="696"/>
  <line id="Capline-S" style="fill:none;stroke:#27AAE1;opacity:1;stroke-width:0.5;" x1="263" x2="3036" y1="625.541" y2="625.541"/>
  <g id="H-reference" style="fill:#27AAE1;stroke:none;" transform="matrix(1 0 0 1 339 1126)">
   <path d="M0.976562 0L3.66211 0L12.9883-24.4629L45.752-24.4629L55.127 0L57.7637 0L30.6152-70.459L28.125-70.459ZM29.3457-67.1387L29.4434-67.1387L44.873-26.709L13.8672-26.709Z"/>
  </g>
  <line id="Baseline-M" style="fill:none;stroke:#27AAE1;opacity:1;stroke-width:0.5;" x1="263" x2="3036" y1="1126" y2="1126"/>
  <line id="Capline-M" style="fill:none;stroke:#27AAE1;opacity:1;stroke-width:0.5;" x1="263" x2="3036" y1="1055.54" y2="1055.54"/>
  <g id="H-reference" style="fill:#27AAE1;stroke:none;" transform="matrix(1 0 0 1 339 1556)">
   <path d="M0.976562 0L3.66211 0L12.9883-24.4629L45.752-24.4629L55.127 0L57.7637 0L30.6152-70.459L28.125-70.459ZM29.3457-67.1387L29.4434-67.1387L44.873-26.709L13.8672-26.709Z"/>
  </g>
  <line id="Baseline-L" style="fill:none;stroke:#27AAE1;opacity:1;stroke-width:0.5;" x1="263" x2="3036" y1="1556" y2="1556"/>
  <line id="Capline-L" style="fill:none;stroke:#27AAE1;opacity:1;stroke-width:0.5;" x1="263" x2="3036" y1="1485.54" y2="1485.54"/>
  <line id="left-margin" x1="1415.9000195312499" x2="1415.9000195312499" y1="1030.79" y2="1150.12" style="fill:none;stroke:#00AEEF;stroke-width:0.5;opacity:1.0;"/>
  <line id="right-margin" x1="1486.3599804687499" x2="1486.3599804687499" y1="1030.79" y2="1150.12" style="fill:none;stroke:#00AEEF;stroke-width:0.5;opacity:1.0;"/>
 </g>
 <g id="Symbols">
  <g id="Black-L" transform="matrix(1.0,0.0,0.0,1.0,2889.2333251953123,1475.3233447265625)">  <path fill-rule="nonzero" stroke="none" stroke-miterlimit="4" stroke-dasharray="none" stroke-linecap="round" clip-rule="evenodd" stroke-linejoin="round" fill="#000000" stroke-width="2px" fill-opacity="1" stroke-opacity="1" d="M60.464,11.493L79.4,30.429L79.4,30.166L30.166,79.4L30.298,79.346L11.362,79.346L11.548,79.532L11.548,60.596L11.493,60.727L60.727,11.493L60.464,11.493ZM60.727,11.23C60.654,11.158,60.537,11.158,60.464,11.23L11.23,60.464C11.195,60.499,11.176,60.546,11.176,60.596L11.176,79.532C11.176,79.634,11.259,79.718,11.362,79.718L30.298,79.718C30.347,79.718,30.394,79.698,30.429,79.663L79.663,30.429C79.736,30.357,79.736,30.239,79.663,30.166L60.727,11.23Z"/>
</g>
  <g id="Heavy-L" transform="matrix(1.0,0.0,0.0,1.0,2592.5233251953123,1475.3233447265625)">  <path fill-opacity="1" stroke-linejoin="round" stroke-dasharray="none" stroke-miterlimit="4" stroke-width="2px" stroke-opacity="1" fill-rule="nonzero" stroke-linecap="round" fill="#000000" clip-rule="evenodd" stroke="none" d="M60.478,11.479L79.415,30.415L79.415,30.181L30.181,79.415L30.298,79.366L11.362,79.366L11.527,79.532L11.527,60.596L11.479,60.713L60.713,11.479L60.478,11.479ZM60.713,11.245C60.648,11.18,60.543,11.18,60.478,11.245L11.245,60.478C11.213,60.51,11.196,60.552,11.196,60.596L11.196,79.532C11.196,79.623,11.27,79.697,11.362,79.697L30.298,79.697C30.342,79.697,30.384,79.68,30.415,79.649L79.649,30.415C79.713,30.35,79.713,30.245,79.649,30.181L60.713,11.245Z"/>
</g>
  <g id="Bold-L" transform="matrix(1.0,0.0,0.0,1.0,2295.8133251953122,1475.3233447265625)">  <path fill-rule="nonzero" stroke-linejoin="round" fill="#000000" stroke-dasharray="none" stroke-miterlimit="4" stroke-width="2px" clip-rule="evenodd" fill-opacity="1" stroke-opacity="1" stroke-linecap="round" stroke="none" d="M60.493,11.464L79.429,30.4L79.429,30.195L30.195,79.429L30.298,79.386L11.362,79.386L11.507,79.532L11.507,60.596L11.464,60.698L60.698,11.464L60.493,11.464ZM60.698,11.259C60.642,11.202,60.55,11.202,60.493,11.259L11.259,60.493C11.232,60.52,11.216,60.557,11.216,60.596L11.216,79.532C11.216,79.612,11.281,79.677,11.362,79.677L30.298,79.677C30.336,79.677,30.373,79.662,30.4,79.634L79.634,30.4C79.691,30.344,79.691,30.252,79.634,30.195L60.698,11.259Z"/>
</g>
  <g id="Semibold-L" transform="matrix(1.0,0.0,0.0,1.0,1999.1033251953124,1475.3233447265625)">  <path clip-rule="evenodd" stroke="none" stroke-miterlimit="4" stroke-linejoin="round" fill="#000000" stroke-opacity="1" fill-rule="nonzero" fill-opacity="1" stroke-dasharray="none" stroke-width="2px" stroke-linecap="round" d="M60.507,11.45L79.443,30.386L79.443,30.209L30.209,79.443L30.298,79.407L11.362,79.407L11.487,79.532L11.487,60.596L11.45,60.684L60.684,11.45L60.507,11.45ZM60.684,11.273C60.635,11.225,60.556,11.225,60.507,11.273L11.273,60.507C11.25,60.531,11.237,60.562,11.237,60.596L11.237,79.532C11.237,79.601,11.293,79.657,11.362,79.657L30.298,79.657C30.331,79.657,30.363,79.643,30.386,79.62L79.62,30.386C79.669,30.337,79.669,30.258,79.62,30.209L60.684,11.273Z"/>
</g>
  <g id="Medium-L" transform="matrix(1.0,0.0,0.0,1.0,1702.3933251953124,1475.3233447265625)">  <path stroke-dasharray="none" fill-opacity="1" stroke-miterlimit="4" clip-rule="evenodd" fill-rule="nonzero" fill="#000000" stroke-linecap="round" stroke-width="2px" stroke-opacity="1" stroke="none" stroke-linejoin="round" d="M60.522,11.436L79.458,30.372L79.458,30.224L30.224,79.458L30.298,79.427L11.362,79.427L11.466,79.532L11.466,60.596L11.436,60.669L60.669,11.436L60.522,11.436ZM60.669,11.288C60.629,11.247,60.562,11.247,60.522,11.288L11.288,60.522C11.268,60.541,11.257,60.568,11.257,60.596L11.257,79.532C11.257,79.589,11.304,79.636,11.362,79.636L30.298,79.636C30.326,79.636,30.352,79.625,30.372,79.606L79.606,30.372C79.646,30.331,79.646,30.265,79.606,30.224L60.669,11.288Z"/>
</g>
  <g id="Regular-L" transform="matrix(1.0,0.0,0.0,1.0,1405.6833251953124,1475.3233447265625)">  <path stroke-opacity="1" clip-rule="evenodd" stroke-linejoin="round" fill-opacity="1" stroke-dasharray="none" fill="#000000" stroke-miterlimit="4" stroke="none" stroke-linecap="round" fill-rule="nonzero" stroke-width="2px" d="M60.536,11.421L79.472,30.357L79.472,30.238L30.238,79.472L30.298,79.448L11.362,79.448L11.446,79.532L11.446,60.596L11.421,60.655L60.655,11.421L60.536,11.421ZM60.655,11.302C60.622,11.269,60.569,11.269,60.536,11.302L11.302,60.536C11.286,60.552,11.278,60.573,11.278,60.596L11.278,79.532C11.278,79.578,11.315,79.616,11.362,79.616L30.298,79.616C30.32,79.616,30.342,79.607,30.357,79.591L79.591,30.357C79.624,30.324,79.624,30.271,79.591,30.238L60.655,11.302Z"/>
</g>
  <g id="Light-L" transform="matrix(1.0,0.0,0.0,1.0,1108.9733251953126,1475.3233447265625)">  <path stroke-linecap="round" stroke-dasharray="none" fill-opacity="1" stroke-opacity="1" clip-rule="evenodd" stroke-miterlimit="4" stroke="none" fill="#000000" stroke-linejoin="round" stroke-width="2px" fill-rule="nonzero" d="M60.546,11.411L79.482,30.347L79.482,30.248L30.248,79.482L30.298,79.462L11.362,79.462L11.432,79.532L11.432,60.596L11.411,60.645L60.645,11.411L60.546,11.411ZM60.645,11.312C60.618,11.285,60.573,11.285,60.546,11.312L11.312,60.546C11.299,60.559,11.292,60.577,11.292,60.596L11.292,79.532C11.292,79.57,11.323,79.602,11.362,79.602L30.298,79.602C30.316,79.602,30.334,79.594,30.347,79.581L79.581,30.347C79.609,30.32,79.609,30.276,79.581,30.248L60.645,11.312Z"/>
</g>
  <g id="Thin-L" transform="matrix(1.0,0.0,0.0,1.0,812.2633251953125,1475.3233447265625)">  <path fill-opacity="1" stroke-linejoin="round" stroke="none" stroke-dasharray="none" stroke-miterlimit="4" clip-rule="evenodd" fill-rule="nonzero" fill="#000000" stroke-width="2px" stroke-opacity="1" stroke-linecap="round" d="M60.556,11.401L79.492,30.337L79.492,30.258L30.258,79.492L30.298,79.476L11.362,79.476L11.418,79.532L11.418,60.596L11.401,60.635L60.635,11.401L60.556,11.401ZM60.635,11.322C60.613,11.3,60.578,11.3,60.556,11.322L11.322,60.556C11.311,60.566,11.306,60.581,11.306,60.596L11.306,79.532C11.306,79.563,11.331,79.588,11.362,79.588L30.298,79.588C30.313,79.588,30.327,79.582,30.337,79.571L79.571,30.337C79.593,30.316,79.593,30.28,79.571,30.258L60.635,11.322Z"/>
</g>
  <g id="Ultralight-L" transform="matrix(1.0,0.0,0.0,1.0,515.5533251953125,1475.3233447265625)">  <path stroke-dasharray="none" stroke-miterlimit="4" stroke="none" stroke-opacity="1" fill-rule="nonzero" clip-rule="evenodd" fill="#000000" fill-opacity="1" stroke-linejoin="round" stroke-linecap="round" stroke-width="2px" d="M60.566,11.391L79.502,30.328L79.502,30.268L30.268,79.502L30.298,79.49L11.362,79.49L11.404,79.532L11.404,60.596L11.391,60.625L60.625,11.391L60.566,11.391ZM60.625,11.332C60.609,11.315,60.582,11.315,60.566,11.332L11.332,60.566C11.324,60.574,11.32,60.584,11.32,60.596L11.32,79.532C11.32,79.555,11.338,79.574,11.362,79.574L30.298,79.574C30.309,79.574,30.32,79.569,30.328,79.561L79.561,30.328C79.578,30.311,79.578,30.284,79.561,30.268L60.625,11.332Z"/>
</g>
  <g id="Black-M" transform="matrix(1.0,0.0,0.0,1.0,2899.45001953125,1055.5400390625)">  <path fill-rule="nonzero" stroke="none" stroke-miterlimit="4" stroke-dasharray="none" stroke-linecap="round" clip-rule="evenodd" stroke-linejoin="round" fill="#000000" stroke-width="2px" fill-opacity="1" stroke-opacity="1" d="M46.871,8.909L61.551,23.589L61.551,23.385L23.385,61.551L23.487,61.508L8.807,61.508L8.952,61.652L8.952,46.973L8.909,47.075L47.075,8.909L46.871,8.909ZM47.075,8.706C47.019,8.649,46.928,8.649,46.871,8.706L8.706,46.871C8.679,46.898,8.663,46.935,8.663,46.973L8.663,61.652C8.663,61.732,8.728,61.797,8.807,61.797L23.487,61.797C23.525,61.797,23.562,61.781,23.589,61.754L61.754,23.589C61.811,23.532,61.811,23.441,61.754,23.385L47.075,8.706Z"/>
</g>
  <g id="Heavy-M" transform="matrix(1.0,0.0,0.0,1.0,2602.74001953125,1055.5400390625)">  <path fill-opacity="1" stroke-linejoin="round" stroke-dasharray="none" stroke-miterlimit="4" stroke-width="2px" stroke-opacity="1" fill-rule="nonzero" stroke-linecap="round" fill="#000000" clip-rule="evenodd" stroke="none" d="M46.883,8.898L61.562,23.577L61.562,23.396L23.396,61.562L23.487,61.524L8.807,61.524L8.936,61.652L8.936,46.973L8.898,47.064L47.064,8.898L46.883,8.898ZM47.064,8.717C47.014,8.667,46.933,8.667,46.883,8.717L8.717,46.883C8.693,46.907,8.679,46.939,8.679,46.973L8.679,61.652C8.679,61.723,8.737,61.781,8.807,61.781L23.487,61.781C23.521,61.781,23.553,61.767,23.577,61.743L61.743,23.577C61.793,23.527,61.793,23.446,61.743,23.396L47.064,8.717Z"/>
</g>
  <g id="Bold-M" transform="matrix(1.0,0.0,0.0,1.0,2306.0300195312498,1055.5400390625)">  <path fill-rule="nonzero" stroke-linejoin="round" fill="#000000" stroke-dasharray="none" stroke-miterlimit="4" stroke-width="2px" clip-rule="evenodd" fill-opacity="1" stroke-opacity="1" stroke-linecap="round" stroke="none" d="M46.894,8.887L61.573,23.566L61.573,23.407L23.407,61.573L23.487,61.54L8.807,61.54L8.92,61.652L8.92,46.973L8.887,47.053L47.053,8.887L46.894,8.887ZM47.053,8.728C47.009,8.684,46.938,8.684,46.894,8.728L8.728,46.894C8.707,46.915,8.695,46.943,8.695,46.973L8.695,61.652C8.695,61.715,8.745,61.765,8.807,61.765L23.487,61.765C23.517,61.765,23.545,61.753,23.566,61.732L61.732,23.566C61.776,23.522,61.776,23.451,61.732,23.407L47.053,8.728Z"/>
</g>
  <g id="Semibold-M" transform="matrix(1.0,0.0,0.0,1.0,2009.32001953125,1055.5400390625)">  <path clip-rule="evenodd" stroke="none" stroke-miterlimit="4" stroke-linejoin="round" fill="#000000" stroke-opacity="1" fill-rule="nonzero" fill-opacity="1" stroke-dasharray="none" stroke-width="2px" stroke-linecap="round" d="M46.905,8.876L61.584,23.555L61.584,23.418L23.418,61.584L23.487,61.556L8.807,61.556L8.904,61.652L8.904,46.973L8.876,47.042L47.042,8.876L46.905,8.876ZM47.042,8.739C47.004,8.701,46.943,8.701,46.905,8.739L8.739,46.905C8.721,46.923,8.711,46.948,8.711,46.973L8.711,61.652C8.711,61.706,8.754,61.749,8.807,61.749L23.487,61.749C23.512,61.749,23.537,61.739,23.555,61.721L61.721,23.555C61.759,23.517,61.759,23.456,61.721,23.418L47.042,8.739Z"/>
</g>
  <g id="Medium-M" transform="matrix(1.0,0.0,0.0,1.0,1712.61001953125,1055.5400390625)">  <path stroke-dasharray="none" fill-opacity="1" stroke-miterlimit="4" clip-rule="evenodd" fill-rule="nonzero" fill="#000000" stroke-linecap="round" stroke-width="2px" stroke-opacity="1" stroke="none" stroke-linejoin="round" d="M46.916,8.865L61.595,23.544L61.595,23.429L23.429,61.595L23.487,61.571L8.807,61.571L8.889,61.652L8.889,46.973L8.865,47.031L47.031,8.865L46.916,8.865ZM47.031,8.75C46.999,8.719,46.948,8.719,46.916,8.75L8.75,46.916C8.735,46.931,8.726,46.952,8.726,46.973L8.726,61.652C8.726,61.697,8.763,61.733,8.807,61.733L23.487,61.733C23.508,61.733,23.529,61.725,23.544,61.71L61.71,23.544C61.741,23.512,61.741,23.461,61.71,23.429L47.031,8.75Z"/>
</g>
  <g id="Regular-M" transform="matrix(1.0,0.0,0.0,1.0,1415.9000195312499,1055.5400390625)">  <path stroke-opacity="1" clip-rule="evenodd" stroke-linejoin="round" fill-opacity="1" stroke-dasharray="none" fill="#000000" stroke-miterlimit="4" stroke="none" stroke-linecap="round" fill-rule="nonzero" stroke-width="2px" d="M46.927,8.854L61.606,23.533L61.606,23.441L23.441,61.606L23.487,61.587L8.807,61.587L8.873,61.652L8.873,46.973L8.854,47.019L47.019,8.854L46.927,8.854ZM47.019,8.761C46.994,8.736,46.953,8.736,46.927,8.761L8.761,46.927C8.749,46.939,8.742,46.956,8.742,46.973L8.742,61.652C8.742,61.688,8.771,61.718,8.807,61.718L23.487,61.718C23.504,61.718,23.521,61.711,23.533,61.699L61.699,23.533C61.724,23.507,61.724,23.466,61.699,23.441L47.019,8.761Z"/>
</g>
  <g id="Light-M" transform="matrix(1.0,0.0,0.0,1.0,1119.19001953125,1055.5400390625)">  <path stroke-linecap="round" stroke-dasharray="none" fill-opacity="1" stroke-opacity="1" clip-rule="evenodd" stroke-miterlimit="4" stroke="none" fill="#000000" stroke-linejoin="round" stroke-width="2px" fill-rule="nonzero" d="M46.935,8.846L61.614,23.525L61.614,23.448L23.448,61.614L23.487,61.598L8.807,61.598L8.862,61.652L8.862,46.973L8.846,47.012L47.012,8.846L46.935,8.846ZM47.012,8.769C46.991,8.748,46.956,8.748,46.935,8.769L8.769,46.935C8.759,46.945,8.753,46.959,8.753,46.973L8.753,61.652C8.753,61.682,8.777,61.707,8.807,61.707L23.487,61.707C23.501,61.707,23.515,61.701,23.525,61.691L61.691,23.525C61.712,23.504,61.712,23.469,61.691,23.448L47.012,8.769Z"/>
</g>
  <g id="Thin-M" transform="matrix(1.0,0.0,0.0,1.0,822.48001953125,1055.5400390625)">  <path fill-opacity="1" stroke-linejoin="round" stroke="none" stroke-dasharray="none" stroke-miterlimit="4" clip-rule="evenodd" fill-rule="nonzero" fill="#000000" stroke-width="2px" stroke-opacity="1" stroke-linecap="round" d="M46.943,8.838L61.622,23.517L61.622,23.456L23.456,61.622L23.487,61.609L8.807,61.609L8.851,61.652L8.851,46.973L8.838,47.004L47.004,8.838L46.943,8.838ZM47.004,8.777C46.987,8.76,46.96,8.76,46.943,8.777L8.777,46.943C8.769,46.951,8.764,46.962,8.764,46.973L8.764,61.652C8.764,61.676,8.783,61.696,8.807,61.696L23.487,61.696C23.498,61.696,23.509,61.691,23.517,61.683L61.683,23.517C61.7,23.5,61.7,23.473,61.683,23.456L47.004,8.777Z"/>
</g>
  <g id="Ultralight-M" transform="matrix(1.0,0.0,0.0,1.0,525.77001953125,1055.5400390625)">  <path stroke-dasharray="none" stroke-miterlimit="4" stroke="none" stroke-opacity="1" fill-rule="nonzero" clip-rule="evenodd" fill="#000000" fill-opacity="1" stroke-linejoin="round" stroke-linecap="round" stroke-width="2px" d="M46.95,8.831L61.629,23.51L61.629,23.464L23.464,61.629L23.487,61.62L8.807,61.62L8.84,61.652L8.84,46.973L8.831,46.996L46.996,8.831L46.95,8.831ZM46.996,8.784C46.984,8.772,46.963,8.772,46.95,8.784L8.784,46.95C8.778,46.956,8.775,46.965,8.775,46.973L8.775,61.652C8.775,61.67,8.789,61.685,8.807,61.685L23.487,61.685C23.495,61.685,23.504,61.682,23.51,61.676L61.676,23.51C61.688,23.497,61.688,23.476,61.676,23.464L46.996,8.784Z"/>
</g>
  <g id="Black-S" transform="matrix(1.0,0.0,0.0,1.0,2907.0949252929686,633.1849448242187)">  <path fill-rule="nonzero" stroke="none" stroke-miterlimit="4" stroke-dasharray="none" stroke-linecap="round" clip-rule="evenodd" stroke-linejoin="round" fill="#000000" stroke-width="2px" fill-opacity="1" stroke-opacity="1" d="M36.7,6.976L48.194,18.47L48.194,18.31L18.31,48.194L18.39,48.161L6.896,48.161L7.009,48.274L7.009,36.78L6.976,36.86L36.86,6.976L36.7,6.976ZM36.86,6.816C36.816,6.772,36.744,6.772,36.7,6.816L6.816,36.7C6.795,36.721,6.783,36.75,6.783,36.78L6.783,48.274C6.783,48.336,6.834,48.387,6.896,48.387L18.39,48.387C18.42,48.387,18.449,48.375,18.47,48.354L48.354,18.47C48.398,18.426,48.398,18.354,48.354,18.31L36.86,6.816Z"/>
</g>
  <g id="Heavy-S" transform="matrix(1.0,0.0,0.0,1.0,2610.3849252929685,633.1849448242187)">  <path fill-opacity="1" stroke-linejoin="round" stroke-dasharray="none" stroke-miterlimit="4" stroke-width="2px" stroke-opacity="1" fill-rule="nonzero" stroke-linecap="round" fill="#000000" clip-rule="evenodd" stroke="none" d="M36.709,6.967L48.203,18.461L48.203,18.319L18.319,48.203L18.39,48.173L6.896,48.173L6.997,48.274L6.997,36.78L6.967,36.851L36.851,6.967L36.709,6.967ZM36.851,6.825C36.812,6.786,36.748,6.786,36.709,6.825L6.825,36.709C6.806,36.728,6.796,36.753,6.796,36.78L6.796,48.274C6.796,48.329,6.841,48.374,6.896,48.374L18.39,48.374C18.417,48.374,18.442,48.364,18.461,48.345L48.345,18.461C48.384,18.422,48.384,18.358,48.345,18.319L36.851,6.825Z"/>
</g>
  <g id="Bold-S" transform="matrix(1.0,0.0,0.0,1.0,2313.6749252929685,633.1849448242187)">  <path fill-rule="nonzero" stroke-linejoin="round" fill="#000000" stroke-dasharray="none" stroke-miterlimit="4" stroke-width="2px" clip-rule="evenodd" fill-opacity="1" stroke-opacity="1" stroke-linecap="round" stroke="none" d="M36.718,6.959L48.212,18.452L48.212,18.328L18.328,48.212L18.39,48.186L6.896,48.186L6.984,48.274L6.984,36.78L6.959,36.842L36.842,6.959L36.718,6.959ZM36.842,6.834C36.808,6.799,36.752,6.799,36.718,6.834L6.834,36.718C6.817,36.734,6.808,36.757,6.808,36.78L6.808,48.274C6.808,48.323,6.848,48.362,6.896,48.362L18.39,48.362C18.413,48.362,18.436,48.353,18.452,48.336L48.336,18.452C48.371,18.418,48.371,18.362,48.336,18.328L36.842,6.834Z"/>
</g>
  <g id="Semibold-S" transform="matrix(1.0,0.0,0.0,1.0,2016.9649252929687,633.1849448242187)">  <path clip-rule="evenodd" stroke="none" stroke-miterlimit="4" stroke-linejoin="round" fill="#000000" stroke-opacity="1" fill-rule="nonzero" fill-opacity="1" stroke-dasharray="none" stroke-width="2px" stroke-linecap="round" d="M36.726,6.95L48.22,18.444L48.22,18.336L18.336,48.22L18.39,48.198L6.896,48.198L6.972,48.274L6.972,36.78L6.95,36.834L36.834,6.95L36.726,6.95ZM36.834,6.843C36.804,6.813,36.756,6.813,36.726,6.843L6.843,36.726C6.828,36.741,6.82,36.76,6.82,36.78L6.82,48.274C6.82,48.316,6.854,48.35,6.896,48.35L18.39,48.35C18.41,48.35,18.429,48.342,18.444,48.327L48.327,18.444C48.357,18.414,48.357,18.366,48.327,18.336L36.834,6.843Z"/>
</g>
  <g id="Medium-S" transform="matrix(1.0,0.0,0.0,1.0,1720.2549252929687,633.1849448242187)">  <path stroke-dasharray="none" fill-opacity="1" stroke-miterlimit="4" clip-rule="evenodd" fill-rule="nonzero" fill="#000000" stroke-linecap="round" stroke-width="2px" stroke-opacity="1" stroke="none" stroke-linejoin="round" d="M36.735,6.941L48.229,18.435L48.229,18.345L18.345,48.229L18.39,48.21L6.896,48.21L6.96,48.274L6.96,36.78L6.941,36.825L36.825,6.941L36.735,6.941ZM36.825,6.851C36.8,6.827,36.76,6.827,36.735,6.851L6.851,36.735C6.84,36.747,6.833,36.763,6.833,36.78L6.833,48.274C6.833,48.309,6.861,48.337,6.896,48.337L18.39,48.337C18.407,48.337,18.423,48.331,18.435,48.319L48.319,18.435C48.344,18.41,48.344,18.37,48.319,18.345L36.825,6.851Z"/>
</g>
  <g id="Regular-S" transform="matrix(1.0,0.0,0.0,1.0,1423.5449252929686,633.1849448242187)">  <path stroke-opacity="1" clip-rule="evenodd" stroke-linejoin="round" fill-opacity="1" stroke-dasharray="none" fill="#000000" stroke-miterlimit="4" stroke="none" stroke-linecap="round" fill-rule="nonzero" stroke-width="2px" d="M36.744,6.932L48.238,18.426L48.238,18.354L18.354,48.238L18.39,48.223L6.896,48.223L6.947,48.274L6.947,36.78L6.932,36.816L36.816,6.932L36.744,6.932ZM36.816,6.86C36.796,6.84,36.764,6.84,36.744,6.86L6.86,36.744C6.851,36.754,6.845,36.767,6.845,36.78L6.845,48.274C6.845,48.302,6.868,48.325,6.896,48.325L18.39,48.325C18.404,48.325,18.417,48.32,18.426,48.31L48.31,18.426C48.33,18.406,48.33,18.374,48.31,18.354L36.816,6.86Z"/>
</g>
  <g id="Light-S" transform="matrix(1.0,0.0,0.0,1.0,1126.8349252929688,633.1849448242187)">  <path stroke-linecap="round" stroke-dasharray="none" fill-opacity="1" stroke-opacity="1" clip-rule="evenodd" stroke-miterlimit="4" stroke="none" fill="#000000" stroke-linejoin="round" stroke-width="2px" fill-rule="nonzero" d="M36.75,6.926L48.244,18.42L48.244,18.36L18.36,48.244L18.39,48.231L6.896,48.231L6.939,48.274L6.939,36.78L6.926,36.81L36.81,6.926L36.75,6.926ZM36.81,6.866C36.794,6.85,36.767,6.85,36.75,6.866L6.866,36.75C6.858,36.758,6.854,36.769,6.854,36.78L6.854,48.274C6.854,48.297,6.873,48.316,6.896,48.316L18.39,48.316C18.401,48.316,18.412,48.312,18.42,48.304L48.304,18.42C48.321,18.404,48.321,18.377,48.304,18.36L36.81,6.866Z"/>
</g>
  <g id="Thin-S" transform="matrix(1.0,0.0,0.0,1.0,830.1249252929688,633.1849448242187)">  <path fill-opacity="1" stroke-linejoin="round" stroke="none" stroke-dasharray="none" stroke-miterlimit="4" clip-rule="evenodd" fill-rule="nonzero" fill="#000000" stroke-width="2px" stroke-opacity="1" stroke-linecap="round" d="M36.756,6.92L48.25,18.414L48.25,18.366L18.366,48.25L18.39,48.24L6.896,48.24L6.93,48.274L6.93,36.78L6.92,36.804L36.804,6.92L36.756,6.92ZM36.804,6.872C36.791,6.859,36.769,6.859,36.756,6.872L6.872,36.756C6.866,36.762,6.862,36.771,6.862,36.78L6.862,48.274C6.862,48.293,6.877,48.308,6.896,48.308L18.39,48.308C18.399,48.308,18.408,48.304,18.414,48.298L48.298,18.414C48.311,18.401,48.311,18.379,48.298,18.366L36.804,6.872Z"/>
</g>
  <g id="Ultralight-S" transform="matrix(1.0,0.0,0.0,1.0,533.4149252929687,633.1849448242187)">  <path stroke-dasharray="none" stroke-miterlimit="4" stroke="none" stroke-opacity="1" fill-rule="nonzero" clip-rule="evenodd" fill="#000000" fill-opacity="1" stroke-linejoin="round" stroke-linecap="round" stroke-width="2px" d="M36.762,6.914L48.256,18.408L48.256,18.372L18.372,48.256L18.39,48.248L6.896,48.248L6.922,48.274L6.922,36.78L6.914,36.798L36.798,6.914L36.762,6.914ZM36.798,6.878C36.788,6.868,36.772,6.868,36.762,6.878L6.878,36.762C6.873,36.767,6.871,36.773,6.871,36.78L6.871,48.274C6.871,48.288,6.882,48.299,6.896,48.299L18.39,48.299C18.397,48.299,18.403,48.297,18.408,48.292L48.292,18.408C48.302,18.398,48.302,18.382,48.292,18.372L36.798,6.878Z"/>
</g>
 </g>
</svg>
