<svg width="114" height="82" viewBox="0 0 114 82" fill="none" xmlns="http://www.w3.org/2000/svg">
<rect x="2" y="2" width="110" height="78" rx="39" fill="#00B929" fill-opacity="0.27"/>
<path d="M17.6046 51.5V30.35H26.9946C29.3146 30.35 31.0846 30.91 32.3046 32.03C33.5246 33.15 34.1346 34.69 34.1346 36.65C34.1346 38.59 33.5246 40.13 32.3046 41.27C31.0846 42.41 29.3146 42.98 26.9946 42.98H21.4746V51.5H17.6046ZM21.4746 39.92H26.5446C27.8246 39.92 28.7846 39.64 29.4246 39.08C30.0646 38.5 30.3846 37.69 30.3846 36.65C30.3846 35.61 30.0646 34.81 29.4246 34.25C28.7846 33.67 27.8246 33.38 26.5446 33.38H21.4746V39.92ZM34.2979 51.5L43.8679 30.35H47.1079L56.7979 51.5H52.8679L50.2879 45.56L51.8479 46.61H39.1579L40.7779 45.56L38.1979 51.5H34.2979ZM45.4579 34.49L41.2279 44.51L40.4479 43.58H50.5279L49.8979 44.51L45.5779 34.49H45.4579ZM67.5335 51.8C65.8335 51.8 64.2635 51.59 62.8235 51.17C61.4035 50.73 60.1835 50.13 59.1635 49.37L60.3635 46.34C61.0435 46.82 61.7535 47.23 62.4935 47.57C63.2335 47.89 64.0235 48.14 64.8635 48.32C65.7035 48.48 66.5935 48.56 67.5335 48.56C69.1135 48.56 70.2535 48.3 70.9535 47.78C71.6535 47.26 72.0035 46.58 72.0035 45.74C72.0035 45 71.7635 44.44 71.2835 44.06C70.8035 43.66 69.9435 43.33 68.7035 43.07L65.3135 42.38C63.3735 41.98 61.9235 41.31 60.9635 40.37C60.0035 39.43 59.5235 38.17 59.5235 36.59C59.5235 35.27 59.8735 34.12 60.5735 33.14C61.2735 32.16 62.2535 31.4 63.5135 30.86C64.7735 30.32 66.2435 30.05 67.9235 30.05C69.4235 30.05 70.8135 30.27 72.0935 30.71C73.3735 31.13 74.4435 31.74 75.3035 32.54L74.1035 35.42C73.2435 34.7 72.3035 34.17 71.2835 33.83C70.2635 33.47 69.1235 33.29 67.8635 33.29C66.4435 33.29 65.3335 33.57 64.5335 34.13C63.7535 34.67 63.3635 35.42 63.3635 36.38C63.3635 37.12 63.6035 37.71 64.0835 38.15C64.5835 38.59 65.4235 38.93 66.6035 39.17L69.9635 39.83C71.9635 40.23 73.4435 40.89 74.4035 41.81C75.3635 42.71 75.8435 43.93 75.8435 45.47C75.8435 46.73 75.5035 47.84 74.8235 48.8C74.1435 49.74 73.1835 50.48 71.9435 51.02C70.7035 51.54 69.2335 51.8 67.5335 51.8ZM88.1194 51.8C86.4194 51.8 84.8494 51.59 83.4094 51.17C81.9894 50.73 80.7694 50.13 79.7494 49.37L80.9494 46.34C81.6294 46.82 82.3394 47.23 83.0794 47.57C83.8194 47.89 84.6094 48.14 85.4494 48.32C86.2894 48.48 87.1794 48.56 88.1194 48.56C89.6994 48.56 90.8394 48.3 91.5394 47.78C92.2394 47.26 92.5894 46.58 92.5894 45.74C92.5894 45 92.3494 44.44 91.8694 44.06C91.3894 43.66 90.5294 43.33 89.2894 43.07L85.8994 42.38C83.9594 41.98 82.5094 41.31 81.5494 40.37C80.5894 39.43 80.1094 38.17 80.1094 36.59C80.1094 35.27 80.4594 34.12 81.1594 33.14C81.8594 32.16 82.8394 31.4 84.0994 30.86C85.3594 30.32 86.8294 30.05 88.5094 30.05C90.0094 30.05 91.3994 30.27 92.6794 30.71C93.9594 31.13 95.0294 31.74 95.8894 32.54L94.6894 35.42C93.8294 34.7 92.8894 34.17 91.8694 33.83C90.8494 33.47 89.7094 33.29 88.4494 33.29C87.0294 33.29 85.9194 33.57 85.1194 34.13C84.3394 34.67 83.9494 35.42 83.9494 36.38C83.9494 37.12 84.1894 37.71 84.6694 38.15C85.1694 38.59 86.0094 38.93 87.1894 39.17L90.5494 39.83C92.5494 40.23 94.0294 40.89 94.9894 41.81C95.9494 42.71 96.4294 43.93 96.4294 45.47C96.4294 46.73 96.0894 47.84 95.4094 48.8C94.7294 49.74 93.7694 50.48 92.5294 51.02C91.2894 51.54 89.8194 51.8 88.1194 51.8Z" fill="#00B929"/>
<rect x="2" y="2" width="110" height="78" rx="39" stroke="#00B929" stroke-width="4"/>
</svg>
