<svg width="211" height="118" viewBox="0 0 211 118" fill="none" xmlns="http://www.w3.org/2000/svg">
<rect x="2" y="2" width="207" height="114" rx="57" fill="#2F80ED" fill-opacity="0.17"/>
<rect x="2" y="2" width="207" height="114" rx="57" stroke="#2F80ED" stroke-width="4"/>
<path fill-rule="evenodd" clip-rule="evenodd" d="M128 93C128 95.2091 126.209 97 124 97H88C85.7909 97 84 95.2091 84 93V71C84 68.7909 85.7909 67 88 67H96L100 61H112L116 67H124C126.209 67 128 68.7909 128 71V93Z" stroke="#2F80ED" stroke-width="5" stroke-linecap="round" stroke-linejoin="round"/>
<path fill-rule="evenodd" clip-rule="evenodd" d="M106 89C110.418 89 114 85.4183 114 81C114 76.5817 110.418 73 106 73C101.582 73 98 76.5817 98 81C98 85.4183 101.582 89 106 89Z" stroke="#2F80ED" stroke-width="5" stroke-linecap="round" stroke-linejoin="round"/>
<path d="M56.5339 44V26.03H49.5439V22.85H67.3939V26.03H60.4039V44H56.5339ZM66.6943 44L76.2643 22.85H79.5043L89.1943 44H85.2643L82.6843 38.06L84.2443 39.11H71.5543L73.1743 38.06L70.5943 44H66.6943ZM77.8543 26.99L73.6243 37.01L72.8443 36.08H82.9243L82.2943 37.01L77.9743 26.99H77.8543ZM92.7843 44V22.85H96.6543V32.21H96.7143L105.924 22.85H110.604L99.5643 33.86L99.5943 32.18L111.324 44H106.494L96.7143 34.22H96.6543V44H92.7843ZM114.015 44V22.85H128.265V25.88H117.735V31.73H127.575V34.79H117.735V40.94H128.265V44H114.015ZM152.429 44.3C150.229 44.3 148.339 43.86 146.759 42.98C145.199 42.08 143.999 40.82 143.159 39.2C142.319 37.56 141.899 35.63 141.899 33.41C141.899 31.19 142.319 29.27 143.159 27.65C143.999 26.03 145.199 24.78 146.759 23.9C148.339 23 150.229 22.55 152.429 22.55C153.909 22.55 155.239 22.76 156.419 23.18C157.619 23.6 158.649 24.22 159.509 25.04L158.249 28.1C157.309 27.34 156.399 26.8 155.519 26.48C154.659 26.14 153.669 25.97 152.549 25.97C150.409 25.97 148.769 26.62 147.629 27.92C146.509 29.2 145.949 31.03 145.949 33.41C145.949 35.79 146.509 37.63 147.629 38.93C148.769 40.23 150.409 40.88 152.549 40.88C153.669 40.88 154.659 40.72 155.519 40.4C156.399 40.06 157.309 39.5 158.249 38.72L159.509 41.78C158.649 42.58 157.619 43.2 156.419 43.64C155.239 44.08 153.909 44.3 152.429 44.3Z" fill="#2F80ED"/>
</svg>
