<svg width="100" height="52" viewBox="0 0 100 52" fill="none" xmlns="http://www.w3.org/2000/svg">
<rect x="0.25" y="0.25" width="99.5" height="51.5" rx="25.75" fill="#E02B2B"/>
<rect x="0.25" y="0.25" width="99.5" height="51.5" rx="25.75" stroke="#323F4B" stroke-width="0.5"/>
<path d="M37.0387 31.65C36.1887 31.65 35.4037 31.545 34.6837 31.335C33.9737 31.115 33.3637 30.815 32.8537 30.435L33.4537 28.92C33.7937 29.16 34.1487 29.365 34.5187 29.535C34.8887 29.695 35.2837 29.82 35.7037 29.91C36.1237 29.99 36.5687 30.03 37.0387 30.03C37.8287 30.03 38.3987 29.9 38.7487 29.64C39.0987 29.38 39.2737 29.04 39.2737 28.62C39.2737 28.25 39.1537 27.97 38.9137 27.78C38.6737 27.58 38.2437 27.415 37.6237 27.285L35.9287 26.94C34.9587 26.74 34.2337 26.405 33.7537 25.935C33.2737 25.465 33.0337 24.835 33.0337 24.045C33.0337 23.385 33.2087 22.81 33.5587 22.32C33.9087 21.83 34.3987 21.45 35.0287 21.18C35.6587 20.91 36.3937 20.775 37.2337 20.775C37.9837 20.775 38.6787 20.885 39.3187 21.105C39.9587 21.315 40.4937 21.62 40.9237 22.02L40.3237 23.46C39.8937 23.1 39.4237 22.835 38.9137 22.665C38.4037 22.485 37.8337 22.395 37.2037 22.395C36.4937 22.395 35.9387 22.535 35.5387 22.815C35.1487 23.085 34.9537 23.46 34.9537 23.94C34.9537 24.31 35.0737 24.605 35.3137 24.825C35.5637 25.045 35.9837 25.215 36.5737 25.335L38.2537 25.665C39.2537 25.865 39.9937 26.195 40.4737 26.655C40.9537 27.105 41.1937 27.715 41.1937 28.485C41.1937 29.115 41.0237 29.67 40.6837 30.15C40.3437 30.62 39.8637 30.99 39.2437 31.26C38.6237 31.52 37.8887 31.65 37.0387 31.65ZM43.9217 26.205C43.9217 25.095 44.1217 24.135 44.5217 23.325C44.9317 22.515 45.5167 21.89 46.2767 21.45C47.0367 21 47.9417 20.775 48.9917 20.775C50.0317 20.775 50.9317 21 51.6917 21.45C52.4517 21.89 53.0367 22.515 53.4467 23.325C53.8667 24.135 54.0767 25.09 54.0767 26.19C54.0767 27.3 53.8667 28.265 53.4467 29.085C53.0367 29.895 52.4517 30.525 51.6917 30.975C50.9317 31.425 50.0317 31.65 48.9917 31.65C47.9417 31.65 47.0367 31.425 46.2767 30.975C45.5267 30.525 44.9467 29.895 44.5367 29.085C44.1267 28.265 43.9217 27.305 43.9217 26.205ZM45.9467 26.205C45.9467 27.395 46.2017 28.325 46.7117 28.995C47.2217 29.665 47.9817 30 48.9917 30C49.9717 30 50.7267 29.665 51.2567 28.995C51.7867 28.325 52.0517 27.395 52.0517 26.205C52.0517 25.005 51.7867 24.075 51.2567 23.415C50.7367 22.755 49.9817 22.425 48.9917 22.425C47.9817 22.425 47.2217 22.755 46.7117 23.415C46.2017 24.075 45.9467 25.005 45.9467 26.205ZM61.0133 31.65C60.1633 31.65 59.3783 31.545 58.6583 31.335C57.9483 31.115 57.3383 30.815 56.8283 30.435L57.4283 28.92C57.7683 29.16 58.1233 29.365 58.4933 29.535C58.8633 29.695 59.2583 29.82 59.6783 29.91C60.0983 29.99 60.5433 30.03 61.0133 30.03C61.8033 30.03 62.3733 29.9 62.7233 29.64C63.0733 29.38 63.2483 29.04 63.2483 28.62C63.2483 28.25 63.1283 27.97 62.8883 27.78C62.6483 27.58 62.2183 27.415 61.5983 27.285L59.9033 26.94C58.9333 26.74 58.2083 26.405 57.7283 25.935C57.2483 25.465 57.0083 24.835 57.0083 24.045C57.0083 23.385 57.1833 22.81 57.5333 22.32C57.8833 21.83 58.3733 21.45 59.0033 21.18C59.6333 20.91 60.3683 20.775 61.2083 20.775C61.9583 20.775 62.6533 20.885 63.2933 21.105C63.9333 21.315 64.4683 21.62 64.8983 22.02L64.2983 23.46C63.8683 23.1 63.3983 22.835 62.8883 22.665C62.3783 22.485 61.8083 22.395 61.1783 22.395C60.4683 22.395 59.9133 22.535 59.5133 22.815C59.1233 23.085 58.9283 23.46 58.9283 23.94C58.9283 24.31 59.0483 24.605 59.2883 24.825C59.5383 25.045 59.9583 25.215 60.5483 25.335L62.2283 25.665C63.2283 25.865 63.9683 26.195 64.4483 26.655C64.9283 27.105 65.1683 27.715 65.1683 28.485C65.1683 29.115 64.9983 29.67 64.6583 30.15C64.3183 30.62 63.8383 30.99 63.2183 31.26C62.5983 31.52 61.8633 31.65 61.0133 31.65Z" fill="white"/>
</svg>
