<svg width="160" height="52" viewBox="0 0 160 52" fill="none" xmlns="http://www.w3.org/2000/svg">
<rect x="0.25" y="0.25" width="159.5" height="51.5" rx="25.75" fill="#2F80ED"/>
<path d="M61.3161 31.65C60.4661 31.65 59.6811 31.545 58.9611 31.335C58.2511 31.115 57.6411 30.815 57.1311 30.435L57.7311 28.92C58.0711 29.16 58.4261 29.365 58.7961 29.535C59.1661 29.695 59.5611 29.82 59.9811 29.91C60.4011 29.99 60.8461 30.03 61.3161 30.03C62.1061 30.03 62.6761 29.9 63.0261 29.64C63.3761 29.38 63.5511 29.04 63.5511 28.62C63.5511 28.25 63.4311 27.97 63.1911 27.78C62.9511 27.58 62.5211 27.415 61.9011 27.285L60.2061 26.94C59.2361 26.74 58.5111 26.405 58.0311 25.935C57.5511 25.465 57.3111 24.835 57.3111 24.045C57.3111 23.385 57.4861 22.81 57.8361 22.32C58.1861 21.83 58.6761 21.45 59.3061 21.18C59.9361 20.91 60.6711 20.775 61.5111 20.775C62.2611 20.775 62.9561 20.885 63.5961 21.105C64.2361 21.315 64.7711 21.62 65.2011 22.02L64.6011 23.46C64.1711 23.1 63.7011 22.835 63.1911 22.665C62.6811 22.485 62.1111 22.395 61.4811 22.395C60.7711 22.395 60.2161 22.535 59.8161 22.815C59.4261 23.085 59.2311 23.46 59.2311 23.94C59.2311 24.31 59.3511 24.605 59.5911 24.825C59.8411 25.045 60.2611 25.215 60.8511 25.335L62.5311 25.665C63.5311 25.865 64.2711 26.195 64.7511 26.655C65.2311 27.105 65.4711 27.715 65.4711 28.485C65.4711 29.115 65.3011 29.67 64.9611 30.15C64.6211 30.62 64.1411 30.99 63.5211 31.26C62.9011 31.52 62.1661 31.65 61.3161 31.65ZM68.544 31.5V20.925H75.669V22.44H70.404V25.365H75.324V26.895H70.404V29.97H75.669V31.5H68.544ZM78.7149 31.5V20.925H80.1699L86.3049 28.86H85.9149V20.925H87.7149V31.5H86.2599L80.1399 23.565H80.5149V31.5H78.7149ZM91.2882 31.5V20.925H95.1282C96.3382 20.925 97.3582 21.135 98.1882 21.555C99.0282 21.965 99.6632 22.565 100.093 23.355C100.523 24.135 100.738 25.085 100.738 26.205C100.738 27.315 100.523 28.265 100.093 29.055C99.6632 29.845 99.0282 30.45 98.1882 30.87C97.3582 31.29 96.3382 31.5 95.1282 31.5H91.2882ZM93.2232 29.895H95.0082C96.2882 29.895 97.2382 29.59 97.8582 28.98C98.4782 28.37 98.7882 27.445 98.7882 26.205C98.7882 24.955 98.4782 24.03 97.8582 23.43C97.2382 22.82 96.2882 22.515 95.0082 22.515H93.2232V29.895Z" fill="white"/>
<rect x="0.25" y="0.25" width="159.5" height="51.5" rx="25.75" stroke="#323F4B" stroke-width="0.5"/>
</svg>
