<svg width="200" height="200" viewBox="0 0 200 200" fill="none" xmlns="http://www.w3.org/2000/svg">
<path fill-rule="evenodd" clip-rule="evenodd" d="M100 200C155.228 200 200 155.228 200 100C200 44.7715 155.228 0 100 0C44.7715 0 0 44.7715 0 100C0 155.228 44.7715 200 100 200Z" fill="#2F80ED"/>
<path d="M127.908 104.871V121.631C127.908 125.097 125.097 127.908 121.631 127.908H77.6923C74.2257 127.908 71.4154 125.097 71.4154 121.631V77.6922C71.4154 74.2256 74.2257 71.4153 77.6923 71.4153H94.4517" stroke="white" stroke-width="5" stroke-linecap="round" stroke-linejoin="round"/>
<path fill-rule="evenodd" clip-rule="evenodd" d="M118.492 68.2769L131.046 80.8307L99.6615 112.215H87.1077V99.6615L118.492 68.2769V68.2769Z" stroke="white" stroke-width="5" stroke-linecap="round" stroke-linejoin="round"/>
</svg>
