<svg width="278" height="52" viewBox="0 0 278 52" fill="none" xmlns="http://www.w3.org/2000/svg">
<rect x="0.25" y="0.25" width="277.5" height="51.5" rx="25.75" fill="#2F80ED"/>
<path d="M85.7626 31.65C84.2526 31.65 83.1276 31.275 82.3876 30.525C81.6576 29.765 81.2926 28.645 81.2926 27.165V20.925H83.2276V27.15C83.2276 28.09 83.4276 28.8 83.8276 29.28C84.2376 29.76 84.8826 30 85.7626 30C86.6026 30 87.2326 29.76 87.6526 29.28C88.0826 28.8 88.2976 28.09 88.2976 27.15V20.925H90.2026V27.165C90.2026 28.645 89.8276 29.765 89.0776 30.525C88.3376 31.275 87.2326 31.65 85.7626 31.65ZM93.7061 31.5V20.925H98.4011C99.5611 20.925 100.446 21.205 101.056 21.765C101.666 22.325 101.971 23.095 101.971 24.075C101.971 25.045 101.666 25.815 101.056 26.385C100.446 26.955 99.5611 27.24 98.4011 27.24H95.6411V31.5H93.7061ZM95.6411 25.71H98.1761C98.8161 25.71 99.2961 25.57 99.6161 25.29C99.9361 25 100.096 24.595 100.096 24.075C100.096 23.555 99.9361 23.155 99.6161 22.875C99.2961 22.585 98.8161 22.44 98.1761 22.44H95.6411V25.71ZM104.946 31.5V20.925H108.786C109.996 20.925 111.016 21.135 111.846 21.555C112.686 21.965 113.321 22.565 113.751 23.355C114.181 24.135 114.396 25.085 114.396 26.205C114.396 27.315 114.181 28.265 113.751 29.055C113.321 29.845 112.686 30.45 111.846 30.87C111.016 31.29 109.996 31.5 108.786 31.5H104.946ZM106.881 29.895H108.666C109.946 29.895 110.896 29.59 111.516 28.98C112.136 28.37 112.446 27.445 112.446 26.205C112.446 24.955 112.136 24.03 111.516 23.43C110.896 22.82 109.946 22.515 108.666 22.515H106.881V29.895ZM116.232 31.5L121.017 20.925H122.637L127.482 31.5H125.517L124.227 28.53L125.007 29.055H118.662L119.472 28.53L118.182 31.5H116.232ZM121.812 22.995L119.697 28.005L119.307 27.54H124.347L124.032 28.005L121.872 22.995H121.812ZM131.221 31.5V22.515H127.726V20.925H136.651V22.515H133.156V31.5H131.221ZM139.268 31.5V20.925H146.393V22.44H141.128V25.365H146.048V26.895H141.128V29.97H146.393V31.5H139.268ZM154.805 31.5V20.925H156.26L162.395 28.86H162.005V20.925H163.805V31.5H162.35L156.23 23.565H156.605V31.5H154.805ZM167.033 26.205C167.033 25.095 167.233 24.135 167.633 23.325C168.043 22.515 168.628 21.89 169.388 21.45C170.148 21 171.053 20.775 172.103 20.775C173.143 20.775 174.043 21 174.803 21.45C175.563 21.89 176.148 22.515 176.558 23.325C176.978 24.135 177.188 25.09 177.188 26.19C177.188 27.3 176.978 28.265 176.558 29.085C176.148 29.895 175.563 30.525 174.803 30.975C174.043 31.425 173.143 31.65 172.103 31.65C171.053 31.65 170.148 31.425 169.388 30.975C168.638 30.525 168.058 29.895 167.648 29.085C167.238 28.265 167.033 27.305 167.033 26.205ZM169.058 26.205C169.058 27.395 169.313 28.325 169.823 28.995C170.333 29.665 171.093 30 172.103 30C173.083 30 173.838 29.665 174.368 28.995C174.898 28.325 175.163 27.395 175.163 26.205C175.163 25.005 174.898 24.075 174.368 23.415C173.848 22.755 173.093 22.425 172.103 22.425C171.093 22.425 170.333 22.755 169.823 23.415C169.313 24.075 169.058 25.005 169.058 26.205ZM183.111 31.5L179.376 20.925H181.386L184.266 29.595H183.666L186.771 20.925H188.211L191.091 29.595H190.536L193.551 20.925H195.441L191.676 31.5H190.071L187.281 23.37H187.611L184.716 31.5H183.111Z" fill="white"/>
<rect x="0.25" y="0.25" width="277.5" height="51.5" rx="25.75" stroke="#323F4B" stroke-width="0.5"/>
</svg>
