<svg width="211" height="118" viewBox="0 0 211 118" fill="none" xmlns="http://www.w3.org/2000/svg">
<rect x="2" y="2" width="207" height="114" rx="57" fill="#2F80ED" fill-opacity="0.17"/>
<rect x="2" y="2" width="207" height="114" rx="57" stroke="#2F80ED" stroke-width="4"/>
<path fill-rule="evenodd" clip-rule="evenodd" d="M128 93C128 95.2091 126.209 97 124 97H88C85.7909 97 84 95.2091 84 93V71C84 68.7909 85.7909 67 88 67H96L100 61H112L116 67H124C126.209 67 128 68.7909 128 71V93Z" stroke="#2F80ED" stroke-width="5" stroke-linecap="round" stroke-linejoin="round"/>
<path fill-rule="evenodd" clip-rule="evenodd" d="M106 89C110.418 89 114 85.4183 114 81C114 76.5817 110.418 73 106 73C101.582 73 98 76.5817 98 81C98 85.4183 101.582 89 106 89Z" stroke="#2F80ED" stroke-width="5" stroke-linecap="round" stroke-linejoin="round"/>
<path d="M55.5524 44V26.03H48.5624V22.85H66.4124V26.03H59.4224V44H55.5524ZM65.7129 44L75.2829 22.85H78.5229L88.2129 44H84.2829L81.7029 38.06L83.2629 39.11H70.5729L72.1929 38.06L69.6129 44H65.7129ZM76.8729 26.99L72.6429 37.01L71.8629 36.08H81.9429L81.3129 37.01L76.9929 26.99H76.8729ZM91.8029 44V22.85H95.6729V32.21H95.7329L104.943 22.85H109.623L98.5829 33.86L98.6129 32.18L110.343 44H105.513L95.7329 34.22H95.6729V44H91.8029ZM113.033 44V22.85H127.283V25.88H116.753V31.73H126.593V34.79H116.753V40.94H127.283V44H113.033ZM139.268 44L148.838 22.85H152.078L161.768 44H157.838L155.258 38.06L156.818 39.11H144.128L145.748 38.06L143.168 44H139.268ZM150.428 26.99L146.198 37.01L145.418 36.08H155.498L154.868 37.01L150.548 26.99H150.428Z" fill="#2F80ED"/>
</svg>
