<svg width="160" height="52" viewBox="0 0 160 52" fill="none" xmlns="http://www.w3.org/2000/svg">
<rect x="0.25" y="0.25" width="159.5" height="51.5" rx="25.75" fill="#8D0909"/>
<rect x="0.25" y="0.25" width="159.5" height="51.5" rx="25.75" stroke="#323F4B" stroke-width="0.5"/>
<path d="M26.5201 31.5V20.925H28.4551V25.335H33.8701V20.925H35.8051V31.5H33.8701V26.94H28.4551V31.5H26.5201ZM38.2163 31.5L43.0013 20.925H44.6213L49.4663 31.5H47.5013L46.2113 28.53L46.9913 29.055H40.6463L41.4563 28.53L40.1663 31.5H38.2163ZM43.7963 22.995L41.6813 28.005L41.2913 27.54H46.3313L46.0163 28.005L43.8563 22.995H43.7963ZM51.8863 31.5V20.925H56.5063C57.6663 20.925 58.5613 21.2 59.1913 21.75C59.8313 22.3 60.1513 23.065 60.1513 24.045C60.1513 24.695 60.0063 25.25 59.7163 25.71C59.4363 26.17 59.0313 26.525 58.5013 26.775C57.9713 27.015 57.3463 27.135 56.6263 27.135L56.8363 26.85H57.3463C57.7663 26.85 58.1413 26.96 58.4713 27.18C58.8013 27.4 59.0713 27.735 59.2813 28.185L60.8263 31.5H58.6963L57.1363 28.065C56.9963 27.715 56.7813 27.485 56.4913 27.375C56.2113 27.265 55.8713 27.21 55.4713 27.21H53.8213V31.5H51.8863ZM53.8213 25.785H56.1913C56.8713 25.785 57.3863 25.645 57.7363 25.365C58.0963 25.075 58.2763 24.655 58.2763 24.105C58.2763 23.555 58.0963 23.14 57.7363 22.86C57.3863 22.58 56.8713 22.44 56.1913 22.44H53.8213V25.785ZM63.6685 31.5V20.925H67.5085C68.7185 20.925 69.7385 21.135 70.5685 21.555C71.4085 21.965 72.0435 22.565 72.4735 23.355C72.9035 24.135 73.1185 25.085 73.1185 26.205C73.1185 27.315 72.9035 28.265 72.4735 29.055C72.0435 29.845 71.4085 30.45 70.5685 30.87C69.7385 31.29 68.7185 31.5 67.5085 31.5H63.6685ZM65.6035 29.895H67.3885C68.6685 29.895 69.6185 29.59 70.2385 28.98C70.8585 28.37 71.1685 27.445 71.1685 26.205C71.1685 24.955 70.8585 24.03 70.2385 23.43C69.6185 22.82 68.6685 22.515 67.3885 22.515H65.6035V29.895ZM81.7105 31.5V20.925H86.3305C87.4905 20.925 88.3855 21.2 89.0155 21.75C89.6555 22.3 89.9755 23.065 89.9755 24.045C89.9755 24.695 89.8305 25.25 89.5405 25.71C89.2605 26.17 88.8555 26.525 88.3255 26.775C87.7955 27.015 87.1705 27.135 86.4505 27.135L86.6605 26.85H87.1705C87.5905 26.85 87.9655 26.96 88.2955 27.18C88.6255 27.4 88.8955 27.735 89.1055 28.185L90.6505 31.5H88.5205L86.9605 28.065C86.8205 27.715 86.6055 27.485 86.3155 27.375C86.0355 27.265 85.6955 27.21 85.2955 27.21H83.6455V31.5H81.7105ZM83.6455 25.785H86.0155C86.6955 25.785 87.2105 25.645 87.5605 25.365C87.9205 25.075 88.1005 24.655 88.1005 24.105C88.1005 23.555 87.9205 23.14 87.5605 22.86C87.2105 22.58 86.6955 22.44 86.0155 22.44H83.6455V25.785ZM93.4928 31.5V20.925H100.618V22.44H95.3528V25.365H100.273V26.895H95.3528V29.97H100.618V31.5H93.4928ZM107.207 31.65C106.357 31.65 105.572 31.545 104.852 31.335C104.142 31.115 103.532 30.815 103.022 30.435L103.622 28.92C103.962 29.16 104.317 29.365 104.687 29.535C105.057 29.695 105.452 29.82 105.872 29.91C106.292 29.99 106.737 30.03 107.207 30.03C107.997 30.03 108.567 29.9 108.917 29.64C109.267 29.38 109.442 29.04 109.442 28.62C109.442 28.25 109.322 27.97 109.082 27.78C108.842 27.58 108.412 27.415 107.792 27.285L106.097 26.94C105.127 26.74 104.402 26.405 103.922 25.935C103.442 25.465 103.202 24.835 103.202 24.045C103.202 23.385 103.377 22.81 103.727 22.32C104.077 21.83 104.567 21.45 105.197 21.18C105.827 20.91 106.562 20.775 107.402 20.775C108.152 20.775 108.847 20.885 109.487 21.105C110.127 21.315 110.662 21.62 111.092 22.02L110.492 23.46C110.062 23.1 109.592 22.835 109.082 22.665C108.572 22.485 108.002 22.395 107.372 22.395C106.662 22.395 106.107 22.535 105.707 22.815C105.317 23.085 105.122 23.46 105.122 23.94C105.122 24.31 105.242 24.605 105.482 24.825C105.732 25.045 106.152 25.215 106.742 25.335L108.422 25.665C109.422 25.865 110.162 26.195 110.642 26.655C111.122 27.105 111.362 27.715 111.362 28.485C111.362 29.115 111.192 29.67 110.852 30.15C110.512 30.62 110.032 30.99 109.412 31.26C108.792 31.52 108.057 31.65 107.207 31.65ZM114.435 31.5V20.925H121.56V22.44H116.295V25.365H121.215V26.895H116.295V29.97H121.56V31.5H114.435ZM127.023 31.5V22.515H123.528V20.925H132.453V22.515H128.958V31.5H127.023Z" fill="white"/>
</svg>
