<svg width="255" height="82" viewBox="0 0 255 82" fill="none" xmlns="http://www.w3.org/2000/svg">
<rect x="2" y="2" width="251" height="78" rx="39" fill="#00B929" fill-opacity="0.27"/>
<path d="M29.6585 51.8C27.4585 51.8 25.5685 51.36 23.9885 50.48C22.4285 49.58 21.2285 48.32 20.3885 46.7C19.5485 45.06 19.1285 43.13 19.1285 40.91C19.1285 38.69 19.5485 36.77 20.3885 35.15C21.2285 33.53 22.4285 32.28 23.9885 31.4C25.5685 30.5 27.4585 30.05 29.6585 30.05C31.1385 30.05 32.4685 30.26 33.6485 30.68C34.8485 31.1 35.8785 31.72 36.7385 32.54L35.4785 35.6C34.5385 34.84 33.6285 34.3 32.7485 33.98C31.8885 33.64 30.8985 33.47 29.7785 33.47C27.6385 33.47 25.9985 34.12 24.8585 35.42C23.7385 36.7 23.1785 38.53 23.1785 40.91C23.1785 43.29 23.7385 45.13 24.8585 46.43C25.9985 47.73 27.6385 48.38 29.7785 48.38C30.8985 48.38 31.8885 48.22 32.7485 47.9C33.6285 47.56 34.5385 47 35.4785 46.22L36.7385 49.28C35.8785 50.08 34.8485 50.7 33.6485 51.14C32.4685 51.58 31.1385 51.8 29.6585 51.8ZM40.2418 40.91C40.2418 38.69 40.6418 36.77 41.4418 35.15C42.2618 33.53 43.4318 32.28 44.9518 31.4C46.4718 30.5 48.2818 30.05 50.3818 30.05C52.4618 30.05 54.2618 30.5 55.7818 31.4C57.3018 32.28 58.4718 33.53 59.2918 35.15C60.1318 36.77 60.5518 38.68 60.5518 40.88C60.5518 43.1 60.1318 45.03 59.2918 46.67C58.4718 48.29 57.3018 49.55 55.7818 50.45C54.2618 51.35 52.4618 51.8 50.3818 51.8C48.2818 51.8 46.4718 51.35 44.9518 50.45C43.4518 49.55 42.2918 48.29 41.4718 46.67C40.6518 45.03 40.2418 43.11 40.2418 40.91ZM44.2918 40.91C44.2918 43.29 44.8018 45.15 45.8218 46.49C46.8418 47.83 48.3618 48.5 50.3818 48.5C52.3418 48.5 53.8518 47.83 54.9118 46.49C55.9718 45.15 56.5018 43.29 56.5018 40.91C56.5018 38.51 55.9718 36.65 54.9118 35.33C53.8718 34.01 52.3618 33.35 50.3818 33.35C48.3618 33.35 46.8418 34.01 45.8218 35.33C44.8018 36.65 44.2918 38.51 44.2918 40.91ZM65.7951 51.5V30.35H75.0351C77.3551 30.35 79.1451 30.9 80.4051 32C81.6851 33.1 82.3251 34.63 82.3251 36.59C82.3251 37.89 82.0351 39 81.4551 39.92C80.8951 40.84 80.0851 41.55 79.0251 42.05C77.9651 42.53 76.7151 42.77 75.2751 42.77L75.6951 42.2H76.7151C77.5551 42.2 78.3051 42.42 78.9651 42.86C79.6251 43.3 80.1651 43.97 80.5851 44.87L83.6751 51.5H79.4151L76.2951 44.63C76.0151 43.93 75.5851 43.47 75.0051 43.25C74.4451 43.03 73.7651 42.92 72.9651 42.92H69.6651V51.5H65.7951ZM69.6651 40.07H74.4051C75.7651 40.07 76.7951 39.79 77.4951 39.23C78.2151 38.65 78.5751 37.81 78.5751 36.71C78.5751 35.61 78.2151 34.78 77.4951 34.22C76.7951 33.66 75.7651 33.38 74.4051 33.38H69.6651V40.07ZM88.1095 51.5V30.35H97.3495C99.6695 30.35 101.46 30.9 102.72 32C104 33.1 104.64 34.63 104.64 36.59C104.64 37.89 104.35 39 103.77 39.92C103.21 40.84 102.4 41.55 101.34 42.05C100.28 42.53 99.0295 42.77 97.5895 42.77L98.0095 42.2H99.0295C99.8695 42.2 100.62 42.42 101.28 42.86C101.94 43.3 102.48 43.97 102.9 44.87L105.99 51.5H101.73L98.6095 44.63C98.3295 43.93 97.8995 43.47 97.3195 43.25C96.7595 43.03 96.0795 42.92 95.2795 42.92H91.9795V51.5H88.1095ZM91.9795 40.07H96.7195C98.0795 40.07 99.1095 39.79 99.8095 39.23C100.53 38.65 100.89 37.81 100.89 36.71C100.89 35.61 100.53 34.78 99.8095 34.22C99.1095 33.66 98.0795 33.38 96.7195 33.38H91.9795V40.07ZM110.424 51.5V30.35H124.674V33.38H114.144V39.23H123.984V42.29H114.144V48.44H124.674V51.5H110.424ZM139.326 51.8C137.126 51.8 135.236 51.36 133.656 50.48C132.096 49.58 130.896 48.32 130.056 46.7C129.216 45.06 128.796 43.13 128.796 40.91C128.796 38.69 129.216 36.77 130.056 35.15C130.896 33.53 132.096 32.28 133.656 31.4C135.236 30.5 137.126 30.05 139.326 30.05C140.806 30.05 142.136 30.26 143.316 30.68C144.516 31.1 145.546 31.72 146.406 32.54L145.146 35.6C144.206 34.84 143.296 34.3 142.416 33.98C141.556 33.64 140.566 33.47 139.446 33.47C137.306 33.47 135.666 34.12 134.526 35.42C133.406 36.7 132.846 38.53 132.846 40.91C132.846 43.29 133.406 45.13 134.526 46.43C135.666 47.73 137.306 48.38 139.446 48.38C140.566 48.38 141.556 48.22 142.416 47.9C143.296 47.56 144.206 47 145.146 46.22L146.406 49.28C145.546 50.08 144.516 50.7 143.316 51.14C142.136 51.58 140.806 51.8 139.326 51.8ZM155.961 51.5V33.53H148.971V30.35H166.821V33.53H159.831V51.5H155.961ZM177.947 51.5L187.517 30.35H190.757L200.447 51.5H196.517L193.937 45.56L195.497 46.61H182.807L184.427 45.56L181.847 51.5H177.947ZM189.107 34.49L184.877 44.51L184.097 43.58H194.177L193.547 44.51L189.227 34.49H189.107ZM204.037 51.5V30.35H207.907V48.23H217.867V51.5H204.037ZM222.074 51.5V30.35H225.944V48.23H235.904V51.5H222.074Z" fill="#00B929"/>
<rect x="2" y="2" width="251" height="78" rx="39" stroke="#00B929" stroke-width="4"/>
</svg>
