<svg width="114" height="82" viewBox="0 0 114 82" fill="none" xmlns="http://www.w3.org/2000/svg">
<rect x="2" y="2" width="110" height="78" rx="39" fill="#E02B2B" fill-opacity="0.26"/>
<path d="M35.6857 51.5V30.35H43.3657C45.7857 30.35 47.8257 30.77 49.4857 31.61C51.1657 32.43 52.4357 33.63 53.2957 35.21C54.1557 36.77 54.5857 38.67 54.5857 40.91C54.5857 43.13 54.1557 45.03 53.2957 46.61C52.4357 48.19 51.1657 49.4 49.4857 50.24C47.8257 51.08 45.7857 51.5 43.3657 51.5H35.6857ZM39.5557 48.29H43.1257C45.6857 48.29 47.5857 47.68 48.8257 46.46C50.0657 45.24 50.6857 43.39 50.6857 40.91C50.6857 38.41 50.0657 36.56 48.8257 35.36C47.5857 34.14 45.6857 33.53 43.1257 33.53H39.5557V48.29ZM68.6073 51.8C65.5873 51.8 63.3373 51.05 61.8573 49.55C60.3973 48.03 59.6673 45.79 59.6673 42.83V30.35H63.5373V42.8C63.5373 44.68 63.9373 46.1 64.7373 47.06C65.5573 48.02 66.8473 48.5 68.6073 48.5C70.2873 48.5 71.5473 48.02 72.3873 47.06C73.2473 46.1 73.6773 44.68 73.6773 42.8V30.35H77.4873V42.83C77.4873 45.79 76.7373 48.03 75.2373 49.55C73.7573 51.05 71.5473 51.8 68.6073 51.8Z" fill="#E02B2B"/>
<rect x="2" y="2" width="110" height="78" rx="39" stroke="#E02B2B" stroke-width="4"/>
</svg>
