<svg width="278" height="52" viewBox="0 0 278 52" fill="none" xmlns="http://www.w3.org/2000/svg">
<rect x="0.25" y="0.25" width="277.5" height="51.5" rx="25.75" fill="#2F80ED"/>
<path d="M81.3429 31.5V20.925H86.0379C87.1979 20.925 88.0829 21.205 88.6929 21.765C89.3029 22.325 89.6079 23.095 89.6079 24.075C89.6079 25.045 89.3029 25.815 88.6929 26.385C88.0829 26.955 87.1979 27.24 86.0379 27.24H83.2779V31.5H81.3429ZM83.2779 25.71H85.8129C86.4529 25.71 86.9329 25.57 87.2529 25.29C87.5729 25 87.7329 24.595 87.7329 24.075C87.7329 23.555 87.5729 23.155 87.2529 22.875C86.9329 22.585 86.4529 22.44 85.8129 22.44H83.2779V25.71ZM92.5831 31.5V20.925H99.7081V22.44H94.4431V25.365H99.3631V26.895H94.4431V29.97H99.7081V31.5H92.5831ZM102.754 31.5V20.925H107.374C108.534 20.925 109.429 21.2 110.059 21.75C110.699 22.3 111.019 23.065 111.019 24.045C111.019 24.695 110.874 25.25 110.584 25.71C110.304 26.17 109.899 26.525 109.369 26.775C108.839 27.015 108.214 27.135 107.494 27.135L107.704 26.85H108.214C108.634 26.85 109.009 26.96 109.339 27.18C109.669 27.4 109.939 27.735 110.149 28.185L111.694 31.5H109.564L108.004 28.065C107.864 27.715 107.649 27.485 107.359 27.375C107.079 27.265 106.739 27.21 106.339 27.21H104.689V31.5H102.754ZM104.689 25.785H107.059C107.739 25.785 108.254 25.645 108.604 25.365C108.964 25.075 109.144 24.655 109.144 24.105C109.144 23.555 108.964 23.14 108.604 22.86C108.254 22.58 107.739 22.44 107.059 22.44H104.689V25.785ZM114.551 31.5V20.925H116.246L120.131 29.67H119.666L123.551 20.925H125.231V31.5H123.476V23.655H124.016L120.461 31.5H119.306L115.751 23.655H116.306V31.5H114.551ZM128.838 31.5V20.925H130.773V31.5H128.838ZM138.041 31.65C137.191 31.65 136.406 31.545 135.686 31.335C134.976 31.115 134.366 30.815 133.856 30.435L134.456 28.92C134.796 29.16 135.151 29.365 135.521 29.535C135.891 29.695 136.286 29.82 136.706 29.91C137.126 29.99 137.571 30.03 138.041 30.03C138.831 30.03 139.401 29.9 139.751 29.64C140.101 29.38 140.276 29.04 140.276 28.62C140.276 28.25 140.156 27.97 139.916 27.78C139.676 27.58 139.246 27.415 138.626 27.285L136.931 26.94C135.961 26.74 135.236 26.405 134.756 25.935C134.276 25.465 134.036 24.835 134.036 24.045C134.036 23.385 134.211 22.81 134.561 22.32C134.911 21.83 135.401 21.45 136.031 21.18C136.661 20.91 137.396 20.775 138.236 20.775C138.986 20.775 139.681 20.885 140.321 21.105C140.961 21.315 141.496 21.62 141.926 22.02L141.326 23.46C140.896 23.1 140.426 22.835 139.916 22.665C139.406 22.485 138.836 22.395 138.206 22.395C137.496 22.395 136.941 22.535 136.541 22.815C136.151 23.085 135.956 23.46 135.956 23.94C135.956 24.31 136.076 24.605 136.316 24.825C136.566 25.045 136.986 25.215 137.576 25.335L139.256 25.665C140.256 25.865 140.996 26.195 141.476 26.655C141.956 27.105 142.196 27.715 142.196 28.485C142.196 29.115 142.026 29.67 141.686 30.15C141.346 30.62 140.866 30.99 140.246 31.26C139.626 31.52 138.891 31.65 138.041 31.65ZM148.959 31.65C148.109 31.65 147.324 31.545 146.604 31.335C145.894 31.115 145.284 30.815 144.774 30.435L145.374 28.92C145.714 29.16 146.069 29.365 146.439 29.535C146.809 29.695 147.204 29.82 147.624 29.91C148.044 29.99 148.489 30.03 148.959 30.03C149.749 30.03 150.319 29.9 150.669 29.64C151.019 29.38 151.194 29.04 151.194 28.62C151.194 28.25 151.074 27.97 150.834 27.78C150.594 27.58 150.164 27.415 149.544 27.285L147.849 26.94C146.879 26.74 146.154 26.405 145.674 25.935C145.194 25.465 144.954 24.835 144.954 24.045C144.954 23.385 145.129 22.81 145.479 22.32C145.829 21.83 146.319 21.45 146.949 21.18C147.579 20.91 148.314 20.775 149.154 20.775C149.904 20.775 150.599 20.885 151.239 21.105C151.879 21.315 152.414 21.62 152.844 22.02L152.244 23.46C151.814 23.1 151.344 22.835 150.834 22.665C150.324 22.485 149.754 22.395 149.124 22.395C148.414 22.395 147.859 22.535 147.459 22.815C147.069 23.085 146.874 23.46 146.874 23.94C146.874 24.31 146.994 24.605 147.234 24.825C147.484 25.045 147.904 25.215 148.494 25.335L150.174 25.665C151.174 25.865 151.914 26.195 152.394 26.655C152.874 27.105 153.114 27.715 153.114 28.485C153.114 29.115 152.944 29.67 152.604 30.15C152.264 30.62 151.784 30.99 151.164 31.26C150.544 31.52 149.809 31.65 148.959 31.65ZM156.187 31.5V20.925H158.122V31.5H156.187ZM161.354 26.205C161.354 25.095 161.554 24.135 161.954 23.325C162.364 22.515 162.949 21.89 163.709 21.45C164.469 21 165.374 20.775 166.424 20.775C167.464 20.775 168.364 21 169.124 21.45C169.884 21.89 170.469 22.515 170.879 23.325C171.299 24.135 171.509 25.09 171.509 26.19C171.509 27.3 171.299 28.265 170.879 29.085C170.469 29.895 169.884 30.525 169.124 30.975C168.364 31.425 167.464 31.65 166.424 31.65C165.374 31.65 164.469 31.425 163.709 30.975C162.959 30.525 162.379 29.895 161.969 29.085C161.559 28.265 161.354 27.305 161.354 26.205ZM163.379 26.205C163.379 27.395 163.634 28.325 164.144 28.995C164.654 29.665 165.414 30 166.424 30C167.404 30 168.159 29.665 168.689 28.995C169.219 28.325 169.484 27.395 169.484 26.205C169.484 25.005 169.219 24.075 168.689 23.415C168.169 22.755 167.414 22.425 166.424 22.425C165.414 22.425 164.654 22.755 164.144 23.415C163.634 24.075 163.379 25.005 163.379 26.205ZM174.756 31.5V20.925H176.211L182.346 28.86H181.956V20.925H183.756V31.5H182.301L176.181 23.565H176.556V31.5H174.756ZM191.019 31.65C190.169 31.65 189.384 31.545 188.664 31.335C187.954 31.115 187.344 30.815 186.834 30.435L187.434 28.92C187.774 29.16 188.129 29.365 188.499 29.535C188.869 29.695 189.264 29.82 189.684 29.91C190.104 29.99 190.549 30.03 191.019 30.03C191.809 30.03 192.379 29.9 192.729 29.64C193.079 29.38 193.254 29.04 193.254 28.62C193.254 28.25 193.134 27.97 192.894 27.78C192.654 27.58 192.224 27.415 191.604 27.285L189.909 26.94C188.939 26.74 188.214 26.405 187.734 25.935C187.254 25.465 187.014 24.835 187.014 24.045C187.014 23.385 187.189 22.81 187.539 22.32C187.889 21.83 188.379 21.45 189.009 21.18C189.639 20.91 190.374 20.775 191.214 20.775C191.964 20.775 192.659 20.885 193.299 21.105C193.939 21.315 194.474 21.62 194.904 22.02L194.304 23.46C193.874 23.1 193.404 22.835 192.894 22.665C192.384 22.485 191.814 22.395 191.184 22.395C190.474 22.395 189.919 22.535 189.519 22.815C189.129 23.085 188.934 23.46 188.934 23.94C188.934 24.31 189.054 24.605 189.294 24.825C189.544 25.045 189.964 25.215 190.554 25.335L192.234 25.665C193.234 25.865 193.974 26.195 194.454 26.655C194.934 27.105 195.174 27.715 195.174 28.485C195.174 29.115 195.004 29.67 194.664 30.15C194.324 30.62 193.844 30.99 193.224 31.26C192.604 31.52 191.869 31.65 191.019 31.65Z" fill="white"/>
<rect x="0.25" y="0.25" width="277.5" height="51.5" rx="25.75" stroke="#323F4B" stroke-width="0.5"/>
</svg>
