<svg width="160" height="52" viewBox="0 0 160 52" fill="none" xmlns="http://www.w3.org/2000/svg">
<rect x="0.25" y="0.25" width="159.5" height="51.5" rx="25.75" fill="#2F80ED"/>
<path d="M44.6402 31.5V20.925H46.5752V31.5H44.6402ZM50.1529 31.5V20.925H51.6079L57.7429 28.86H57.3529V20.925H59.1529V31.5H57.6979L51.5779 23.565H51.9529V31.5H50.1529ZM66.4162 31.65C65.5662 31.65 64.7812 31.545 64.0612 31.335C63.3512 31.115 62.7412 30.815 62.2312 30.435L62.8312 28.92C63.1712 29.16 63.5262 29.365 63.8962 29.535C64.2662 29.695 64.6612 29.82 65.0812 29.91C65.5012 29.99 65.9462 30.03 66.4162 30.03C67.2062 30.03 67.7762 29.9 68.1262 29.64C68.4762 29.38 68.6512 29.04 68.6512 28.62C68.6512 28.25 68.5312 27.97 68.2912 27.78C68.0512 27.58 67.6212 27.415 67.0012 27.285L65.3062 26.94C64.3362 26.74 63.6112 26.405 63.1312 25.935C62.6512 25.465 62.4112 24.835 62.4112 24.045C62.4112 23.385 62.5862 22.81 62.9362 22.32C63.2862 21.83 63.7762 21.45 64.4062 21.18C65.0362 20.91 65.7712 20.775 66.6112 20.775C67.3612 20.775 68.0562 20.885 68.6962 21.105C69.3362 21.315 69.8712 21.62 70.3012 22.02L69.7012 23.46C69.2712 23.1 68.8012 22.835 68.2912 22.665C67.7812 22.485 67.2112 22.395 66.5812 22.395C65.8712 22.395 65.3162 22.535 64.9162 22.815C64.5262 23.085 64.3312 23.46 64.3312 23.94C64.3312 24.31 64.4512 24.605 64.6912 24.825C64.9412 25.045 65.3612 25.215 65.9512 25.335L67.6312 25.665C68.6312 25.865 69.3712 26.195 69.8512 26.655C70.3312 27.105 70.5712 27.715 70.5712 28.485C70.5712 29.115 70.4012 29.67 70.0612 30.15C69.7212 30.62 69.2412 30.99 68.6212 31.26C68.0012 31.52 67.2662 31.65 66.4162 31.65ZM73.6441 31.5V20.925H78.3391C79.4991 20.925 80.3841 21.205 80.9941 21.765C81.6041 22.325 81.9091 23.095 81.9091 24.075C81.9091 25.045 81.6041 25.815 80.9941 26.385C80.3841 26.955 79.4991 27.24 78.3391 27.24H75.5791V31.5H73.6441ZM75.5791 25.71H78.1141C78.7541 25.71 79.2341 25.57 79.5541 25.29C79.8741 25 80.0341 24.595 80.0341 24.075C80.0341 23.555 79.8741 23.155 79.5541 22.875C79.2341 22.585 78.7541 22.44 78.1141 22.44H75.5791V25.71ZM84.8844 31.5V20.925H92.0094V22.44H86.7444V25.365H91.6644V26.895H86.7444V29.97H92.0094V31.5H84.8844ZM99.9606 31.65C98.8606 31.65 97.9156 31.43 97.1256 30.99C96.3456 30.54 95.7456 29.91 95.3256 29.1C94.9056 28.28 94.6956 27.315 94.6956 26.205C94.6956 25.095 94.9056 24.135 95.3256 23.325C95.7456 22.515 96.3456 21.89 97.1256 21.45C97.9156 21 98.8606 20.775 99.9606 20.775C100.701 20.775 101.366 20.88 101.956 21.09C102.556 21.3 103.071 21.61 103.501 22.02L102.871 23.55C102.401 23.17 101.946 22.9 101.506 22.74C101.076 22.57 100.581 22.485 100.021 22.485C98.9506 22.485 98.1306 22.81 97.5606 23.46C97.0006 24.1 96.7206 25.015 96.7206 26.205C96.7206 27.395 97.0006 28.315 97.5606 28.965C98.1306 29.615 98.9506 29.94 100.021 29.94C100.581 29.94 101.076 29.86 101.506 29.7C101.946 29.53 102.401 29.25 102.871 28.86L103.501 30.39C103.071 30.79 102.556 31.1 101.956 31.32C101.366 31.54 100.701 31.65 99.9606 31.65ZM108.903 31.5V22.515H105.408V20.925H114.333V22.515H110.838V31.5H108.903Z" fill="white"/>
<rect x="0.25" y="0.25" width="159.5" height="51.5" rx="25.75" stroke="#323F4B" stroke-width="0.5"/>
</svg>
